<svg xmlns="http://www.w3.org/2000/svg" xmlns:xlink="http://www.w3.org/1999/xlink" width="55.579" height="55.579" viewBox="0 0 55.579 55.579"><defs><style>.a{opacity:0.6;}.b{fill:url(#a);}.c{fill:url(#b);}</style><linearGradient id="a" x1="0.5" x2="0.5" y2="1" gradientUnits="objectBoundingBox"><stop offset="0" stop-color="#db2032"/><stop offset="1" stop-color="#452d7b"/></linearGradient><linearGradient id="b" x1="0.5" x2="0.5" y2="1" gradientUnits="objectBoundingBox"><stop offset="0" stop-color="#e77985"/><stop offset="1" stop-color="#452d7b"/></linearGradient></defs><g class="a"><path class="b" d="M53.264,23.78a6.864,6.864,0,0,0-5.806-1.56,3.762,3.762,0,0,0-3.09,3.7V28.6a3.763,3.763,0,0,0,2.6,3.582,19.665,19.665,0,0,1-13.9,14.566,3.782,3.782,0,0,0-3.5-2.379H26.035a3.778,3.778,0,0,0-3.73,3.256,7.5,7.5,0,0,0,.162,2.928,17.948,17.948,0,0,1-2.229-.408A24.633,24.633,0,1,1,49.562,18.277a.814.814,0,0,0-.536,1.513l1.45.8a.808.808,0,0,0,.12.059h0a.811.811,0,0,0,.195.05H50.8a.8.8,0,0,0,.084.005h.023A.8.8,0,0,0,51,20.7l.016,0a.815.815,0,0,0,.085-.017l.011,0,.012,0,.04-.014.021-.007c.02-.007.039-.016.058-.025l.016-.007c.021-.01.04-.021.06-.033l.009-.005q.032-.02.063-.043h0a.815.815,0,0,0,.22-.253l.819-1.478a.814.814,0,0,0-1.293-.964A26.26,26.26,0,0,0,0,26.259,25.987,25.987,0,0,0,5.646,42.528a26.4,26.4,0,0,0,14.2,9.2,20.156,20.156,0,0,0,3.336.536,6.691,6.691,0,0,0,.848,1.142,6.765,6.765,0,0,0,4.984,2.174q.2,0,.4-.011A27.811,27.811,0,0,0,55.57,29.27a6.8,6.8,0,0,0-2.306-5.49Zm.68,5.405A26.131,26.131,0,0,1,29.313,53.942,5.155,5.155,0,0,1,25.221,52.3a5.354,5.354,0,0,1-1.3-4.451A2.144,2.144,0,0,1,26.035,46h3.538a2.144,2.144,0,0,1,2.109,1.808v.365a.814.814,0,0,0,1.6.206A21.354,21.354,0,0,0,48.6,32.35a.814.814,0,0,0-.216-1.6H48L47.75,30.7A2.136,2.136,0,0,1,46,28.6V25.924a2.135,2.135,0,0,1,1.753-2.1,5.175,5.175,0,0,1,6.195,5.363Z"/><path class="c" d="M110.059,76.419a.814.814,0,0,0-1.151,0l-31.5,31.5a.814.814,0,0,0,1.151,1.151l31.5-31.5a.814.814,0,0,0,0-1.151Z" transform="translate(-68.794 -67.911)"/><path class="c" d="M68.226,132.512l-4.5,3.931a.815.815,0,0,0,.536,1.428h5.431a.817.817,0,0,0,0-1.633H66.442l2.859-2.5a3.537,3.537,0,0,0-2.321-6.195c-3.339,0-4.474,4.347-2.713,4.347a.815.815,0,0,0,.815-.815,1.9,1.9,0,1,1,3.146,1.432Z" transform="translate(-56.555 -113.702)"/><path class="c" d="M133.324,129.635l-1.736,5a.815.815,0,0,0,.77,1.082h4.071c0,1.395-.07,1.624.24,1.934a.818.818,0,0,0,1.394-.578v-1.356h1.354a.817.817,0,0,0,0-1.634h-1.354l0-5.7a.815.815,0,0,0-1.629,0v5.7h-2.922c.017-.048,1.347-3.87,1.361-3.919a.816.816,0,0,0-1.543-.528Z" transform="translate(-117.263 -113.719)"/><path class="c" d="M267.246,257.831a.813.813,0,0,0,1.091-.365l4.34-8.7a.814.814,0,0,0-.728-1.177h-4.989a.814.814,0,0,0,0,1.628h3.673l-3.752,7.518a.814.814,0,0,0,.365,1.091Z" transform="translate(-237.256 -220.717)"/></g></svg>