<svg xmlns="http://www.w3.org/2000/svg" width="67" height="67" viewBox="0 0 67 67">
  <g id="Group_23917" data-name="Group 23917" transform="translate(-317 -751)">
    <circle id="Ellipse_126" data-name="Ellipse 126" cx="33.5" cy="33.5" r="33.5" transform="translate(317 751)" fill="#fff"/>
    <path id="Icon_awesome-plus" data-name="Icon awesome-plus" d="M24.66,12.683H16.124V4.147a1.9,1.9,0,0,0-1.9-1.9h-1.9a1.9,1.9,0,0,0-1.9,1.9v8.536H1.9A1.9,1.9,0,0,0,0,14.58v1.9a1.9,1.9,0,0,0,1.9,1.9h8.536V26.91a1.9,1.9,0,0,0,1.9,1.9h1.9a1.9,1.9,0,0,0,1.9-1.9V18.374H24.66a1.9,1.9,0,0,0,1.9-1.9v-1.9A1.9,1.9,0,0,0,24.66,12.683Z" transform="translate(337.717 768.907)" fill="#00b5af"/>
  </g>
</svg>
