<svg xmlns="http://www.w3.org/2000/svg" xmlns:xlink="http://www.w3.org/1999/xlink" width="51" height="59" viewBox="0 0 51 59"><defs><style>.a{opacity:0.595;}.b{fill:url(#a);}</style><linearGradient id="a" x1="0.5" x2="0.5" y2="1" gradientUnits="objectBoundingBox"><stop offset="0" stop-color="#db2032"/><stop offset="1" stop-color="#452d7b"/></linearGradient></defs><g class="a" transform="translate(0 0)"><path class="b" d="M30.869,59a16.092,16.092,0,0,1-16.1-16.091V39.495A16.077,16.077,0,0,1,0,23.467V1.341A1.333,1.333,0,0,1,1.216,0H6.729a1.341,1.341,0,0,1,0,2.682H2.684V23.467a13.422,13.422,0,0,0,26.843,0V2.682H25.478a1.341,1.341,0,1,1,0-2.682h5.387a1.343,1.343,0,0,1,1.342,1.341V23.467A16.077,16.077,0,0,1,17.448,39.495v3.414a13.421,13.421,0,0,0,26.842,0V35.346a5.369,5.369,0,1,1,2.685,0v7.563A16.093,16.093,0,0,1,30.869,59ZM45.632,27.489a2.682,2.682,0,1,0,2.684,2.682A2.654,2.654,0,0,0,45.632,27.489Z" transform="translate(0 0)"/></g></svg>