<svg xmlns="http://www.w3.org/2000/svg" width="180" height="180" viewBox="0 0 180 180"><defs><style>.a{fill:rgba(127,54,140,0.11);stroke:#452d7b;stroke-miterlimit:10;stroke-width:5px;}.b{fill:#452d7b;}</style></defs><g transform="translate(2.5 2.5)"><circle class="a" cx="87.5" cy="87.5" r="87.5"/><g transform="translate(42.636 52.182)"><path class="b" d="M93.059,10.335l-59.9,59.156a6.435,6.435,0,0,1-4.691,1.782,6.728,6.728,0,0,1-4.691-1.782L1.759,47.753a6.077,6.077,0,0,1,0-8.553,5.9,5.9,0,0,1,4.33-1.782A5.631,5.631,0,0,1,10.42,39.2L28.463,57.018,84.4,1.782A5.9,5.9,0,0,1,88.729,0a5.631,5.631,0,0,1,4.33,1.782A6.077,6.077,0,0,1,93.059,10.335Z"/></g></g></svg>