<svg xmlns="http://www.w3.org/2000/svg" width="23" height="30" viewBox="0 0 23 30"><defs><style>.a{fill:none;}.a,.b{stroke:#434343;}.a,.b,.c{stroke-miterlimit:10;}.b{fill:#434343;}.b,.c{stroke-width:0.5px;}.c{fill:#d8213b;stroke:#eb0033;}</style></defs><g transform="translate(0.5 0.5)"><rect class="a" width="22" height="29" rx="4"/><g transform="translate(4 3)"><path class="b" d="M6.99,13.923a6.962,6.962,0,1,1,6.99-6.962A6.984,6.984,0,0,1,6.99,13.923Zm0-13.2a6.242,6.242,0,1,0,6.268,6.242A6.262,6.262,0,0,0,6.99.72Z" transform="translate(0 0)"/><path class="c" d="M4.1,1.755H2.9V.561a.565.565,0,0,0-1.13,0V1.755H.565a.561.561,0,1,0,0,1.121h1.2V4.071a.565.565,0,0,0,1.13,0V2.876H4.1a.561.561,0,1,0,0-1.121Z" transform="translate(4.532 4.646)"/><path class="b" d="M.362,0A.37.37,0,0,0,0,.36.37.37,0,0,0,.362.72H13.378A.37.37,0,0,0,13.74.36.37.37,0,0,0,13.378,0Z" transform="translate(0.121 16.323)"/><path class="b" d="M.362,0A.37.37,0,0,0,0,.36.37.37,0,0,0,.362.72H13.378A.37.37,0,0,0,13.74.36.37.37,0,0,0,13.378,0Z" transform="translate(0.121 18.724)"/><path class="b" d="M.362,0A.37.37,0,0,0,0,.36.37.37,0,0,0,.362.72H13.378A.37.37,0,0,0,13.74.36.37.37,0,0,0,13.378,0Z" transform="translate(0.121 21.125)"/></g></g></svg>