<svg xmlns="http://www.w3.org/2000/svg" width="32" height="33" viewBox="0 0 32 33"><defs><style>.a{fill:#452d7b;}.b{fill:#fff;}</style></defs><ellipse class="a" cx="16" cy="16.5" rx="16" ry="16.5"/><g transform="translate(9 9)"><path class="b" d="M10.015.07a.244.244,0,0,0-.342,0C.416,9.232.945,8.671.892,8.836L.023,11.517A.475.475,0,0,0,.142,12a.487.487,0,0,0,.49.117c2.935-.932,2.788-.863,2.9-.978L12.2,2.569a.238.238,0,0,0,0-.339Z" transform="translate(0.03 2.731)"/><path class="b" d="M1.321.519.071,1.757a.238.238,0,0,0,0,.338l2.181,2.16a.244.244,0,0,0,.342,0l1.25-1.238a1.746,1.746,0,0,0,.524-1.25A1.79,1.79,0,0,0,1.321.519Z" transform="translate(10.658 0.029)"/></g></svg>