<svg xmlns="http://www.w3.org/2000/svg" xmlns:xlink="http://www.w3.org/1999/xlink" width="90" height="90" viewBox="0 0 90 90"><defs><style>.a{fill:url(#a);}.b{fill:#fff;}.c{filter:url(#b);}</style><linearGradient id="a" x1="0.899" y1="1.266" x2="0.292" y2="0.161" gradientUnits="objectBoundingBox"><stop offset="0" stop-color="#db2032"/><stop offset="1" stop-color="#7f368c"/></linearGradient><filter id="b" x="0" y="0" width="90" height="90" filterUnits="userSpaceOnUse"><feOffset dy="3" input="SourceAlpha"/><feGaussianBlur stdDeviation="5.5" result="c"/><feFlood flood-opacity="0.365"/><feComposite operator="in" in2="c"/><feComposite in="SourceGraphic"/></filter></defs><g transform="translate(-243.5 -137.673)"><g class="c" transform="matrix(1, 0, 0, 1, 243.5, 137.67)"><circle class="a" cx="28.5" cy="28.5" r="28.5" transform="translate(16.5 13.5)"/></g><g transform="translate(272.994 161.186)"><g transform="translate(5.734 9.053)"><path class="b" d="M112.722,167.873l-1.555-4.589a.62.62,0,0,0-.587-.421h-.09V153.87a7.875,7.875,0,0,0-15.751,0v8.992h-.09a.62.62,0,0,0-.587.421l-1.555,4.589a.62.62,0,0,0,.587.819h19.041a.62.62,0,0,0,.587-.819Zm-16.743-14a6.635,6.635,0,1,1,13.27,0v8.992H95.979Zm-2.02,13.581,1.135-3.349h15.042l1.135,3.349Z" transform="translate(-92.474 -145.995)"/></g><g transform="translate(15.254)"><path class="b" d="M246.62,0a.62.62,0,0,0-.62.62V4.341a.62.62,0,0,0,1.24,0V.62A.62.62,0,0,0,246.62,0Z" transform="translate(-246)"/></g><g transform="translate(15.254 6.137)"><path class="b" d="M247.058,99.145a.62.62,0,1,0,.182.439A.624.624,0,0,0,247.058,99.145Z" transform="translate(-246 -98.964)"/></g><g transform="translate(2.454 16.598)"><path class="b" d="M43.055,267.66H40.207a.62.62,0,0,0,0,1.24h2.847a.62.62,0,1,0,0-1.24Z" transform="translate(-39.587 -267.66)"/></g><g transform="translate(0 16.598)"><path class="b" d="M1.065,267.842a.62.62,0,0,0-.877,0A.62.62,0,0,0,.627,268.9a.62.62,0,0,0,.438-1.059Z" transform="translate(-0.007 -267.66)"/></g><g transform="translate(9.666 3.106)"><path class="b" d="M157.911,52.505l-.84-2.029a.62.62,0,0,0-1.146.475l.841,2.029a.62.62,0,0,0,1.146-.475Z" transform="translate(-155.877 -50.093)"/></g><g transform="translate(1.763 11.01)"><path class="b" d="M31.317,178.427l-2.029-.841a.62.62,0,0,0-.475,1.146l2.029.841a.62.62,0,0,0,.475-1.146Z" transform="translate(-28.43 -177.54)"/></g><g transform="translate(25.465 16.598)"><path class="b" d="M414.13,267.66h-2.847a.62.62,0,0,0,0,1.24h2.847a.62.62,0,1,0,0-1.24Z" transform="translate(-410.662 -267.66)"/></g><g transform="translate(30.509 16.598)"><path class="b" d="M493.052,267.842a.619.619,0,1,0,.182.438A.624.624,0,0,0,493.052,267.842Z" transform="translate(-491.993 -267.66)"/></g><g transform="translate(24.028 4.774)"><path class="b" d="M391.583,77.163a.62.62,0,0,0-.877,0l-3.051,3.051a.62.62,0,0,0,.877.877l3.051-3.051A.62.62,0,0,0,391.583,77.163Z" transform="translate(-387.473 -76.981)"/></g><g transform="translate(3.43 4.774)"><path class="b" d="M59.431,80.216,56.38,77.165a.62.62,0,1,0-.877.877l3.051,3.051a.62.62,0,1,0,.877-.877Z" transform="translate(-55.321 -76.983)"/></g><g transform="translate(20.002 3.106)"><path class="b" d="M324.26,50.141a.621.621,0,0,0-.81.336l-.84,2.029a.62.62,0,1,0,1.146.475l.841-2.029A.62.62,0,0,0,324.26,50.141Z" transform="translate(-322.562 -50.094)"/></g><g transform="translate(26.717 11.01)"><path class="b" d="M434.065,177.921a.62.62,0,0,0-.81-.336l-2.029.841a.62.62,0,1,0,.475,1.146l2.029-.841A.62.62,0,0,0,434.065,177.921Z" transform="translate(-430.842 -177.539)"/></g><g transform="translate(14.014 12.961)"><path class="b" d="M227.861,209.008a1.862,1.862,0,0,0-1.86,1.86v2.977a1.86,1.86,0,0,0,3.721,0v-2.977A1.862,1.862,0,0,0,227.861,209.008Zm.62,4.837a.62.62,0,0,1-1.24,0v-2.977a.62.62,0,1,1,1.24,0Z" transform="translate(-226.001 -209.008)"/></g><g transform="translate(14.014 20.898)"><path class="b" d="M227.861,337.005a1.86,1.86,0,1,0,1.86,1.86A1.862,1.862,0,0,0,227.861,337.005Zm0,2.48a.62.62,0,1,1,.62-.62A.621.621,0,0,1,227.861,339.485Z" transform="translate(-226.001 -337.005)"/></g></g></g></svg>