<svg xmlns="http://www.w3.org/2000/svg" xmlns:xlink="http://www.w3.org/1999/xlink" width="80" height="81" viewBox="0 0 80 81">
    <defs>
        <path id="ihswb76g5a" d="M40 .827c22.091 0 40 17.762 40 39.673S62.091 80.173 40 80.173 0 62.411 0 40.5 17.909.827 40 .827z"/>
        <path id="uetc6atloc" d="M20.29.826c5.69 0 11.844 1.756 18.462 5.27 1.357.72 2.058 2.265 1.706 3.761l-2.041 8.693c-.427 1.819-2.247 2.947-4.065 2.52-.082-.02-.164-.042-.244-.067l-4.536-1.431c-1.408-.444-2.365-1.75-2.365-3.226V12.28c-2.305-1.09-4.611-1.636-6.917-1.636s-4.612.546-6.918 1.636v4.066c0 1.476-.957 2.782-2.364 3.226l-4.536 1.43c-1.781.562-3.68-.426-4.242-2.208-.026-.08-.048-.162-.067-.244L.12 9.857c-.351-1.496.35-3.04 1.707-3.761C8.446 2.582 14.6.826 20.29.826zm0 3.382c-5.093 0-10.717 1.606-16.877 4.876l2.042 8.693 4.536-1.43v-6.208l1.935-.916c2.747-1.3 5.544-1.961 8.364-1.961 2.82 0 5.617.661 8.363 1.96l1.936.917v6.207l4.536 1.43 2.041-8.692c-6.159-3.27-11.783-4.876-16.876-4.876z"/>
    </defs>
    <g fill="none" fill-rule="evenodd">
        <g>
            <g>
                <g>
                    <g transform="translate(-168 -803) translate(20 803) translate(148)">
                        <mask id="3fwv4461cb" fill="#fff">
                            <use xlink:href="#ihswb76g5a"/>
                        </mask>
                        <path fill="#CC1E32" d="M-8.333 -7.439L88.333 -7.439 88.333 88.439 -8.333 88.439z" mask="url(#3fwv4461cb)"/>
                    </g>
                    <g transform="translate(-168 -803) translate(20 803) translate(148) translate(19.71 30.086)">
                        <mask id="jhq5lb4mfd" fill="#fff">
                            <use xlink:href="#uetc6atloc"/>
                        </mask>
                        <path fill="#FFF" d="M-8.423 -7.63L49.003 -7.63 49.003 29.616 -8.423 29.616z" mask="url(#jhq5lb4mfd)"/>
                    </g>
                </g>
            </g>
        </g>
    </g>
</svg>
