<svg xmlns="http://www.w3.org/2000/svg" xmlns:xlink="http://www.w3.org/1999/xlink" width="414" height="481.481" viewBox="0 0 414 481.481"><defs><style>.a{fill:#fff;}.b,.e{fill:none;}.b{stroke:#707070;}.c{fill:#6d3c92;}.d{fill:#7b3996;}.e{stroke:#7b7b7b;}.e,.f,.g,.h{stroke-miterlimit:10;}.f,.g,.h,.r{fill:#412e7a;}.f,.g,.h{stroke:#412e7a;}.f{stroke-width:0.662px;}.g{stroke-width:0.608px;}.h{stroke-width:0.581px;}.i{fill:url(#a);}.j{fill:url(#b);}.k{fill:#00a654;}.l{fill:#f3924d;}.m{fill:url(#c);}.n{fill:#602160;}.o{fill:url(#d);}.p{fill:#f7964b;}.q{fill:#124ba0;}.s{fill:#462d7b;}.t{fill:#26c0bc;}</style><linearGradient id="a" x1="-0.002" y1="0.493" x2="0.979" y2="0.493" gradientUnits="objectBoundingBox"><stop offset="0" stop-color="#0657c8"/><stop offset="0.577" stop-color="#4598bf"/><stop offset="1" stop-color="#91d8f6"/></linearGradient><linearGradient id="b" x1="0.004" y1="0.481" x2="0.991" y2="0.481" gradientUnits="objectBoundingBox"><stop offset="0" stop-color="#0657c8"/><stop offset="0.242" stop-color="#06b5e3"/><stop offset="0.577" stop-color="#00ade7"/><stop offset="1" stop-color="#2ca49f"/></linearGradient><linearGradient id="c" x1="0.054" y1="0.546" x2="1.065" y2="0.546" gradientUnits="objectBoundingBox"><stop offset="0" stop-color="#ca7096"/><stop offset="0.488" stop-color="#d1147d"/><stop offset="1" stop-color="#991156"/></linearGradient><linearGradient id="d" x1="-0.009" y1="0.516" x2="0.953" y2="0.516" gradientUnits="objectBoundingBox"><stop offset="0" stop-color="#e5bc45"/><stop offset="0.488" stop-color="#f36726"/><stop offset="1" stop-color="#ae262c"/></linearGradient></defs><g transform="translate(0 -177)"><path class="a" d="M206.2-93.027c114.2,0,206.775,91.393,206.775,204.132S320.4,315.238,206.2,315.238-.572,223.845-.572,111.106c0-50.394-1.013-231.921,0-277.348C47.536-79.005,143.051-93.027,206.2-93.027Z" transform="translate(1.022 343.242)"/><g transform="translate(9710.569 1016.656)"><line class="b" y2="101.33" transform="translate(-9537.816 -625.521)"/><g transform="translate(-9522.412 -596.47)"><g transform="translate(0 0)"><circle class="c" cx="14.068" cy="14.068" r="14.068" transform="translate(0.763)"/><path class="c" d="M-159.482,1108.805a14.614,14.614,0,0,0,13.671,7.23s20.769-4.076,26.291,14.853c0,0,4.47,20.244-16.431,24.977,0,0-18.4,4.075-23.136-17.747C-159.088,1138.118-160.272,1127.3-159.482,1108.805Z" transform="translate(159.754 -1085.21)"/></g><g transform="translate(46.14 11.888)"><path class="d" d="M-111.553,1120.263h-5.432a2.016,2.016,0,0,1-1.679-.635,3.269,3.269,0,0,1-.5-2.025v-16.114a3.192,3.192,0,0,1,.515-2.038,2.045,2.045,0,0,1,1.667-.622h5.759a11.229,11.229,0,0,1,2.205.19,4.216,4.216,0,0,1,1.673.731,4.708,4.708,0,0,1,1.115,1.148,5.393,5.393,0,0,1,.74,1.536,6.1,6.1,0,0,1,.255,1.776,5.012,5.012,0,0,1-2.668,4.709,5.124,5.124,0,0,1,3.5,5.234,6.8,6.8,0,0,1-.763,3.239,4.935,4.935,0,0,1-2.061,2.127,6.379,6.379,0,0,1-1.867.579A15.923,15.923,0,0,1-111.553,1120.263Zm-4.013-18.174v5.541h3.3a5.565,5.565,0,0,0,2.078-.306,2.147,2.147,0,0,0,1.122-1.171,3.056,3.056,0,0,0,.3-1.373,2.246,2.246,0,0,0-.958-2.156,6.2,6.2,0,0,0-2.922-.534Zm3.746,8.657h-3.746V1117h3.867q3.647,0,3.649-3.173a2.8,2.8,0,0,0-.946-2.355A4.581,4.581,0,0,0-111.82,1110.746Z" transform="translate(119.166 -1098.463)"/><path class="d" d="M-101.3,1102.7a1.578,1.578,0,0,1-1.181-.512,2.006,2.006,0,0,1-.491-1.448,1.986,1.986,0,0,1,.5-1.4,1.543,1.543,0,0,1,1.17-.548,1.568,1.568,0,0,1,1.14.5,1.959,1.959,0,0,1,.5,1.446,2.022,2.022,0,0,1-.485,1.44A1.521,1.521,0,0,1-101.3,1102.7Zm1.637,4.123v11.537a2.938,2.938,0,0,1-.473,1.812,1.454,1.454,0,0,1-1.2.615,1.4,1.4,0,0,1-1.182-.63,3.033,3.033,0,0,1-.455-1.8v-11.42a2.923,2.923,0,0,1,.455-1.784,1.414,1.414,0,0,1,1.182-.6,1.463,1.463,0,0,1,1.2.6A2.632,2.632,0,0,1-99.66,1106.821Z" transform="translate(121.382 -1098.468)"/><path class="d" d="M-93.22,1114.451v3.373a2.988,2.988,0,0,1-.473,1.84,1.454,1.454,0,0,1-1.2.615,1.407,1.407,0,0,1-1.175-.622,3.048,3.048,0,0,1-.46-1.833v-11.241q0-2.72,1.612-2.721a1.262,1.262,0,0,1,1.188.636,4.122,4.122,0,0,1,.4,1.879,6.953,6.953,0,0,1,1.219-1.879,2.228,2.228,0,0,1,1.667-.636,3.677,3.677,0,0,1,2.025.636,1.929,1.929,0,0,1,.982,1.685,1.794,1.794,0,0,1-.418,1.221,1.2,1.2,0,0,1-.9.479,3.51,3.51,0,0,1-.88-.272,3.454,3.454,0,0,0-1.23-.274,1.594,1.594,0,0,0-1.188.467,3.121,3.121,0,0,0-.716,1.382,11.576,11.576,0,0,0-.351,2.181Q-93.22,1112.631-93.22,1114.451Z" transform="translate(122.263 -1097.775)"/><path class="d" d="M-85.277,1105h.364v-2.4q0-.965.042-1.513a2.579,2.579,0,0,1,.236-.944,1.679,1.679,0,0,1,.558-.665,1.378,1.378,0,0,1,.812-.256,1.507,1.507,0,0,1,1.14.569,1.809,1.809,0,0,1,.43.929,10.2,10.2,0,0,1,.091,1.557V1105h1.212a1.383,1.383,0,0,1,1.073.4,1.465,1.465,0,0,1,.371,1.031,1.208,1.208,0,0,1-.529,1.125,2.91,2.91,0,0,1-1.509.322H-81.6v7.34a14.343,14.343,0,0,0,.055,1.44,1.635,1.635,0,0,0,.291.82.9.9,0,0,0,.77.314,3.43,3.43,0,0,0,.788-.124,3.438,3.438,0,0,1,.776-.125.931.931,0,0,1,.721.386,1.458,1.458,0,0,1,.322.959,1.62,1.62,0,0,1-.873,1.477,5.034,5.034,0,0,1-2.509.512,3.746,3.746,0,0,1-2.352-.63,2.946,2.946,0,0,1-1.049-1.739,14.2,14.2,0,0,1-.248-2.968v-7.662h-.437a1.408,1.408,0,0,1-1.091-.409,1.474,1.474,0,0,1-.376-1.038,1.414,1.414,0,0,1,.394-1.031A1.532,1.532,0,0,1-85.277,1105Z" transform="translate(123.591 -1098.409)"/><path class="d" d="M-72.018,1101.066v5.923a7.843,7.843,0,0,1,1.231-1.389,4.129,4.129,0,0,1,1.327-.767,4.68,4.68,0,0,1,1.564-.256,3.967,3.967,0,0,1,2.237.643,4.293,4.293,0,0,1,1.534,1.871,5.257,5.257,0,0,1,.473,1.6,15.423,15.423,0,0,1,.121,2.041v7.647a3.021,3.021,0,0,1-.455,1.812,1.428,1.428,0,0,1-1.206.615q-1.635,0-1.636-2.427v-6.741a7.288,7.288,0,0,0-.473-2.947,1.788,1.788,0,0,0-1.794-1.031,2.388,2.388,0,0,0-1.595.607,3.643,3.643,0,0,0-1.061,1.66,12.738,12.738,0,0,0-.267,3.173v5.279a3.089,3.089,0,0,1-.442,1.805,1.427,1.427,0,0,1-1.23.622q-1.637,0-1.637-2.427v-17.313a3.146,3.146,0,0,1,.431-1.82,1.4,1.4,0,0,1,1.206-.607,1.432,1.432,0,0,1,1.23.615A3.083,3.083,0,0,1-72.018,1101.066Z" transform="translate(125.163 -1098.489)"/><path class="d" d="M-55.377,1111.229h-1.261v6.886a3.273,3.273,0,0,1-.5,2,1.565,1.565,0,0,1-1.3.644,1.537,1.537,0,0,1-1.333-.674,3.419,3.419,0,0,1-.473-1.973v-16.493a3.175,3.175,0,0,1,.522-2.033,2.072,2.072,0,0,1,1.685-.629h5.856a14.752,14.752,0,0,1,2.074.125,4.5,4.5,0,0,1,1.551.5,4.537,4.537,0,0,1,1.479,1.214,5.528,5.528,0,0,1,.977,1.835,7.23,7.23,0,0,1,.333,2.214,6.053,6.053,0,0,1-1.121,3.831,6.124,6.124,0,0,1-3.4,2.033,7.04,7.04,0,0,1,1.83,1.813,18.471,18.471,0,0,1,1.557,2.552,20.469,20.469,0,0,1,1.067,2.441,5.6,5.6,0,0,1,.382,1.5,1.763,1.763,0,0,1-.224.84,1.726,1.726,0,0,1-.613.658,1.662,1.662,0,0,1-.9.242,1.541,1.541,0,0,1-1.019-.344,3.093,3.093,0,0,1-.709-.87q-.3-.527-.806-1.551l-1.443-2.894a16.347,16.347,0,0,0-1.388-2.427,3.57,3.57,0,0,0-1.243-1.14A3.625,3.625,0,0,0-55.377,1111.229Zm2.061-9.008h-3.322v5.892h3.224a7.551,7.551,0,0,0,2.183-.27,2.5,2.5,0,0,0,1.352-.92,3.034,3.034,0,0,0,.467-1.792,3.2,3.2,0,0,0-.376-1.571,2.417,2.417,0,0,0-1.042-1.016A6.267,6.267,0,0,0-53.316,1102.221Z" transform="translate(127.227 -1098.445)"/><path class="d" d="M-42.879,1102.7a1.579,1.579,0,0,1-1.182-.512,2.006,2.006,0,0,1-.491-1.448,1.986,1.986,0,0,1,.5-1.4,1.54,1.54,0,0,1,1.17-.548,1.566,1.566,0,0,1,1.139.5,1.959,1.959,0,0,1,.5,1.446,2.022,2.022,0,0,1-.485,1.44A1.519,1.519,0,0,1-42.879,1102.7Zm1.636,4.123v11.537a2.938,2.938,0,0,1-.473,1.812,1.454,1.454,0,0,1-1.2.615,1.4,1.4,0,0,1-1.182-.63,3.033,3.033,0,0,1-.455-1.8v-11.42a2.923,2.923,0,0,1,.455-1.784,1.414,1.414,0,0,1,1.182-.6,1.463,1.463,0,0,1,1.2.6A2.632,2.632,0,0,1-41.243,1106.821Z" transform="translate(129.373 -1098.468)"/><path class="d" d="M-25.7,1106.786v11.594a14.525,14.525,0,0,1-.351,3.422,5.83,5.83,0,0,1-1.127,2.368,4.6,4.6,0,0,1-2.031,1.389,9.263,9.263,0,0,1-3.122.454,7.673,7.673,0,0,1-3.055-.578,5.211,5.211,0,0,1-2.074-1.49,3,3,0,0,1-.726-1.879,1.718,1.718,0,0,1,.412-1.192,1.291,1.291,0,0,1,.994-.46,1.552,1.552,0,0,1,1.273.775c.178.263.361.529.551.8a3.563,3.563,0,0,0,.631.687,2.288,2.288,0,0,0,.83.425,4.089,4.089,0,0,0,1.116.138,3.85,3.85,0,0,0,1.994-.431,2.3,2.3,0,0,0,.994-1.206,5.674,5.674,0,0,0,.333-1.66q.049-.883.074-2.843a6,6,0,0,1-1.764,1.96,4.18,4.18,0,0,1-2.383.672,4.425,4.425,0,0,1-2.9-1.023,6.447,6.447,0,0,1-1.91-2.867,12.466,12.466,0,0,1-.667-4.254,11.979,11.979,0,0,1,.407-3.247,7.241,7.241,0,0,1,1.157-2.441,5.1,5.1,0,0,1,1.734-1.5,4.648,4.648,0,0,1,2.158-.5,4.487,4.487,0,0,1,2.437.65,6.46,6.46,0,0,1,1.916,2.041v-.541a2.649,2.649,0,0,1,.424-1.608,1.3,1.3,0,0,1,1.09-.57,1.241,1.241,0,0,1,1.273.753A5.838,5.838,0,0,1-25.7,1106.786Zm-9.589,5.059a6.35,6.35,0,0,0,.879,3.671,2.675,2.675,0,0,0,2.274,1.243,2.6,2.6,0,0,0,1.557-.534,3.752,3.752,0,0,0,1.195-1.609,6.614,6.614,0,0,0,.46-2.609,6.9,6.9,0,0,0-.891-3.8,2.7,2.7,0,0,0-2.345-1.359,2.608,2.608,0,0,0-2.274,1.3A6.728,6.728,0,0,0-35.292,1111.845Z" transform="translate(130.185 -1097.588)"/><path class="d" d="M-20.908,1100.934v5.922a7.788,7.788,0,0,1,1.23-1.388,4.158,4.158,0,0,1,1.328-.768,4.673,4.673,0,0,1,1.563-.255,3.971,3.971,0,0,1,2.237.642,4.294,4.294,0,0,1,1.534,1.872,5.216,5.216,0,0,1,.473,1.6,15.2,15.2,0,0,1,.122,2.04v7.647a3.033,3.033,0,0,1-.455,1.813,1.43,1.43,0,0,1-1.206.614q-1.637,0-1.637-2.427v-6.741a7.286,7.286,0,0,0-.473-2.946,1.785,1.785,0,0,0-1.794-1.031,2.39,2.39,0,0,0-1.595.607,3.631,3.631,0,0,0-1.061,1.66,12.747,12.747,0,0,0-.266,3.173v5.278a3.1,3.1,0,0,1-.442,1.806,1.429,1.429,0,0,1-1.231.621q-1.637,0-1.637-2.427v-17.312a3.144,3.144,0,0,1,.431-1.82,1.394,1.394,0,0,1,1.206-.607,1.432,1.432,0,0,1,1.231.615A3.09,3.09,0,0,1-20.908,1100.934Z" transform="translate(132.154 -1098.507)"/><path class="d" d="M-10.074,1104.866h.364v-2.4q0-.965.042-1.513a2.577,2.577,0,0,1,.236-.943,1.673,1.673,0,0,1,.558-.665,1.378,1.378,0,0,1,.812-.256,1.507,1.507,0,0,1,1.14.569,1.809,1.809,0,0,1,.43.929,10.191,10.191,0,0,1,.091,1.557v2.72h1.212a1.383,1.383,0,0,1,1.073.4,1.465,1.465,0,0,1,.371,1.031,1.208,1.208,0,0,1-.529,1.125,2.922,2.922,0,0,1-1.509.321H-6.4v7.341a14.345,14.345,0,0,0,.055,1.44,1.625,1.625,0,0,0,.291.818.9.9,0,0,0,.77.315,3.445,3.445,0,0,0,.788-.125,3.422,3.422,0,0,1,.776-.124A.927.927,0,0,1-3,1117.8a1.455,1.455,0,0,1,.322.958,1.619,1.619,0,0,1-.873,1.477,5.019,5.019,0,0,1-2.509.513,3.753,3.753,0,0,1-2.352-.63,2.952,2.952,0,0,1-1.049-1.74,14.191,14.191,0,0,1-.248-2.967v-7.663h-.437a1.408,1.408,0,0,1-1.091-.408,1.479,1.479,0,0,1-.376-1.038,1.414,1.414,0,0,1,.394-1.031A1.532,1.532,0,0,1-10.074,1104.866Z" transform="translate(133.879 -1098.427)"/></g><g transform="translate(46.484 44.97)"><path d="M-115.808,1135.651h-2.18a.847.847,0,0,1-.674-.235,1.138,1.138,0,0,1-.2-.748v-5.957a1.109,1.109,0,0,1,.207-.754.858.858,0,0,1,.668-.231h2.312a4.785,4.785,0,0,1,.886.072,1.774,1.774,0,0,1,.671.269,1.839,1.839,0,0,1,.448.424,1.935,1.935,0,0,1,.3.567,2.094,2.094,0,0,1,.1.657,1.834,1.834,0,0,1-1.07,1.742,1.9,1.9,0,0,1,1.405,1.935,2.35,2.35,0,0,1-.306,1.2,1.908,1.908,0,0,1-.828.787,2.683,2.683,0,0,1-.749.213A6.781,6.781,0,0,1-115.808,1135.651Zm-1.611-6.719v2.048h1.324a2.4,2.4,0,0,0,.834-.114.83.83,0,0,0,.45-.432,1.062,1.062,0,0,0,.12-.508.808.808,0,0,0-.383-.8,2.671,2.671,0,0,0-1.173-.2Zm1.5,3.2h-1.5v2.315h1.553q1.465,0,1.464-1.173a.991.991,0,0,0-.38-.87A1.956,1.956,0,0,0-115.915,1132.131Z" transform="translate(118.864 -1127.592)"/><path d="M-110.724,1134.823v-2.513l-1.742-3a6.322,6.322,0,0,1-.324-.631,1.047,1.047,0,0,1-.094-.4.661.661,0,0,1,.192-.475.63.63,0,0,1,.474-.2.55.55,0,0,1,.45.186,5.617,5.617,0,0,1,.459.744l1.335,2.405,1.347-2.405.2-.373a2.339,2.339,0,0,1,.183-.284.736.736,0,0,1,.221-.2.592.592,0,0,1,.3-.07.593.593,0,0,1,.454.2.65.65,0,0,1,.183.458,1.051,1.051,0,0,1-.092.422,5.617,5.617,0,0,1-.316.582l-1.787,3.043v2.513a1.121,1.121,0,0,1-.2.736.65.65,0,0,1-.521.243.643.643,0,0,1-.521-.241A1.137,1.137,0,0,1-110.724,1134.823Z" transform="translate(119.682 -1127.608)"/><path d="M-102.437,1132.262h-.506v2.545a1.134,1.134,0,0,1-.2.74.647.647,0,0,1-.522.239.634.634,0,0,1-.534-.248,1.19,1.19,0,0,1-.19-.731v-6.1a1.1,1.1,0,0,1,.209-.75.866.866,0,0,1,.676-.234h2.35a6.4,6.4,0,0,1,.832.047,1.923,1.923,0,0,1,.624.188,1.812,1.812,0,0,1,.593.448,1.992,1.992,0,0,1,.391.679,2.5,2.5,0,0,1,.134.817,2.117,2.117,0,0,1-.45,1.418,2.507,2.507,0,0,1-1.365.751,2.717,2.717,0,0,1,.736.671,6.88,6.88,0,0,1,.625.942,7.356,7.356,0,0,1,.429.9,1.953,1.953,0,0,1,.152.554.6.6,0,0,1-.09.31.655.655,0,0,1-.246.243.7.7,0,0,1-.36.09.643.643,0,0,1-.408-.127,1.163,1.163,0,0,1-.285-.321q-.119-.194-.323-.573l-.58-1.071a5.959,5.959,0,0,0-.557-.9,1.412,1.412,0,0,0-.5-.421A1.551,1.551,0,0,0-102.437,1132.262Zm.828-3.33h-1.333v2.178h1.295a3.261,3.261,0,0,0,.875-.1,1,1,0,0,0,.543-.341,1.054,1.054,0,0,0,.186-.661,1.106,1.106,0,0,0-.15-.58.935.935,0,0,0-.419-.376A2.711,2.711,0,0,0-101.61,1128.932Z" transform="translate(120.844 -1127.592)"/><path d="M-93.281,1134.77l-.341-.995h-2.9l-.341,1.016a3.81,3.81,0,0,1-.34.8.519.519,0,0,1-.463.208.646.646,0,0,1-.482-.222.711.711,0,0,1-.209-.5,1.214,1.214,0,0,1,.049-.335c.032-.115.086-.275.16-.481l1.825-5.146c.052-.147.115-.325.188-.532a2.807,2.807,0,0,1,.234-.516.986.986,0,0,1,.325-.332.918.918,0,0,1,.5-.127.923.923,0,0,1,.5.127,1.007,1.007,0,0,1,.326.327,2.35,2.35,0,0,1,.209.43q.085.229.217.613l1.863,5.113a2.79,2.79,0,0,1,.219.849.742.742,0,0,1-.207.5.649.649,0,0,1-.5.229.6.6,0,0,1-.292-.067.616.616,0,0,1-.2-.184,1.737,1.737,0,0,1-.178-.357C-93.181,1135.035-93.236,1134.893-93.281,1134.77Zm-2.861-2.2h2.131l-1.075-3.269Z" transform="translate(121.669 -1127.608)"/><path d="M-91.384,1134.823v-6.242a1.14,1.14,0,0,1,.2-.73.641.641,0,0,1,.516-.243.662.662,0,0,1,.529.24,1.128,1.128,0,0,1,.2.733v6.242a1.134,1.134,0,0,1-.2.736.654.654,0,0,1-.529.243.635.635,0,0,1-.513-.246A1.13,1.13,0,0,1-91.384,1134.823Z" transform="translate(122.623 -1127.608)"/><path d="M-86.644,1128.57l2.778,4.67v-4.713a1.116,1.116,0,0,1,.177-.689.578.578,0,0,1,.48-.229.591.591,0,0,1,.491.229,1.1,1.1,0,0,1,.181.689v6.232c0,.7-.26,1.044-.779,1.044a.95.95,0,0,1-.35-.061.9.9,0,0,1-.292-.2,1.853,1.853,0,0,1-.253-.317c-.077-.12-.156-.243-.233-.369l-2.711-4.615v4.643a1.056,1.056,0,0,1-.19.686.6.6,0,0,1-.487.233.6.6,0,0,1-.491-.235,1.089,1.089,0,0,1-.184-.683v-6.114a1.9,1.9,0,0,1,.077-.61.858.858,0,0,1,.306-.4.781.781,0,0,1,.463-.153.74.74,0,0,1,.334.07.813.813,0,0,1,.242.189,1.888,1.888,0,0,1,.215.308Z" transform="translate(123.017 -1127.608)"/><path d="M-78.65,1135.651h-2.18a.843.843,0,0,1-.673-.235,1.131,1.131,0,0,1-.2-.748v-5.957a1.109,1.109,0,0,1,.207-.754.858.858,0,0,1,.668-.231h2.312a4.785,4.785,0,0,1,.886.072,1.78,1.78,0,0,1,.672.269,1.88,1.88,0,0,1,.448.424,1.959,1.959,0,0,1,.3.567,2.094,2.094,0,0,1,.1.657,1.834,1.834,0,0,1-1.07,1.742,1.9,1.9,0,0,1,1.406,1.935,2.351,2.351,0,0,1-.307,1.2,1.911,1.911,0,0,1-.826.787,2.7,2.7,0,0,1-.75.213A6.781,6.781,0,0,1-78.65,1135.651Zm-1.611-6.719v2.048h1.324a2.4,2.4,0,0,0,.834-.114.826.826,0,0,0,.45-.432,1.063,1.063,0,0,0,.122-.508.808.808,0,0,0-.384-.8,2.671,2.671,0,0,0-1.173-.2Zm1.5,3.2h-1.5v2.315h1.553q1.465,0,1.464-1.173a.994.994,0,0,0-.379-.87A1.963,1.963,0,0,0-78.757,1132.131Z" transform="translate(123.947 -1127.592)"/><path d="M-72.047,1127.608a3.514,3.514,0,0,1,1.905.5,3.126,3.126,0,0,1,1.2,1.421,5.3,5.3,0,0,1,.409,2.164,5.856,5.856,0,0,1-.224,1.671,3.733,3.733,0,0,1-.672,1.3,2.929,2.929,0,0,1-1.1.843,3.619,3.619,0,0,1-1.494.292,3.608,3.608,0,0,1-1.5-.3,3.021,3.021,0,0,1-1.1-.846,3.768,3.768,0,0,1-.67-1.315,5.863,5.863,0,0,1-.225-1.659,5.658,5.658,0,0,1,.235-1.676,3.687,3.687,0,0,1,.684-1.3,2.983,2.983,0,0,1,1.089-.82A3.589,3.589,0,0,1-72.047,1127.608Zm2.053,4.075a4.071,4.071,0,0,0-.254-1.509,2.068,2.068,0,0,0-.722-.965,1.849,1.849,0,0,0-1.078-.326,1.781,1.781,0,0,0-.8.182,1.8,1.8,0,0,0-.632.525,2.63,2.63,0,0,0-.418.885,4.4,4.4,0,0,0-.153,1.207,4.508,4.508,0,0,0,.153,1.221,2.6,2.6,0,0,0,.433.906,1.849,1.849,0,0,0,.642.538,1.77,1.77,0,0,0,.8.178,1.816,1.816,0,0,0,1.02-.308,2.078,2.078,0,0,0,.739-.951A4.018,4.018,0,0,0-69.993,1131.683Z" transform="translate(124.794 -1127.608)"/><path d="M-62.884,1134.418l-1.154-4.75-1.167,4.75c-.091.361-.164.618-.216.775a1.039,1.039,0,0,1-.281.422.74.74,0,0,1-.53.187.815.815,0,0,1-.441-.11.836.836,0,0,1-.28-.314,2.083,2.083,0,0,1-.175-.482c-.045-.185-.086-.357-.122-.516l-1.187-5.334a3.442,3.442,0,0,1-.108-.708.735.735,0,0,1,.2-.519.627.627,0,0,1,.481-.211.531.531,0,0,1,.531.281,3.436,3.436,0,0,1,.239.816l.934,4.627,1.046-4.329a7.462,7.462,0,0,1,.209-.757,1.1,1.1,0,0,1,.3-.449.817.817,0,0,1,.57-.189.781.781,0,0,1,.567.2,1.1,1.1,0,0,1,.28.43c.052.156.122.41.209.769l1.056,4.329.934-4.627c.045-.241.089-.431.128-.567a.928.928,0,0,1,.209-.367.555.555,0,0,1,.431-.162.635.635,0,0,1,.48.208.726.726,0,0,1,.2.522,3.706,3.706,0,0,1-.107.708l-1.187,5.334c-.082.362-.149.625-.2.793a1.06,1.06,0,0,1-.273.439.735.735,0,0,1-.542.19.754.754,0,0,1-.531-.184.988.988,0,0,1-.277-.413C-62.717,1135.052-62.791,1134.79-62.884,1134.418Z" transform="translate(125.748 -1127.608)"/><path d="M-55.806,1128.581v2.27h3.119v-2.27a1.148,1.148,0,0,1,.2-.73.638.638,0,0,1,.518-.243.662.662,0,0,1,.529.24,1.128,1.128,0,0,1,.2.733v6.242a1.121,1.121,0,0,1-.2.736.652.652,0,0,1-.525.243.63.63,0,0,1-.521-.246,1.166,1.166,0,0,1-.194-.733v-2.665h-3.119v2.665a1.121,1.121,0,0,1-.2.736.654.654,0,0,1-.525.243.629.629,0,0,1-.521-.246,1.165,1.165,0,0,1-.2-.733v-6.242a1.163,1.163,0,0,1,.193-.73.63.63,0,0,1,.523-.243.658.658,0,0,1,.527.24A1.122,1.122,0,0,1-55.806,1128.581Z" transform="translate(127.292 -1127.608)"/><path d="M-47.255,1127.608a3.511,3.511,0,0,1,1.905.5,3.119,3.119,0,0,1,1.2,1.421,5.3,5.3,0,0,1,.409,2.164,5.857,5.857,0,0,1-.224,1.671,3.731,3.731,0,0,1-.671,1.3,2.929,2.929,0,0,1-1.1.843,3.619,3.619,0,0,1-1.494.292,3.6,3.6,0,0,1-1.5-.3,3,3,0,0,1-1.1-.846,3.749,3.749,0,0,1-.67-1.315,5.822,5.822,0,0,1-.226-1.659,5.62,5.62,0,0,1,.236-1.676,3.7,3.7,0,0,1,.683-1.3,2.987,2.987,0,0,1,1.09-.82A3.584,3.584,0,0,1-47.255,1127.608Zm2.054,4.075a4.094,4.094,0,0,0-.254-1.509,2.063,2.063,0,0,0-.723-.965,1.844,1.844,0,0,0-1.078-.326,1.773,1.773,0,0,0-.8.182,1.789,1.789,0,0,0-.632.525,2.608,2.608,0,0,0-.418.885,4.35,4.35,0,0,0-.155,1.207,4.461,4.461,0,0,0,.155,1.221,2.583,2.583,0,0,0,.432.906,1.86,1.86,0,0,0,.642.538,1.773,1.773,0,0,0,.8.178,1.811,1.811,0,0,0,1.02-.308,2.08,2.08,0,0,0,.74-.951A4.039,4.039,0,0,0-45.2,1131.683Z" transform="translate(128.185 -1127.608)"/><path d="M-37.872,1133.289a2.527,2.527,0,0,1-.333,1.292,2.293,2.293,0,0,1-.977.9,3.344,3.344,0,0,1-1.523.324,3.15,3.15,0,0,1-1.742-.443,2.471,2.471,0,0,1-.791-.85,2.092,2.092,0,0,1-.3-1.036.733.733,0,0,1,.182-.5.592.592,0,0,1,.465-.209.52.52,0,0,1,.388.164,1.31,1.31,0,0,1,.269.481,3.336,3.336,0,0,0,.294.632,1.23,1.23,0,0,0,.446.419,1.512,1.512,0,0,0,.754.164,1.574,1.574,0,0,0,1.044-.332,1.032,1.032,0,0,0,.4-.829.934.934,0,0,0-.216-.641,1.385,1.385,0,0,0-.559-.376,9.209,9.209,0,0,0-.917-.275,6.265,6.265,0,0,1-1.287-.467,2.122,2.122,0,0,1-.823-.731,2.044,2.044,0,0,1-.3-1.147,2.134,2.134,0,0,1,.322-1.163,2.062,2.062,0,0,1,.93-.781,3.47,3.47,0,0,1,1.43-.273,3.217,3.217,0,0,1,1.137.181,2.383,2.383,0,0,1,.8.481,1.989,1.989,0,0,1,.462.63,1.576,1.576,0,0,1,.147.644.812.812,0,0,1-.183.517.561.561,0,0,1-.455.23.492.492,0,0,1-.377-.139,1.823,1.823,0,0,1-.28-.451,2.024,2.024,0,0,0-.467-.7,1.266,1.266,0,0,0-.876-.251,1.41,1.41,0,0,0-.9.273.818.818,0,0,0-.342.657.72.72,0,0,0,.116.411,1.021,1.021,0,0,0,.322.3,2.045,2.045,0,0,0,.414.194c.139.048.369.115.691.2a10.271,10.271,0,0,1,1.092.347,3.224,3.224,0,0,1,.832.459,1.853,1.853,0,0,1,.535.684A2.386,2.386,0,0,1-37.872,1133.289Z" transform="translate(129.168 -1127.608)"/><path d="M-34.54,1132.564h-1.324v2.243a1.132,1.132,0,0,1-.2.731.642.642,0,0,1-.516.248.643.643,0,0,1-.525-.246,1.117,1.117,0,0,1-.2-.722v-6.108a1.062,1.062,0,0,1,.219-.756.93.93,0,0,1,.7-.229h1.854a4.367,4.367,0,0,1,1.265.142,1.829,1.829,0,0,1,.757.448,2.05,2.05,0,0,1,.483.767,2.942,2.942,0,0,1,.166,1.022,2.387,2.387,0,0,1-.672,1.836A2.846,2.846,0,0,1-34.54,1132.564Zm-.35-3.632h-.974v2.421h.974a2.589,2.589,0,0,0,.854-.119.991.991,0,0,0,.523-.388,1.258,1.258,0,0,0,.18-.708,1.283,1.283,0,0,0-.276-.854A1.717,1.717,0,0,0-34.89,1128.932Z" transform="translate(130.02 -1127.592)"/><path d="M-31.243,1134.823v-6.242a1.134,1.134,0,0,1,.2-.73.64.64,0,0,1,.516-.243.658.658,0,0,1,.527.24,1.122,1.122,0,0,1,.2.733v6.242a1.127,1.127,0,0,1-.2.736.651.651,0,0,1-.527.243.637.637,0,0,1-.514-.246A1.137,1.137,0,0,1-31.243,1134.823Z" transform="translate(130.85 -1127.608)"/><path d="M-23.668,1129.052h-1.577v5.755a1.137,1.137,0,0,1-.2.738.639.639,0,0,1-.515.241.649.649,0,0,1-.524-.243,1.134,1.134,0,0,1-.2-.736v-5.755h-1.576a.742.742,0,0,1-.55-.182.646.646,0,0,1-.18-.479.636.636,0,0,1,.186-.485.757.757,0,0,1,.543-.18h4.594a.753.753,0,0,1,.557.185.65.65,0,0,1,.182.48.64.64,0,0,1-.184.479A.761.761,0,0,1-23.668,1129.052Z" transform="translate(131.158 -1127.592)"/><path d="M-18.665,1134.77l-.34-.995h-2.9l-.34,1.016a3.737,3.737,0,0,1-.341.8.517.517,0,0,1-.462.208.644.644,0,0,1-.482-.222.711.711,0,0,1-.209-.5,1.214,1.214,0,0,1,.049-.335q.048-.172.16-.481l1.825-5.146c.052-.147.115-.325.188-.532a2.889,2.889,0,0,1,.233-.516,1,1,0,0,1,.326-.332.918.918,0,0,1,.5-.127.923.923,0,0,1,.5.127,1.018,1.018,0,0,1,.326.327,2.349,2.349,0,0,1,.209.43q.085.229.216.613l1.864,5.113a2.813,2.813,0,0,1,.218.849.74.74,0,0,1-.206.5.649.649,0,0,1-.5.229.6.6,0,0,1-.292-.067.631.631,0,0,1-.2-.184,1.744,1.744,0,0,1-.177-.357C-18.565,1135.035-18.619,1134.893-18.665,1134.77Zm-2.861-2.2H-19.4l-1.074-3.269Z" transform="translate(131.876 -1127.608)"/><path d="M-15.4,1128.581v5.767h2.93a.729.729,0,0,1,.538.189.649.649,0,0,1,.188.476.63.63,0,0,1-.185.473.741.741,0,0,1-.54.181h-3.489a.868.868,0,0,1-.679-.232,1.114,1.114,0,0,1-.207-.751v-6.1a1.141,1.141,0,0,1,.2-.73.638.638,0,0,1,.518-.243.658.658,0,0,1,.527.24A1.122,1.122,0,0,1-15.4,1128.581Z" transform="translate(132.82 -1127.608)"/><path d="M-6.24,1133.289a2.527,2.527,0,0,1-.333,1.292,2.3,2.3,0,0,1-.975.9,3.347,3.347,0,0,1-1.523.324,3.151,3.151,0,0,1-1.743-.443,2.458,2.458,0,0,1-.79-.85,2.083,2.083,0,0,1-.3-1.036.733.733,0,0,1,.182-.5.6.6,0,0,1,.466-.209.52.52,0,0,1,.387.164,1.294,1.294,0,0,1,.269.481,3.408,3.408,0,0,0,.294.632,1.249,1.249,0,0,0,.446.419,1.517,1.517,0,0,0,.755.164,1.578,1.578,0,0,0,1.044-.332,1.035,1.035,0,0,0,.4-.829.934.934,0,0,0-.217-.641,1.385,1.385,0,0,0-.559-.376,9.026,9.026,0,0,0-.917-.275,6.29,6.29,0,0,1-1.287-.467,2.138,2.138,0,0,1-.823-.731,2.044,2.044,0,0,1-.3-1.147,2.124,2.124,0,0,1,.322-1.163,2.059,2.059,0,0,1,.929-.781,3.472,3.472,0,0,1,1.431-.273,3.214,3.214,0,0,1,1.136.181,2.383,2.383,0,0,1,.8.481,2.011,2.011,0,0,1,.463.63,1.593,1.593,0,0,1,.146.644.812.812,0,0,1-.183.517.56.56,0,0,1-.454.23.5.5,0,0,1-.379-.139,1.894,1.894,0,0,1-.28-.451,2.024,2.024,0,0,0-.467-.7,1.26,1.26,0,0,0-.875-.251,1.407,1.407,0,0,0-.9.273.819.819,0,0,0-.343.657.712.712,0,0,0,.117.411,1.017,1.017,0,0,0,.321.3,2.074,2.074,0,0,0,.414.194c.14.048.369.115.691.2a10.271,10.271,0,0,1,1.092.347,3.205,3.205,0,0,1,.832.459,1.854,1.854,0,0,1,.535.684A2.386,2.386,0,0,1-6.24,1133.289Z" transform="translate(133.495 -1127.608)"/></g><g transform="translate(46.773 63.399)"><path class="d" d="M-116.658,1150.333v-2.269l-1.572-2.708a5.776,5.776,0,0,1-.292-.571.957.957,0,0,1-.086-.356.6.6,0,0,1,.174-.43.575.575,0,0,1,.429-.181.494.494,0,0,1,.406.169,4.987,4.987,0,0,1,.415.671l1.2,2.171,1.216-2.171.184-.336a2.109,2.109,0,0,1,.165-.257.7.7,0,0,1,.2-.183.53.53,0,0,1,.268-.064.539.539,0,0,1,.41.178.588.588,0,0,1,.165.413.945.945,0,0,1-.084.381,5.1,5.1,0,0,1-.285.526l-1.612,2.747v2.269a1.013,1.013,0,0,1-.184.663.585.585,0,0,1-.469.219.581.581,0,0,1-.471-.217A1.033,1.033,0,0,1-116.658,1150.333Z" transform="translate(118.609 -1143.819)"/><path class="d" d="M-109.109,1148.269a3.46,3.46,0,0,1-.167,1.1,2.472,2.472,0,0,1-.483.864,2.128,2.128,0,0,1-.756.553,2.434,2.434,0,0,1-.988.193,2.382,2.382,0,0,1-.98-.2,2.179,2.179,0,0,1-.753-.558,2.472,2.472,0,0,1-.483-.858,3.448,3.448,0,0,1-.165-1.1,3.486,3.486,0,0,1,.167-1.106,2.467,2.467,0,0,1,.479-.859,2.129,2.129,0,0,1,.755-.549,2.44,2.44,0,0,1,.98-.193,2.432,2.432,0,0,1,.988.2,2.153,2.153,0,0,1,.761.557,2.468,2.468,0,0,1,.481.857A3.5,3.5,0,0,1-109.109,1148.269Zm-1.2,0a2.161,2.161,0,0,0-.323-1.268,1.008,1.008,0,0,0-.867-.454,1.007,1.007,0,0,0-.62.2,1.28,1.28,0,0,0-.413.6,2.668,2.668,0,0,0-.144.921,2.673,2.673,0,0,0,.142.913,1.3,1.3,0,0,0,.409.6.982.982,0,0,0,.625.208,1.01,1.01,0,0,0,.867-.456A2.159,2.159,0,0,0-110.313,1148.269Z" transform="translate(119.255 -1143.581)"/><path class="d" d="M-105.585,1150.225v-.17a2.841,2.841,0,0,1-.452.507,1.606,1.606,0,0,1-.518.3,1.9,1.9,0,0,1-.641.1,1.527,1.527,0,0,1-.78-.2,1.393,1.393,0,0,1-.533-.552,2.65,2.65,0,0,1-.225-1.219v-2.639a.924.924,0,0,1,.164-.6.531.531,0,0,1,.43-.2.544.544,0,0,1,.44.2.915.915,0,0,1,.166.6v2.131a3.654,3.654,0,0,0,.07.778.963.963,0,0,0,.252.493.684.684,0,0,0,.495.177.938.938,0,0,0,.571-.2,1.145,1.145,0,0,0,.391-.522,4.656,4.656,0,0,0,.1-1.24v-1.618a.915.915,0,0,1,.166-.6.541.541,0,0,1,.435-.2.535.535,0,0,1,.431.2.931.931,0,0,1,.163.6v3.857a.886.886,0,0,1-.156.571.5.5,0,0,1-.4.191.5.5,0,0,1-.406-.2A.856.856,0,0,1-105.585,1150.225Z" transform="translate(119.96 -1143.581)"/><path class="d" d="M-102.583,1149.056v1.111a.912.912,0,0,1-.172.607.54.54,0,0,1-.434.2.524.524,0,0,1-.426-.206.936.936,0,0,1-.166-.6v-3.707q0-.9.583-.9a.469.469,0,0,1,.431.21,1.264,1.264,0,0,1,.146.62,2.3,2.3,0,0,1,.441-.62.851.851,0,0,1,.6-.21,1.426,1.426,0,0,1,.733.21.628.628,0,0,1,.356.556.559.559,0,0,1-.151.4.449.449,0,0,1-.327.158,1.332,1.332,0,0,1-.318-.091,1.373,1.373,0,0,0-.446-.09.612.612,0,0,0-.431.153,1.016,1.016,0,0,0-.259.456,3.553,3.553,0,0,0-.127.72C-102.57,1148.316-102.583,1148.654-102.583,1149.056Z" transform="translate(120.637 -1143.581)"/><path class="d" d="M-96.2,1148.02h-.457v2.3a1.028,1.028,0,0,1-.18.668.586.586,0,0,1-.469.214.573.573,0,0,1-.483-.224,1.07,1.07,0,0,1-.172-.658v-5.5a1.007,1.007,0,0,1,.189-.679.786.786,0,0,1,.61-.209h2.121a5.659,5.659,0,0,1,.751.042,1.725,1.725,0,0,1,.563.167,1.64,1.64,0,0,1,.535.406,1.816,1.816,0,0,1,.354.611,2.244,2.244,0,0,1,.12.739,1.9,1.9,0,0,1-.407,1.278,2.252,2.252,0,0,1-1.231.679,2.462,2.462,0,0,1,.663.6,6.067,6.067,0,0,1,.565.851,6.617,6.617,0,0,1,.387.815,1.738,1.738,0,0,1,.138.5.56.56,0,0,1-.081.281.6.6,0,0,1-.222.219.637.637,0,0,1-.325.081.6.6,0,0,1-.369-.114,1.08,1.08,0,0,1-.257-.291q-.107-.176-.291-.517l-.523-.966a5.265,5.265,0,0,0-.5-.809,1.275,1.275,0,0,0-.45-.381A1.429,1.429,0,0,0-96.2,1148.02Zm.747-3h-1.2v1.965h1.169a2.965,2.965,0,0,0,.791-.09.916.916,0,0,0,.489-.307.954.954,0,0,0,.169-.6,1.009,1.009,0,0,0-.135-.525.854.854,0,0,0-.379-.339A2.467,2.467,0,0,0-95.456,1145.015Z" transform="translate(121.433 -1143.804)"/><path class="d" d="M-91.582,1145.174a.6.6,0,0,1-.429-.171.636.636,0,0,1-.178-.484.633.633,0,0,1,.183-.465.58.58,0,0,1,.424-.183.591.591,0,0,1,.412.166.622.622,0,0,1,.181.482.643.643,0,0,1-.176.481A.571.571,0,0,1-91.582,1145.174Zm.592,1.374v3.849a.916.916,0,0,1-.172.6.539.539,0,0,1-.434.206.519.519,0,0,1-.429-.209.961.961,0,0,1-.165-.6v-3.808a.921.921,0,0,1,.165-.6.528.528,0,0,1,.429-.2.545.545,0,0,1,.434.2A.822.822,0,0,1-90.99,1146.548Z" transform="translate(122.223 -1143.812)"/><path class="d" d="M-85.452,1146.538v3.869a4.456,4.456,0,0,1-.128,1.141,1.873,1.873,0,0,1-.408.79,1.684,1.684,0,0,1-.736.464,3.659,3.659,0,0,1-1.131.15,2.961,2.961,0,0,1-1.106-.192,1.879,1.879,0,0,1-.751-.5.954.954,0,0,1-.264-.628.543.543,0,0,1,.15-.4.482.482,0,0,1,.359-.153.572.572,0,0,1,.462.257c.064.09.131.177.2.267a1.2,1.2,0,0,0,.228.229.818.818,0,0,0,.3.142,1.606,1.606,0,0,0,.4.047,1.494,1.494,0,0,0,.722-.144.785.785,0,0,0,.36-.4,1.743,1.743,0,0,0,.121-.553c.013-.2.02-.513.026-.949a2.044,2.044,0,0,1-.639.654,1.6,1.6,0,0,1-.863.225,1.7,1.7,0,0,1-1.052-.342,2.157,2.157,0,0,1-.692-.956,3.874,3.874,0,0,1-.241-1.42,3.719,3.719,0,0,1,.147-1.082,2.355,2.355,0,0,1,.421-.815,1.8,1.8,0,0,1,.628-.5,1.8,1.8,0,0,1,.781-.169,1.72,1.72,0,0,1,.883.218,2.225,2.225,0,0,1,.693.68v-.181a.829.829,0,0,1,.155-.537.484.484,0,0,1,.394-.191.456.456,0,0,1,.462.252A1.807,1.807,0,0,1-85.452,1146.538Zm-3.474,1.688a1.979,1.979,0,0,0,.318,1.223.987.987,0,0,0,.823.416.994.994,0,0,0,.565-.179,1.266,1.266,0,0,0,.432-.536,2.051,2.051,0,0,0,.167-.871,2.165,2.165,0,0,0-.323-1.269,1,1,0,0,0-.85-.454.963.963,0,0,0-.823.434A2.1,2.1,0,0,0-88.926,1148.226Z" transform="translate(122.505 -1143.581)"/><path class="d" d="M-83.623,1144.63v1.975a2.767,2.767,0,0,1,.446-.463,1.53,1.53,0,0,1,.481-.256,1.836,1.836,0,0,1,.566-.086,1.53,1.53,0,0,1,.811.216,1.461,1.461,0,0,1,.556.624,1.638,1.638,0,0,1,.172.533,4.819,4.819,0,0,1,.043.681v2.551a.942.942,0,0,1-.165.6.528.528,0,0,1-.437.206c-.4,0-.592-.269-.592-.81v-2.247a2.276,2.276,0,0,0-.172-.984.658.658,0,0,0-.65-.342.907.907,0,0,0-.577.2,1.206,1.206,0,0,0-.384.555,3.887,3.887,0,0,0-.1,1.057v1.761a.966.966,0,0,1-.16.6.528.528,0,0,1-.446.208c-.4,0-.593-.269-.593-.81v-5.775a.988.988,0,0,1,.156-.607.522.522,0,0,1,.438-.2.536.536,0,0,1,.446.206A.969.969,0,0,1-83.623,1144.63Z" transform="translate(123.231 -1143.819)"/><path class="d" d="M-79.745,1145.9h.133v-.8c0-.215,0-.383.015-.5a.812.812,0,0,1,.085-.315.573.573,0,0,1,.2-.222.531.531,0,0,1,.294-.085.558.558,0,0,1,.413.191.579.579,0,0,1,.156.309,3.148,3.148,0,0,1,.033.519v.907h.439a.523.523,0,0,1,.389.134.464.464,0,0,1,.134.343.4.4,0,0,1-.191.376,1.145,1.145,0,0,1-.547.107h-.224v2.449a4.614,4.614,0,0,0,.019.481.523.523,0,0,0,.106.273.339.339,0,0,0,.28.106,1.407,1.407,0,0,0,.285-.042,1.272,1.272,0,0,1,.281-.041.35.35,0,0,1,.261.128.462.462,0,0,1,.116.319.534.534,0,0,1-.316.493,1.955,1.955,0,0,1-.909.17,1.445,1.445,0,0,1-.851-.209.972.972,0,0,1-.38-.581,4.351,4.351,0,0,1-.09-.99v-2.557h-.159a.533.533,0,0,1-.394-.136.472.472,0,0,1-.136-.347.45.45,0,0,1,.143-.343A.58.58,0,0,1-79.745,1145.9Z" transform="translate(123.849 -1143.798)"/><path class="d" d="M-74.665,1145.9h.133v-.8c0-.215,0-.383.015-.5a.812.812,0,0,1,.085-.315.582.582,0,0,1,.2-.222.531.531,0,0,1,.294-.085.558.558,0,0,1,.413.191.579.579,0,0,1,.156.309,3.025,3.025,0,0,1,.033.519v.907h.44a.522.522,0,0,1,.388.134.465.465,0,0,1,.135.343.4.4,0,0,1-.192.376,1.145,1.145,0,0,1-.547.107h-.224v2.449a4.614,4.614,0,0,0,.019.481.523.523,0,0,0,.106.273.339.339,0,0,0,.28.106,1.407,1.407,0,0,0,.285-.042,1.272,1.272,0,0,1,.281-.041.35.35,0,0,1,.261.128.462.462,0,0,1,.116.319.534.534,0,0,1-.316.493,1.955,1.955,0,0,1-.909.17,1.445,1.445,0,0,1-.851-.209.972.972,0,0,1-.38-.581,4.351,4.351,0,0,1-.09-.99v-2.557h-.159a.533.533,0,0,1-.394-.136.472.472,0,0,1-.136-.347.45.45,0,0,1,.143-.343A.58.58,0,0,1-74.665,1145.9Z" transform="translate(124.544 -1143.798)"/><path class="d" d="M-67.316,1148.269a3.46,3.46,0,0,1-.167,1.1,2.454,2.454,0,0,1-.483.864,2.124,2.124,0,0,1-.755.553,2.434,2.434,0,0,1-.988.193,2.374,2.374,0,0,1-.98-.2,2.173,2.173,0,0,1-.754-.558,2.47,2.47,0,0,1-.482-.858,3.448,3.448,0,0,1-.165-1.1,3.486,3.486,0,0,1,.166-1.106,2.486,2.486,0,0,1,.479-.859,2.123,2.123,0,0,1,.756-.549,2.432,2.432,0,0,1,.98-.193,2.435,2.435,0,0,1,.988.2,2.148,2.148,0,0,1,.759.557,2.432,2.432,0,0,1,.481.857A3.472,3.472,0,0,1-67.316,1148.269Zm-1.2,0a2.153,2.153,0,0,0-.324-1.268,1.008,1.008,0,0,0-.866-.454,1,1,0,0,0-.62.2,1.28,1.28,0,0,0-.413.6,2.667,2.667,0,0,0-.146.921,2.645,2.645,0,0,0,.143.913,1.3,1.3,0,0,0,.408.6.985.985,0,0,0,.626.208,1.01,1.01,0,0,0,.866-.456A2.15,2.15,0,0,0-68.518,1148.269Z" transform="translate(124.973 -1143.581)"/><path class="d" d="M-61.719,1150.226a3.61,3.61,0,0,1-.841.564,2.163,2.163,0,0,1-.911.188,1.572,1.572,0,0,1-.811-.2,1.384,1.384,0,0,1-.538-.548,1.539,1.539,0,0,1-.189-.751,1.432,1.432,0,0,1,.311-.931,1.531,1.531,0,0,1,.856-.518c.076-.018.265-.063.566-.131s.56-.131.776-.188.448-.126.7-.207a1.505,1.505,0,0,0-.192-.774.8.8,0,0,0-.7-.247,1.333,1.333,0,0,0-.687.142,1.173,1.173,0,0,0-.4.424c-.11.189-.188.314-.233.373s-.142.091-.291.091a.486.486,0,0,1-.35-.144.492.492,0,0,1-.147-.368,1.2,1.2,0,0,1,.224-.682,1.614,1.614,0,0,1,.7-.547,2.866,2.866,0,0,1,1.181-.214,3.063,3.063,0,0,1,1.244.206,1.219,1.219,0,0,1,.639.656,3.171,3.171,0,0,1,.186,1.191q0,.469,0,.795t-.007.726a2.951,2.951,0,0,0,.113.784,2.637,2.637,0,0,1,.111.524.509.509,0,0,1-.173.373.554.554,0,0,1-.393.168.513.513,0,0,1-.365-.193A2.851,2.851,0,0,1-61.719,1150.226Zm-.078-1.927a5.567,5.567,0,0,1-.767.227c-.334.08-.567.138-.7.175a.927.927,0,0,0-.369.22.59.59,0,0,0-.175.456.71.71,0,0,0,.207.514.717.717,0,0,0,.54.213,1.3,1.3,0,0,0,.657-.174,1.094,1.094,0,0,0,.441-.446,2.237,2.237,0,0,0,.163-.995Z" transform="translate(125.941 -1143.582)"/><path class="d" d="M-52.807,1148.947a2.268,2.268,0,0,1-.3,1.165,2.064,2.064,0,0,1-.88.809,3.012,3.012,0,0,1-1.376.293,2.847,2.847,0,0,1-1.571-.4,2.215,2.215,0,0,1-.714-.77,1.879,1.879,0,0,1-.275-.933.656.656,0,0,1,.165-.451.536.536,0,0,1,.419-.189.469.469,0,0,1,.349.147,1.166,1.166,0,0,1,.244.434,2.99,2.99,0,0,0,.266.571,1.111,1.111,0,0,0,.4.379,1.366,1.366,0,0,0,.681.149,1.424,1.424,0,0,0,.941-.3.933.933,0,0,0,.363-.749.843.843,0,0,0-.2-.579,1.229,1.229,0,0,0-.5-.339,8.034,8.034,0,0,0-.829-.249,5.567,5.567,0,0,1-1.161-.422,1.93,1.93,0,0,1-.742-.658,1.849,1.849,0,0,1-.275-1.037,1.926,1.926,0,0,1,.29-1.049,1.874,1.874,0,0,1,.839-.7,3.142,3.142,0,0,1,1.291-.247,2.863,2.863,0,0,1,1.025.165,2.072,2.072,0,0,1,.718.434,1.763,1.763,0,0,1,.417.568,1.423,1.423,0,0,1,.132.579.729.729,0,0,1-.165.467.5.5,0,0,1-.41.207.449.449,0,0,1-.341-.124,1.713,1.713,0,0,1-.252-.408,1.846,1.846,0,0,0-.421-.631,1.148,1.148,0,0,0-.791-.227,1.281,1.281,0,0,0-.815.246.74.74,0,0,0-.309.593.643.643,0,0,0,.106.37.882.882,0,0,0,.29.268,1.893,1.893,0,0,0,.373.176c.126.042.334.1.624.185a9.136,9.136,0,0,1,.986.311,2.9,2.9,0,0,1,.75.415,1.675,1.675,0,0,1,.484.617A2.176,2.176,0,0,1-52.807,1148.947Z" transform="translate(126.91 -1143.819)"/><path class="d" d="M-49.311,1150.226a3.629,3.629,0,0,1-.84.564,2.172,2.172,0,0,1-.912.188,1.572,1.572,0,0,1-.811-.2,1.391,1.391,0,0,1-.538-.548,1.539,1.539,0,0,1-.189-.751,1.432,1.432,0,0,1,.311-.931,1.531,1.531,0,0,1,.856-.518c.076-.018.266-.063.567-.131s.559-.131.775-.188.448-.126.7-.207a1.506,1.506,0,0,0-.191-.774.805.805,0,0,0-.7-.247,1.333,1.333,0,0,0-.687.142,1.183,1.183,0,0,0-.4.424c-.11.189-.188.314-.232.373s-.143.091-.292.091a.483.483,0,0,1-.349-.144.489.489,0,0,1-.148-.368,1.2,1.2,0,0,1,.224-.682,1.614,1.614,0,0,1,.7-.547,2.869,2.869,0,0,1,1.181-.214,3.063,3.063,0,0,1,1.244.206,1.219,1.219,0,0,1,.639.656,3.172,3.172,0,0,1,.186,1.191c0,.313,0,.578,0,.795s0,.46-.007.726a3,3,0,0,0,.113.784,2.673,2.673,0,0,1,.113.524.51.51,0,0,1-.174.373.554.554,0,0,1-.393.168.513.513,0,0,1-.365-.193A2.851,2.851,0,0,1-49.311,1150.226Zm-.078-1.927a5.542,5.542,0,0,1-.766.227q-.5.119-.7.175a.923.923,0,0,0-.368.22.59.59,0,0,0-.176.456.71.71,0,0,0,.207.514.717.717,0,0,0,.54.213,1.292,1.292,0,0,0,.657-.174,1.094,1.094,0,0,0,.441-.446,2.237,2.237,0,0,0,.163-.995Z" transform="translate(127.639 -1143.582)"/><path class="d" d="M-47.533,1145.918h.285v-.4a2.843,2.843,0,0,1,.142-.992.966.966,0,0,1,.483-.535,2.133,2.133,0,0,1,.933-.169q1.05,0,1.05.571a.478.478,0,0,1-.11.318.33.33,0,0,1-.259.132,1.576,1.576,0,0,1-.241-.031,1.926,1.926,0,0,0-.29-.028.4.4,0,0,0-.417.211,1.563,1.563,0,0,0-.092.608v.317h.293c.457,0,.685.153.685.458,0,.218-.06.357-.182.415a1.192,1.192,0,0,1-.5.088h-.293v3.526a.931.931,0,0,1-.169.6.534.534,0,0,1-.438.208.522.522,0,0,1-.424-.208.931.931,0,0,1-.168-.6v-3.526h-.33a.584.584,0,0,1-.413-.134.454.454,0,0,1-.144-.349Q-48.134,1145.918-47.533,1145.918Z" transform="translate(128.25 -1143.819)"/><path class="d" d="M-41.465,1148.6h-2.345a1.934,1.934,0,0,0,.164.8,1.22,1.22,0,0,0,.426.522,1.036,1.036,0,0,0,.587.177,1.3,1.3,0,0,0,.393-.057,1.235,1.235,0,0,0,.344-.175,2.749,2.749,0,0,0,.307-.257c.094-.091.216-.214.365-.371a.366.366,0,0,1,.264-.088.414.414,0,0,1,.3.111.429.429,0,0,1,.114.318.933.933,0,0,1-.127.422,1.627,1.627,0,0,1-.384.463,2.109,2.109,0,0,1-.646.369,2.524,2.524,0,0,1-.894.146,2.266,2.266,0,0,1-1.8-.731,2.913,2.913,0,0,1-.641-1.987,3.626,3.626,0,0,1,.158-1.094,2.489,2.489,0,0,1,.462-.866,1.99,1.99,0,0,1,.746-.554,2.429,2.429,0,0,1,.984-.192,2.142,2.142,0,0,1,1.205.328,2.081,2.081,0,0,1,.754.852,2.427,2.427,0,0,1,.25,1.063q0,.5-.259.651A1.48,1.48,0,0,1-41.465,1148.6Zm-2.345-.757h2.174a1.723,1.723,0,0,0-.332-1.021.944.944,0,0,0-.757-.34.917.917,0,0,0-.736.344A1.819,1.819,0,0,0-43.811,1147.84Z" transform="translate(128.673 -1143.582)"/><path class="d" d="M-36.978,1143.927h1.7a4.151,4.151,0,0,1,1.137.136,2.024,2.024,0,0,1,.862.513,3.839,3.839,0,0,1,1,2.908,6.254,6.254,0,0,1-.1,1.175,3.7,3.7,0,0,1-.311.958,2.938,2.938,0,0,1-.54.763,2.225,2.225,0,0,1-.567.415,2.385,2.385,0,0,1-.66.219,4.55,4.55,0,0,1-.8.064h-1.7a.969.969,0,0,1-.537-.12.547.547,0,0,1-.234-.336,2.372,2.372,0,0,1-.055-.563v-5.244a1,1,0,0,1,.189-.679A.783.783,0,0,1-36.978,1143.927Zm.5,1.146v4.854h.988a4.91,4.91,0,0,0,.509-.02,1.422,1.422,0,0,0,.382-.1,1,1,0,0,0,.343-.219,2.824,2.824,0,0,0,.654-2.117,3.408,3.408,0,0,0-.288-1.586,1.328,1.328,0,0,0-.709-.672,3.185,3.185,0,0,0-1.019-.143Z" transform="translate(129.666 -1143.804)"/><path class="d" d="M-28.477,1148.6h-2.345a1.916,1.916,0,0,0,.164.8,1.2,1.2,0,0,0,.426.522,1.036,1.036,0,0,0,.587.177,1.3,1.3,0,0,0,.393-.057,1.235,1.235,0,0,0,.344-.175,2.749,2.749,0,0,0,.307-.257c.094-.091.216-.214.365-.371a.364.364,0,0,1,.264-.088.414.414,0,0,1,.3.111.429.429,0,0,1,.114.318.933.933,0,0,1-.127.422,1.646,1.646,0,0,1-.384.463,2.109,2.109,0,0,1-.646.369,2.524,2.524,0,0,1-.894.146,2.267,2.267,0,0,1-1.8-.731,2.918,2.918,0,0,1-.64-1.987,3.626,3.626,0,0,1,.158-1.094,2.487,2.487,0,0,1,.46-.866,2,2,0,0,1,.747-.554,2.424,2.424,0,0,1,.983-.192,2.144,2.144,0,0,1,1.206.328,2.081,2.081,0,0,1,.754.852,2.427,2.427,0,0,1,.25,1.063q0,.5-.259.651A1.48,1.48,0,0,1-28.477,1148.6Zm-2.345-.757h2.174a1.723,1.723,0,0,0-.332-1.021.946.946,0,0,0-.757-.34.917.917,0,0,0-.736.344A1.811,1.811,0,0,0-30.823,1147.84Z" transform="translate(130.45 -1143.582)"/><path class="d" d="M-27,1150.4v-5.775a.977.977,0,0,1,.159-.6.525.525,0,0,1,.433-.206.544.544,0,0,1,.44.2.943.943,0,0,1,.167.607v5.775a.925.925,0,0,1-.169.607.542.542,0,0,1-.438.2.521.521,0,0,1-.429-.209A.961.961,0,0,1-27,1150.4Z" transform="translate(131.141 -1143.819)"/><path class="d" d="M-24.1,1145.174a.6.6,0,0,1-.427-.171.637.637,0,0,1-.178-.484.632.632,0,0,1,.182-.465.582.582,0,0,1,.424-.183.591.591,0,0,1,.413.166.622.622,0,0,1,.181.482.643.643,0,0,1-.176.481A.572.572,0,0,1-24.1,1145.174Zm.593,1.374v3.849a.916.916,0,0,1-.172.6.541.541,0,0,1-.434.206.518.518,0,0,1-.429-.209.961.961,0,0,1-.165-.6v-3.808a.921.921,0,0,1,.165-.6.526.526,0,0,1,.429-.2.547.547,0,0,1,.434.2A.822.822,0,0,1-23.506,1146.548Z" transform="translate(131.455 -1143.812)"/><path class="d" d="M-21.518,1146.391l.971,3.025,1.045-3.156a1.968,1.968,0,0,1,.242-.54.42.42,0,0,1,.36-.159.515.515,0,0,1,.389.172.558.558,0,0,1,.159.394.924.924,0,0,1-.027.206,2.083,2.083,0,0,1-.067.219c-.025.068-.052.146-.085.234l-1.15,3.171c-.032.092-.074.207-.125.346a1.9,1.9,0,0,1-.172.359.7.7,0,0,1-.232.232.642.642,0,0,1-.336.083.605.605,0,0,1-.407-.13.844.844,0,0,1-.223-.282q-.073-.155-.244-.608l-1.141-3.136c-.027-.077-.053-.157-.082-.234a2.2,2.2,0,0,1-.069-.239.869.869,0,0,1-.03-.21.551.551,0,0,1,.075-.271.607.607,0,0,1,.207-.219.514.514,0,0,1,.285-.086.435.435,0,0,1,.41.191A3.283,3.283,0,0,1-21.518,1146.391Z" transform="translate(131.723 -1143.581)"/><path class="d" d="M-14.7,1148.6h-2.345a1.916,1.916,0,0,0,.165.8,1.2,1.2,0,0,0,.426.522,1.029,1.029,0,0,0,.585.177,1.3,1.3,0,0,0,.393-.057,1.235,1.235,0,0,0,.344-.175,2.871,2.871,0,0,0,.308-.257c.093-.091.215-.214.364-.371a.368.368,0,0,1,.264-.088.412.412,0,0,1,.3.111.429.429,0,0,1,.114.318.933.933,0,0,1-.127.422,1.608,1.608,0,0,1-.384.463,2.1,2.1,0,0,1-.645.369,2.531,2.531,0,0,1-.895.146,2.266,2.266,0,0,1-1.8-.731,2.913,2.913,0,0,1-.641-1.987,3.626,3.626,0,0,1,.158-1.094,2.489,2.489,0,0,1,.462-.866,1.994,1.994,0,0,1,.747-.554,2.42,2.42,0,0,1,.983-.192,2.142,2.142,0,0,1,1.205.328,2.081,2.081,0,0,1,.754.852,2.427,2.427,0,0,1,.25,1.063q0,.5-.259.651A1.48,1.48,0,0,1-14.7,1148.6Zm-2.345-.757h2.174a1.73,1.73,0,0,0-.331-1.021.946.946,0,0,0-.758-.34.919.919,0,0,0-.736.344A1.819,1.819,0,0,0-17.048,1147.84Z" transform="translate(132.334 -1143.582)"/><path class="d" d="M-12.033,1149.056v1.111a.912.912,0,0,1-.172.607.54.54,0,0,1-.434.2.524.524,0,0,1-.426-.206.936.936,0,0,1-.167-.6v-3.707q0-.9.584-.9a.472.472,0,0,1,.431.21,1.252,1.252,0,0,1,.144.62,2.3,2.3,0,0,1,.442-.62.851.851,0,0,1,.6-.21,1.429,1.429,0,0,1,.733.21.63.63,0,0,1,.356.556.564.564,0,0,1-.151.4.449.449,0,0,1-.327.158,1.332,1.332,0,0,1-.318-.091,1.373,1.373,0,0,0-.446-.09.612.612,0,0,0-.431.153,1.016,1.016,0,0,0-.259.456,3.476,3.476,0,0,0-.127.72C-12.021,1148.316-12.033,1148.654-12.033,1149.056Z" transform="translate(133.024 -1143.581)"/><path class="d" d="M-8.437,1151.143l.109-.3-1.476-4.127a1.673,1.673,0,0,1-.136-.517.647.647,0,0,1,.08-.317.605.605,0,0,1,.217-.234.533.533,0,0,1,.288-.089.449.449,0,0,1,.391.184,1.754,1.754,0,0,1,.232.524l1.015,3.277.962-3.048a5.6,5.6,0,0,1,.207-.581.672.672,0,0,1,.2-.283.5.5,0,0,1,.291-.074.478.478,0,0,1,.261.082.53.53,0,0,1,.193.216.639.639,0,0,1,.068.289c-.011.061-.031.149-.057.264s-.059.229-.1.346l-1.563,4.546a5.624,5.624,0,0,1-.4.941,1.361,1.361,0,0,1-.512.525,1.718,1.718,0,0,1-.859.182,1.9,1.9,0,0,1-.79-.126.466.466,0,0,1-.264-.463.477.477,0,0,1,.126-.354.508.508,0,0,1,.371-.124.623.623,0,0,1,.189.03.827.827,0,0,0,.2.03.654.654,0,0,0,.325-.069.592.592,0,0,0,.213-.236A3.982,3.982,0,0,0-8.437,1151.143Z" transform="translate(133.456 -1143.581)"/></g><line class="e" x2="129.304" transform="translate(46.439 58.412)"/><g transform="translate(175.12 8.388)"><path class="d" d="M-2.721,1096.1h-.884V1099a.538.538,0,0,1-.111.373.374.374,0,0,1-.29.122.377.377,0,0,1-.293-.123.533.533,0,0,1-.113-.372V1096.1H-5.3a.446.446,0,0,1-.308-.093.308.308,0,0,1-.1-.24.305.305,0,0,1,.106-.247.45.45,0,0,1,.3-.09h2.577a.45.45,0,0,1,.313.093.309.309,0,0,1,.1.243.3.3,0,0,1-.1.24A.457.457,0,0,1-2.721,1096.1Z" transform="translate(5.707 -1095.428)"/><path class="d" d="M-.843,1098.827l-.641-2.55v2.761a.5.5,0,0,1-.1.344.342.342,0,0,1-.271.115.345.345,0,0,1-.268-.114.494.494,0,0,1-.1-.346v-3.166a.4.4,0,0,1,.136-.353.657.657,0,0,1,.368-.091h.251a.927.927,0,0,1,.329.041.274.274,0,0,1,.152.148,2.3,2.3,0,0,1,.111.346l.582,2.193.581-2.193a2.276,2.276,0,0,1,.113-.346.272.272,0,0,1,.151-.148.931.931,0,0,1,.329-.041h.251a.657.657,0,0,1,.368.091.4.4,0,0,1,.136.353v3.166a.5.5,0,0,1-.1.344.35.35,0,0,1-.275.115.34.34,0,0,1-.265-.115.5.5,0,0,1-.1-.344v-2.761l-.641,2.55c-.042.165-.076.286-.1.364a.5.5,0,0,1-.146.211.427.427,0,0,1-.294.1.446.446,0,0,1-.241-.062.448.448,0,0,1-.152-.157.926.926,0,0,1-.086-.212C-.8,1098.991-.822,1098.91-.843,1098.827Z" transform="translate(6.183 -1095.428)"/></g></g><g transform="translate(-9668.569 -625.91)"><g transform="translate(0)"><g transform="translate(0 24.639)"><path class="f" d="M242.653,295.489c3.7,0,6,1.956,6,5.117a4.571,4.571,0,0,1-3.054,4.474c1.661,1.1,2.679,2.786,4.072,5.063.777,1.259,1.232,1.875,2.491,3.617h-3.134l-2.411-3.751c-2.411-3.751-3.51-4.179-4.849-4.179h-1.1v7.93h-2.626V295.489Zm-1.982,7.984h1.688c2.813,0,3.617-1.447,3.59-2.974-.027-1.715-1.045-2.759-3.59-2.759h-1.688Z" transform="translate(-236.236 -294.767)"/><path class="f" d="M284.735,319.867a3.811,3.811,0,0,1-2.3.938c-1.045,0-1.607-.375-1.822-1.232a5.176,5.176,0,0,1-3.242,1.232,2.9,2.9,0,0,1-2.947-2.947c0-2.384,2.17-3.107,4.1-3.8l2.116-.75v-.643c0-1.5-.723-2.117-2.17-2.117a4.981,4.981,0,0,0-3.8,1.983v-2.6a4.928,4.928,0,0,1,3.992-1.634c2.438,0,4.367,1.232,4.367,3.965v6.189c0,.455.161.616.456.616a2.856,2.856,0,0,0,1.259-.643Zm-4.1-5.251c-2.036.7-3.8,1.393-3.8,2.813a1.639,1.639,0,0,0,1.715,1.688,3.064,3.064,0,0,0,2.09-.991Z" transform="translate(-257.909 -302.396)"/><path class="f" d="M310.3,299.458a1.42,1.42,0,1,1,1.42-1.42A1.429,1.429,0,0,1,310.3,299.458Zm1.179,14.253H309.1V301.682h2.384Z" transform="translate(-278.442 -295.439)"/><path class="f" d="M329.366,309.6h.054a4.65,4.65,0,0,1,3.59-1.822c2.277,0,4.1,1.554,4.1,4.849v7.421h-2.384v-7.448c0-1.768-.911-2.92-2.358-2.92-1.045,0-1.875.482-3,1.741v8.627h-2.384V308.024h2.384Z" transform="translate(-289.226 -302.092)"/><path class="f" d="M365.948,300.8a5.492,5.492,0,0,1,3.322-1.1c3,0,5.2,2.545,5.2,6,0,4.072-2.411,6.51-6.43,6.51a11.1,11.1,0,0,1-4.474-.911V293.7h2.384Zm0,8.787a9.417,9.417,0,0,0,2.411.375,3.656,3.656,0,0,0,3.67-3.911c0-2.545-1.339-4.206-3.349-4.206a3.776,3.776,0,0,0-2.733,1.232Z" transform="translate(-311.021 -293.702)"/><path class="f" d="M411.614,314.684a6.437,6.437,0,1,1-6.51-6.135C408.882,308.549,411.614,311.121,411.614,314.684Zm-10.421,0c0,2.545,1.581,4.233,3.885,4.233a3.857,3.857,0,0,0,4.1-4.206,3.919,3.919,0,0,0-4.1-4.018A3.815,3.815,0,0,0,401.193,314.684Z" transform="translate(-331.988 -302.548)"/><path class="f" d="M445.875,316.433l3.135-7.287h2.545l-5.3,12.27h-.75L441.936,313l-3.536,8.412h-.75l-5.358-12.27h2.545L438,316.433l3.054-7.287h1.768Z" transform="translate(-351.97 -302.904)"/><path class="g" d="M248.543,357.4a11.06,11.06,0,0,0-5.788-1.749,6.392,6.392,0,0,0-6.7,6.428c0,3.768,2.758,6.378,6.8,6.378a11,11,0,0,0,5.861-1.9V369.2a12.307,12.307,0,0,1-6.083,1.478c-6.3,0-9.063-4.852-9.063-8.373,0-5.122,3.867-8.866,9.21-8.866a14.6,14.6,0,0,1,5.763,1.38Z" transform="translate(-233.57 -329.291)"/><path class="f" d="M279.4,358.79h.054a4.649,4.649,0,0,1,3.59-1.822c2.357,0,4.1,1.607,4.1,4.9v7.367h-2.384V361.79c0-1.768-.911-2.92-2.357-2.92-1.045,0-1.875.482-3,1.742v8.626h-2.384V350.967H279.4Z" transform="translate(-259.456 -327.821)"/><path class="f" d="M314.887,356.724a1.42,1.42,0,1,1,1.42-1.42A1.429,1.429,0,0,1,314.887,356.724Zm1.179,14.252h-2.384V358.947h2.384Z" transform="translate(-281.173 -329.559)"/><path class="f" d="M335.237,370.259h-2.385V351.988h2.385Z" transform="translate(-292.723 -328.429)"/><path class="f" d="M358.944,370.025H353.88c-3.59,0-5.84-2.438-5.84-6.3a5.761,5.761,0,0,1,6-5.974,7.054,7.054,0,0,1,2.519.482v-6.484h2.384Zm-2.384-9.671a5.506,5.506,0,0,0-2.223-.456c-2.3,0-3.858,1.661-3.858,4.179,0,2.251.911,3.938,3.67,3.938h2.411Z" transform="translate(-301.772 -328.29)"/><path class="f" d="M389.947,365.289v2.759H390c1.206-2.116,2.358-3,3.483-3a4.188,4.188,0,0,1,2.866,1.393l-1.259,2.063a3.938,3.938,0,0,0-2.224-1.179c-1.634,0-2.92,1.634-2.92,3.7v6.3h-2.384V365.289Z" transform="translate(-325.32 -336.211)"/><path class="f" d="M421.52,376.4a7.826,7.826,0,0,1-4.8,1.42c-3.751,0-5.84-3.081-5.84-6.4,0-3.643,2.3-6.108,5.626-6.108,3.188,0,5.224,2.17,5.224,6.617h-8.466c.375,2.384,1.742,3.617,4.046,3.617a7.659,7.659,0,0,0,4.206-1.447Zm-2.143-6.055c-.08-1.822-1.125-2.974-2.813-2.974-1.822,0-2.92,1.072-3.242,2.974Z" transform="translate(-339.215 -336.363)"/><path class="f" d="M450.682,366.87h.054a4.649,4.649,0,0,1,3.59-1.822c2.277,0,4.1,1.554,4.1,4.849v7.421H456.04V369.87c0-1.768-.911-2.92-2.357-2.92-1.045,0-1.875.482-3,1.742v8.626H448.3V365.289h2.384Z" transform="translate(-361.507 -336.211)"/><path class="f" d="M481.559,358.495a2.974,2.974,0,0,0,1.071-2.867,1.535,1.535,0,0,1-1.42-1.581,1.512,1.512,0,0,1,1.607-1.634c1.1,0,1.795,1.125,1.795,2.492a4.049,4.049,0,0,1-3.054,4.1Z" transform="translate(-381.116 -328.683)"/><path class="f" d="M504.245,367.291a6.741,6.741,0,0,0-3.483-1.26c-.964,0-1.58.456-1.58,1.1,0,.536.8,1.179,2.92,2.411,1.983,1.313,2.706,2.143,2.706,3.376,0,2.116-1.688,3.536-3.965,3.536a8.345,8.345,0,0,1-4.179-1.1v-2.572a7.683,7.683,0,0,0,3.938,1.581c.964-.054,1.768-.509,1.768-1.367,0-1.661-5.626-2.545-5.626-5.786,0-2.036,1.554-3.269,3.965-3.269a7.473,7.473,0,0,1,3.536.992Z" transform="translate(-390.323 -335.551)"/><path class="h" d="M250.315,426.762h-2.24v-7.18h-8.73v7.18h-2.24V410.275h2.24v7.18h8.73v-7.18h2.24Z" transform="translate(-235.677 -363.157)"/><path class="f" d="M292.079,426.661a6.437,6.437,0,1,1-6.51-6.135C289.347,420.526,292.079,423.1,292.079,426.661Zm-10.422,0c0,2.545,1.581,4.233,3.885,4.233a3.856,3.856,0,0,0,4.1-4.206,3.92,3.92,0,0,0-4.1-4.018A3.816,3.816,0,0,0,281.658,426.661Z" transform="translate(-260.769 -369.265)"/><path class="f" d="M325.421,423.194a6.74,6.74,0,0,0-3.483-1.259c-.964,0-1.58.456-1.58,1.1,0,.536.8,1.179,2.92,2.411,1.983,1.313,2.706,2.143,2.706,3.376,0,2.116-1.688,3.536-3.965,3.536a8.346,8.346,0,0,1-4.179-1.1v-2.572a7.685,7.685,0,0,0,3.938,1.581c.964-.054,1.768-.509,1.768-1.367,0-1.661-5.626-2.545-5.626-5.786,0-2.036,1.554-3.269,3.965-3.269a7.472,7.472,0,0,1,3.536.991Z" transform="translate(-283.778 -368.859)"/><path class="f" d="M351.227,438.633h-2.384V420.442h4.126c4.394,0,6.778,2.143,6.778,6.108a5.9,5.9,0,0,1-6.109,6.162,6.072,6.072,0,0,1-2.411-.536Zm0-8.6a5.238,5.238,0,0,0,2.251.536,3.818,3.818,0,0,0,3.831-4.045c0-2.491-1.313-3.938-3.911-3.938h-2.17Z" transform="translate(-302.251 -369.215)"/><path class="f" d="M387.488,412.116a1.42,1.42,0,1,1,1.42-1.42A1.429,1.429,0,0,1,387.488,412.116Zm1.179,14.253h-2.385V414.34h2.385Z" transform="translate(-324.429 -362.562)"/><path class="f" d="M403.322,415.407h3.8v2.143h-3.8v6.162a1.661,1.661,0,0,0,1.715,1.822,5.2,5.2,0,0,0,2.706-.884v2.224a7.146,7.146,0,0,1-2.893.8,3.554,3.554,0,0,1-3.911-3.777v-6.349h-2.09v-.268l4.474-4.367Z" transform="translate(-332.044 -364.731)"/><path class="f" d="M437.042,431.078a3.813,3.813,0,0,1-2.3.938c-1.045,0-1.607-.375-1.822-1.232a5.175,5.175,0,0,1-3.242,1.232,2.9,2.9,0,0,1-2.947-2.947c0-2.384,2.17-3.107,4.1-3.8l2.116-.75v-.643c0-1.5-.723-2.116-2.17-2.116a4.979,4.979,0,0,0-3.8,1.982v-2.6a4.929,4.929,0,0,1,3.992-1.634c2.438,0,4.367,1.232,4.367,3.965v6.188c0,.456.16.616.455.616a2.854,2.854,0,0,0,1.259-.643Zm-4.1-5.251c-2.036.7-3.8,1.393-3.8,2.813a1.639,1.639,0,0,0,1.715,1.688,3.061,3.061,0,0,0,2.089-.992Z" transform="translate(-348.654 -368.656)"/><path class="f" d="M463.061,426.333h-2.384V408.062h2.384Z" transform="translate(-368.882 -361.839)"/></g><g transform="translate(52.898 0)"><g transform="translate(8.588 1.839)"><path class="i" d="M385.692,248.889s12.027-9.923,16.927-11.595a6.152,6.152,0,0,1,2.623,2.771S398.7,242,385.692,248.889Z" transform="translate(-385.692 -237.294)"/></g><path class="j" d="M387.551,259.382s13.188-8.077,20.038-9.338a7.692,7.692,0,0,1,.422,4.483A101.176,101.176,0,0,0,387.551,259.382Z" transform="translate(-378.211 -243.051)"/><path class="k" d="M387.277,272.864s11.336-3.416,19.727-4.883c0,0-1.144,3.621-2.517,4.633C404.487,272.614,387.964,272.358,387.277,272.864Z" transform="translate(-378.048 -253.738)"/><path class="l" d="M386.146,287.525s13.48-.331,15.336-.058c0,0-2.172,2.647-3.8,3.382Z" transform="translate(-377.374 -265.284)"/><path class="m" d="M383.836,296.09l8.172,2.391a28.59,28.59,0,0,1-2.982,1.215Z" transform="translate(-375.998 -270.486)"/><path class="n" d="M381.728,246.63s6.959-9.057,12.14-11.918c0,0,3.267,0,4.042.627A91.748,91.748,0,0,0,381.728,246.63Z" transform="translate(-374.742 -233.916)"/><path class="o" d="M374.772,244.271s4.99-8.135,7.758-10.692a15.826,15.826,0,0,1,4.433-.824s-10.375,9.654-12.146,11.547C374.817,244.3,374.538,244.611,374.772,244.271Z" transform="translate(-370.542 -232.743)"/><path class="p" d="M370.263,246.092a52.15,52.15,0,0,1,3.013-7.047,7.493,7.493,0,0,1,4.126-2.336,117.171,117.171,0,0,0-7.132,9.4" transform="translate(-367.911 -235.106)"/><path class="q" d="M364.444,252.224l.73-4.1a28.631,28.631,0,0,1,2.176-1.913l-2.711,6.159S364.446,252.478,364.444,252.224Z" transform="translate(-364.444 -240.764)"/></g></g><g transform="translate(100.822 21.763)"><path class="r" d="M488.158,296.879a5.147,5.147,0,1,1,5.147-5.147A5.153,5.153,0,0,1,488.158,296.879Zm0-9.081a3.934,3.934,0,1,0,3.934,3.934A3.939,3.939,0,0,0,488.158,287.8Z" transform="translate(-483.011 -286.585)"/><g transform="translate(3.567 2.911)"><path class="s" d="M491.836,293.878a8.684,8.684,0,0,1,1.32-.091,2.236,2.236,0,0,1,1.417.345,1.112,1.112,0,0,1,.4.916,1.163,1.163,0,0,1-.774,1.079v.019a1.106,1.106,0,0,1,.585.819c.136.494.273,1.066.357,1.235h-1.014a5.481,5.481,0,0,1-.306-1.02c-.117-.546-.306-.7-.708-.7h-.3V298.2h-.981Zm.981,1.885h.39c.494,0,.787-.247.787-.63,0-.4-.273-.6-.728-.611a2.487,2.487,0,0,0-.449.032Z" transform="translate(-491.836 -293.787)"/></g></g><g transform="translate(2.058 95.038)"><path class="t" d="M238.661,474.283v-6.408h.848v6.408Z" transform="translate(-238.661 -467.874)"/><path class="t" d="M245.289,473.791l.114.7a2.926,2.926,0,0,1-.594.07,1.348,1.348,0,0,1-.664-.135.758.758,0,0,1-.332-.357,2.811,2.811,0,0,1-.1-.929v-2.671h-.577v-.612h.577V468.7l.783-.472v1.622h.791v.612H244.5v2.715a1.38,1.38,0,0,0,.041.432.332.332,0,0,0,.136.153.522.522,0,0,0,.269.057A2.531,2.531,0,0,0,245.289,473.791Z" transform="translate(-241.328 -468.087)"/><path class="t" d="M257.6,473.791l.114.7a2.927,2.927,0,0,1-.595.07,1.347,1.347,0,0,1-.664-.135.761.761,0,0,1-.333-.357,2.826,2.826,0,0,1-.1-.929v-2.671h-.577v-.612h.577V468.7l.783-.472v1.622h.791v.612H256.8v2.715a1.367,1.367,0,0,0,.041.432.327.327,0,0,0,.136.153.521.521,0,0,0,.269.057A2.531,2.531,0,0,0,257.6,473.791Z" transform="translate(-248.661 -468.087)"/><path class="t" d="M265.306,476.158a2.923,2.923,0,0,1-.842.524,2.424,2.424,0,0,1-.867.153,1.687,1.687,0,0,1-1.176-.374,1.234,1.234,0,0,1-.411-.955,1.294,1.294,0,0,1,.561-1.075,1.914,1.914,0,0,1,.566-.258,5.625,5.625,0,0,1,.7-.118,7.161,7.161,0,0,0,1.4-.271c0-.107,0-.176,0-.205a.868.868,0,0,0-.223-.677,1.317,1.317,0,0,0-.9-.267,1.393,1.393,0,0,0-.82.194,1.189,1.189,0,0,0-.391.688l-.77-.1a1.906,1.906,0,0,1,.345-.8,1.512,1.512,0,0,1,.7-.468,3.094,3.094,0,0,1,1.053-.164,2.8,2.8,0,0,1,.966.14,1.276,1.276,0,0,1,.546.352,1.24,1.24,0,0,1,.245.536,4.471,4.471,0,0,1,.039.725v1.049a11.229,11.229,0,0,0,.05,1.388,1.755,1.755,0,0,0,.2.557h-.822A1.678,1.678,0,0,1,265.306,476.158Zm-.066-1.757a5.745,5.745,0,0,1-1.285.3,2.978,2.978,0,0,0-.686.158.682.682,0,0,0-.311.256.7.7,0,0,0,.129.9,1.025,1.025,0,0,0,.7.21,1.624,1.624,0,0,0,.809-.2,1.223,1.223,0,0,0,.52-.544,1.9,1.9,0,0,0,.127-.787Z" transform="translate(-252.573 -470.322)"/><path class="t" d="M275,474.283v-6.408h.787v3.654l1.862-1.888h1.019l-1.775,1.722,1.954,2.92h-.97l-1.534-2.374-.555.534v1.84Z" transform="translate(-260.311 -467.874)"/><path class="t" d="M288.853,475.236l.813.1a1.986,1.986,0,0,1-.713,1.106,2.414,2.414,0,0,1-2.944-.234,2.454,2.454,0,0,1-.6-1.76,2.565,2.565,0,0,1,.6-1.818,2.043,2.043,0,0,1,1.565-.647,1.985,1.985,0,0,1,1.521.634,2.517,2.517,0,0,1,.59,1.783c0,.047,0,.117,0,.21h-3.462a1.784,1.784,0,0,0,.433,1.172,1.289,1.289,0,0,0,.97.407,1.205,1.205,0,0,0,.739-.228A1.512,1.512,0,0,0,288.853,475.236Zm-2.584-1.272h2.592a1.571,1.571,0,0,0-.3-.879,1.206,1.206,0,0,0-.975-.455,1.252,1.252,0,0,0-.911.363A1.436,1.436,0,0,0,286.27,473.964Z" transform="translate(-266.516 -470.322)"/><path class="t" d="M297.6,475.345l.778-.122a1.087,1.087,0,0,0,.365.717,1.272,1.272,0,0,0,.837.249,1.233,1.233,0,0,0,.8-.221.661.661,0,0,0,.262-.518.479.479,0,0,0-.232-.42,3.435,3.435,0,0,0-.8-.266,7.4,7.4,0,0,1-1.2-.378,1.147,1.147,0,0,1-.68-1.065,1.194,1.194,0,0,1,.142-.575,1.27,1.27,0,0,1,.387-.439,1.624,1.624,0,0,1,.5-.23,2.4,2.4,0,0,1,.68-.094,2.679,2.679,0,0,1,.959.158,1.3,1.3,0,0,1,.61.426,1.663,1.663,0,0,1,.271.719l-.77.105a.841.841,0,0,0-.3-.559,1.112,1.112,0,0,0-.711-.2,1.288,1.288,0,0,0-.774.179.523.523,0,0,0-.232.42.433.433,0,0,0,.1.275.7.7,0,0,0,.3.21q.118.044.7.2a9.753,9.753,0,0,1,1.165.365,1.184,1.184,0,0,1,.518.413,1.155,1.155,0,0,1,.188.673,1.324,1.324,0,0,1-.229.741,1.485,1.485,0,0,1-.662.538,2.414,2.414,0,0,1-.979.19,2.181,2.181,0,0,1-1.379-.376A1.746,1.746,0,0,1,297.6,475.345Z" transform="translate(-273.778 -470.322)"/><path class="t" d="M318.244,476.158a2.923,2.923,0,0,1-.842.524,2.424,2.424,0,0,1-.867.153,1.687,1.687,0,0,1-1.176-.374,1.234,1.234,0,0,1-.411-.955,1.294,1.294,0,0,1,.561-1.075,1.914,1.914,0,0,1,.566-.258,5.621,5.621,0,0,1,.7-.118,7.16,7.16,0,0,0,1.4-.271c0-.107,0-.176,0-.205a.868.868,0,0,0-.223-.677,1.317,1.317,0,0,0-.9-.267,1.393,1.393,0,0,0-.82.194,1.189,1.189,0,0,0-.391.688l-.77-.1a1.906,1.906,0,0,1,.345-.8,1.512,1.512,0,0,1,.7-.468,3.094,3.094,0,0,1,1.053-.164,2.8,2.8,0,0,1,.966.14,1.276,1.276,0,0,1,.546.352,1.24,1.24,0,0,1,.245.536,4.475,4.475,0,0,1,.039.725v1.049a11.238,11.238,0,0,0,.05,1.388,1.757,1.757,0,0,0,.2.557H318.4A1.679,1.679,0,0,1,318.244,476.158Zm-.065-1.757a5.745,5.745,0,0,1-1.285.3,2.989,2.989,0,0,0-.686.158.683.683,0,0,0-.31.256.7.7,0,0,0,.129.9,1.024,1.024,0,0,0,.7.21,1.624,1.624,0,0,0,.809-.2,1.224,1.224,0,0,0,.52-.544,1.9,1.9,0,0,0,.127-.787Z" transform="translate(-284.113 -470.322)"/><path class="t" d="M334.036,474.283v-6.408h.787v6.408Z" transform="translate(-295.486 -467.874)"/><path class="t" d="M338.275,474.409a2.393,2.393,0,0,1,.717-1.91,2.16,2.16,0,0,1,1.46-.516,2.082,2.082,0,0,1,1.565.628,2.386,2.386,0,0,1,.608,1.733,3.075,3.075,0,0,1-.269,1.41,1.9,1.9,0,0,1-.783.8,2.277,2.277,0,0,1-1.121.284,2.086,2.086,0,0,1-1.576-.625A2.5,2.5,0,0,1,338.275,474.409Zm.809,0a1.976,1.976,0,0,0,.389,1.335,1.295,1.295,0,0,0,1.954,0,2.023,2.023,0,0,0,.389-1.359,1.92,1.92,0,0,0-.391-1.305,1.3,1.3,0,0,0-1.952,0A1.967,1.967,0,0,0,339.084,474.409Z" transform="translate(-298.012 -470.322)"/><path class="t" d="M352.4,473.791l.114.7a2.926,2.926,0,0,1-.595.07,1.348,1.348,0,0,1-.664-.135.762.762,0,0,1-.332-.357,2.812,2.812,0,0,1-.1-.929v-2.671h-.577v-.612h.577V468.7l.782-.472v1.622h.791v.612h-.791v2.715a1.361,1.361,0,0,0,.042.432.329.329,0,0,0,.135.153.523.523,0,0,0,.269.057A2.526,2.526,0,0,0,352.4,473.791Z" transform="translate(-305.145 -468.087)"/><path class="t" d="M364.7,473.791l.114.7a2.927,2.927,0,0,1-.595.07,1.347,1.347,0,0,1-.664-.135.761.761,0,0,1-.333-.357,2.825,2.825,0,0,1-.1-.929v-2.671h-.577v-.612h.577V468.7l.782-.472v1.622h.791v.612h-.791v2.715a1.362,1.362,0,0,0,.042.432.329.329,0,0,0,.135.153.524.524,0,0,0,.269.057A2.536,2.536,0,0,0,364.7,473.791Z" transform="translate(-312.477 -468.087)"/><path class="t" d="M369.054,474.409a2.393,2.393,0,0,1,.717-1.91,2.16,2.16,0,0,1,1.46-.516,2.082,2.082,0,0,1,1.565.628,2.386,2.386,0,0,1,.607,1.733,3.07,3.07,0,0,1-.269,1.41,1.9,1.9,0,0,1-.783.8,2.276,2.276,0,0,1-1.121.284,2.085,2.085,0,0,1-1.576-.625A2.5,2.5,0,0,1,369.054,474.409Zm.809,0a1.976,1.976,0,0,0,.389,1.335,1.295,1.295,0,0,0,1.954,0,2.023,2.023,0,0,0,.389-1.359,1.92,1.92,0,0,0-.391-1.305,1.3,1.3,0,0,0-1.952,0A1.967,1.967,0,0,0,369.863,474.409Z" transform="translate(-316.35 -470.322)"/><path class="t" d="M389.33,473.791l.114.7a2.926,2.926,0,0,1-.594.07,1.347,1.347,0,0,1-.664-.135.758.758,0,0,1-.332-.357,2.811,2.811,0,0,1-.1-.929v-2.671h-.577v-.612h.577V468.7l.783-.472v1.622h.791v.612h-.791v2.715a1.363,1.363,0,0,0,.042.432.329.329,0,0,0,.135.153.522.522,0,0,0,.269.057A2.532,2.532,0,0,0,389.33,473.791Z" transform="translate(-327.149 -468.087)"/><path class="t" d="M394.382,476.731v-4.643h.708v.7a1.927,1.927,0,0,1,.5-.651.872.872,0,0,1,.5-.158,1.536,1.536,0,0,1,.809.254l-.271.73a1.125,1.125,0,0,0-.577-.171.749.749,0,0,0-.464.155.842.842,0,0,0-.293.43,3.071,3.071,0,0,0-.131.918v2.43Z" transform="translate(-331.441 -470.322)"/><path class="t" d="M404.57,475.236l.813.1a1.986,1.986,0,0,1-.713,1.106,2.415,2.415,0,0,1-2.944-.234,2.454,2.454,0,0,1-.6-1.76,2.564,2.564,0,0,1,.6-1.818,2.043,2.043,0,0,1,1.565-.647,1.984,1.984,0,0,1,1.521.634,2.517,2.517,0,0,1,.591,1.783c0,.047,0,.117,0,.21h-3.462a1.781,1.781,0,0,0,.432,1.172,1.289,1.289,0,0,0,.97.407,1.2,1.2,0,0,0,.739-.228A1.511,1.511,0,0,0,404.57,475.236Zm-2.583-1.272h2.592a1.574,1.574,0,0,0-.3-.879,1.206,1.206,0,0,0-.974-.455,1.251,1.251,0,0,0-.911.363A1.433,1.433,0,0,0,401.987,473.964Z" transform="translate(-335.461 -470.322)"/><path class="t" d="M416.733,476.158a2.923,2.923,0,0,1-.842.524,2.424,2.424,0,0,1-.867.153,1.686,1.686,0,0,1-1.176-.374,1.233,1.233,0,0,1-.411-.955,1.293,1.293,0,0,1,.562-1.075,1.907,1.907,0,0,1,.566-.258,5.62,5.62,0,0,1,.7-.118,7.155,7.155,0,0,0,1.4-.271c0-.107,0-.176,0-.205a.868.868,0,0,0-.223-.677,1.316,1.316,0,0,0-.9-.267,1.392,1.392,0,0,0-.819.194,1.188,1.188,0,0,0-.391.688l-.77-.1a1.906,1.906,0,0,1,.345-.8,1.512,1.512,0,0,1,.7-.468,3.1,3.1,0,0,1,1.054-.164,2.8,2.8,0,0,1,.966.14,1.276,1.276,0,0,1,.546.352,1.235,1.235,0,0,1,.245.536,4.424,4.424,0,0,1,.039.725v1.049a11.229,11.229,0,0,0,.05,1.388,1.756,1.756,0,0,0,.2.557h-.822A1.678,1.678,0,0,1,416.733,476.158Zm-.066-1.757a5.739,5.739,0,0,1-1.285.3,2.978,2.978,0,0,0-.686.158.682.682,0,0,0-.31.256.7.7,0,0,0,.129.9,1.026,1.026,0,0,0,.7.21,1.624,1.624,0,0,0,.809-.2,1.223,1.223,0,0,0,.52-.544,1.9,1.9,0,0,0,.127-.787Z" transform="translate(-342.794 -470.322)"/><path class="t" d="M427.495,473.791l.114.7a2.926,2.926,0,0,1-.594.07,1.347,1.347,0,0,1-.664-.135.758.758,0,0,1-.332-.357,2.813,2.813,0,0,1-.1-.929v-2.671h-.577v-.612h.577V468.7l.783-.472v1.622h.791v.612H426.7v2.715a1.363,1.363,0,0,0,.042.432.329.329,0,0,0,.135.153.522.522,0,0,0,.269.057A2.531,2.531,0,0,0,427.495,473.791Z" transform="translate(-349.888 -468.087)"/><path class="t" d="M439.8,473.791l.114.7a2.923,2.923,0,0,1-.594.07,1.348,1.348,0,0,1-.664-.135.762.762,0,0,1-.332-.357,2.813,2.813,0,0,1-.1-.929v-2.671h-.577v-.612h.577V468.7l.783-.472v1.622h.791v.612h-.791v2.715a1.363,1.363,0,0,0,.042.432.329.329,0,0,0,.135.153.523.523,0,0,0,.269.057A2.531,2.531,0,0,0,439.8,473.791Z" transform="translate(-357.221 -468.087)"/><path class="t" d="M444.875,474.283v-6.408h.787v2.3a1.758,1.758,0,0,1,1.39-.639,1.875,1.875,0,0,1,.9.2,1.2,1.2,0,0,1,.544.562,2.594,2.594,0,0,1,.164,1.04v2.942h-.787V471.34a1.216,1.216,0,0,0-.256-.859.952.952,0,0,0-.723-.269,1.281,1.281,0,0,0-.658.181,1.029,1.029,0,0,0-.439.492,2.265,2.265,0,0,0-.131.857v2.54Z" transform="translate(-361.525 -467.874)"/><path class="t" d="M459.984,475.236l.813.1a1.983,1.983,0,0,1-.713,1.106,2.414,2.414,0,0,1-2.944-.234,2.454,2.454,0,0,1-.6-1.76,2.565,2.565,0,0,1,.6-1.818,2.043,2.043,0,0,1,1.565-.647,1.985,1.985,0,0,1,1.521.634,2.517,2.517,0,0,1,.59,1.783c0,.047,0,.117,0,.21h-3.462a1.785,1.785,0,0,0,.432,1.172,1.29,1.29,0,0,0,.971.407,1.2,1.2,0,0,0,.739-.228A1.509,1.509,0,0,0,459.984,475.236Zm-2.584-1.272h2.592a1.572,1.572,0,0,0-.3-.879,1.206,1.206,0,0,0-.975-.455,1.251,1.251,0,0,0-.911.363A1.436,1.436,0,0,0,457.4,473.964Z" transform="translate(-368.477 -470.322)"/><path class="t" d="M475.622,474.283v-6.408h.787v6.408Z" transform="translate(-379.844 -467.874)"/><path class="t" d="M480.6,468.779v-.9h.787v.9Zm0,5.5V469.64h.787v4.643Z" transform="translate(-382.808 -467.874)"/><path class="t" d="M486.586,473.791l.114.7a2.928,2.928,0,0,1-.595.07,1.348,1.348,0,0,1-.664-.135.762.762,0,0,1-.332-.357,2.816,2.816,0,0,1-.1-.929v-2.671h-.577v-.612h.577V468.7l.783-.472v1.622h.791v.612H485.8v2.715a1.365,1.365,0,0,0,.042.432.329.329,0,0,0,.135.153.523.523,0,0,0,.269.057A2.525,2.525,0,0,0,486.586,473.791Z" transform="translate(-385.096 -468.087)"/><path class="t" d="M492.74,473.791l.114.7a2.922,2.922,0,0,1-.594.07,1.348,1.348,0,0,1-.664-.135.76.76,0,0,1-.332-.357,2.81,2.81,0,0,1-.1-.929v-2.671h-.577v-.612h.577V468.7l.782-.472v1.622h.791v.612h-.791v2.715a1.367,1.367,0,0,0,.042.432.329.329,0,0,0,.135.153.523.523,0,0,0,.269.057A2.53,2.53,0,0,0,492.74,473.791Z" transform="translate(-388.762 -468.087)"/><path class="t" d="M497.77,474.283v-6.408h.787v6.408Z" transform="translate(-393.04 -467.874)"/><path class="t" d="M505.526,475.236l.813.1a1.983,1.983,0,0,1-.713,1.106,2.414,2.414,0,0,1-2.944-.234,2.453,2.453,0,0,1-.6-1.76,2.565,2.565,0,0,1,.6-1.818,2.043,2.043,0,0,1,1.565-.647,1.985,1.985,0,0,1,1.521.634,2.517,2.517,0,0,1,.59,1.783q0,.07,0,.21H502.9a1.786,1.786,0,0,0,.432,1.172,1.29,1.29,0,0,0,.971.407,1.2,1.2,0,0,0,.739-.228A1.51,1.51,0,0,0,505.526,475.236Zm-2.584-1.272h2.592a1.57,1.57,0,0,0-.3-.879,1.206,1.206,0,0,0-.975-.455,1.251,1.251,0,0,0-.911.363A1.436,1.436,0,0,0,502.942,473.964Z" transform="translate(-395.611 -470.322)"/><path class="t" d="M515.6,482.408v-.9h.9v.9Z" transform="translate(-403.666 -476)"/></g></g></g></g></svg>