<svg xmlns="http://www.w3.org/2000/svg" width="28.343" height="30.367" viewBox="0 0 28.343 30.367"><defs><style>.a,.b{fill:none;stroke-miterlimit:10;stroke-width:1.5px;}.a{stroke:#393939;}.b{stroke:#d8213b;}</style></defs><g transform="translate(0.668 0.654)"><path class="a" d="M2.994,0A2.978,2.978,0,0,0,0,2.961V9.5a1.535,1.535,0,0,0,1.543,1.527h3.1A1.766,1.766,0,0,0,6.414,9.269V6.438A1.766,1.766,0,0,1,8.19,4.682h3.34a1.766,1.766,0,0,1,1.776,1.756V9.269a1.766,1.766,0,0,0,1.776,1.756h2.862a1.766,1.766,0,0,1,1.776,1.756v3.3a1.766,1.766,0,0,1-1.776,1.757H15.082A1.766,1.766,0,0,0,13.306,19.6v2.831a1.766,1.766,0,0,1-1.776,1.756H8.19a1.766,1.766,0,0,1-1.776-1.756V19.6a1.766,1.766,0,0,0-1.776-1.756h-3.1A1.535,1.535,0,0,0,0,19.368v6.538a2.978,2.978,0,0,0,2.994,2.961h9.254A14.515,14.515,0,0,0,26.843,14.434,14.515,14.515,0,0,0,12.249,0Z" transform="translate(0.082 0.096)"/><path class="b" d="M3.751.036C1.879-.187.172.626.02,2.447c-.155,1.858.6,3.2,2.471,3.421s4.159-.5,4.308-2.616C6.931,1.392,5.623.258,3.751.036" transform="translate(6.518 11.654)"/></g></svg>