<svg xmlns="http://www.w3.org/2000/svg" xmlns:xlink="http://www.w3.org/1999/xlink" width="568.876" height="661.6" viewBox="0 0 568.876 661.6">
  <defs>
    <linearGradient id="linear-gradient" x1="-0.002" y1="0.493" x2="0.979" y2="0.493" gradientUnits="objectBoundingBox">
      <stop offset="0" stop-color="#0657c8"/>
      <stop offset="0.577" stop-color="#4598bf"/>
      <stop offset="1" stop-color="#91d8f6"/>
    </linearGradient>
    <linearGradient id="linear-gradient-2" x1="0.004" y1="0.481" x2="0.991" y2="0.481" gradientUnits="objectBoundingBox">
      <stop offset="0" stop-color="#0657c8"/>
      <stop offset="0.242" stop-color="#06b5e3"/>
      <stop offset="0.577" stop-color="#00ade7"/>
      <stop offset="1" stop-color="#2ca49f"/>
    </linearGradient>
    <linearGradient id="linear-gradient-3" x1="0.054" y1="0.546" x2="1.065" y2="0.546" gradientUnits="objectBoundingBox">
      <stop offset="0" stop-color="#ca7096"/>
      <stop offset="0.488" stop-color="#d1147d"/>
      <stop offset="1" stop-color="#991156"/>
    </linearGradient>
    <linearGradient id="linear-gradient-4" x1="-0.009" y1="0.516" x2="0.953" y2="0.516" gradientUnits="objectBoundingBox">
      <stop offset="0" stop-color="#e5bc45"/>
      <stop offset="0.488" stop-color="#f36726"/>
      <stop offset="1" stop-color="#ae262c"/>
    </linearGradient>
  </defs>
  <g id="Group_14379" data-name="Group 14379" transform="translate(0 -177)">
    <path id="Path_2266" data-name="Path 2266" d="M283.725-65.637c156.92,0,284.128,125.583,284.128,280.5s-127.209,280.5-284.128,280.5S-.4,369.775-.4,214.86c0-69.247-1.392-318.681,0-381.1C65.7-46.37,196.948-65.637,283.725-65.637Z" transform="translate(1.022 343.242)" fill="#f5f7f9"/>
    <g id="Group_9945" data-name="Group 9945" transform="translate(57.712 470.707)">
      <line id="Line_72" data-name="Line 72" y2="139.237" transform="translate(179.667 0.535)" fill="none" stroke="#707070" stroke-width="1"/>
      <g id="Group_9951" data-name="Group 9951" transform="translate(200.834 40.454)">
        <g id="Group_9946" data-name="Group 9946" transform="translate(0 0)">
          <circle id="Ellipse_8" data-name="Ellipse 8" cx="19.331" cy="19.331" r="19.331" transform="translate(1.048)" fill="#6d3c92"/>
          <path id="Path_8659" data-name="Path 8659" d="M-159.381,1108.805s5.238,10.475,18.785,9.935c0,0,28.539-5.6,36.126,20.41,0,0,6.142,27.817-22.578,34.32,0,0-25.288,5.6-31.791-24.385C-158.839,1149.084-160.466,1134.223-159.381,1108.805Z" transform="translate(159.754 -1076.383)" fill="#6d3c92"/>
        </g>
        <g id="Group_9947" data-name="Group 9947" transform="translate(63.401 16.336)">
          <path id="Path_8660" data-name="Path 8660" d="M-108.7,1128.282h-7.464a2.77,2.77,0,0,1-2.307-.873,4.491,4.491,0,0,1-.69-2.782v-22.142a4.386,4.386,0,0,1,.708-2.8,2.81,2.81,0,0,1,2.29-.854h7.913a15.453,15.453,0,0,1,3.03.261,5.8,5.8,0,0,1,2.3,1,6.47,6.47,0,0,1,1.532,1.578,7.41,7.41,0,0,1,1.017,2.11,8.382,8.382,0,0,1,.35,2.44,6.887,6.887,0,0,1-3.666,6.47,7.041,7.041,0,0,1,4.814,7.192,9.347,9.347,0,0,1-1.048,4.45,6.782,6.782,0,0,1-2.832,2.923,8.768,8.768,0,0,1-2.565.8A21.89,21.89,0,0,1-108.7,1128.282Zm-5.514-24.973v7.614h4.532a7.651,7.651,0,0,0,2.855-.42,2.951,2.951,0,0,0,1.542-1.609,4.2,4.2,0,0,0,.417-1.887q0-2.231-1.317-2.963a8.519,8.519,0,0,0-4.015-.734Zm5.147,11.9h-5.147v8.6h5.314q5.012,0,5.014-4.36a3.84,3.84,0,0,0-1.3-3.236A6.3,6.3,0,0,0-109.072,1115.2Z" transform="translate(119.166 -1098.326)" fill="#7b3996"/>
          <path id="Path_8661" data-name="Path 8661" d="M-100.671,1104.158a2.168,2.168,0,0,1-1.623-.7,2.757,2.757,0,0,1-.675-1.99,2.728,2.728,0,0,1,.69-1.918,2.12,2.12,0,0,1,1.607-.753,2.155,2.155,0,0,1,1.567.684,2.691,2.691,0,0,1,.683,1.987,2.779,2.779,0,0,1-.667,1.979A2.09,2.09,0,0,1-100.671,1104.158Zm2.249,5.666v15.854a4.036,4.036,0,0,1-.65,2.49,2,2,0,0,1-1.648.845,1.922,1.922,0,0,1-1.625-.866,4.167,4.167,0,0,1-.625-2.469v-15.693a4.017,4.017,0,0,1,.625-2.451,1.943,1.943,0,0,1,1.625-.823,2.01,2.01,0,0,1,1.648.823A3.617,3.617,0,0,1-98.422,1109.824Z" transform="translate(128.27 -1098.346)" fill="#7b3996"/>
          <path id="Path_8662" data-name="Path 8662" d="M-91.982,1118.412v4.634a4.105,4.105,0,0,1-.65,2.528,2,2,0,0,1-1.65.846,1.934,1.934,0,0,1-1.615-.855,4.188,4.188,0,0,1-.633-2.518V1107.6q0-3.738,2.215-3.738a1.734,1.734,0,0,1,1.632.874,5.663,5.663,0,0,1,.55,2.582,9.55,9.55,0,0,1,1.675-2.582,3.062,3.062,0,0,1,2.29-.874,5.052,5.052,0,0,1,2.782.874,2.65,2.65,0,0,1,1.35,2.315,2.464,2.464,0,0,1-.575,1.678,1.645,1.645,0,0,1-1.24.659,4.819,4.819,0,0,1-1.209-.374,4.75,4.75,0,0,0-1.69-.376,2.19,2.19,0,0,0-1.632.642,4.289,4.289,0,0,0-.984,1.9,15.9,15.9,0,0,0-.483,3Q-91.983,1115.912-91.982,1118.412Z" transform="translate(131.889 -1095.497)" fill="#7b3996"/>
          <path id="Path_8663" data-name="Path 8663" d="M-84.7,1107.159h.5v-3.3q0-1.326.058-2.079a3.543,3.543,0,0,1,.325-1.3,2.307,2.307,0,0,1,.767-.914,1.893,1.893,0,0,1,1.115-.351,2.071,2.071,0,0,1,1.567.782,2.485,2.485,0,0,1,.59,1.277,14.013,14.013,0,0,1,.125,2.14v3.738h1.665a1.9,1.9,0,0,1,1.475.552,2.013,2.013,0,0,1,.509,1.417,1.66,1.66,0,0,1-.726,1.546,4,4,0,0,1-2.073.442h-.85V1121.2a19.712,19.712,0,0,0,.075,1.979,2.247,2.247,0,0,0,.4,1.126,1.238,1.238,0,0,0,1.058.431,4.718,4.718,0,0,0,1.083-.17,4.725,4.725,0,0,1,1.067-.172,1.28,1.28,0,0,1,.99.531,2,2,0,0,1,.442,1.318,2.226,2.226,0,0,1-1.2,2.029,6.916,6.916,0,0,1-3.447.7,5.147,5.147,0,0,1-3.232-.865,4.049,4.049,0,0,1-1.442-2.39,19.519,19.519,0,0,1-.341-4.079v-10.528h-.6a1.934,1.934,0,0,1-1.5-.563,2.026,2.026,0,0,1-.517-1.426,1.943,1.943,0,0,1,.542-1.417A2.105,2.105,0,0,1-84.7,1107.159Z" transform="translate(137.348 -1098.105)" fill="#7b3996"/>
          <path id="Path_8664" data-name="Path 8664" d="M-70.78,1101.974v8.138a10.783,10.783,0,0,1,1.692-1.909,5.675,5.675,0,0,1,1.823-1.054,6.428,6.428,0,0,1,2.149-.352,5.45,5.45,0,0,1,3.074.884,5.9,5.9,0,0,1,2.107,2.571,7.221,7.221,0,0,1,.65,2.2,21.191,21.191,0,0,1,.166,2.8v10.508a4.152,4.152,0,0,1-.625,2.49,1.963,1.963,0,0,1-1.657.845q-2.247,0-2.248-3.335V1116.5a10.013,10.013,0,0,0-.65-4.049,2.457,2.457,0,0,0-2.465-1.417,3.282,3.282,0,0,0-2.192.834,5.006,5.006,0,0,0-1.457,2.281,17.5,17.5,0,0,0-.367,4.36v7.254a4.246,4.246,0,0,1-.608,2.481,1.961,1.961,0,0,1-1.69.854q-2.249,0-2.249-3.335v-23.79a4.323,4.323,0,0,1,.592-2.5,1.918,1.918,0,0,1,1.657-.834,1.968,1.968,0,0,1,1.69.845A4.236,4.236,0,0,1-70.78,1101.974Z" transform="translate(143.806 -1098.433)" fill="#7b3996"/>
          <path id="Path_8665" data-name="Path 8665" d="M-53.558,1115.819H-55.29v9.462a4.5,4.5,0,0,1-.684,2.754,2.151,2.151,0,0,1-1.782.884,2.112,2.112,0,0,1-1.832-.926,4.7,4.7,0,0,1-.65-2.712v-22.663a4.361,4.361,0,0,1,.717-2.793,2.847,2.847,0,0,1,2.315-.864h8.046a20.3,20.3,0,0,1,2.849.172,6.193,6.193,0,0,1,2.131.692,6.233,6.233,0,0,1,2.032,1.668,7.6,7.6,0,0,1,1.342,2.521,9.934,9.934,0,0,1,.458,3.043,8.317,8.317,0,0,1-1.54,5.264,8.414,8.414,0,0,1-4.672,2.793,9.669,9.669,0,0,1,2.515,2.491,25.385,25.385,0,0,1,2.14,3.507,28.109,28.109,0,0,1,1.467,3.354,7.692,7.692,0,0,1,.525,2.06,2.422,2.422,0,0,1-.308,1.154,2.37,2.37,0,0,1-.842.9,2.283,2.283,0,0,1-1.232.333,2.118,2.118,0,0,1-1.4-.473,4.251,4.251,0,0,1-.975-1.195q-.408-.724-1.108-2.131l-1.982-3.977a22.476,22.476,0,0,0-1.907-3.335,4.906,4.906,0,0,0-1.707-1.567A4.981,4.981,0,0,0-53.558,1115.819Zm2.832-12.378H-55.29v8.1h4.43a10.374,10.374,0,0,0,3-.372A3.433,3.433,0,0,0-46,1109.9a4.168,4.168,0,0,0,.642-2.462,4.392,4.392,0,0,0-.517-2.159,3.319,3.319,0,0,0-1.432-1.4A8.609,8.609,0,0,0-50.726,1103.441Z" transform="translate(152.287 -1098.252)" fill="#7b3996"/>
          <path id="Path_8666" data-name="Path 8666" d="M-42.253,1104.158a2.169,2.169,0,0,1-1.625-.7,2.757,2.757,0,0,1-.675-1.99,2.73,2.73,0,0,1,.692-1.918,2.115,2.115,0,0,1,1.607-.753,2.151,2.151,0,0,1,1.565.684,2.691,2.691,0,0,1,.683,1.987,2.779,2.779,0,0,1-.667,1.979A2.087,2.087,0,0,1-42.253,1104.158Zm2.248,5.666v15.854a4.036,4.036,0,0,1-.65,2.49,2,2,0,0,1-1.648.845,1.922,1.922,0,0,1-1.625-.866,4.167,4.167,0,0,1-.625-2.469v-15.693a4.017,4.017,0,0,1,.625-2.451,1.943,1.943,0,0,1,1.625-.823,2.01,2.01,0,0,1,1.648.823A3.617,3.617,0,0,1-40,1109.824Z" transform="translate(161.104 -1098.346)" fill="#7b3996"/>
          <path id="Path_8667" data-name="Path 8667" d="M-20.874,1107.88v15.932a19.958,19.958,0,0,1-.483,4.7,8.012,8.012,0,0,1-1.548,3.254,6.327,6.327,0,0,1-2.791,1.909,12.72,12.72,0,0,1-4.289.623,10.541,10.541,0,0,1-4.2-.793,7.162,7.162,0,0,1-2.849-2.048,4.119,4.119,0,0,1-1-2.582,2.361,2.361,0,0,1,.565-1.638,1.773,1.773,0,0,1,1.365-.633,2.133,2.133,0,0,1,1.75,1.065c.245.361.5.726.758,1.094a4.894,4.894,0,0,0,.867.944,3.148,3.148,0,0,0,1.14.584,5.616,5.616,0,0,0,1.534.189,5.292,5.292,0,0,0,2.74-.592,3.163,3.163,0,0,0,1.365-1.657,7.8,7.8,0,0,0,.458-2.281q.068-1.214.1-3.907a8.25,8.25,0,0,1-2.424,2.693,5.745,5.745,0,0,1-3.274.923,6.08,6.08,0,0,1-3.988-1.406,8.86,8.86,0,0,1-2.624-3.939,17.13,17.13,0,0,1-.917-5.845,16.464,16.464,0,0,1,.559-4.461,9.945,9.945,0,0,1,1.59-3.353,7.013,7.013,0,0,1,2.382-2.061,6.384,6.384,0,0,1,2.965-.694,6.163,6.163,0,0,1,3.349.894,8.873,8.873,0,0,1,2.632,2.8v-.744a3.64,3.64,0,0,1,.583-2.21,1.79,1.79,0,0,1,1.5-.783,1.706,1.706,0,0,1,1.75,1.034A8.022,8.022,0,0,1-20.874,1107.88Zm-13.176,6.951a8.725,8.725,0,0,0,1.207,5.044,3.675,3.675,0,0,0,3.124,1.708,3.578,3.578,0,0,0,2.14-.734,5.158,5.158,0,0,0,1.642-2.21,9.089,9.089,0,0,0,.633-3.585,9.485,9.485,0,0,0-1.225-5.225,3.708,3.708,0,0,0-3.223-1.866,3.583,3.583,0,0,0-3.124,1.787A9.243,9.243,0,0,0-34.05,1114.831Z" transform="translate(164.442 -1095.241)" fill="#7b3996"/>
          <path id="Path_8668" data-name="Path 8668" d="M-19.669,1101.842v8.137a10.707,10.707,0,0,1,1.69-1.907,5.71,5.71,0,0,1,1.825-1.056,6.421,6.421,0,0,1,2.148-.35,5.458,5.458,0,0,1,3.074.883,5.9,5.9,0,0,1,2.107,2.573,7.169,7.169,0,0,1,.65,2.2,20.888,20.888,0,0,1,.167,2.8v10.508a4.168,4.168,0,0,1-.625,2.492,1.965,1.965,0,0,1-1.657.844q-2.249,0-2.249-3.335v-9.263a10.01,10.01,0,0,0-.65-4.047,2.453,2.453,0,0,0-2.465-1.417,3.284,3.284,0,0,0-2.192.834,4.99,4.99,0,0,0-1.457,2.281,17.514,17.514,0,0,0-.366,4.36v7.253a4.263,4.263,0,0,1-.608,2.482,1.964,1.964,0,0,1-1.692.853q-2.249,0-2.249-3.335v-23.789a4.319,4.319,0,0,1,.592-2.5,1.915,1.915,0,0,1,1.657-.834,1.967,1.967,0,0,1,1.692.845A4.245,4.245,0,0,1-19.669,1101.842Z" transform="translate(172.533 -1098.507)" fill="#7b3996"/>
          <path id="Path_8669" data-name="Path 8669" d="M-9.5,1107.027H-9v-3.3q0-1.326.058-2.079a3.541,3.541,0,0,1,.325-1.3,2.3,2.3,0,0,1,.767-.914,1.892,1.892,0,0,1,1.115-.351,2.071,2.071,0,0,1,1.567.783,2.486,2.486,0,0,1,.59,1.276,14,14,0,0,1,.125,2.14v3.738h1.665a1.9,1.9,0,0,1,1.475.552A2.013,2.013,0,0,1-.8,1109a1.66,1.66,0,0,1-.726,1.546,4.016,4.016,0,0,1-2.073.441h-.85v10.088a19.706,19.706,0,0,0,.075,1.979,2.234,2.234,0,0,0,.4,1.125,1.236,1.236,0,0,0,1.058.432,4.728,4.728,0,0,0,1.083-.172,4.706,4.706,0,0,1,1.067-.17,1.274,1.274,0,0,1,.99.531,2,2,0,0,1,.442,1.317,2.224,2.224,0,0,1-1.2,2.029,6.9,6.9,0,0,1-3.447.7,5.157,5.157,0,0,1-3.232-.866,4.056,4.056,0,0,1-1.442-2.391A19.5,19.5,0,0,1-9,1121.512v-10.53h-.6a1.934,1.934,0,0,1-1.5-.561,2.031,2.031,0,0,1-.517-1.426,1.942,1.942,0,0,1,.542-1.417A2.1,2.1,0,0,1-9.5,1107.027Z" transform="translate(179.617 -1098.179)" fill="#7b3996"/>
        </g>
        <g id="Group_9948" data-name="Group 9948" transform="translate(63.873 61.793)">
          <path id="Path_8670" data-name="Path 8670" d="M-114.665,1138.615h-3a1.164,1.164,0,0,1-.926-.323,1.564,1.564,0,0,1-.276-1.028v-8.185a1.525,1.525,0,0,1,.284-1.036,1.179,1.179,0,0,1,.919-.317h3.177a6.556,6.556,0,0,1,1.217.1,2.431,2.431,0,0,1,.922.37,2.522,2.522,0,0,1,.615.583,2.659,2.659,0,0,1,.408.779,2.877,2.877,0,0,1,.141.9,2.52,2.52,0,0,1-1.47,2.393,2.613,2.613,0,0,1,1.931,2.658,3.23,3.23,0,0,1-.42,1.645,2.621,2.621,0,0,1-1.137,1.081,3.68,3.68,0,0,1-1.029.292A9.317,9.317,0,0,1-114.665,1138.615Zm-2.213-9.232v2.815h1.82a3.3,3.3,0,0,0,1.147-.156,1.14,1.14,0,0,0,.619-.594,1.459,1.459,0,0,0,.166-.7,1.11,1.11,0,0,0-.526-1.095,3.673,3.673,0,0,0-1.612-.272Zm2.067,4.4h-2.067v3.18h2.134q2.013,0,2.012-1.612a1.363,1.363,0,0,0-.522-1.2A2.689,2.689,0,0,0-114.812,1133.779Z" transform="translate(118.864 -1127.542)"/>
          <path id="Path_8671" data-name="Path 8671" d="M-109.916,1137.523v-3.454l-2.393-4.122a8.666,8.666,0,0,1-.445-.867,1.438,1.438,0,0,1-.13-.544.908.908,0,0,1,.264-.653.865.865,0,0,1,.651-.275.756.756,0,0,1,.619.256,7.713,7.713,0,0,1,.631,1.022l1.834,3.3,1.851-3.3c.111-.2.206-.375.281-.513a3.235,3.235,0,0,1,.252-.391,1.012,1.012,0,0,1,.3-.278.816.816,0,0,1,.409-.1.816.816,0,0,1,.623.27.894.894,0,0,1,.251.63,1.444,1.444,0,0,1-.127.58,7.725,7.725,0,0,1-.434.8l-2.456,4.182v3.454a1.54,1.54,0,0,1-.28,1.011.893.893,0,0,1-.715.334.884.884,0,0,1-.715-.331A1.562,1.562,0,0,1-109.916,1137.523Z" transform="translate(122.225 -1127.608)"/>
          <path id="Path_8672" data-name="Path 8672" d="M-101.708,1133.958h-.7v3.5a1.558,1.558,0,0,1-.273,1.017.889.889,0,0,1-.717.328.872.872,0,0,1-.734-.341,1.636,1.636,0,0,1-.261-1v-8.377a1.511,1.511,0,0,1,.287-1.031,1.19,1.19,0,0,1,.929-.322h3.229a8.8,8.8,0,0,1,1.143.064,2.646,2.646,0,0,1,.858.258,2.492,2.492,0,0,1,.815.615,2.737,2.737,0,0,1,.537.933,3.429,3.429,0,0,1,.184,1.123,2.909,2.909,0,0,1-.619,1.948A3.445,3.445,0,0,1-98.9,1133.7a3.732,3.732,0,0,1,1.011.922,9.472,9.472,0,0,1,.859,1.295,10.084,10.084,0,0,1,.589,1.24,2.684,2.684,0,0,1,.209.761.823.823,0,0,1-.123.426.9.9,0,0,1-.337.335.97.97,0,0,1-.5.123.883.883,0,0,1-.561-.175,1.6,1.6,0,0,1-.392-.44q-.164-.267-.444-.787l-.8-1.472a8.185,8.185,0,0,0-.765-1.234,1.941,1.941,0,0,0-.686-.578A2.129,2.129,0,0,0-101.708,1133.958Zm1.137-4.575H-102.4v2.993h1.779a4.474,4.474,0,0,0,1.2-.137,1.37,1.37,0,0,0,.747-.469,1.448,1.448,0,0,0,.256-.909,1.519,1.519,0,0,0-.206-.8,1.282,1.282,0,0,0-.576-.517A3.718,3.718,0,0,0-100.57,1129.383Z" transform="translate(127 -1127.542)"/>
          <path id="Path_8673" data-name="Path 8673" d="M-91.382,1137.449l-.469-1.367h-3.985l-.469,1.4a5.229,5.229,0,0,1-.467,1.1.714.714,0,0,1-.636.286.888.888,0,0,1-.662-.3.977.977,0,0,1-.287-.69,1.67,1.67,0,0,1,.067-.461c.044-.158.119-.378.22-.661l2.507-7.071c.072-.2.158-.447.258-.731a3.847,3.847,0,0,1,.322-.708,1.351,1.351,0,0,1,.447-.456,1.261,1.261,0,0,1,.686-.175,1.269,1.269,0,0,1,.692.175,1.382,1.382,0,0,1,.448.45,3.223,3.223,0,0,1,.287.59c.078.209.178.49.3.842l2.56,7.026a3.834,3.834,0,0,1,.3,1.167,1.02,1.02,0,0,1-.284.694.892.892,0,0,1-.686.315.829.829,0,0,1-.4-.092.849.849,0,0,1-.28-.253,2.385,2.385,0,0,1-.245-.491C-91.245,1137.813-91.32,1137.617-91.382,1137.449Zm-3.932-3.022h2.929l-1.478-4.493Z" transform="translate(130.39 -1127.608)"/>
          <path id="Path_8674" data-name="Path 8674" d="M-91.384,1137.523v-8.578a1.568,1.568,0,0,1,.273-1,.882.882,0,0,1,.709-.334.909.909,0,0,1,.726.329,1.55,1.55,0,0,1,.278,1.007v8.578a1.558,1.558,0,0,1-.278,1.011.9.9,0,0,1-.726.334.873.873,0,0,1-.7-.338A1.552,1.552,0,0,1-91.384,1137.523Z" transform="translate(134.31 -1127.608)"/>
          <path id="Path_8675" data-name="Path 8675" d="M-85.947,1128.93l3.818,6.417v-6.477a1.535,1.535,0,0,1,.244-.947.794.794,0,0,1,.659-.315.811.811,0,0,1,.675.315,1.513,1.513,0,0,1,.248.947v8.563c0,.958-.358,1.434-1.07,1.434a1.308,1.308,0,0,1-.481-.084,1.244,1.244,0,0,1-.4-.272,2.542,2.542,0,0,1-.348-.436c-.106-.165-.214-.334-.32-.508l-3.726-6.342v6.38a1.45,1.45,0,0,1-.261.942.82.82,0,0,1-.669.32.817.817,0,0,1-.675-.324,1.5,1.5,0,0,1-.253-.938v-8.4a2.609,2.609,0,0,1,.106-.839,1.18,1.18,0,0,1,.42-.547,1.075,1.075,0,0,1,.636-.21,1.019,1.019,0,0,1,.459.1,1.117,1.117,0,0,1,.333.259,2.6,2.6,0,0,1,.3.423Z" transform="translate(135.927 -1127.608)"/>
          <path id="Path_8676" data-name="Path 8676" d="M-77.507,1138.615h-3a1.158,1.158,0,0,1-.925-.323,1.554,1.554,0,0,1-.278-1.028v-8.185a1.525,1.525,0,0,1,.284-1.036,1.179,1.179,0,0,1,.918-.317h3.177a6.556,6.556,0,0,1,1.217.1,2.439,2.439,0,0,1,.923.37,2.579,2.579,0,0,1,.615.583,2.692,2.692,0,0,1,.406.779,2.877,2.877,0,0,1,.141.9,2.52,2.52,0,0,1-1.47,2.393,2.613,2.613,0,0,1,1.932,2.658,3.231,3.231,0,0,1-.422,1.645,2.626,2.626,0,0,1-1.136,1.081,3.707,3.707,0,0,1-1.031.292A9.317,9.317,0,0,1-77.507,1138.615Zm-2.213-9.232v2.815h1.82a3.3,3.3,0,0,0,1.147-.156,1.135,1.135,0,0,0,.619-.594,1.46,1.46,0,0,0,.167-.7,1.111,1.111,0,0,0-.528-1.095,3.673,3.673,0,0,0-1.612-.272Zm2.067,4.4h-2.067v3.18h2.134q2.013,0,2.012-1.612a1.366,1.366,0,0,0-.52-1.2A2.7,2.7,0,0,0-77.654,1133.779Z" transform="translate(139.749 -1127.542)"/>
          <path id="Path_8677" data-name="Path 8677" d="M-70.749,1127.608a4.826,4.826,0,0,1,2.618.687,4.3,4.3,0,0,1,1.654,1.953,7.285,7.285,0,0,1,.562,2.974,8.05,8.05,0,0,1-.308,2.3,5.128,5.128,0,0,1-.923,1.789,4.025,4.025,0,0,1-1.512,1.159,4.975,4.975,0,0,1-2.053.4,4.958,4.958,0,0,1-2.059-.411,4.15,4.15,0,0,1-1.518-1.162,5.183,5.183,0,0,1-.92-1.807,8.058,8.058,0,0,1-.309-2.279,7.774,7.774,0,0,1,.323-2.3,5.064,5.064,0,0,1,.94-1.782,4.1,4.1,0,0,1,1.5-1.126A4.933,4.933,0,0,1-70.749,1127.608Zm2.821,5.6a5.594,5.594,0,0,0-.348-2.073,2.843,2.843,0,0,0-.992-1.326,2.54,2.54,0,0,0-1.481-.448,2.446,2.446,0,0,0-1.1.25,2.47,2.47,0,0,0-.869.721,3.615,3.615,0,0,0-.575,1.217,6.042,6.042,0,0,0-.211,1.659,6.192,6.192,0,0,0,.211,1.678,3.577,3.577,0,0,0,.6,1.245,2.541,2.541,0,0,0,.883.739,2.431,2.431,0,0,0,1.093.245,2.5,2.5,0,0,0,1.4-.423,2.853,2.853,0,0,0,1.015-1.307A5.522,5.522,0,0,0-67.927,1133.208Z" transform="translate(143.228 -1127.608)"/>
          <path id="Path_8678" data-name="Path 8678" d="M-60.766,1136.966l-1.585-6.528-1.6,6.528c-.125.5-.225.85-.3,1.065a1.429,1.429,0,0,1-.386.579,1.016,1.016,0,0,1-.728.256,1.119,1.119,0,0,1-.606-.151,1.149,1.149,0,0,1-.384-.431,2.864,2.864,0,0,1-.241-.662c-.062-.255-.119-.49-.167-.709l-1.631-7.329a4.733,4.733,0,0,1-.148-.973,1.011,1.011,0,0,1,.269-.713.862.862,0,0,1,.661-.29.729.729,0,0,1,.729.386,4.714,4.714,0,0,1,.328,1.121l1.284,6.357,1.437-5.948a10.236,10.236,0,0,1,.287-1.04,1.517,1.517,0,0,1,.414-.617,1.123,1.123,0,0,1,.783-.259,1.073,1.073,0,0,1,.779.27,1.506,1.506,0,0,1,.384.591c.072.214.167.564.287,1.056l1.451,5.948,1.284-6.357c.062-.331.122-.592.177-.78a1.273,1.273,0,0,1,.287-.5.762.762,0,0,1,.592-.223.873.873,0,0,1,.659.286,1,1,0,0,1,.27.717,5.1,5.1,0,0,1-.147.973l-1.631,7.329c-.112.5-.2.859-.278,1.09a1.456,1.456,0,0,1-.375.6,1.009,1.009,0,0,1-.745.261,1.036,1.036,0,0,1-.729-.253,1.359,1.359,0,0,1-.381-.567C-60.537,1137.836-60.638,1137.477-60.766,1136.966Z" transform="translate(147.147 -1127.608)"/>
          <path id="Path_8679" data-name="Path 8679" d="M-55.265,1128.945v3.12h4.286v-3.12a1.578,1.578,0,0,1,.27-1,.877.877,0,0,1,.712-.334.909.909,0,0,1,.726.329,1.55,1.55,0,0,1,.276,1.007v8.578a1.54,1.54,0,0,1-.281,1.011.9.9,0,0,1-.722.334.866.866,0,0,1-.715-.338,1.6,1.6,0,0,1-.267-1.007v-3.661h-4.286v3.661a1.54,1.54,0,0,1-.281,1.011.9.9,0,0,1-.722.334.864.864,0,0,1-.715-.338,1.6,1.6,0,0,1-.269-1.007v-8.578a1.6,1.6,0,0,1,.266-1,.866.866,0,0,1,.719-.334.9.9,0,0,1,.725.329A1.541,1.541,0,0,1-55.265,1128.945Z" transform="translate(153.494 -1127.608)"/>
          <path id="Path_8680" data-name="Path 8680" d="M-45.957,1127.608a4.823,4.823,0,0,1,2.618.687,4.287,4.287,0,0,1,1.654,1.953,7.285,7.285,0,0,1,.562,2.974,8.05,8.05,0,0,1-.308,2.3,5.126,5.126,0,0,1-.922,1.789,4.025,4.025,0,0,1-1.512,1.159,4.975,4.975,0,0,1-2.053.4,4.953,4.953,0,0,1-2.059-.411,4.124,4.124,0,0,1-1.518-1.162,5.156,5.156,0,0,1-.92-1.807,8,8,0,0,1-.311-2.279,7.723,7.723,0,0,1,.325-2.3,5.087,5.087,0,0,1,.939-1.782,4.1,4.1,0,0,1,1.5-1.126A4.925,4.925,0,0,1-45.957,1127.608Zm2.823,5.6a5.625,5.625,0,0,0-.348-2.073,2.835,2.835,0,0,0-.993-1.326,2.533,2.533,0,0,0-1.481-.448,2.435,2.435,0,0,0-1.1.25,2.456,2.456,0,0,0-.869.721,3.584,3.584,0,0,0-.575,1.217,5.98,5.98,0,0,0-.212,1.659,6.129,6.129,0,0,0,.212,1.678,3.548,3.548,0,0,0,.594,1.245,2.555,2.555,0,0,0,.883.739,2.436,2.436,0,0,0,1.093.245,2.487,2.487,0,0,0,1.4-.423,2.856,2.856,0,0,0,1.017-1.307A5.55,5.55,0,0,0-43.134,1133.208Z" transform="translate(157.163 -1127.608)"/>
          <path id="Path_8681" data-name="Path 8681" d="M-35.751,1135.414a3.472,3.472,0,0,1-.458,1.775,3.149,3.149,0,0,1-1.342,1.234,4.594,4.594,0,0,1-2.093.445,4.327,4.327,0,0,1-2.393-.609,3.4,3.4,0,0,1-1.087-1.168,2.877,2.877,0,0,1-.417-1.423,1.007,1.007,0,0,1,.25-.687.814.814,0,0,1,.639-.287.715.715,0,0,1,.533.225,1.8,1.8,0,0,1,.37.661,4.588,4.588,0,0,0,.4.869,1.689,1.689,0,0,0,.612.576,2.076,2.076,0,0,0,1.036.225,2.162,2.162,0,0,0,1.434-.456,1.417,1.417,0,0,0,.551-1.138,1.283,1.283,0,0,0-.3-.881,1.9,1.9,0,0,0-.769-.517,12.689,12.689,0,0,0-1.261-.378,8.608,8.608,0,0,1-1.768-.642,2.915,2.915,0,0,1-1.131-1,2.809,2.809,0,0,1-.419-1.576,2.934,2.934,0,0,1,.442-1.6,2.835,2.835,0,0,1,1.278-1.073,4.769,4.769,0,0,1,1.965-.375,4.416,4.416,0,0,1,1.562.248,3.274,3.274,0,0,1,1.093.66,2.735,2.735,0,0,1,.634.866,2.166,2.166,0,0,1,.2.884,1.116,1.116,0,0,1-.251.711.77.77,0,0,1-.625.316.676.676,0,0,1-.519-.191,2.508,2.508,0,0,1-.384-.62,2.78,2.78,0,0,0-.642-.962,1.738,1.738,0,0,0-1.2-.345,1.938,1.938,0,0,0-1.24.375,1.124,1.124,0,0,0-.47.9.988.988,0,0,0,.159.564,1.4,1.4,0,0,0,.442.409,2.809,2.809,0,0,0,.569.267c.191.065.508.158.95.281a14.139,14.139,0,0,1,1.5.476,4.433,4.433,0,0,1,1.143.631,2.547,2.547,0,0,1,.736.94A3.278,3.278,0,0,1-35.751,1135.414Z" transform="translate(161.2 -1127.608)"/>
          <path id="Path_8682" data-name="Path 8682" d="M-33.5,1134.374h-1.82v3.082a1.555,1.555,0,0,1-.28,1,.882.882,0,0,1-.709.341.884.884,0,0,1-.722-.338,1.535,1.535,0,0,1-.275-.992v-8.393a1.458,1.458,0,0,1,.3-1.039,1.277,1.277,0,0,1,.956-.314H-33.5a6.01,6.01,0,0,1,1.739.2,2.511,2.511,0,0,1,1.04.616,2.818,2.818,0,0,1,.664,1.054,4.042,4.042,0,0,1,.228,1.4,3.28,3.28,0,0,1-.923,2.523A3.911,3.911,0,0,1-33.5,1134.374Zm-.481-4.991h-1.339v3.327h1.339a3.556,3.556,0,0,0,1.173-.164,1.361,1.361,0,0,0,.719-.533,1.728,1.728,0,0,0,.247-.973,1.763,1.763,0,0,0-.38-1.173A2.359,2.359,0,0,0-33.985,1129.383Z" transform="translate(164.703 -1127.542)"/>
          <path id="Path_8683" data-name="Path 8683" d="M-31.243,1137.523v-8.578a1.558,1.558,0,0,1,.273-1,.88.88,0,0,1,.709-.334.9.9,0,0,1,.725.329,1.541,1.541,0,0,1,.278,1.007v8.578a1.549,1.549,0,0,1-.278,1.011.9.9,0,0,1-.725.334.876.876,0,0,1-.706-.338A1.562,1.562,0,0,1-31.243,1137.523Z" transform="translate(168.113 -1127.608)"/>
          <path id="Path_8684" data-name="Path 8684" d="M-21.677,1129.548h-2.167v7.908a1.563,1.563,0,0,1-.275,1.014.878.878,0,0,1-.708.331.892.892,0,0,1-.72-.334,1.558,1.558,0,0,1-.278-1.011v-7.908h-2.165a1.02,1.02,0,0,1-.756-.25.887.887,0,0,1-.247-.657.875.875,0,0,1,.256-.667,1.04,1.04,0,0,1,.747-.247h6.312a1.034,1.034,0,0,1,.765.255.893.893,0,0,1,.25.659.879.879,0,0,1-.253.657A1.046,1.046,0,0,1-21.677,1129.548Z" transform="translate(169.378 -1127.542)"/>
          <path id="Path_8685" data-name="Path 8685" d="M-16.767,1137.449l-.467-1.367H-21.22l-.467,1.4a5.129,5.129,0,0,1-.469,1.1.711.711,0,0,1-.634.286.885.885,0,0,1-.662-.3.977.977,0,0,1-.287-.69,1.67,1.67,0,0,1,.067-.461q.066-.237.22-.661l2.507-7.071c.072-.2.158-.447.258-.731a3.959,3.959,0,0,1,.32-.708,1.37,1.37,0,0,1,.448-.456,1.261,1.261,0,0,1,.686-.175,1.269,1.269,0,0,1,.692.175,1.4,1.4,0,0,1,.448.45,3.22,3.22,0,0,1,.287.59c.078.209.177.49.3.842l2.562,7.026a3.867,3.867,0,0,1,.3,1.167,1.018,1.018,0,0,1-.283.694.892.892,0,0,1-.686.315.824.824,0,0,1-.4-.092.87.87,0,0,1-.281-.253,2.393,2.393,0,0,1-.244-.491C-16.629,1137.813-16.7,1137.617-16.767,1137.449Zm-3.932-3.022h2.929l-1.476-4.493Z" transform="translate(172.33 -1127.608)"/>
          <path id="Path_8686" data-name="Path 8686" d="M-14.859,1128.945v7.925h4.025a1,1,0,0,1,.739.259.892.892,0,0,1,.258.654.867.867,0,0,1-.255.65,1.018,1.018,0,0,1-.742.248h-4.794a1.193,1.193,0,0,1-.933-.319,1.531,1.531,0,0,1-.284-1.032v-8.385a1.568,1.568,0,0,1,.27-1,.877.877,0,0,1,.712-.334.9.9,0,0,1,.725.329A1.541,1.541,0,0,1-14.859,1128.945Z" transform="translate(176.206 -1127.608)"/>
          <path id="Path_8687" data-name="Path 8687" d="M-4.119,1135.414a3.472,3.472,0,0,1-.458,1.775,3.154,3.154,0,0,1-1.34,1.234,4.6,4.6,0,0,1-2.093.445,4.329,4.329,0,0,1-2.395-.609,3.377,3.377,0,0,1-1.086-1.168,2.863,2.863,0,0,1-.419-1.423,1.007,1.007,0,0,1,.25-.687.817.817,0,0,1,.64-.287.714.714,0,0,1,.531.225,1.779,1.779,0,0,1,.37.661,4.688,4.688,0,0,0,.4.869,1.715,1.715,0,0,0,.612.576,2.082,2.082,0,0,0,1.037.225,2.167,2.167,0,0,0,1.434-.456,1.422,1.422,0,0,0,.551-1.138,1.284,1.284,0,0,0-.3-.881,1.9,1.9,0,0,0-.769-.517,12.435,12.435,0,0,0-1.261-.378,8.642,8.642,0,0,1-1.768-.642,2.938,2.938,0,0,1-1.131-1,2.809,2.809,0,0,1-.417-1.576,2.92,2.92,0,0,1,.442-1.6A2.831,2.831,0,0,1-10,1127.983a4.772,4.772,0,0,1,1.967-.375,4.413,4.413,0,0,1,1.561.248,3.274,3.274,0,0,1,1.093.66,2.766,2.766,0,0,1,.636.866,2.189,2.189,0,0,1,.2.884,1.116,1.116,0,0,1-.251.711.77.77,0,0,1-.623.316.68.68,0,0,1-.52-.191,2.605,2.605,0,0,1-.384-.62,2.78,2.78,0,0,0-.642-.962,1.731,1.731,0,0,0-1.2-.345,1.935,1.935,0,0,0-1.24.375,1.126,1.126,0,0,0-.472.9.977.977,0,0,0,.161.564,1.4,1.4,0,0,0,.441.409,2.849,2.849,0,0,0,.569.267c.192.065.508.158.95.281a14.139,14.139,0,0,1,1.5.476,4.407,4.407,0,0,1,1.143.631,2.547,2.547,0,0,1,.736.94A3.278,3.278,0,0,1-4.119,1135.414Z" transform="translate(178.98 -1127.608)"/>
        </g>
        <g id="Group_9949" data-name="Group 9949" transform="translate(64.271 87.116)">
          <path id="Path_8688" data-name="Path 8688" d="M-115.928,1152.77v-3.118l-2.16-3.721a7.951,7.951,0,0,1-.4-.784,1.317,1.317,0,0,1-.119-.489.823.823,0,0,1,.239-.591.79.79,0,0,1,.589-.248.679.679,0,0,1,.558.233,6.837,6.837,0,0,1,.57.922l1.654,2.984,1.671-2.984.253-.462a2.9,2.9,0,0,1,.227-.353.955.955,0,0,1,.275-.251.728.728,0,0,1,.369-.088.741.741,0,0,1,.564.245.808.808,0,0,1,.227.567,1.3,1.3,0,0,1-.116.523,7,7,0,0,1-.392.723l-2.215,3.774v3.118a1.392,1.392,0,0,1-.253.911.8.8,0,0,1-.645.3.8.8,0,0,1-.647-.3A1.418,1.418,0,0,1-115.928,1152.77Z" transform="translate(118.609 -1143.819)" fill="#7b3996"/>
          <path id="Path_8689" data-name="Path 8689" d="M-107.323,1149.282a4.754,4.754,0,0,1-.23,1.509,3.4,3.4,0,0,1-.664,1.187,2.921,2.921,0,0,1-1.039.759,3.341,3.341,0,0,1-1.357.265,3.272,3.272,0,0,1-1.347-.269,2.993,2.993,0,0,1-1.034-.767,3.4,3.4,0,0,1-.664-1.179,4.737,4.737,0,0,1-.227-1.506,4.791,4.791,0,0,1,.23-1.52,3.389,3.389,0,0,1,.658-1.181,2.925,2.925,0,0,1,1.037-.754,3.352,3.352,0,0,1,1.347-.266,3.34,3.34,0,0,1,1.357.269,2.955,2.955,0,0,1,1.045.765,3.39,3.39,0,0,1,.661,1.178A4.818,4.818,0,0,1-107.323,1149.282Zm-1.654,0a2.97,2.97,0,0,0-.444-1.742,1.385,1.385,0,0,0-1.192-.623,1.384,1.384,0,0,0-.851.276,1.76,1.76,0,0,0-.567.824,3.666,3.666,0,0,0-.2,1.265,3.671,3.671,0,0,0,.2,1.254,1.782,1.782,0,0,0,.562.82,1.35,1.35,0,0,0,.859.286,1.388,1.388,0,0,0,1.192-.626A2.966,2.966,0,0,0-108.978,1149.282Z" transform="translate(121.265 -1142.84)" fill="#7b3996"/>
          <path id="Path_8690" data-name="Path 8690" d="M-104.407,1151.97v-.234a3.9,3.9,0,0,1-.622.7,2.211,2.211,0,0,1-.712.419,2.608,2.608,0,0,1-.881.138,2.1,2.1,0,0,1-1.072-.274,1.912,1.912,0,0,1-.733-.759,3.642,3.642,0,0,1-.309-1.675v-3.625a1.27,1.27,0,0,1,.225-.823.73.73,0,0,1,.59-.272.747.747,0,0,1,.6.277,1.256,1.256,0,0,1,.228.818v2.929a5.02,5.02,0,0,0,.1,1.068,1.323,1.323,0,0,0,.347.678.94.94,0,0,0,.68.244,1.288,1.288,0,0,0,.784-.275,1.575,1.575,0,0,0,.537-.717,6.4,6.4,0,0,0,.139-1.7v-2.223a1.256,1.256,0,0,1,.228-.818.744.744,0,0,1,.6-.277.736.736,0,0,1,.592.272,1.279,1.279,0,0,1,.223.823v5.3a1.217,1.217,0,0,1-.214.784.683.683,0,0,1-.553.262.688.688,0,0,1-.558-.272A1.177,1.177,0,0,1-104.407,1151.97Z" transform="translate(124.159 -1142.84)" fill="#7b3996"/>
          <path id="Path_8691" data-name="Path 8691" d="M-102.135,1150.363v1.526a1.253,1.253,0,0,1-.236.834.743.743,0,0,1-.6.28.72.72,0,0,1-.586-.282,1.286,1.286,0,0,1-.228-.831V1146.8q0-1.233.8-1.234a.645.645,0,0,1,.592.289,1.736,1.736,0,0,1,.2.851,3.159,3.159,0,0,1,.606-.851,1.169,1.169,0,0,1,.829-.289,1.96,1.96,0,0,1,1.008.289.862.862,0,0,1,.489.764.768.768,0,0,1-.208.554.617.617,0,0,1-.45.217,1.828,1.828,0,0,1-.437-.125,1.889,1.889,0,0,0-.612-.124.841.841,0,0,0-.592.211,1.4,1.4,0,0,0-.356.627,4.882,4.882,0,0,0-.175.989C-102.117,1149.346-102.135,1149.812-102.135,1150.363Z" transform="translate(126.943 -1142.84)" fill="#7b3996"/>
          <path id="Path_8692" data-name="Path 8692" d="M-95.544,1149.551h-.628v3.158a1.412,1.412,0,0,1-.247.919.806.806,0,0,1-.645.294.788.788,0,0,1-.664-.308,1.47,1.47,0,0,1-.236-.9v-7.562a1.383,1.383,0,0,1,.259-.933,1.08,1.08,0,0,1,.839-.287h2.915a7.779,7.779,0,0,1,1.033.058,2.367,2.367,0,0,1,.773.229,2.25,2.25,0,0,1,.736.558,2.492,2.492,0,0,1,.486.84,3.081,3.081,0,0,1,.166,1.015,2.614,2.614,0,0,1-.559,1.756,3.1,3.1,0,0,1-1.692.932,3.381,3.381,0,0,1,.911.831,8.321,8.321,0,0,1,.776,1.17,9.093,9.093,0,0,1,.531,1.12,2.384,2.384,0,0,1,.189.686.771.771,0,0,1-.111.386.833.833,0,0,1-.3.3.877.877,0,0,1-.447.111.822.822,0,0,1-.508-.156,1.489,1.489,0,0,1-.353-.4c-.1-.161-.231-.4-.4-.711l-.719-1.328a7.239,7.239,0,0,0-.692-1.112,1.752,1.752,0,0,0-.619-.523A1.962,1.962,0,0,0-95.544,1149.551Zm1.026-4.129h-1.654v2.7h1.606a4.071,4.071,0,0,0,1.087-.123,1.259,1.259,0,0,0,.672-.422,1.311,1.311,0,0,0,.233-.822,1.388,1.388,0,0,0-.186-.722,1.173,1.173,0,0,0-.52-.465A3.387,3.387,0,0,0-94.518,1145.422Z" transform="translate(130.213 -1143.758)" fill="#7b3996"/>
          <path id="Path_8693" data-name="Path 8693" d="M-91.355,1145.661a.82.82,0,0,1-.589-.234.874.874,0,0,1-.245-.665.87.87,0,0,1,.252-.639.8.8,0,0,1,.583-.251.812.812,0,0,1,.565.228.855.855,0,0,1,.248.663.883.883,0,0,1-.242.661A.785.785,0,0,1-91.355,1145.661Zm.814,1.889v5.289a1.258,1.258,0,0,1-.236.831.741.741,0,0,1-.6.282.713.713,0,0,1-.589-.287,1.32,1.32,0,0,1-.227-.826v-5.233a1.265,1.265,0,0,1,.227-.818.725.725,0,0,1,.589-.277.749.749,0,0,1,.6.277A1.128,1.128,0,0,1-90.541,1147.55Z" transform="translate(133.459 -1143.79)" fill="#7b3996"/>
          <path id="Path_8694" data-name="Path 8694" d="M-83.7,1146.9v5.316a6.123,6.123,0,0,1-.177,1.568,2.572,2.572,0,0,1-.561,1.085,2.315,2.315,0,0,1-1.011.638,5.028,5.028,0,0,1-1.554.206,4.07,4.07,0,0,1-1.52-.264,2.583,2.583,0,0,1-1.033-.682,1.311,1.311,0,0,1-.362-.862.745.745,0,0,1,.206-.545.662.662,0,0,1,.494-.211.787.787,0,0,1,.634.353c.087.123.18.244.275.367a1.667,1.667,0,0,0,.314.314,1.124,1.124,0,0,0,.412.2,2.206,2.206,0,0,0,.556.064,2.052,2.052,0,0,0,.992-.2,1.078,1.078,0,0,0,.5-.553,2.4,2.4,0,0,0,.166-.761c.017-.27.028-.7.036-1.3a2.81,2.81,0,0,1-.878.9,2.2,2.2,0,0,1-1.186.309,2.329,2.329,0,0,1-1.445-.47,2.964,2.964,0,0,1-.951-1.314,5.324,5.324,0,0,1-.331-1.951,5.111,5.111,0,0,1,.2-1.487,3.237,3.237,0,0,1,.578-1.12,2.469,2.469,0,0,1,.862-.686,2.472,2.472,0,0,1,1.073-.233,2.365,2.365,0,0,1,1.214.3,3.059,3.059,0,0,1,.953.934v-.248a1.139,1.139,0,0,1,.212-.738.665.665,0,0,1,.542-.262.626.626,0,0,1,.634.347A2.483,2.483,0,0,1-83.7,1146.9Zm-4.774,2.32a2.719,2.719,0,0,0,.437,1.681,1.356,1.356,0,0,0,1.131.572,1.367,1.367,0,0,0,.776-.245,1.741,1.741,0,0,0,.594-.737,2.819,2.819,0,0,0,.23-1.2,2.975,2.975,0,0,0-.444-1.743,1.37,1.37,0,0,0-1.168-.623,1.323,1.323,0,0,0-1.131.6A2.888,2.888,0,0,0-88.476,1149.223Z" transform="translate(134.616 -1142.84)" fill="#7b3996"/>
          <path id="Path_8695" data-name="Path 8695" d="M-83.174,1144.933v2.714a3.8,3.8,0,0,1,.612-.636,2.1,2.1,0,0,1,.661-.352,2.523,2.523,0,0,1,.778-.119,2.1,2.1,0,0,1,1.114.3,2.008,2.008,0,0,1,.764.858,2.252,2.252,0,0,1,.236.733,6.624,6.624,0,0,1,.059.936v3.505a1.3,1.3,0,0,1-.226.831.726.726,0,0,1-.6.282c-.544,0-.814-.37-.814-1.114v-3.088a3.127,3.127,0,0,0-.236-1.353.9.9,0,0,0-.893-.47,1.247,1.247,0,0,0-.794.277,1.658,1.658,0,0,0-.528.762,5.34,5.34,0,0,0-.133,1.453v2.42a1.328,1.328,0,0,1-.22.828.725.725,0,0,1-.612.286c-.544,0-.815-.37-.815-1.114v-7.935a1.357,1.357,0,0,1,.214-.834.717.717,0,0,1,.6-.28.736.736,0,0,1,.612.283A1.332,1.332,0,0,1-83.174,1144.933Z" transform="translate(137.6 -1143.819)" fill="#7b3996"/>
          <path id="Path_8696" data-name="Path 8696" d="M-79.537,1146.618h.183v-1.1c0-.3.006-.526.02-.694a1.117,1.117,0,0,1,.117-.433.789.789,0,0,1,.278-.3.729.729,0,0,1,.4-.117.766.766,0,0,1,.567.263.794.794,0,0,1,.214.425,4.322,4.322,0,0,1,.045.714v1.247h.6a.719.719,0,0,1,.534.184.637.637,0,0,1,.184.472.543.543,0,0,1-.262.517,1.573,1.573,0,0,1-.751.147h-.308v3.365a6.337,6.337,0,0,0,.027.661.718.718,0,0,0,.145.375.465.465,0,0,0,.384.145,1.95,1.95,0,0,0,.392-.058,1.739,1.739,0,0,1,.386-.057.481.481,0,0,1,.359.177.635.635,0,0,1,.159.439.734.734,0,0,1-.434.678,2.689,2.689,0,0,1-1.25.234,1.985,1.985,0,0,1-1.17-.287,1.334,1.334,0,0,1-.522-.8,5.978,5.978,0,0,1-.123-1.36v-3.513h-.219a.733.733,0,0,1-.542-.187.65.65,0,0,1-.187-.477.618.618,0,0,1,.2-.472A.8.8,0,0,1-79.537,1146.618Z" transform="translate(140.14 -1143.734)" fill="#7b3996"/>
          <path id="Path_8697" data-name="Path 8697" d="M-74.457,1146.618h.183v-1.1c0-.3.006-.526.02-.694a1.117,1.117,0,0,1,.117-.433.8.8,0,0,1,.278-.3.729.729,0,0,1,.4-.117.766.766,0,0,1,.567.263.794.794,0,0,1,.214.425,4.155,4.155,0,0,1,.045.714v1.247h.6a.718.718,0,0,1,.533.184.638.638,0,0,1,.186.472.544.544,0,0,1-.264.517,1.573,1.573,0,0,1-.751.147h-.308v3.365a6.336,6.336,0,0,0,.027.661.718.718,0,0,0,.145.375.465.465,0,0,0,.384.145,1.95,1.95,0,0,0,.392-.058,1.74,1.74,0,0,1,.386-.057.481.481,0,0,1,.359.177.635.635,0,0,1,.159.439.734.734,0,0,1-.434.678,2.689,2.689,0,0,1-1.25.234,1.985,1.985,0,0,1-1.17-.287,1.335,1.335,0,0,1-.522-.8,5.979,5.979,0,0,1-.123-1.36v-3.513h-.219a.733.733,0,0,1-.542-.187.65.65,0,0,1-.187-.477.618.618,0,0,1,.2-.472A.8.8,0,0,1-74.457,1146.618Z" transform="translate(142.995 -1143.734)" fill="#7b3996"/>
          <path id="Path_8698" data-name="Path 8698" d="M-65.53,1149.282a4.754,4.754,0,0,1-.23,1.509,3.373,3.373,0,0,1-.664,1.187,2.916,2.916,0,0,1-1.037.759,3.341,3.341,0,0,1-1.357.265,3.261,3.261,0,0,1-1.346-.269,2.984,2.984,0,0,1-1.036-.767,3.4,3.4,0,0,1-.662-1.179,4.738,4.738,0,0,1-.227-1.506,4.792,4.792,0,0,1,.228-1.52,3.414,3.414,0,0,1,.658-1.181,2.917,2.917,0,0,1,1.039-.754,3.341,3.341,0,0,1,1.346-.266,3.345,3.345,0,0,1,1.357.269,2.949,2.949,0,0,1,1.043.765,3.34,3.34,0,0,1,.661,1.178A4.773,4.773,0,0,1-65.53,1149.282Zm-1.653,0a2.958,2.958,0,0,0-.445-1.742,1.385,1.385,0,0,0-1.19-.623,1.381,1.381,0,0,0-.851.276,1.76,1.76,0,0,0-.567.824,3.665,3.665,0,0,0-.2,1.265,3.633,3.633,0,0,0,.2,1.254,1.781,1.781,0,0,0,.561.82,1.354,1.354,0,0,0,.861.286,1.388,1.388,0,0,0,1.19-.626A2.955,2.955,0,0,0-67.183,1149.282Z" transform="translate(144.756 -1142.84)" fill="#7b3996"/>
          <path id="Path_8699" data-name="Path 8699" d="M-60.489,1151.974a4.961,4.961,0,0,1-1.156.775,2.973,2.973,0,0,1-1.251.258,2.16,2.16,0,0,1-1.114-.28,1.9,1.9,0,0,1-.739-.753,2.114,2.114,0,0,1-.259-1.032,1.967,1.967,0,0,1,.428-1.279,2.1,2.1,0,0,1,1.176-.712c.1-.025.364-.086.778-.18s.77-.179,1.067-.258.615-.173.962-.284a2.07,2.07,0,0,0-.264-1.064,1.1,1.1,0,0,0-.962-.339,1.831,1.831,0,0,0-.943.2,1.611,1.611,0,0,0-.544.583c-.152.259-.258.431-.32.512s-.2.125-.4.125a.667.667,0,0,1-.481-.2.676.676,0,0,1-.2-.506,1.643,1.643,0,0,1,.308-.937,2.217,2.217,0,0,1,.959-.752,3.937,3.937,0,0,1,1.623-.294,4.21,4.21,0,0,1,1.709.283,1.675,1.675,0,0,1,.878.9,4.358,4.358,0,0,1,.256,1.637q0,.645,0,1.092t-.009,1a4.054,4.054,0,0,0,.155,1.078,3.622,3.622,0,0,1,.153.72.7.7,0,0,1-.237.512.761.761,0,0,1-.54.231.7.7,0,0,1-.5-.265A3.913,3.913,0,0,1-60.489,1151.974Zm-.108-2.648a7.591,7.591,0,0,1-1.054.312c-.459.109-.779.189-.956.241a1.275,1.275,0,0,0-.508.3.81.81,0,0,0-.241.626.975.975,0,0,0,.284.706.984.984,0,0,0,.742.292,1.78,1.78,0,0,0,.9-.239,1.5,1.5,0,0,0,.606-.612,3.074,3.074,0,0,0,.223-1.367Z" transform="translate(148.736 -1142.844)" fill="#7b3996"/>
          <path id="Path_8700" data-name="Path 8700" d="M-50.893,1150.865a3.115,3.115,0,0,1-.414,1.6,2.835,2.835,0,0,1-1.209,1.112,4.137,4.137,0,0,1-1.89.4,3.912,3.912,0,0,1-2.159-.548,3.046,3.046,0,0,1-.981-1.058,2.582,2.582,0,0,1-.378-1.283.9.9,0,0,1,.227-.62.737.737,0,0,1,.576-.259.644.644,0,0,1,.48.2,1.6,1.6,0,0,1,.336.6,4.107,4.107,0,0,0,.366.784,1.525,1.525,0,0,0,.551.52,1.876,1.876,0,0,0,.936.2,1.958,1.958,0,0,0,1.293-.413,1.282,1.282,0,0,0,.5-1.029,1.158,1.158,0,0,0-.269-.795,1.689,1.689,0,0,0-.694-.466,11.015,11.015,0,0,0-1.139-.342,7.627,7.627,0,0,1-1.595-.58,2.654,2.654,0,0,1-1.02-.9,2.541,2.541,0,0,1-.378-1.425,2.647,2.647,0,0,1,.4-1.442,2.575,2.575,0,0,1,1.153-.968,4.315,4.315,0,0,1,1.775-.339,3.935,3.935,0,0,1,1.409.227,2.844,2.844,0,0,1,.987.6,2.421,2.421,0,0,1,.573.781,1.956,1.956,0,0,1,.181.8,1,1,0,0,1-.226.642.692.692,0,0,1-.564.284.617.617,0,0,1-.469-.17,2.355,2.355,0,0,1-.347-.561,2.535,2.535,0,0,0-.578-.867,1.576,1.576,0,0,0-1.087-.313,1.76,1.76,0,0,0-1.12.338,1.016,1.016,0,0,0-.425.815.884.884,0,0,0,.145.509,1.215,1.215,0,0,0,.4.369,2.6,2.6,0,0,0,.512.242c.173.058.459.142.858.255a12.556,12.556,0,0,1,1.354.428,3.993,3.993,0,0,1,1.031.57,2.3,2.3,0,0,1,.665.848A2.991,2.991,0,0,1-50.893,1150.865Z" transform="translate(152.718 -1143.819)" fill="#7b3996"/>
          <path id="Path_8701" data-name="Path 8701" d="M-48.081,1151.974a4.987,4.987,0,0,1-1.154.775,2.985,2.985,0,0,1-1.253.258,2.16,2.16,0,0,1-1.114-.28,1.912,1.912,0,0,1-.739-.753,2.114,2.114,0,0,1-.259-1.032,1.967,1.967,0,0,1,.428-1.279A2.1,2.1,0,0,1-51,1148.95c.1-.025.366-.086.779-.18s.769-.179,1.065-.258.615-.173.962-.284a2.071,2.071,0,0,0-.262-1.064,1.108,1.108,0,0,0-.964-.339,1.831,1.831,0,0,0-.943.2,1.625,1.625,0,0,0-.544.583c-.152.259-.258.431-.319.512s-.2.125-.4.125a.663.663,0,0,1-.48-.2.671.671,0,0,1-.2-.506A1.655,1.655,0,0,1-52,1146.6a2.217,2.217,0,0,1,.959-.752,3.942,3.942,0,0,1,1.623-.294,4.21,4.21,0,0,1,1.709.283,1.675,1.675,0,0,1,.878.9,4.358,4.358,0,0,1,.256,1.637c0,.43,0,.794,0,1.092s0,.633-.009,1a4.118,4.118,0,0,0,.155,1.078,3.671,3.671,0,0,1,.155.72.7.7,0,0,1-.239.512.761.761,0,0,1-.54.231.7.7,0,0,1-.5-.265A3.914,3.914,0,0,1-48.081,1151.974Zm-.108-2.648a7.557,7.557,0,0,1-1.053.312q-.691.164-.958.241a1.27,1.27,0,0,0-.506.3.811.811,0,0,0-.242.626.975.975,0,0,0,.284.706.984.984,0,0,0,.742.292,1.775,1.775,0,0,0,.9-.239,1.5,1.5,0,0,0,.606-.612,3.074,3.074,0,0,0,.223-1.367Z" transform="translate(155.71 -1142.844)" fill="#7b3996"/>
          <path id="Path_8702" data-name="Path 8702" d="M-47.308,1146.7h.392v-.552a3.9,3.9,0,0,1,.2-1.364,1.327,1.327,0,0,1,.664-.736,2.928,2.928,0,0,1,1.282-.233q1.443,0,1.443.785a.656.656,0,0,1-.152.437.454.454,0,0,1-.356.182,2.159,2.159,0,0,1-.331-.043,2.642,2.642,0,0,0-.4-.039.556.556,0,0,0-.573.291,2.147,2.147,0,0,0-.127.836v.436h.4c.628,0,.942.211.942.63,0,.3-.083.49-.25.57a1.635,1.635,0,0,1-.692.12h-.4v4.845a1.279,1.279,0,0,1-.233.828.733.733,0,0,1-.6.286.716.716,0,0,1-.583-.286,1.279,1.279,0,0,1-.231-.828v-4.845h-.453a.8.8,0,0,1-.567-.185.623.623,0,0,1-.2-.479Q-48.134,1146.7-47.308,1146.7Z" transform="translate(158.221 -1143.819)" fill="#7b3996"/>
          <path id="Path_8703" data-name="Path 8703" d="M-40.13,1149.736h-3.223a2.658,2.658,0,0,0,.225,1.1,1.678,1.678,0,0,0,.586.717,1.426,1.426,0,0,0,.806.243,1.79,1.79,0,0,0,.54-.078,1.7,1.7,0,0,0,.473-.241,3.765,3.765,0,0,0,.422-.353c.13-.125.3-.294.5-.509a.5.5,0,0,1,.362-.12.569.569,0,0,1,.411.153.59.59,0,0,1,.156.438,1.283,1.283,0,0,1-.175.579,2.24,2.24,0,0,1-.528.636,2.9,2.9,0,0,1-.887.506,3.467,3.467,0,0,1-1.228.2,3.114,3.114,0,0,1-2.468-1,4,4,0,0,1-.881-2.73,4.983,4.983,0,0,1,.217-1.5,3.418,3.418,0,0,1,.634-1.19,2.732,2.732,0,0,1,1.025-.761,3.341,3.341,0,0,1,1.353-.264,2.945,2.945,0,0,1,1.656.451,2.859,2.859,0,0,1,1.036,1.17,3.336,3.336,0,0,1,.344,1.461q0,.691-.356.9A2.034,2.034,0,0,1-40.13,1149.736Zm-3.223-1.04h2.987a2.367,2.367,0,0,0-.456-1.4,1.3,1.3,0,0,0-1.04-.467,1.261,1.261,0,0,0-1.011.473A2.5,2.5,0,0,0-43.352,1148.7Z" transform="translate(159.962 -1142.844)" fill="#7b3996"/>
          <path id="Path_8704" data-name="Path 8704" d="M-36.679,1143.927h2.335a5.7,5.7,0,0,1,1.562.188,2.781,2.781,0,0,1,1.184.7,5.275,5.275,0,0,1,1.381,4,8.594,8.594,0,0,1-.139,1.615,5.094,5.094,0,0,1-.428,1.317,4.036,4.036,0,0,1-.742,1.048,3.057,3.057,0,0,1-.779.57,3.271,3.271,0,0,1-.908.3,6.239,6.239,0,0,1-1.1.088h-2.335a1.333,1.333,0,0,1-.737-.166.752.752,0,0,1-.322-.462,3.26,3.26,0,0,1-.075-.773v-7.206a1.375,1.375,0,0,1,.259-.933A1.076,1.076,0,0,1-36.679,1143.927Zm.694,1.575v6.67h1.357a6.727,6.727,0,0,0,.7-.028,1.948,1.948,0,0,0,.525-.133,1.373,1.373,0,0,0,.472-.3,3.88,3.88,0,0,0,.9-2.909,4.683,4.683,0,0,0-.4-2.179,1.824,1.824,0,0,0-.975-.923,4.375,4.375,0,0,0-1.4-.2Z" transform="translate(164.042 -1143.758)" fill="#7b3996"/>
          <path id="Path_8705" data-name="Path 8705" d="M-27.142,1149.736h-3.223a2.633,2.633,0,0,0,.225,1.1,1.656,1.656,0,0,0,.586.717,1.426,1.426,0,0,0,.806.243,1.79,1.79,0,0,0,.54-.078,1.7,1.7,0,0,0,.473-.241,3.765,3.765,0,0,0,.422-.353c.13-.125.3-.294.5-.509a.5.5,0,0,1,.362-.12.569.569,0,0,1,.411.153.59.59,0,0,1,.156.438,1.283,1.283,0,0,1-.175.579,2.266,2.266,0,0,1-.528.636,2.9,2.9,0,0,1-.887.506,3.467,3.467,0,0,1-1.228.2,3.115,3.115,0,0,1-2.47-1,4.009,4.009,0,0,1-.879-2.73,4.983,4.983,0,0,1,.217-1.5,3.415,3.415,0,0,1,.633-1.19,2.749,2.749,0,0,1,1.026-.761,3.333,3.333,0,0,1,1.351-.264,2.947,2.947,0,0,1,1.657.451,2.859,2.859,0,0,1,1.036,1.17,3.336,3.336,0,0,1,.344,1.461q0,.691-.356.9A2.034,2.034,0,0,1-27.142,1149.736Zm-3.223-1.04h2.987a2.367,2.367,0,0,0-.456-1.4,1.3,1.3,0,0,0-1.04-.467,1.261,1.261,0,0,0-1.011.473A2.489,2.489,0,0,0-30.364,1148.7Z" transform="translate(167.262 -1142.844)" fill="#7b3996"/>
          <path id="Path_8706" data-name="Path 8706" d="M-27,1152.868v-7.935a1.342,1.342,0,0,1,.219-.831.722.722,0,0,1,.6-.283.748.748,0,0,1,.6.28,1.3,1.3,0,0,1,.23.834v7.935a1.271,1.271,0,0,1-.233.834.745.745,0,0,1-.6.28.715.715,0,0,1-.589-.287A1.32,1.32,0,0,1-27,1152.868Z" transform="translate(170.1 -1143.819)" fill="#7b3996"/>
          <path id="Path_8707" data-name="Path 8707" d="M-23.872,1145.661a.819.819,0,0,1-.587-.234.874.874,0,0,1-.245-.665.869.869,0,0,1,.25-.639.8.8,0,0,1,.583-.251.813.813,0,0,1,.567.228.855.855,0,0,1,.248.663.883.883,0,0,1-.242.661A.786.786,0,0,1-23.872,1145.661Zm.815,1.889v5.289a1.258,1.258,0,0,1-.236.831.743.743,0,0,1-.6.282.711.711,0,0,1-.589-.287,1.32,1.32,0,0,1-.226-.826v-5.233a1.265,1.265,0,0,1,.226-.818.723.723,0,0,1,.589-.277.751.751,0,0,1,.6.277A1.128,1.128,0,0,1-23.057,1147.55Z" transform="translate(171.389 -1143.79)" fill="#7b3996"/>
          <path id="Path_8708" data-name="Path 8708" d="M-21.059,1146.7l1.334,4.157,1.436-4.336a2.7,2.7,0,0,1,.333-.742.577.577,0,0,1,.5-.219.707.707,0,0,1,.534.236.766.766,0,0,1,.219.542,1.271,1.271,0,0,1-.037.283,2.864,2.864,0,0,1-.092.3c-.034.094-.072.2-.117.322l-1.581,4.356c-.044.127-.1.284-.172.475a2.6,2.6,0,0,1-.236.494.952.952,0,0,1-.319.318.879.879,0,0,1-.462.114.832.832,0,0,1-.559-.178,1.158,1.158,0,0,1-.306-.387c-.067-.142-.18-.42-.336-.836l-1.568-4.31c-.037-.106-.073-.215-.112-.322a3.027,3.027,0,0,1-.1-.328,1.193,1.193,0,0,1-.041-.289.757.757,0,0,1,.1-.372.836.836,0,0,1,.284-.3.707.707,0,0,1,.392-.119.6.6,0,0,1,.564.262A4.514,4.514,0,0,1-21.059,1146.7Z" transform="translate(172.492 -1142.84)" fill="#7b3996"/>
          <path id="Path_8709" data-name="Path 8709" d="M-13.367,1149.736h-3.223a2.633,2.633,0,0,0,.226,1.1,1.656,1.656,0,0,0,.586.717,1.417,1.417,0,0,0,.8.243,1.79,1.79,0,0,0,.54-.078,1.7,1.7,0,0,0,.473-.241,3.931,3.931,0,0,0,.423-.353c.128-.125.3-.294.5-.509a.506.506,0,0,1,.362-.12.567.567,0,0,1,.411.153.59.59,0,0,1,.156.438,1.283,1.283,0,0,1-.175.579,2.214,2.214,0,0,1-.528.636,2.889,2.889,0,0,1-.886.506,3.475,3.475,0,0,1-1.229.2,3.114,3.114,0,0,1-2.468-1,4,4,0,0,1-.881-2.73,4.982,4.982,0,0,1,.217-1.5,3.417,3.417,0,0,1,.634-1.19,2.737,2.737,0,0,1,1.026-.761,3.328,3.328,0,0,1,1.351-.264,2.945,2.945,0,0,1,1.656.451,2.86,2.86,0,0,1,1.036,1.17,3.336,3.336,0,0,1,.344,1.461q0,.691-.356.9A2.034,2.034,0,0,1-13.367,1149.736Zm-3.223-1.04H-13.6a2.377,2.377,0,0,0-.455-1.4,1.3,1.3,0,0,0-1.042-.467,1.263,1.263,0,0,0-1.011.473A2.5,2.5,0,0,0-16.589,1148.7Z" transform="translate(175.004 -1142.844)" fill="#7b3996"/>
          <path id="Path_8710" data-name="Path 8710" d="M-11.584,1150.363v1.526a1.253,1.253,0,0,1-.236.834.743.743,0,0,1-.6.28.72.72,0,0,1-.586-.282,1.286,1.286,0,0,1-.23-.831V1146.8q0-1.233.8-1.234a.648.648,0,0,1,.592.289,1.72,1.72,0,0,1,.2.851,3.159,3.159,0,0,1,.608-.851,1.169,1.169,0,0,1,.829-.289,1.965,1.965,0,0,1,1.008.289.865.865,0,0,1,.489.764.775.775,0,0,1-.208.554.617.617,0,0,1-.45.217,1.828,1.828,0,0,1-.437-.125,1.889,1.889,0,0,0-.612-.124.841.841,0,0,0-.592.211,1.4,1.4,0,0,0-.356.627,4.775,4.775,0,0,0-.175.989C-11.568,1149.346-11.584,1149.812-11.584,1150.363Z" transform="translate(177.838 -1142.84)" fill="#7b3996"/>
          <path id="Path_8711" data-name="Path 8711" d="M-7.823,1153.231l.15-.409-2.028-5.67a2.3,2.3,0,0,1-.187-.711.889.889,0,0,1,.109-.436.832.832,0,0,1,.3-.322.734.734,0,0,1,.4-.122.618.618,0,0,1,.537.253,2.412,2.412,0,0,1,.319.72l1.395,4.5,1.322-4.188a7.691,7.691,0,0,1,.284-.8.923.923,0,0,1,.269-.389.681.681,0,0,1,.4-.1.658.658,0,0,1,.359.113.728.728,0,0,1,.266.3.878.878,0,0,1,.094.4c-.016.084-.042.2-.078.362s-.081.314-.133.475l-2.148,6.247a7.737,7.737,0,0,1-.544,1.293,1.87,1.87,0,0,1-.7.722,2.362,2.362,0,0,1-1.181.25,2.612,2.612,0,0,1-1.086-.173.641.641,0,0,1-.362-.636.656.656,0,0,1,.173-.487.7.7,0,0,1,.509-.17.859.859,0,0,1,.259.041,1.144,1.144,0,0,0,.272.041.9.9,0,0,0,.447-.1.814.814,0,0,0,.292-.325A5.47,5.47,0,0,0-7.823,1153.231Z" transform="translate(179.612 -1142.84)" fill="#7b3996"/>
        </g>
        <line id="Line_80" data-name="Line 80" x2="177.677" transform="translate(63.812 80.264)" fill="none" stroke="#7b7b7b" stroke-width="1"/>
        <g id="Group_9950" data-name="Group 9950" transform="translate(240.631 11.526)">
          <path id="Path_8712" data-name="Path 8712" d="M-1.6,1096.348H-2.819v3.993a.739.739,0,0,1-.153.512.514.514,0,0,1-.4.167.518.518,0,0,1-.4-.169.732.732,0,0,1-.155-.511v-3.993H-5.145a.612.612,0,0,1-.423-.128.423.423,0,0,1-.139-.33.419.419,0,0,1,.145-.339.617.617,0,0,1,.417-.124H-1.6a.619.619,0,0,1,.43.128.426.426,0,0,1,.141.334.416.416,0,0,1-.142.33A.628.628,0,0,1-1.6,1096.348Z" transform="translate(5.707 -1095.428)" fill="#7b3996"/>
          <path id="Path_8713" data-name="Path 8713" d="M-.324,1100.1l-.881-3.5v3.794a.692.692,0,0,1-.142.473.47.47,0,0,1-.372.158.473.473,0,0,1-.369-.156.68.68,0,0,1-.142-.475v-4.351a.545.545,0,0,1,.187-.485.9.9,0,0,1,.506-.125h.345a1.274,1.274,0,0,1,.451.056.377.377,0,0,1,.209.2,3.169,3.169,0,0,1,.153.475l.8,3.013.8-3.013a3.132,3.132,0,0,1,.155-.475.374.374,0,0,1,.208-.2,1.28,1.28,0,0,1,.451-.056H2.38a.9.9,0,0,1,.506.125.545.545,0,0,1,.187.485v4.351a.692.692,0,0,1-.139.473.481.481,0,0,1-.378.158.467.467,0,0,1-.364-.158.684.684,0,0,1-.142-.473v-3.794l-.881,3.5c-.058.226-.1.394-.142.5a.681.681,0,0,1-.2.291.586.586,0,0,1-.4.131.614.614,0,0,1-.331-.084.615.615,0,0,1-.209-.215,1.273,1.273,0,0,1-.119-.291C-.265,1100.323-.295,1100.213-.324,1100.1Z" transform="translate(7.661 -1095.428)" fill="#7b3996"/>
        </g>
      </g>
      <g id="Group_9960" data-name="Group 9960" transform="translate(0 0)">
        <g id="Group_9955" data-name="Group 9955" transform="translate(0)">
          <g id="Group_9952" data-name="Group 9952" transform="translate(0 33.857)">
            <path id="Path_8714" data-name="Path 8714" d="M244.377,295.489c5.08,0,8.246,2.688,8.246,7.031a6.281,6.281,0,0,1-4.2,6.148c2.282,1.509,3.681,3.828,5.6,6.958,1.067,1.73,1.693,2.577,3.423,4.97h-4.306l-3.314-5.154c-3.313-5.154-4.823-5.743-6.663-5.743h-1.509v10.9h-3.608V295.489Zm-2.724,10.97h2.319c3.866,0,4.97-1.988,4.933-4.086-.037-2.356-1.436-3.792-4.933-3.792h-2.319Z" transform="translate(-235.56 -294.497)" fill="#412e7a" stroke="#412e7a" stroke-width="0.662"/>
            <path id="Path_8715" data-name="Path 8715" d="M288.594,324.2c-1.509.994-2.135,1.289-3.166,1.289-1.436,0-2.209-.515-2.5-1.693a7.113,7.113,0,0,1-4.454,1.693,3.99,3.99,0,0,1-4.049-4.049c0-3.276,2.982-4.27,5.632-5.227l2.908-1.031v-.883c0-2.062-.994-2.909-2.982-2.909a6.845,6.845,0,0,0-5.227,2.724v-3.571a6.772,6.772,0,0,1,5.485-2.245c3.35,0,6,1.693,6,5.448v8.5c0,.626.221.847.626.847a3.924,3.924,0,0,0,1.73-.884Zm-5.632-7.215c-2.8.957-5.227,1.914-5.227,3.866a2.253,2.253,0,0,0,2.356,2.319,4.211,4.211,0,0,0,2.871-1.362Z" transform="translate(-251.732 -300.19)" fill="#412e7a" stroke="#412e7a" stroke-width="0.662"/>
            <path id="Path_8716" data-name="Path 8716" d="M310.834,300.52a1.951,1.951,0,1,1,1.951-1.951A1.964,1.964,0,0,1,310.834,300.52Zm1.62,19.584h-3.276V303.576h3.276Z" transform="translate(-267.054 -294.998)" fill="#412e7a" stroke="#412e7a" stroke-width="0.662"/>
            <path id="Path_8717" data-name="Path 8717" d="M330.258,310.286h.074a6.389,6.389,0,0,1,4.933-2.5c3.129,0,5.632,2.135,5.632,6.663v10.2h-3.276V314.409c0-2.43-1.252-4.013-3.24-4.013-1.436,0-2.577.663-4.123,2.393v11.854h-3.276V308.115h3.276Z" transform="translate(-275.101 -299.962)" fill="#412e7a" stroke="#412e7a" stroke-width="0.662"/>
            <path id="Path_8718" data-name="Path 8718" d="M366.84,303.458a7.546,7.546,0,0,1,4.565-1.51c4.123,0,7.142,3.5,7.142,8.246,0,5.6-3.314,8.945-8.835,8.945a15.25,15.25,0,0,1-6.148-1.251V293.7h3.276Zm0,12.074a12.942,12.942,0,0,0,3.313.515c2.945,0,5.044-2.245,5.044-5.375,0-3.5-1.84-5.78-4.6-5.78a5.189,5.189,0,0,0-3.755,1.693Z" transform="translate(-291.365 -293.702)" fill="#412e7a" stroke="#412e7a" stroke-width="0.662"/>
            <path id="Path_8719" data-name="Path 8719" d="M416.424,316.979c0,5.228-3.644,8.761-8.945,8.761a8.6,8.6,0,1,1,0-17.191C412.67,308.549,416.424,312.083,416.424,316.979Zm-14.32,0c0,3.5,2.172,5.817,5.338,5.817,3.46,0,5.632-2.209,5.632-5.779a5.386,5.386,0,0,0-5.632-5.522A5.242,5.242,0,0,0,402.1,316.979Z" transform="translate(-307.011 -300.303)" fill="#412e7a" stroke="#412e7a" stroke-width="0.662"/>
            <path id="Path_8720" data-name="Path 8720" d="M450.956,319.159l4.307-10.013h3.5l-7.288,16.86h-1.031l-4.9-11.559-4.859,11.559h-1.031l-7.362-16.86h3.5l4.344,10.013,4.2-10.013h2.43Z" transform="translate(-321.922 -300.568)" fill="#412e7a" stroke="#412e7a" stroke-width="0.662"/>
            <path id="Path_8721" data-name="Path 8721" d="M254.145,358.883a15.2,15.2,0,0,0-7.953-2.4c-5.279,0-9.2,3.756-9.2,8.833,0,5.177,3.79,8.764,9.34,8.764a15.108,15.108,0,0,0,8.054-2.605v3.621a16.912,16.912,0,0,1-8.358,2.03c-8.663,0-12.453-6.666-12.453-11.506,0-7.038,5.313-12.183,12.656-12.183a20.062,20.062,0,0,1,7.919,1.9Z" transform="translate(-233.57 -320.259)" fill="#412e7a" stroke="#412e7a" stroke-width="0.608"/>
            <path id="Path_8722" data-name="Path 8722" d="M280.293,361.716h.074a6.388,6.388,0,0,1,4.933-2.5c3.239,0,5.632,2.209,5.632,6.737v10.123h-3.276V365.839c0-2.43-1.251-4.013-3.239-4.013-1.436,0-2.577.663-4.123,2.393v11.853h-3.276V350.967h3.276Z" transform="translate(-252.887 -319.162)" fill="#412e7a" stroke="#412e7a" stroke-width="0.662"/>
            <path id="Path_8723" data-name="Path 8723" d="M315.418,357.786a1.951,1.951,0,1,1,1.951-1.951A1.964,1.964,0,0,1,315.418,357.786Zm1.62,19.584h-3.276V360.841h3.276Z" transform="translate(-269.092 -320.459)" fill="#412e7a" stroke="#412e7a" stroke-width="0.662"/>
            <path id="Path_8724" data-name="Path 8724" d="M336.129,377.094h-3.277V351.988h3.277Z" transform="translate(-277.711 -319.616)" fill="#412e7a" stroke="#412e7a" stroke-width="0.662"/>
            <path id="Path_8725" data-name="Path 8725" d="M363.022,376.86h-6.958c-4.933,0-8.025-3.35-8.025-8.651A7.916,7.916,0,0,1,356.285,360a9.692,9.692,0,0,1,3.461.663v-8.909h3.276Zm-3.276-13.289a7.565,7.565,0,0,0-3.055-.626c-3.166,0-5.3,2.282-5.3,5.743,0,3.092,1.252,5.411,5.044,5.411h3.313Z" transform="translate(-284.464 -319.512)" fill="#412e7a" stroke="#412e7a" stroke-width="0.662"/>
            <path id="Path_8726" data-name="Path 8726" d="M390.839,365.38v3.792h.073c1.657-2.908,3.24-4.123,4.786-4.123a5.754,5.754,0,0,1,3.939,1.914l-1.73,2.835a5.411,5.411,0,0,0-3.056-1.62c-2.245,0-4.012,2.245-4.012,5.08v8.651h-3.276V365.38Z" transform="translate(-302.035 -325.423)" fill="#412e7a" stroke="#412e7a" stroke-width="0.662"/>
            <path id="Path_8727" data-name="Path 8727" d="M425.5,380.544a10.754,10.754,0,0,1-6.59,1.951c-5.154,0-8.025-4.234-8.025-8.8,0-5.006,3.166-8.393,7.731-8.393,4.381,0,7.179,2.981,7.179,9.092H414.16c.516,3.276,2.393,4.97,5.559,4.97a10.524,10.524,0,0,0,5.779-1.988Zm-2.945-8.32c-.11-2.5-1.546-4.086-3.865-4.086-2.5,0-4.013,1.473-4.454,4.086Z" transform="translate(-312.404 -325.536)" fill="#412e7a" stroke="#412e7a" stroke-width="0.662"/>
            <path id="Path_8728" data-name="Path 8728" d="M451.574,367.551h.074a6.388,6.388,0,0,1,4.933-2.5c3.129,0,5.632,2.135,5.632,6.663v10.2h-3.276V371.674c0-2.43-1.251-4.013-3.239-4.013-1.436,0-2.577.663-4.123,2.393v11.853H448.3V365.38h3.276Z" transform="translate(-329.038 -325.423)" fill="#412e7a" stroke="#412e7a" stroke-width="0.662"/>
            <path id="Path_8729" data-name="Path 8729" d="M481.689,360.77a4.086,4.086,0,0,0,1.472-3.939,2.109,2.109,0,0,1-1.951-2.172,2.077,2.077,0,0,1,2.209-2.245c1.509,0,2.466,1.546,2.466,3.424a5.564,5.564,0,0,1-4.2,5.632Z" transform="translate(-343.671 -319.805)" fill="#412e7a" stroke="#412e7a" stroke-width="0.662"/>
            <path id="Path_8730" data-name="Path 8730" d="M507.081,368.544a9.263,9.263,0,0,0-4.786-1.731c-1.325,0-2.172.626-2.172,1.51,0,.736,1.1,1.62,4.012,3.313,2.724,1.8,3.718,2.945,3.718,4.639,0,2.908-2.319,4.859-5.449,4.859a11.467,11.467,0,0,1-5.743-1.51V376.09a10.558,10.558,0,0,0,5.412,2.172c1.325-.074,2.429-.7,2.429-1.878,0-2.282-7.731-3.5-7.731-7.951,0-2.8,2.135-4.492,5.449-4.492a10.268,10.268,0,0,1,4.859,1.362Z" transform="translate(-350.541 -324.931)" fill="#412e7a" stroke="#412e7a" stroke-width="0.662"/>
            <path id="Path_8731" data-name="Path 8731" d="M255.257,432.929H252.18v-9.866h-12v9.866h-3.077V410.275h3.077v9.866h12v-9.866h3.078Z" transform="translate(-235.142 -345.53)" fill="#412e7a" stroke="#412e7a" stroke-width="0.581"/>
            <path id="Path_8732" data-name="Path 8732" d="M296.89,428.957c0,5.227-3.644,8.761-8.945,8.761a8.6,8.6,0,1,1,0-17.192C293.135,420.526,296.89,424.06,296.89,428.957Zm-14.32,0c0,3.5,2.172,5.816,5.338,5.816,3.461,0,5.632-2.209,5.632-5.779a5.386,5.386,0,0,0-5.632-5.522A5.243,5.243,0,0,0,282.57,428.957Z" transform="translate(-253.866 -350.088)" fill="#412e7a" stroke="#412e7a" stroke-width="0.662"/>
            <path id="Path_8733" data-name="Path 8733" d="M328.257,424.447a9.262,9.262,0,0,0-4.786-1.731c-1.325,0-2.172.626-2.172,1.51,0,.736,1.1,1.62,4.012,3.313,2.724,1.8,3.718,2.945,3.718,4.639,0,2.908-2.319,4.859-5.449,4.859a11.468,11.468,0,0,1-5.743-1.509v-3.534a10.56,10.56,0,0,0,5.412,2.172c1.325-.074,2.429-.7,2.429-1.878,0-2.282-7.731-3.5-7.731-7.951,0-2.8,2.135-4.492,5.448-4.492a10.266,10.266,0,0,1,4.859,1.362Z" transform="translate(-271.036 -349.785)" fill="#412e7a" stroke="#412e7a" stroke-width="0.662"/>
            <path id="Path_8734" data-name="Path 8734" d="M352.119,445.438h-3.276v-25h5.669c6.038,0,9.314,2.945,9.314,8.393a8.1,8.1,0,0,1-8.394,8.467,8.343,8.343,0,0,1-3.313-.737Zm0-11.817a7.2,7.2,0,0,0,3.092.736,5.247,5.247,0,0,0,5.264-5.558c0-3.424-1.8-5.411-5.375-5.411h-2.982Z" transform="translate(-284.82 -350.051)" fill="#412e7a" stroke="#412e7a" stroke-width="0.662"/>
            <path id="Path_8735" data-name="Path 8735" d="M388.019,413.178a1.951,1.951,0,1,1,1.951-1.951A1.964,1.964,0,0,1,388.019,413.178Zm1.62,19.585h-3.277V416.234h3.277Z" transform="translate(-301.371 -345.086)" fill="#412e7a" stroke="#412e7a" stroke-width="0.662"/>
            <path id="Path_8736" data-name="Path 8736" d="M405,416.339h5.227v2.945H405v8.466a2.282,2.282,0,0,0,2.356,2.5,7.14,7.14,0,0,0,3.718-1.215V432.1a9.82,9.82,0,0,1-3.976,1.1c-3.571,0-5.375-2.209-5.375-5.19v-8.725h-2.871v-.368l6.148-6Z" transform="translate(-307.053 -346.705)" fill="#412e7a" stroke="#412e7a" stroke-width="0.662"/>
            <path id="Path_8737" data-name="Path 8737" d="M440.9,435.408c-1.51.994-2.135,1.289-3.166,1.289-1.436,0-2.209-.515-2.5-1.693a7.111,7.111,0,0,1-4.454,1.693,3.99,3.99,0,0,1-4.049-4.049c0-3.276,2.982-4.27,5.632-5.227l2.908-1.031v-.883c0-2.062-.994-2.908-2.981-2.908a6.842,6.842,0,0,0-5.227,2.724v-3.571a6.773,6.773,0,0,1,5.485-2.245c3.35,0,6,1.693,6,5.449v8.5c0,.626.221.847.625.847a3.922,3.922,0,0,0,1.731-.884Zm-5.633-7.215c-2.8.958-5.227,1.914-5.227,3.866a2.253,2.253,0,0,0,2.356,2.319,4.206,4.206,0,0,0,2.871-1.362Z" transform="translate(-319.448 -349.634)" fill="#412e7a" stroke="#412e7a" stroke-width="0.662"/>
            <path id="Path_8738" data-name="Path 8738" d="M463.953,433.168h-3.276V408.062h3.276Z" transform="translate(-334.542 -344.547)" fill="#412e7a" stroke="#412e7a" stroke-width="0.662"/>
          </g>
          <g id="Group_9954" data-name="Group 9954" transform="translate(72.687)">
            <g id="Group_9953" data-name="Group 9953" transform="translate(11.801 2.528)">
              <path id="Path_8739" data-name="Path 8739" d="M385.692,253.226s16.526-13.634,23.26-15.932a8.453,8.453,0,0,1,3.6,3.807S403.564,243.767,385.692,253.226Z" transform="translate(-385.692 -237.294)" fill="url(#linear-gradient)"/>
            </g>
            <path id="Path_8740" data-name="Path 8740" d="M387.551,262.875s18.121-11.1,27.534-12.831c0,0,1.424,3.354.58,6.16A139.031,139.031,0,0,0,387.551,262.875Z" transform="translate(-374.717 -240.435)" fill="url(#linear-gradient-2)"/>
            <path id="Path_8741" data-name="Path 8741" d="M387.277,274.691s15.576-4.694,27.107-6.71c0,0-1.572,4.976-3.459,6.367C410.925,274.348,388.221,274,387.277,274.691Z" transform="translate(-374.596 -248.41)" fill="#00a654"/>
            <path id="Path_8742" data-name="Path 8742" d="M386.146,287.587s18.523-.455,21.073-.079c0,0-2.985,3.637-5.223,4.648Z" transform="translate(-374.093 -257.025)" fill="#f3924d"/>
            <path id="Path_8743" data-name="Path 8743" d="M383.836,296.09l11.229,3.286a39.288,39.288,0,0,1-4.1,1.67Z" transform="translate(-373.066 -260.907)" fill="url(#linear-gradient-3)"/>
            <path id="Path_8744" data-name="Path 8744" d="M381.728,251.089s9.563-12.445,16.681-16.376c0,0,4.489,0,5.553.862A126.069,126.069,0,0,0,381.728,251.089Z" transform="translate(-372.128 -233.618)" fill="#602160"/>
            <path id="Path_8745" data-name="Path 8745" d="M374.807,248.583s6.856-11.179,10.66-14.692c0,0,3.991-1.307,6.091-1.132,0,0-14.257,13.266-16.69,15.867C374.869,248.626,374.486,249.051,374.807,248.583Z" transform="translate(-368.994 -232.743)" fill="url(#linear-gradient-4)"/>
            <path id="Path_8746" data-name="Path 8746" d="M370.263,249.6s2.478-7.047,4.141-9.683a10.3,10.3,0,0,1,5.669-3.21s-7.595,9.146-9.8,12.917" transform="translate(-367.031 -234.506)" fill="#f7964b"/>
            <path id="Path_8747" data-name="Path 8747" d="M364.444,254.475l1-5.64a39.344,39.344,0,0,1,2.99-2.629l-3.726,8.463S364.447,254.825,364.444,254.475Z" transform="translate(-364.444 -238.729)" fill="#124ba0"/>
          </g>
        </g>
        <g id="Group_9958" data-name="Group 9958" transform="translate(138.539 29.904)">
          <g id="Group_9956" data-name="Group 9956">
            <path id="Path_8748" data-name="Path 8748" d="M490.083,300.73a7.073,7.073,0,1,1,7.073-7.073A7.08,7.08,0,0,1,490.083,300.73Zm0-12.479a5.406,5.406,0,1,0,5.406,5.406A5.412,5.412,0,0,0,490.083,288.251Z" transform="translate(-483.011 -286.585)" fill="#412e7a"/>
          </g>
          <g id="Group_9957" data-name="Group 9957" transform="translate(4.901 4)">
            <path id="Path_8749" data-name="Path 8749" d="M491.836,293.912a11.942,11.942,0,0,1,1.813-.125,3.073,3.073,0,0,1,1.947.474,1.528,1.528,0,0,1,.554,1.259A1.6,1.6,0,0,1,495.087,297v.027a1.52,1.52,0,0,1,.8,1.126c.187.679.375,1.465.491,1.7h-1.394a7.527,7.527,0,0,1-.42-1.4c-.161-.751-.42-.956-.974-.965h-.411v2.367h-1.349Zm1.349,2.59h.536c.679,0,1.081-.339,1.081-.866,0-.554-.375-.831-1-.84a3.413,3.413,0,0,0-.617.044Z" transform="translate(-491.836 -293.787)" fill="#462d7b"/>
          </g>
        </g>
        <g id="Group_9959" data-name="Group 9959" transform="translate(2.828 130.592)">
          <path id="Path_8750" data-name="Path 8750" d="M238.661,476.68v-8.806h1.165v8.806Z" transform="translate(-238.661 -467.874)" fill="#26c0bc"/>
          <path id="Path_8751" data-name="Path 8751" d="M246.093,475.871l.156.955a4.02,4.02,0,0,1-.816.1,1.852,1.852,0,0,1-.913-.186,1.041,1.041,0,0,1-.457-.49,3.863,3.863,0,0,1-.132-1.276V471.3h-.793v-.841h.793v-1.58l1.075-.649v2.228h1.087v.841h-1.087v3.73a1.9,1.9,0,0,0,.057.594.456.456,0,0,0,.187.211.717.717,0,0,0,.369.078A3.48,3.48,0,0,0,246.093,475.871Z" transform="translate(-240.651 -468.033)" fill="#26c0bc"/>
          <path id="Path_8752" data-name="Path 8752" d="M258.4,475.871l.156.955a4.022,4.022,0,0,1-.817.1,1.851,1.851,0,0,1-.912-.186,1.045,1.045,0,0,1-.457-.49,3.882,3.882,0,0,1-.132-1.276V471.3h-.793v-.841h.793v-1.58l1.075-.649v2.228H258.4v.841h-1.087v3.73a1.875,1.875,0,0,0,.057.594.449.449,0,0,0,.187.211.716.716,0,0,0,.369.078A3.48,3.48,0,0,0,258.4,475.871Z" transform="translate(-246.123 -468.033)" fill="#26c0bc"/>
          <path id="Path_8753" data-name="Path 8753" d="M266.539,477.72a4.015,4.015,0,0,1-1.156.72,3.331,3.331,0,0,1-1.192.211,2.319,2.319,0,0,1-1.616-.514,1.7,1.7,0,0,1-.564-1.312,1.779,1.779,0,0,1,.772-1.477,2.628,2.628,0,0,1,.778-.354,7.741,7.741,0,0,1,.961-.162,9.842,9.842,0,0,0,1.928-.373c0-.148.006-.242.006-.282a1.192,1.192,0,0,0-.307-.931,1.809,1.809,0,0,0-1.231-.366,1.915,1.915,0,0,0-1.126.267,1.634,1.634,0,0,0-.537.946l-1.057-.143a2.621,2.621,0,0,1,.474-1.1,2.077,2.077,0,0,1,.955-.643,4.253,4.253,0,0,1,1.447-.226,3.844,3.844,0,0,1,1.328.193,1.754,1.754,0,0,1,.75.483,1.7,1.7,0,0,1,.337.736,6.153,6.153,0,0,1,.054,1v1.442a15.406,15.406,0,0,0,.069,1.907,2.412,2.412,0,0,0,.273.766h-1.129A2.306,2.306,0,0,1,266.539,477.72Zm-.09-2.415a7.894,7.894,0,0,1-1.766.408,4.083,4.083,0,0,0-.942.217.937.937,0,0,0-.427.352.955.955,0,0,0,.178,1.234,1.408,1.408,0,0,0,.958.288,2.232,2.232,0,0,0,1.111-.273,1.681,1.681,0,0,0,.715-.748,2.614,2.614,0,0,0,.174-1.081Z" transform="translate(-249.042 -469.701)" fill="#26c0bc"/>
          <path id="Path_8754" data-name="Path 8754" d="M275,476.68v-8.806h1.081V472.9l2.559-2.595h1.4l-2.439,2.367,2.685,4.013H278.95l-2.108-3.262-.763.733v2.529Z" transform="translate(-254.816 -467.874)" fill="#26c0bc"/>
          <path id="Path_8755" data-name="Path 8755" d="M290.14,476.452l1.117.138a2.73,2.73,0,0,1-.98,1.52,3.317,3.317,0,0,1-4.045-.321,3.371,3.371,0,0,1-.82-2.418,3.524,3.524,0,0,1,.829-2.5,2.807,2.807,0,0,1,2.15-.889,2.727,2.727,0,0,1,2.09.871,3.459,3.459,0,0,1,.811,2.45c0,.064,0,.161-.006.288H286.53a2.451,2.451,0,0,0,.595,1.61,1.771,1.771,0,0,0,1.333.559,1.656,1.656,0,0,0,1.015-.313A2.077,2.077,0,0,0,290.14,476.452Zm-3.55-1.748h3.562a2.159,2.159,0,0,0-.408-1.208,1.657,1.657,0,0,0-1.34-.625,1.72,1.72,0,0,0-1.252.5A1.974,1.974,0,0,0,286.59,474.7Z" transform="translate(-259.447 -469.701)" fill="#26c0bc"/>
          <path id="Path_8756" data-name="Path 8756" d="M297.6,476.6l1.069-.168a1.493,1.493,0,0,0,.5.985,1.747,1.747,0,0,0,1.15.343,1.694,1.694,0,0,0,1.105-.3.909.909,0,0,0,.361-.712.658.658,0,0,0-.319-.577,4.721,4.721,0,0,0-1.1-.366,10.167,10.167,0,0,1-1.649-.519,1.577,1.577,0,0,1-.934-1.463,1.64,1.64,0,0,1,.2-.79,1.747,1.747,0,0,1,.531-.6,2.235,2.235,0,0,1,.688-.315,3.291,3.291,0,0,1,.934-.129,3.683,3.683,0,0,1,1.318.217,1.79,1.79,0,0,1,.838.586,2.286,2.286,0,0,1,.373.987l-1.057.144a1.155,1.155,0,0,0-.417-.769,1.528,1.528,0,0,0-.976-.276,1.769,1.769,0,0,0-1.063.246.718.718,0,0,0-.318.577.594.594,0,0,0,.132.378.955.955,0,0,0,.414.289q.162.06.955.276a13.422,13.422,0,0,1,1.6.5,1.627,1.627,0,0,1,.711.567,1.587,1.587,0,0,1,.258.925,1.819,1.819,0,0,1-.315,1.019,2.041,2.041,0,0,1-.91.739,3.318,3.318,0,0,1-1.345.261,3,3,0,0,1-1.9-.517A2.4,2.4,0,0,1,297.6,476.6Z" transform="translate(-264.866 -469.701)" fill="#26c0bc"/>
          <path id="Path_8757" data-name="Path 8757" d="M319.477,477.72a4.013,4.013,0,0,1-1.156.72,3.33,3.33,0,0,1-1.192.211,2.319,2.319,0,0,1-1.616-.514,1.7,1.7,0,0,1-.564-1.312,1.779,1.779,0,0,1,.771-1.477,2.629,2.629,0,0,1,.778-.354,7.734,7.734,0,0,1,.961-.162,9.84,9.84,0,0,0,1.928-.373c0-.148.006-.242.006-.282a1.192,1.192,0,0,0-.307-.931,1.809,1.809,0,0,0-1.231-.366,1.915,1.915,0,0,0-1.126.267,1.634,1.634,0,0,0-.537.946l-1.058-.143a2.62,2.62,0,0,1,.474-1.1,2.078,2.078,0,0,1,.955-.643,4.253,4.253,0,0,1,1.447-.226,3.845,3.845,0,0,1,1.328.193,1.755,1.755,0,0,1,.75.483,1.7,1.7,0,0,1,.337.736,6.148,6.148,0,0,1,.054,1v1.442a15.442,15.442,0,0,0,.069,1.907,2.414,2.414,0,0,0,.273.766h-1.129A2.308,2.308,0,0,1,319.477,477.72Zm-.09-2.415a7.892,7.892,0,0,1-1.766.408,4.1,4.1,0,0,0-.943.217.939.939,0,0,0-.427.352.955.955,0,0,0,.178,1.234,1.407,1.407,0,0,0,.957.288,2.231,2.231,0,0,0,1.111-.273,1.682,1.682,0,0,0,.715-.748,2.613,2.613,0,0,0,.174-1.081Z" transform="translate(-272.578 -469.701)" fill="#26c0bc"/>
          <path id="Path_8758" data-name="Path 8758" d="M334.036,476.68v-8.806h1.081v8.806Z" transform="translate(-281.065 -467.874)" fill="#26c0bc"/>
          <path id="Path_8759" data-name="Path 8759" d="M338.275,475.317a3.289,3.289,0,0,1,.985-2.625,2.968,2.968,0,0,1,2.007-.709,2.86,2.86,0,0,1,2.15.863,3.278,3.278,0,0,1,.835,2.381,4.225,4.225,0,0,1-.369,1.938,2.617,2.617,0,0,1-1.075,1.1,3.128,3.128,0,0,1-1.541.391,2.866,2.866,0,0,1-2.166-.859A3.431,3.431,0,0,1,338.275,475.317Zm1.111,0a2.716,2.716,0,0,0,.534,1.835,1.779,1.779,0,0,0,2.685,0,2.78,2.78,0,0,0,.535-1.868,2.639,2.639,0,0,0-.538-1.793,1.783,1.783,0,0,0-2.682,0A2.7,2.7,0,0,0,339.386,475.317Z" transform="translate(-282.949 -469.701)" fill="#26c0bc"/>
          <path id="Path_8760" data-name="Path 8760" d="M353.2,475.871l.157.955a4.021,4.021,0,0,1-.817.1,1.853,1.853,0,0,1-.913-.186,1.047,1.047,0,0,1-.457-.49,3.863,3.863,0,0,1-.132-1.276V471.3h-.793v-.841h.793v-1.58l1.075-.649v2.228H353.2v.841h-1.087v3.73a1.867,1.867,0,0,0,.057.594.451.451,0,0,0,.186.211.719.719,0,0,0,.369.078A3.47,3.47,0,0,0,353.2,475.871Z" transform="translate(-288.272 -468.033)" fill="#26c0bc"/>
          <path id="Path_8761" data-name="Path 8761" d="M365.509,475.871l.156.955a4.021,4.021,0,0,1-.817.1,1.851,1.851,0,0,1-.913-.186,1.045,1.045,0,0,1-.457-.49,3.881,3.881,0,0,1-.132-1.276V471.3h-.793v-.841h.793v-1.58l1.075-.649v2.228h1.087v.841h-1.087v3.73a1.871,1.871,0,0,0,.057.594.451.451,0,0,0,.186.211.719.719,0,0,0,.37.078A3.486,3.486,0,0,0,365.509,475.871Z" transform="translate(-293.744 -468.033)" fill="#26c0bc"/>
          <path id="Path_8762" data-name="Path 8762" d="M369.054,475.317a3.288,3.288,0,0,1,.985-2.625,2.967,2.967,0,0,1,2.006-.709,2.86,2.86,0,0,1,2.15.863,3.278,3.278,0,0,1,.835,2.381,4.218,4.218,0,0,1-.369,1.938,2.61,2.61,0,0,1-1.075,1.1,3.126,3.126,0,0,1-1.541.391,2.866,2.866,0,0,1-2.165-.859A3.428,3.428,0,0,1,369.054,475.317Zm1.111,0a2.716,2.716,0,0,0,.534,1.835,1.779,1.779,0,0,0,2.685,0,2.78,2.78,0,0,0,.534-1.868,2.639,2.639,0,0,0-.537-1.793,1.783,1.783,0,0,0-2.682,0A2.7,2.7,0,0,0,370.165,475.317Z" transform="translate(-296.634 -469.701)" fill="#26c0bc"/>
          <path id="Path_8763" data-name="Path 8763" d="M390.134,475.871l.156.955a4.022,4.022,0,0,1-.817.1,1.852,1.852,0,0,1-.913-.186,1.041,1.041,0,0,1-.457-.49,3.863,3.863,0,0,1-.132-1.276V471.3h-.793v-.841h.793v-1.58l1.075-.649v2.228h1.087v.841h-1.087v3.73a1.87,1.87,0,0,0,.057.594.451.451,0,0,0,.186.211.717.717,0,0,0,.369.078A3.479,3.479,0,0,0,390.134,475.871Z" transform="translate(-304.692 -468.033)" fill="#26c0bc"/>
          <path id="Path_8764" data-name="Path 8764" d="M394.382,478.507v-6.379h.973v.967a2.647,2.647,0,0,1,.688-.895,1.2,1.2,0,0,1,.694-.217,2.111,2.111,0,0,1,1.111.349l-.373,1a1.546,1.546,0,0,0-.793-.234,1.03,1.03,0,0,0-.637.213,1.156,1.156,0,0,0-.4.591,4.221,4.221,0,0,0-.18,1.262v3.34Z" transform="translate(-307.895 -469.701)" fill="#26c0bc"/>
          <path id="Path_8765" data-name="Path 8765" d="M405.857,476.452l1.117.138a2.729,2.729,0,0,1-.979,1.52,3.318,3.318,0,0,1-4.046-.321,3.371,3.371,0,0,1-.82-2.418,3.522,3.522,0,0,1,.829-2.5,2.806,2.806,0,0,1,2.15-.889,2.727,2.727,0,0,1,2.09.871,3.459,3.459,0,0,1,.812,2.45c0,.064,0,.161-.006.288h-4.757a2.448,2.448,0,0,0,.594,1.61,1.771,1.771,0,0,0,1.333.559,1.654,1.654,0,0,0,1.015-.313A2.077,2.077,0,0,0,405.857,476.452Zm-3.55-1.748h3.562a2.163,2.163,0,0,0-.409-1.208,1.657,1.657,0,0,0-1.339-.625,1.719,1.719,0,0,0-1.253.5A1.969,1.969,0,0,0,402.307,474.7Z" transform="translate(-310.895 -469.701)" fill="#26c0bc"/>
          <path id="Path_8766" data-name="Path 8766" d="M417.966,477.72a4.013,4.013,0,0,1-1.156.72,3.33,3.33,0,0,1-1.192.211,2.316,2.316,0,0,1-1.616-.514,1.694,1.694,0,0,1-.565-1.312,1.777,1.777,0,0,1,.772-1.477,2.618,2.618,0,0,1,.778-.354,7.734,7.734,0,0,1,.961-.162,9.83,9.83,0,0,0,1.928-.373c0-.148.006-.242.006-.282a1.192,1.192,0,0,0-.307-.931,1.808,1.808,0,0,0-1.231-.366,1.913,1.913,0,0,0-1.126.267,1.632,1.632,0,0,0-.538.946l-1.057-.143a2.621,2.621,0,0,1,.474-1.1,2.078,2.078,0,0,1,.955-.643,4.256,4.256,0,0,1,1.448-.226,3.843,3.843,0,0,1,1.327.193,1.755,1.755,0,0,1,.75.483,1.7,1.7,0,0,1,.336.736,6.084,6.084,0,0,1,.054,1v1.442a15.415,15.415,0,0,0,.069,1.907,2.411,2.411,0,0,0,.274.766h-1.13A2.308,2.308,0,0,1,417.966,477.72Zm-.09-2.415a7.882,7.882,0,0,1-1.766.408,4.083,4.083,0,0,0-.943.217.935.935,0,0,0-.427.352.956.956,0,0,0,.177,1.234,1.41,1.41,0,0,0,.958.288,2.231,2.231,0,0,0,1.111-.273,1.68,1.68,0,0,0,.714-.748,2.6,2.6,0,0,0,.174-1.081Z" transform="translate(-316.367 -469.701)" fill="#26c0bc"/>
          <path id="Path_8767" data-name="Path 8767" d="M428.3,475.871l.156.955a4.02,4.02,0,0,1-.816.1,1.853,1.853,0,0,1-.913-.186,1.041,1.041,0,0,1-.456-.49,3.865,3.865,0,0,1-.132-1.276V471.3h-.793v-.841h.793v-1.58l1.075-.649v2.228H428.3v.841h-1.087v3.73a1.869,1.869,0,0,0,.057.594.451.451,0,0,0,.186.211.716.716,0,0,0,.369.078A3.478,3.478,0,0,0,428.3,475.871Z" transform="translate(-321.66 -468.033)" fill="#26c0bc"/>
          <path id="Path_8768" data-name="Path 8768" d="M440.606,475.871l.156.955a4.016,4.016,0,0,1-.816.1,1.852,1.852,0,0,1-.913-.186,1.048,1.048,0,0,1-.457-.49,3.867,3.867,0,0,1-.132-1.276V471.3h-.793v-.841h.793v-1.58l1.075-.649v2.228h1.087v.841h-1.087v3.73a1.867,1.867,0,0,0,.057.594.451.451,0,0,0,.186.211.719.719,0,0,0,.369.078A3.479,3.479,0,0,0,440.606,475.871Z" transform="translate(-327.132 -468.033)" fill="#26c0bc"/>
          <path id="Path_8769" data-name="Path 8769" d="M444.875,476.68v-8.806h1.081v3.16a2.415,2.415,0,0,1,1.91-.878,2.576,2.576,0,0,1,1.231.279,1.646,1.646,0,0,1,.748.772,3.564,3.564,0,0,1,.225,1.43v4.043H448.99v-4.043a1.67,1.67,0,0,0-.352-1.18,1.308,1.308,0,0,0-.994-.369,1.761,1.761,0,0,0-.9.249,1.414,1.414,0,0,0-.6.676,3.112,3.112,0,0,0-.18,1.177v3.49Z" transform="translate(-330.344 -467.874)" fill="#26c0bc"/>
          <path id="Path_8770" data-name="Path 8770" d="M461.271,476.452l1.117.138a2.726,2.726,0,0,1-.979,1.52,3.317,3.317,0,0,1-4.045-.321,3.372,3.372,0,0,1-.82-2.418,3.525,3.525,0,0,1,.829-2.5,2.807,2.807,0,0,1,2.151-.889,2.728,2.728,0,0,1,2.09.871,3.459,3.459,0,0,1,.811,2.45c0,.064,0,.161-.006.288h-4.757a2.453,2.453,0,0,0,.594,1.61,1.772,1.772,0,0,0,1.333.559,1.654,1.654,0,0,0,1.015-.313A2.074,2.074,0,0,0,461.271,476.452Zm-3.55-1.748h3.562a2.16,2.16,0,0,0-.408-1.208,1.657,1.657,0,0,0-1.34-.625,1.719,1.719,0,0,0-1.252.5A1.973,1.973,0,0,0,457.721,474.7Z" transform="translate(-335.532 -469.701)" fill="#26c0bc"/>
          <path id="Path_8771" data-name="Path 8771" d="M475.622,476.68v-8.806H476.7v8.806Z" transform="translate(-344.014 -467.874)" fill="#26c0bc"/>
          <path id="Path_8772" data-name="Path 8772" d="M480.6,469.118v-1.244h1.081v1.244Zm0,7.562V470.3h1.081v6.379Z" transform="translate(-346.226 -467.874)" fill="#26c0bc"/>
          <path id="Path_8773" data-name="Path 8773" d="M487.391,475.871l.157.955a4.023,4.023,0,0,1-.817.1,1.852,1.852,0,0,1-.913-.186,1.048,1.048,0,0,1-.457-.49,3.869,3.869,0,0,1-.132-1.276V471.3h-.793v-.841h.793v-1.58l1.075-.649v2.228h1.087v.841H486.3v3.73a1.876,1.876,0,0,0,.057.594.452.452,0,0,0,.186.211.718.718,0,0,0,.369.078A3.471,3.471,0,0,0,487.391,475.871Z" transform="translate(-347.933 -468.033)" fill="#26c0bc"/>
          <path id="Path_8774" data-name="Path 8774" d="M493.544,475.871l.156.955a4.015,4.015,0,0,1-.816.1,1.853,1.853,0,0,1-.913-.186,1.044,1.044,0,0,1-.456-.49,3.863,3.863,0,0,1-.132-1.276V471.3h-.793v-.841h.793v-1.58l1.075-.649v2.228h1.087v.841h-1.087v3.73a1.876,1.876,0,0,0,.057.594.452.452,0,0,0,.186.211.719.719,0,0,0,.369.078A3.475,3.475,0,0,0,493.544,475.871Z" transform="translate(-350.668 -468.033)" fill="#26c0bc"/>
          <path id="Path_8775" data-name="Path 8775" d="M497.77,476.68v-8.806h1.081v8.806Z" transform="translate(-353.861 -467.874)" fill="#26c0bc"/>
          <path id="Path_8776" data-name="Path 8776" d="M506.813,476.452l1.117.138a2.726,2.726,0,0,1-.979,1.52,3.317,3.317,0,0,1-4.045-.321,3.371,3.371,0,0,1-.82-2.418,3.525,3.525,0,0,1,.829-2.5,2.807,2.807,0,0,1,2.151-.889,2.728,2.728,0,0,1,2.09.871,3.459,3.459,0,0,1,.811,2.45q0,.1-.006.288H503.2a2.455,2.455,0,0,0,.594,1.61,1.773,1.773,0,0,0,1.334.559,1.654,1.654,0,0,0,1.015-.313A2.076,2.076,0,0,0,506.813,476.452Zm-3.55-1.748h3.562a2.158,2.158,0,0,0-.408-1.208,1.657,1.657,0,0,0-1.34-.625,1.72,1.72,0,0,0-1.253.5A1.974,1.974,0,0,0,503.262,474.7Z" transform="translate(-355.78 -469.701)" fill="#26c0bc"/>
          <path id="Path_8777" data-name="Path 8777" d="M515.6,482.743v-1.231h1.231v1.231Z" transform="translate(-361.79 -473.938)" fill="#26c0bc"/>
        </g>
      </g>
    </g>
  </g>
</svg>
