<svg xmlns="http://www.w3.org/2000/svg" xmlns:xlink="http://www.w3.org/1999/xlink" width="51" height="49" viewBox="0 0 51 49"><defs><style>.a{stroke:rgba(0,0,0,0);fill:url(#a);}.b{opacity:0.595;}.c{clip-path:url(#c);}</style><linearGradient id="a" x1="0.5" x2="0.5" y2="1" gradientUnits="objectBoundingBox"><stop offset="0" stop-color="#db2032"/><stop offset="1" stop-color="#452d7b"/></linearGradient><clipPath id="c"><path class="a" d="M17.6,48A29,29,0,0,1,5.088,45.487C1.807,43.866,0,41.669,0,39.3V30.8c0-2.039,1.305-3.936,3.774-5.487A23.58,23.58,0,0,1,13.326,22.3L9.474,18.6a10.476,10.476,0,0,1-3.331-7.7,10.616,10.616,0,0,1,.846-4.187A10.087,10.087,0,0,1,9.474,3.2,11.354,11.354,0,0,1,17.491,0,11.023,11.023,0,0,1,25.4,3.2L46.642,23.6a10.393,10.393,0,0,1,0,15.3,11.656,11.656,0,0,1-8.015,3.2,10.623,10.623,0,0,1-3.957-.7C32.753,45.286,25.731,48,17.6,48ZM2.082,34.9v4.3A3.763,3.763,0,0,0,3.32,41.824a10.685,10.685,0,0,0,3.356,2.164A27.972,27.972,0,0,0,17.6,46c6.136,0,11.892-1.681,14.325-4.182A3.616,3.616,0,0,0,33.108,39.2V34.9A15.628,15.628,0,0,1,26.8,38.25a32.55,32.55,0,0,1-9.2,1.25C11.089,39.5,5.145,37.738,2.082,34.9ZM35.294,15.4l-8.225,7.9c5.085,1.559,8.121,4.326,8.121,7.4v8.7a9.885,9.885,0,0,0,3.509.64,9.294,9.294,0,0,0,6.487-2.54,8.492,8.492,0,0,0,2.732-6.2,8.722,8.722,0,0,0-2.732-6.4l-9.891-9.5ZM8.433,25.4c-3.977,1.24-6.351,3.258-6.351,5.4A3.668,3.668,0,0,0,3.32,33.367a10.891,10.891,0,0,0,3.356,2.145A28.836,28.836,0,0,0,17.6,37.6a34.3,34.3,0,0,0,6.663-.7ZM17.6,24a34.766,34.766,0,0,0-6.663.7L26.861,36.2a14.792,14.792,0,0,0,4.568-2.4,3.85,3.85,0,0,0,1.679-3,3.763,3.763,0,0,0-1.238-2.623,10.685,10.685,0,0,0-3.356-2.164A27.972,27.972,0,0,0,17.6,24Zm-.1-22a9.748,9.748,0,0,0-6.558,2.5,8.558,8.558,0,0,0-2.707,6.3,8.558,8.558,0,0,0,2.707,6.3l5.2,5H17.7a32.247,32.247,0,0,1,7.184.7l9.058-8.7L24.05,4.6A9.28,9.28,0,0,0,17.491,2Z" transform="translate(0 0.577)"/></clipPath></defs><g class="b" transform="translate(0.5 -0.077)"><path class="a" d="M17.6,48A29,29,0,0,1,5.088,45.487C1.807,43.866,0,41.669,0,39.3V30.8c0-2.039,1.305-3.936,3.774-5.487A23.58,23.58,0,0,1,13.326,22.3L9.474,18.6a10.476,10.476,0,0,1-3.331-7.7,10.616,10.616,0,0,1,.846-4.187A10.087,10.087,0,0,1,9.474,3.2,11.354,11.354,0,0,1,17.491,0,11.023,11.023,0,0,1,25.4,3.2L46.642,23.6a10.393,10.393,0,0,1,0,15.3,11.656,11.656,0,0,1-8.015,3.2,10.623,10.623,0,0,1-3.957-.7C32.753,45.286,25.731,48,17.6,48ZM2.082,34.9v4.3A3.763,3.763,0,0,0,3.32,41.824a10.685,10.685,0,0,0,3.356,2.164A27.972,27.972,0,0,0,17.6,46c6.136,0,11.892-1.681,14.325-4.182A3.616,3.616,0,0,0,33.108,39.2V34.9A15.628,15.628,0,0,1,26.8,38.25a32.55,32.55,0,0,1-9.2,1.25C11.089,39.5,5.145,37.738,2.082,34.9ZM35.294,15.4l-8.225,7.9c5.085,1.559,8.121,4.326,8.121,7.4v8.7a9.885,9.885,0,0,0,3.509.64,9.294,9.294,0,0,0,6.487-2.54,8.492,8.492,0,0,0,2.732-6.2,8.722,8.722,0,0,0-2.732-6.4l-9.891-9.5ZM8.433,25.4c-3.977,1.24-6.351,3.258-6.351,5.4A3.668,3.668,0,0,0,3.32,33.367a10.891,10.891,0,0,0,3.356,2.145A28.836,28.836,0,0,0,17.6,37.6a34.3,34.3,0,0,0,6.663-.7ZM17.6,24a34.766,34.766,0,0,0-6.663.7L26.861,36.2a14.792,14.792,0,0,0,4.568-2.4,3.85,3.85,0,0,0,1.679-3,3.763,3.763,0,0,0-1.238-2.623,10.685,10.685,0,0,0-3.356-2.164A27.972,27.972,0,0,0,17.6,24Zm-.1-22a9.748,9.748,0,0,0-6.558,2.5,8.558,8.558,0,0,0-2.707,6.3,8.558,8.558,0,0,0,2.707,6.3l5.2,5H17.7a32.247,32.247,0,0,1,7.184.7l9.058-8.7L24.05,4.6A9.28,9.28,0,0,0,17.491,2Z" transform="translate(0 0.577)"/><g class="c"><path class="a" d="M0,68H70V0H0Z" transform="translate(-10 -9.423)"/></g></g></svg>