<svg xmlns="http://www.w3.org/2000/svg" width="132.516" height="126.258" viewBox="0 0 132.516 126.258">
  <g id="Group_23532" data-name="Group 23532" transform="translate(-119.746 -140)">
    <g id="Group_23294" data-name="Group 23294" transform="translate(-22 5)">
      <g id="Group_23293" data-name="Group 23293" transform="translate(187 136)">
        <g id="Icon_feather-smartphone" data-name="Icon feather-smartphone" transform="translate(0 0)">
          <path id="Path_51231" data-name="Path 51231" d="M14.946,3h37.23a7.446,7.446,0,0,1,7.446,7.446V70.014a7.446,7.446,0,0,1-7.446,7.446H14.946A7.446,7.446,0,0,1,7.5,70.014V10.446A7.446,7.446,0,0,1,14.946,3Z" transform="translate(-7.5 -3)" fill="none" stroke="#00b2a9" stroke-linecap="round" stroke-linejoin="round" stroke-width="2"/>
          <path id="Path_51232" data-name="Path 51232" d="M18,27h0" transform="translate(8.061 32.568)" fill="none" stroke="#00b2a9" stroke-linecap="round" stroke-linejoin="round" stroke-width="4"/>
        </g>
        <line id="Line_304" data-name="Line 304" x2="22.604" transform="translate(15.291 9.972)" fill="none" stroke="#00b2a9" stroke-linecap="round" stroke-width="2"/>
      </g>
      <path id="Icon_feather-message-square" data-name="Icon feather-message-square" d="M36.521,22.566a3.319,3.319,0,0,1-3.558,3.011H11.616L4.5,31.6V7.511A3.319,3.319,0,0,1,8.058,4.5H32.963a3.319,3.319,0,0,1,3.558,3.011Z" transform="translate(221.991 155.18)" fill="#fff" stroke="#502e92" stroke-linecap="round" stroke-linejoin="round" stroke-width="2"/>
    </g>
    <g id="Group_23303" data-name="Group 23303" transform="translate(-4599 -2230.343)" opacity="0.5">
      <g id="star-3" transform="translate(4785.906 2476.945)" opacity="0.489">
        <path id="Path_2085" data-name="Path 2085" d="M18.36,20.992l2.849,5.773,6.371.926-4.61,4.494,1.088,6.345-5.7-3-5.7,3,1.088-6.345L9.14,27.691l6.371-.926Z" transform="translate(-7.547 -20.665)" fill="#00b5af"/>
        <path id="Path_2086" data-name="Path 2086" d="M29.079,62.893l-6.371-.926-2.187-4.4-2.054,4.4-6.371.926,4.61,4.494-1.088,6.345,4.561-2.818.612.229s0-.01,0-.014a.38.38,0,0,1,.455-.259,2.977,2.977,0,0,1,1.2.494.452.452,0,0,1,.126.15.315.315,0,0,1,.139.115.373.373,0,0,1,.147-.03.33.33,0,0,1,.334.249.356.356,0,0,1,.525.394l1.936.726-1.187-5.582Z" transform="translate(-10.393 -55.867)" fill="#00b5af"/>
        <path id="Path_2087" data-name="Path 2087" d="M15.634,175.177l-6.371.926,4.61,4.494-1.088,6.345,1.637-.861a.377.377,0,0,1-.023-.04l-.366.137L15.22,180.6,10.61,176.1l4.788-.879Z" transform="translate(-7.666 -169.077)" fill="#00b5af"/>
        <path id="Path_2088" data-name="Path 2088" d="M16.258,31.657a.364.364,0,0,1-.17-.042l-5.9-3.1-5.9,3.1a.365.365,0,0,1-.529-.384l1.127-6.571L.11,20.005a.365.365,0,0,1,.2-.622l6.6-.959,2.951-5.979a.379.379,0,0,1,.654,0l2.951,5.979,6.6.959a.365.365,0,0,1,.2.622l-4.774,4.654,1.127,6.571a.365.365,0,0,1-.359.426Zm-6.071-3.921a.363.363,0,0,1,.17.042l5.417,2.848L14.74,24.593a.365.365,0,0,1,.1-.323L19.227,20l-6.056-.88a.364.364,0,0,1-.275-.2l-2.709-5.488L7.479,18.919a.364.364,0,0,1-.275.2L1.148,20l4.382,4.272a.365.365,0,0,1,.1.323L4.6,30.625l5.417-2.848A.364.364,0,0,1,10.188,27.736Z" transform="translate(0 -12.259)" fill="#00b5af" stroke="#5363f6" stroke-width="0.5"/>
      </g>
      <g id="star-3-2" data-name="star-3" transform="translate(4761.973 2465.239)" opacity="0.524">
        <path id="Path_2085-2" data-name="Path 2085" d="M13.675,20.992l1.4,2.839,3.133.455L15.942,26.5l.535,3.121-2.8-1.473-2.8,1.473.535-3.121L9.14,24.286l3.133-.455Z" transform="translate(-8.357 -20.831)" fill="#00b5af"/>
        <path id="Path_2086-2" data-name="Path 2086" d="M20.449,60.184l-3.133-.455L16.24,57.563l-1.01,2.166-3.133.455,2.267,2.21-.535,3.121,2.243-1.386.3.113s0,0,0-.007a.187.187,0,0,1,.224-.127,1.464,1.464,0,0,1,.591.243.222.222,0,0,1,.062.074.155.155,0,0,1,.068.057.183.183,0,0,1,.072-.015.162.162,0,0,1,.164.122.175.175,0,0,1,.258.194l.952.357-.584-2.745Z" transform="translate(-11.258 -56.729)" fill="#00b5af"/>
        <path id="Path_2087-2" data-name="Path 2087" d="M12.4,175.177l-3.133.455,2.267,2.21L11,180.963l.805-.423-.011-.02-.18.068.584-2.745-2.267-2.21,2.355-.432Z" transform="translate(-8.477 -172.177)" fill="#00b5af"/>
        <path id="Path_2088-2" data-name="Path 2088" d="M8,21.8a.179.179,0,0,1-.084-.021l-2.9-1.526-2.9,1.526a.179.179,0,0,1-.26-.189L2.4,18.358.054,16.069a.179.179,0,0,1,.1-.306L3.4,15.291l1.451-2.94a.187.187,0,0,1,.322,0l1.451,2.94,3.245.472a.179.179,0,0,1,.1.306L7.618,18.358l.554,3.232A.179.179,0,0,1,8,21.8ZM5.01,19.871a.179.179,0,0,1,.084.021l2.664,1.4-.509-2.966a.179.179,0,0,1,.051-.159l2.155-2.1-2.978-.433a.179.179,0,0,1-.135-.1l-1.332-2.7-1.332,2.7a.179.179,0,0,1-.135.1l-2.978.433,2.155,2.1a.179.179,0,0,1,.051.159l-.509,2.966,2.664-1.4A.179.179,0,0,1,5.01,19.871Z" transform="translate(0 -12.259)" fill="#00b5af" stroke="#5363f6" stroke-width="0.5"/>
      </g>
      <g id="star-3-3" data-name="star-3" transform="translate(4719 2402.859)" opacity="0">
        <path id="Path_2085-3" data-name="Path 2085" d="M13.675,20.992l1.4,2.839,3.133.455L15.942,26.5l.535,3.121-2.8-1.473-2.8,1.473.535-3.121L9.14,24.286l3.133-.455Z" transform="translate(-8.357 -20.831)" fill="#00b5af"/>
        <path id="Path_2086-3" data-name="Path 2086" d="M20.449,60.184l-3.133-.455L16.24,57.563l-1.01,2.166-3.133.455,2.267,2.21-.535,3.121,2.243-1.386.3.113s0,0,0-.007a.187.187,0,0,1,.224-.127,1.464,1.464,0,0,1,.591.243.222.222,0,0,1,.062.074.155.155,0,0,1,.068.057.183.183,0,0,1,.072-.015.162.162,0,0,1,.164.122.175.175,0,0,1,.258.194l.952.357-.584-2.745Z" transform="translate(-11.258 -56.729)" fill="#00b5af"/>
        <path id="Path_2087-3" data-name="Path 2087" d="M12.4,175.177l-3.133.455,2.267,2.21L11,180.963l.805-.423-.011-.02-.18.068.584-2.745-2.267-2.21,2.355-.432Z" transform="translate(-8.477 -172.177)" fill="#00b5af"/>
        <path id="Path_2088-3" data-name="Path 2088" d="M8,21.8a.179.179,0,0,1-.084-.021l-2.9-1.526-2.9,1.526a.179.179,0,0,1-.26-.189L2.4,18.358.054,16.069a.179.179,0,0,1,.1-.306L3.4,15.291l1.451-2.94a.187.187,0,0,1,.322,0l1.451,2.94,3.245.472a.179.179,0,0,1,.1.306L7.618,18.358l.554,3.232A.179.179,0,0,1,8,21.8ZM5.01,19.871a.179.179,0,0,1,.084.021l2.664,1.4-.509-2.966a.179.179,0,0,1,.051-.159l2.155-2.1-2.978-.433a.179.179,0,0,1-.135-.1l-1.332-2.7-1.332,2.7a.179.179,0,0,1-.135.1l-2.978.433,2.155,2.1a.179.179,0,0,1,.051.159l-.509,2.966,2.664-1.4A.179.179,0,0,1,5.01,19.871Z" transform="translate(0 -12.259)" fill="#00b5af" stroke="#5363f6" stroke-width="0.5"/>
      </g>
      <g id="star-3-4" data-name="star-3" transform="translate(4739.794 2448.605)" opacity="0.524">
        <path id="Path_2085-4" data-name="Path 2085" d="M13.675,20.992l1.4,2.839,3.133.455L15.942,26.5l.535,3.121-2.8-1.473-2.8,1.473.535-3.121L9.14,24.286l3.133-.455Z" transform="translate(-8.357 -20.831)" fill="#00b5af"/>
        <path id="Path_2086-4" data-name="Path 2086" d="M20.449,60.184l-3.133-.455L16.24,57.563l-1.01,2.166-3.133.455,2.267,2.21-.535,3.121,2.243-1.386.3.113s0,0,0-.007a.187.187,0,0,1,.224-.127,1.464,1.464,0,0,1,.591.243.222.222,0,0,1,.062.074.155.155,0,0,1,.068.057.183.183,0,0,1,.072-.015.162.162,0,0,1,.164.122.175.175,0,0,1,.258.194l.952.357-.584-2.745Z" transform="translate(-11.258 -56.729)" fill="#00b5af"/>
        <path id="Path_2087-4" data-name="Path 2087" d="M12.4,175.177l-3.133.455,2.267,2.21L11,180.963l.805-.423-.011-.02-.18.068.584-2.745-2.267-2.21,2.355-.432Z" transform="translate(-8.477 -172.177)" fill="#00b5af"/>
        <path id="Path_2088-4" data-name="Path 2088" d="M8,21.8a.179.179,0,0,1-.084-.021l-2.9-1.526-2.9,1.526a.179.179,0,0,1-.26-.189L2.4,18.358.054,16.069a.179.179,0,0,1,.1-.306L3.4,15.291l1.451-2.94a.187.187,0,0,1,.322,0l1.451,2.94,3.245.472a.179.179,0,0,1,.1.306L7.618,18.358l.554,3.232A.179.179,0,0,1,8,21.8ZM5.01,19.871a.179.179,0,0,1,.084.021l2.664,1.4-.509-2.966a.179.179,0,0,1,.051-.159l2.155-2.1-2.978-.433a.179.179,0,0,1-.135-.1l-1.332-2.7-1.332,2.7a.179.179,0,0,1-.135.1l-2.978.433,2.155,2.1a.179.179,0,0,1,.051.159l-.509,2.966,2.664-1.4A.179.179,0,0,1,5.01,19.871Z" transform="translate(0 -12.259)" fill="#00b5af" stroke="#5363f6" stroke-width="0.5"/>
      </g>
      <g id="star-3-5" data-name="star-3" transform="translate(4781.38 2461.081)" opacity="0.504">
        <path id="Path_2085-5" data-name="Path 2085" d="M13.675,20.992l1.4,2.839,3.133.455L15.942,26.5l.535,3.121-2.8-1.473-2.8,1.473.535-3.121L9.14,24.286l3.133-.455Z" transform="translate(-8.357 -20.831)" fill="#00b5af"/>
        <path id="Path_2086-5" data-name="Path 2086" d="M20.449,60.184l-3.133-.455L16.24,57.563l-1.01,2.166-3.133.455,2.267,2.21-.535,3.121,2.243-1.386.3.113s0,0,0-.007a.187.187,0,0,1,.224-.127,1.464,1.464,0,0,1,.591.243.222.222,0,0,1,.062.074.155.155,0,0,1,.068.057.183.183,0,0,1,.072-.015.162.162,0,0,1,.164.122.175.175,0,0,1,.258.194l.952.357-.584-2.745Z" transform="translate(-11.258 -56.729)" fill="#00b5af"/>
        <path id="Path_2087-5" data-name="Path 2087" d="M12.4,175.177l-3.133.455,2.267,2.21L11,180.963l.805-.423-.011-.02-.18.068.584-2.745-2.267-2.21,2.355-.432Z" transform="translate(-8.477 -172.177)" fill="#00b5af"/>
        <path id="Path_2088-5" data-name="Path 2088" d="M8,21.8a.179.179,0,0,1-.084-.021l-2.9-1.526-2.9,1.526a.179.179,0,0,1-.26-.189L2.4,18.358.054,16.069a.179.179,0,0,1,.1-.306L3.4,15.291l1.451-2.94a.187.187,0,0,1,.322,0l1.451,2.94,3.245.472a.179.179,0,0,1,.1.306L7.618,18.358l.554,3.232A.179.179,0,0,1,8,21.8ZM5.01,19.871a.179.179,0,0,1,.084.021l2.664,1.4-.509-2.966a.179.179,0,0,1,.051-.159l2.155-2.1-2.978-.433a.179.179,0,0,1-.135-.1l-1.332-2.7-1.332,2.7a.179.179,0,0,1-.135.1l-2.978.433,2.155,2.1a.179.179,0,0,1,.051.159l-.509,2.966,2.664-1.4A.179.179,0,0,1,5.01,19.871Z" transform="translate(0 -12.259)" fill="#00b5af" stroke="#5363f6" stroke-width="0.5"/>
      </g>
      <g id="star-3-6" data-name="star-3" transform="translate(4822.967 2465.239)" opacity="0.434">
        <path id="Path_2085-6" data-name="Path 2085" d="M13.675,20.992l1.4,2.839,3.133.455L15.942,26.5l.535,3.121-2.8-1.473-2.8,1.473.535-3.121L9.14,24.286l3.133-.455Z" transform="translate(-8.357 -20.831)" fill="#00b5af"/>
        <path id="Path_2086-6" data-name="Path 2086" d="M20.449,60.184l-3.133-.455L16.24,57.563l-1.01,2.166-3.133.455,2.267,2.21-.535,3.121,2.243-1.386.3.113s0,0,0-.007a.187.187,0,0,1,.224-.127,1.464,1.464,0,0,1,.591.243.222.222,0,0,1,.062.074.155.155,0,0,1,.068.057.183.183,0,0,1,.072-.015.162.162,0,0,1,.164.122.175.175,0,0,1,.258.194l.952.357-.584-2.745Z" transform="translate(-11.258 -56.729)" fill="#00b5af"/>
        <path id="Path_2087-6" data-name="Path 2087" d="M12.4,175.177l-3.133.455,2.267,2.21L11,180.963l.805-.423-.011-.02-.18.068.584-2.745-2.267-2.21,2.355-.432Z" transform="translate(-8.477 -172.177)" fill="#00b5af"/>
        <path id="Path_2088-6" data-name="Path 2088" d="M8,21.8a.179.179,0,0,1-.084-.021l-2.9-1.526-2.9,1.526a.179.179,0,0,1-.26-.189L2.4,18.358.054,16.069a.179.179,0,0,1,.1-.306L3.4,15.291l1.451-2.94a.187.187,0,0,1,.322,0l1.451,2.94,3.245.472a.179.179,0,0,1,.1.306L7.618,18.358l.554,3.232A.179.179,0,0,1,8,21.8ZM5.01,19.871a.179.179,0,0,1,.084.021l2.664,1.4-.509-2.966a.179.179,0,0,1,.051-.159l2.155-2.1-2.978-.433a.179.179,0,0,1-.135-.1l-1.332-2.7-1.332,2.7a.179.179,0,0,1-.135.1l-2.978.433,2.155,2.1a.179.179,0,0,1,.051.159l-.509,2.966,2.664-1.4A.179.179,0,0,1,5.01,19.871Z" transform="translate(0 -12.259)" fill="#00b5af" stroke="#5363f6" stroke-width="0.5"/>
      </g>
      <g id="star-3-7" data-name="star-3" transform="translate(4840.988 2448.605)" opacity="0.3">
        <path id="Path_2085-7" data-name="Path 2085" d="M13.675,20.992l1.4,2.839,3.133.455L15.942,26.5l.535,3.121-2.8-1.473-2.8,1.473.535-3.121L9.14,24.286l3.133-.455Z" transform="translate(-8.357 -20.831)" fill="#00b5af"/>
        <path id="Path_2086-7" data-name="Path 2086" d="M20.449,60.184l-3.133-.455L16.24,57.563l-1.01,2.166-3.133.455,2.267,2.21-.535,3.121,2.243-1.386.3.113s0,0,0-.007a.187.187,0,0,1,.224-.127,1.464,1.464,0,0,1,.591.243.222.222,0,0,1,.062.074.155.155,0,0,1,.068.057.183.183,0,0,1,.072-.015.162.162,0,0,1,.164.122.175.175,0,0,1,.258.194l.952.357-.584-2.745Z" transform="translate(-11.258 -56.729)" fill="#00b5af"/>
        <path id="Path_2087-7" data-name="Path 2087" d="M12.4,175.177l-3.133.455,2.267,2.21L11,180.963l.805-.423-.011-.02-.18.068.584-2.745-2.267-2.21,2.355-.432Z" transform="translate(-8.477 -172.177)" fill="#00b5af"/>
        <path id="Path_2088-7" data-name="Path 2088" d="M8,21.8a.179.179,0,0,1-.084-.021l-2.9-1.526-2.9,1.526a.179.179,0,0,1-.26-.189L2.4,18.358.054,16.069a.179.179,0,0,1,.1-.306L3.4,15.291l1.451-2.94a.187.187,0,0,1,.322,0l1.451,2.94,3.245.472a.179.179,0,0,1,.1.306L7.618,18.358l.554,3.232A.179.179,0,0,1,8,21.8ZM5.01,19.871a.179.179,0,0,1,.084.021l2.664,1.4-.509-2.966a.179.179,0,0,1,.051-.159l2.155-2.1-2.978-.433a.179.179,0,0,1-.135-.1l-1.332-2.7-1.332,2.7a.179.179,0,0,1-.135.1l-2.978.433,2.155,2.1a.179.179,0,0,1,.051.159l-.509,2.966,2.664-1.4A.179.179,0,0,1,5.01,19.871Z" transform="translate(0 -12.259)" fill="#00b5af" stroke="#5363f6" stroke-width="0.5"/>
      </g>
      <g id="star-3-8" data-name="star-3" transform="translate(4806.333 2458.308)" opacity="0.551">
        <path id="Path_2085-8" data-name="Path 2085" d="M13.675,20.992l1.4,2.839,3.133.455L15.942,26.5l.535,3.121-2.8-1.473-2.8,1.473.535-3.121L9.14,24.286l3.133-.455Z" transform="translate(-8.357 -20.831)" fill="#00b5af"/>
        <path id="Path_2086-8" data-name="Path 2086" d="M20.449,60.184l-3.133-.455L16.24,57.563l-1.01,2.166-3.133.455,2.267,2.21-.535,3.121,2.243-1.386.3.113s0,0,0-.007a.187.187,0,0,1,.224-.127,1.464,1.464,0,0,1,.591.243.222.222,0,0,1,.062.074.155.155,0,0,1,.068.057.183.183,0,0,1,.072-.015.162.162,0,0,1,.164.122.175.175,0,0,1,.258.194l.952.357-.584-2.745Z" transform="translate(-11.258 -56.729)" fill="#00b5af"/>
        <path id="Path_2087-8" data-name="Path 2087" d="M12.4,175.177l-3.133.455,2.267,2.21L11,180.963l.805-.423-.011-.02-.18.068.584-2.745-2.267-2.21,2.355-.432Z" transform="translate(-8.477 -172.177)" fill="#00b5af"/>
        <path id="Path_2088-8" data-name="Path 2088" d="M8,21.8a.179.179,0,0,1-.084-.021l-2.9-1.526-2.9,1.526a.179.179,0,0,1-.26-.189L2.4,18.358.054,16.069a.179.179,0,0,1,.1-.306L3.4,15.291l1.451-2.94a.187.187,0,0,1,.322,0l1.451,2.94,3.245.472a.179.179,0,0,1,.1.306L7.618,18.358l.554,3.232A.179.179,0,0,1,8,21.8ZM5.01,19.871a.179.179,0,0,1,.084.021l2.664,1.4-.509-2.966a.179.179,0,0,1,.051-.159l2.155-2.1-2.978-.433a.179.179,0,0,1-.135-.1l-1.332-2.7-1.332,2.7a.179.179,0,0,1-.135.1l-2.978.433,2.155,2.1a.179.179,0,0,1,.051.159l-.509,2.966,2.664-1.4A.179.179,0,0,1,5.01,19.871Z" transform="translate(0 -12.259)" fill="#00b5af" stroke="#5363f6" stroke-width="0.5"/>
      </g>
    </g>
  </g>
</svg>
