<svg xmlns="http://www.w3.org/2000/svg" xmlns:xlink="http://www.w3.org/1999/xlink" width="51" height="51.999" viewBox="0 0 51 51.999"><defs><style>.a{opacity:0.595;}.b{stroke:rgba(0,0,0,0);fill:url(#a);}</style><linearGradient id="a" x1="0.5" x2="0.5" y2="1" gradientUnits="objectBoundingBox"><stop offset="0" stop-color="#db2032"/><stop offset="1" stop-color="#452d7b"/></linearGradient></defs><g class="a" transform="translate(0.5 0.5)"><path class="b" d="M7.032,3.032H4.968V.968a.968.968,0,1,0-1.937,0V3.032H.968a.968.968,0,1,0,0,1.937H3.032V7.032a.968.968,0,0,0,1.937,0V4.968H7.032a.968.968,0,0,0,0-1.937Z" transform="translate(15 13)"/><path class="b" d="M33.678,51H4.752A4.786,4.786,0,0,1,0,46.232V4.769A4.74,4.74,0,0,1,1.4,1.4,4.712,4.712,0,0,1,4.752,0H44.009a4.708,4.708,0,0,1,3.352,1.4,4.747,4.747,0,0,1,1.4,3.365V25.832A3.8,3.8,0,0,1,50,28.609a3.727,3.727,0,0,1-1.24,2.778V46.232A4.786,4.786,0,0,1,44.009,51Zm3.181-1.244h7.15a3.522,3.522,0,0,0,3.512-3.523V32.093a2.7,2.7,0,0,1-.815.205l-.011,0V44.159a4.789,4.789,0,0,1-4.753,4.769H37.6A4.628,4.628,0,0,1,36.86,49.756ZM1.24,4.769V46.232a3.522,3.522,0,0,0,3.512,3.523H33.678a3.522,3.522,0,0,0,3.513-3.523V4.769a3.523,3.523,0,0,0-3.513-3.525H4.752A3.523,3.523,0,0,0,1.24,4.769ZM42.562,24.007V44.159a4.736,4.736,0,0,1-1.57,3.524h.95a3.523,3.523,0,0,0,3.513-3.524V22.018A3.656,3.656,0,0,1,42.562,24.007ZM38.43,15.715V46.232a5.077,5.077,0,0,1-.207,1.409,3.452,3.452,0,0,0,3.1-3.483V13.725A3.672,3.672,0,0,1,38.43,15.715Zm8.265,15.341a2.481,2.481,0,0,0,0-4.892ZM37.6,2.031h4.338A4.789,4.789,0,0,1,46.695,6.8V24.879a4.7,4.7,0,0,1,.826.207V4.769a3.523,3.523,0,0,0-3.512-3.525V1.2H36.86A4.628,4.628,0,0,1,37.6,2.031Zm4.958,20.732a2.481,2.481,0,0,0,0-4.892Zm2.893-.746h0ZM41.109,3.443a.429.429,0,0,1,.048.04,4.6,4.6,0,0,1,1.4,3.358v9.786a3.674,3.674,0,0,1,2.893,1.991V6.841a3.523,3.523,0,0,0-3.513-3.523h-.95A.39.39,0,0,0,41.109,3.443ZM38.43,14.471a2.482,2.482,0,0,0,0-4.893Zm2.892-.746h0ZM38.43,4.769V8.335a3.644,3.644,0,0,1,2.892,1.99V6.841a3.5,3.5,0,0,0-3.1-3.482A5.079,5.079,0,0,1,38.43,4.769ZM8.058,42.708a.622.622,0,0,1,0-1.245H30.372a.622.622,0,0,1,0,1.245Zm0-4.146a.622.622,0,0,1,0-1.245H30.372a.622.622,0,0,1,0,1.245Zm0-4.147a.622.622,0,0,1,0-1.244H30.372a.622.622,0,0,1,0,1.244ZM7.232,17A11.984,11.984,0,1,1,19.214,29.025,12.018,12.018,0,0,1,7.232,17Zm1.239,0A10.744,10.744,0,1,0,19.214,6.219,10.774,10.774,0,0,0,8.471,17Z"/></g></svg>