<svg xmlns="http://www.w3.org/2000/svg" width="114" height="114" viewBox="0 0 114 114">
  <g id="Group_23305" data-name="Group 23305" transform="translate(0 0)">
    <rect id="BG" width="114" height="114" rx="3" transform="translate(0 0)" fill="#f6f7fb"/>
    <path id="Icon_awesome-file-pdf" data-name="Icon awesome-file-pdf" d="M29.392,41.381C28.584,38.8,28.6,33.8,29.068,33.8,30.426,33.8,30.3,39.765,29.392,41.381Zm-.275,7.627a74.557,74.557,0,0,1-4.589,10.131c2.957-1.131,6.3-2.779,10.163-3.539A20.931,20.931,0,0,1,29.117,49.007Zm-15.2,20.165c0,.129,2.133-.873,5.639-6.5C18.469,63.7,14.849,66.636,13.912,69.173Zm26.16-43.32H62.047v53a3.869,3.869,0,0,1-3.878,3.878H3.878A3.869,3.869,0,0,1,0,78.851V3.878A3.869,3.869,0,0,1,3.878,0H36.194V21.975A3.889,3.889,0,0,0,40.072,25.853Zm-1.293,27.76a16.217,16.217,0,0,1-6.9-8.693c.727-2.989,1.874-7.53,1-10.373-.759-4.75-6.851-4.282-7.724-1.1-.808,2.957-.065,7.126,1.309,12.442a151.728,151.728,0,0,1-6.592,13.864c-.016,0-.016.016-.032.016-4.379,2.246-11.892,7.19-8.806,10.987a5.021,5.021,0,0,0,3.474,1.616c2.892,0,5.768-2.908,9.873-9.986,4.169-1.373,8.742-3.086,12.765-3.749,3.506,1.907,7.61,3.151,10.341,3.151,4.718,0,5.041-5.171,3.183-7.013C48.426,52.578,41.9,53.208,38.779,53.612ZM60.916,16.966,45.081,1.131A3.875,3.875,0,0,0,42.334,0h-.969V20.682H62.047V19.7A3.866,3.866,0,0,0,60.916,16.966ZM48.943,58.217c.662-.436-.4-1.923-6.916-1.454C48.022,59.316,48.943,58.217,48.943,58.217Z" transform="translate(24.709 15.844)" fill="#db2032"/>
  </g>
</svg>
