<svg xmlns="http://www.w3.org/2000/svg" width="27.229" height="29.789" viewBox="0 0 27.229 29.789"><path d="M19.64,28.934c-.483-.089-.97-.158-1.449-.27A17.97,17.97,0,0,1,13.1,26.383a27.7,27.7,0,0,1-6.7-5.742A29.84,29.84,0,0,1,.83,11.126,13.383,13.383,0,0,1,.012,7.055,5.182,5.182,0,0,1,1.239,3.308C1.98,2.478,2.7,1.618,3.492.862A2.432,2.432,0,0,1,7.251.916C8.506,2.2,9.719,3.559,10.886,4.936a2.924,2.924,0,0,1,0,3.716c-.621.772-1.308,1.474-1.964,2.211-.06.062-.123.116-.233.224a20.122,20.122,0,0,0,7.542,8.231L17.8,17.585a4.006,4.006,0,0,1,1.41-1.158,2.215,2.215,0,0,1,2.577.5q1.971,2.053,3.843,4.221a2.952,2.952,0,0,1,.067,3.677c-.79,1.019-1.664,1.983-2.549,2.917a3.778,3.778,0,0,1-2.285,1.115,1.622,1.622,0,0,0-.18.058Zm.391-1.74a2.889,2.889,0,0,0,2.345-1.011c.592-.679,1.2-1.343,1.8-2.014a3.157,3.157,0,0,0,.219-.27,1.258,1.258,0,0,0-.032-1.7c-.483-.571-.994-1.111-1.495-1.663-.652-.714-1.3-1.432-1.957-2.134a1.023,1.023,0,0,0-.761-.388,1.012,1.012,0,0,0-.78.341c-.1.089-.187.189-.279.289-.628.683-1.248,1.374-1.879,2.049a1.124,1.124,0,0,1-1.5.274c-.384-.212-.765-.424-1.135-.664a20.08,20.08,0,0,1-4.379-4A17.369,17.369,0,0,1,7.3,11.8a1.554,1.554,0,0,1,.353-2.03C8.3,9.085,8.989,8.355,9.627,7.614A1.176,1.176,0,0,0,9.652,6c-.078-.1-.159-.193-.24-.286l-3.1-3.4a1.12,1.12,0,0,0-1.914,0c-.663.722-1.287,1.358-1.89,2.08a3.9,3.9,0,0,0-.705,1.158,5.361,5.361,0,0,0-.032,2.836A18.248,18.248,0,0,0,3.15,12.53,28.561,28.561,0,0,0,7.155,18.9a25.347,25.347,0,0,0,10.112,7.64,8.533,8.533,0,0,0,2.764.637Z" transform="translate(0.402 0.454)" fill="#452d7b" stroke="#442d7a" stroke-width="0.8"/></svg>