<svg xmlns="http://www.w3.org/2000/svg" width="73.621" height="73.621" viewBox="0 0 73.621 73.621">
  <g id="Icon_feather-image" data-name="Icon feather-image" transform="translate(-3 -3)">
    <path id="Path_46250" data-name="Path 46250" d="M12.278,4.5H66.722A7.778,7.778,0,0,1,74.5,12.278V66.722A7.778,7.778,0,0,1,66.722,74.5H12.278A7.778,7.778,0,0,1,4.5,66.722V12.278A7.778,7.778,0,0,1,12.278,4.5Z" transform="translate(0 0)" fill="none" stroke="#999696" stroke-linecap="round" stroke-linejoin="round" stroke-width="3"/>
    <path id="Path_46251" data-name="Path 46251" d="M22.69,16.595A6.095,6.095,0,1,1,16.595,10.5,6.095,6.095,0,0,1,22.69,16.595Z" transform="translate(9.416 9.416)" fill="none" stroke="#999696" stroke-linecap="round" stroke-linejoin="round" stroke-width="3"/>
    <path id="Path_46252" data-name="Path 46252" d="M69.373,35.317,50.038,15,7.5,59.7" transform="translate(5.127 14.804)" fill="none" stroke="#999696" stroke-linecap="round" stroke-linejoin="round" stroke-width="3"/>
  </g>
</svg>
