<svg xmlns="http://www.w3.org/2000/svg" width="199" height="62" viewBox="0 0 199 62">
  <g id="Group_23313" data-name="Group 23313" transform="translate(-315.361 -143)">
    <rect id="Rectangle_17414" data-name="Rectangle 17414" width="199" height="62" rx="5" transform="translate(315.361 143)" fill="#818080"/>
    <g id="Group_23312" data-name="Group 23312" transform="translate(332.584 153.333)">
      <path id="Icon_simple-podcasts" data-name="Icon simple-podcasts" d="M19.572,39.722s4.358,0,4.358-12.9a4.359,4.359,0,0,0-8.717,0C15.213,39.722,19.572,39.722,19.572,39.722Zm5.346-4.4c.19-.74.339-1.483.455-2.236l.088-.6c.19-.083.381-.162.573-.248a15.745,15.745,0,0,0,7.2-6.609,15.547,15.547,0,0,0,1.61-4.257,15.328,15.328,0,0,0,.275-5.111,14.771,14.771,0,0,0-1.274-4.613,15.057,15.057,0,0,0-3.184-4.608A15.634,15.634,0,0,0,25.9,3.785a15.071,15.071,0,0,0-5.826-1.294A15.53,15.53,0,0,0,5.827,10.957a16,16,0,0,0-1.493,4.507,15.514,15.514,0,0,0,8.292,16.413c.374.172.746.348,1.145.52.025.2.076.424.1.649.124.725.275,1.471.449,2.193a19.445,19.445,0,0,1-1.993-.775A18.188,18.188,0,0,1,3.884,26.6a18.565,18.565,0,0,1-1.817-4.982,17.271,17.271,0,0,1-.248-5.9,18.715,18.715,0,0,1,1.544-5.329,18.525,18.525,0,0,1,3.759-5.3A17.329,17.329,0,0,1,12.6,1.42a18.089,18.089,0,0,1,23.214,8.616,17.77,17.77,0,0,1,1.668,5.255,17.537,17.537,0,0,1-.026,5.7,17.953,17.953,0,0,1-9.763,13.2,20.189,20.189,0,0,1-2.739,1.094l-.035.038Zm.861-7.109.017-.778a10.661,10.661,0,0,0-.076-1.561,4.655,4.655,0,0,0-.124-.573,9.039,9.039,0,0,0,2.266-2.764,9.292,9.292,0,0,0,.922-2.567,9.174,9.174,0,0,0,.1-3.087,9.9,9.9,0,0,0-.746-2.665A9.67,9.67,0,0,0,26.22,11.46a9.844,9.844,0,0,0-2.79-1.918,9.732,9.732,0,0,0-3.636-.821,9.835,9.835,0,0,0-3.686.649,9.564,9.564,0,0,0-2.863,1.792A8.929,8.929,0,0,0,11.2,13.85a9.535,9.535,0,0,0-.9,2.615,9.29,9.29,0,0,0-.074,2.863A9.466,9.466,0,0,0,13.442,25.3l-.151.672a8.2,8.2,0,0,0-.074,1.567v.7a11.75,11.75,0,0,1-4.159-4.407,10.922,10.922,0,0,1-1.2-3.264,11.3,11.3,0,0,1-.149-3.884,11.843,11.843,0,0,1,.947-3.363,12.127,12.127,0,0,1,2.415-3.51A11.64,11.64,0,0,1,14.584,7.4a11.886,11.886,0,0,1,9.239-.223,11.677,11.677,0,0,1,3.636,2.264,11.966,11.966,0,0,1,3.711,6.7,11.7,11.7,0,0,1,.074,3.611,11.367,11.367,0,0,1-.973,3.386,11.811,11.811,0,0,1-4.681,5.257l.189-.175ZM19.572,12.37a4.4,4.4,0,1,0,0,.035Z" transform="translate(-1.674 0)" fill="#fff"/>
      <text id="Podcast" transform="translate(48.791 30)" fill="#fff" font-size="30" font-family="Avenir-Heavy, Avenir" font-weight="800"><tspan x="0" y="0">Podcast</tspan></text>
    </g>
  </g>
</svg>
