<svg xmlns="http://www.w3.org/2000/svg" width="23.751" height="23.751" viewBox="0 0 23.751 23.751">
  <g id="Icon_feather-settings" data-name="Icon feather-settings" transform="translate(0.75 0.75)">
    <path id="Path_51229" data-name="Path 51229" d="M19.568,16.534A3.034,3.034,0,1,1,16.534,13.5,3.034,3.034,0,0,1,19.568,16.534Z" transform="translate(-5.409 -5.409)" fill="none" stroke="#00b2a9" stroke-linecap="round" stroke-linejoin="round" stroke-width="1.5"/>
    <path id="Path_51230" data-name="Path 51230" d="M20.11,15.659a1.669,1.669,0,0,0,.334,1.841l.061.061a2.024,2.024,0,1,1-2.862,2.862l-.061-.061a1.682,1.682,0,0,0-2.852,1.193v.172a2.023,2.023,0,1,1-4.046,0v-.091A1.669,1.669,0,0,0,9.591,20.11a1.669,1.669,0,0,0-1.841.334L7.69,20.5a2.024,2.024,0,1,1-2.862-2.862l.061-.061a1.682,1.682,0,0,0-1.193-2.852H3.523a2.023,2.023,0,1,1,0-4.046h.091A1.669,1.669,0,0,0,5.141,9.591,1.669,1.669,0,0,0,4.807,7.75L4.747,7.69A2.024,2.024,0,1,1,7.609,4.827l.061.061a1.669,1.669,0,0,0,1.841.334h.081A1.669,1.669,0,0,0,10.6,3.695V3.523a2.023,2.023,0,1,1,4.046,0v.091A1.682,1.682,0,0,0,17.5,4.807l.061-.061a2.024,2.024,0,1,1,2.862,2.862l-.061.061a1.669,1.669,0,0,0-.334,1.841v.081A1.669,1.669,0,0,0,21.556,10.6h.172a2.023,2.023,0,0,1,0,4.046h-.091a1.669,1.669,0,0,0-1.527,1.011Z" transform="translate(-1.5 -1.5)" fill="none" stroke="#555" stroke-linecap="round" stroke-linejoin="round" stroke-width="1.5"/>
  </g>
</svg>
