<svg xmlns="http://www.w3.org/2000/svg" width="41.728" height="44.504" viewBox="0 0 41.728 44.504">
  <g id="Group_23259" data-name="Group 23259" transform="translate(1.201 -6.18) rotate(9)">
    <path id="Path_51172" data-name="Path 51172" d="M12.069,9.829h0a12.734,12.734,0,0,0,7.393-2.355,12.822,12.822,0,0,0,4.609-6.019A1.082,1.082,0,1,0,22.044.709a10.659,10.659,0,0,1-3.831,5,10.567,10.567,0,0,1-6.143,1.955A10.567,10.567,0,0,1,5.928,5.71,10.657,10.657,0,0,1,2.1.709a1.082,1.082,0,0,0-2.031.747A12.821,12.821,0,0,0,4.675,7.474,12.735,12.735,0,0,0,12.069,9.829Z" transform="translate(12.038 27.409) rotate(-11)" fill="#00b5af"/>
    <path id="Path_51173" data-name="Path 51173" d="M1.458,2.915A1.457,1.457,0,1,0,0,1.457,1.457,1.457,0,0,0,1.458,2.915Z" transform="translate(25.25 16.998) rotate(-11)" fill="#00b5af"/>
    <path id="Path_51174" data-name="Path 51174" d="M1.458,2.915A1.457,1.457,0,1,0,0,1.457,1.457,1.457,0,0,0,1.458,2.915Z" transform="translate(16.725 18.655) rotate(-11)" fill="#00b5af"/>
    <path id="Path_51189" data-name="Path 51189" d="M1.457,15.86q.351-.19.693-.393a14.575,14.575,0,0,1,.393-2.855A17.96,17.96,0,0,1,.081,14.14q-.054.481-.081.97A10.966,10.966,0,0,1,1.457,15.86ZM8.979,3.685a14.5,14.5,0,0,1,2.053-1.069q.262-.111.529-.211A20.088,20.088,0,0,0,11.927,0,16.633,16.633,0,0,0,9.643.866,17.817,17.817,0,0,1,8.979,3.685Z" transform="translate(31.91 23.858) rotate(-11)" fill="#00b5af"/>
    <path id="Path_51171" data-name="Path 51171" d="M5.279,43.126a1.081,1.081,0,0,0,.5-.121l7.591-3.922a20.013,20.013,0,0,0,2.442.7q.162-.176.331-.345a11.05,11.05,0,0,1,1.836-1.481,17.851,17.851,0,0,1-4.294-1.063,1.082,1.082,0,0,0-.885.049l-6.009,3.1,1.2-5.9a1.08,1.08,0,0,0-.3-1.061A17.952,17.952,0,1,1,37.88,22.836a16.632,16.632,0,0,1,2.284-.866q.083-.912.083-1.846A20.124,20.124,0,0,0,20.126,0h0A20.117,20.117,0,0,0,5.765,34.222L4.219,41.828a1.083,1.083,0,0,0,1.06,1.3Zm1.664-9.261L8,34.08Zm13.179,6.382h0a20.063,20.063,0,0,0,7.661-1.51A9.336,9.336,0,0,0,17.9,40.125,20.269,20.269,0,0,0,20.123,40.247Zm10.264-2.81A20.17,20.17,0,0,0,39.8,24.375q-.267.1-.529.211a14.491,14.491,0,0,0-2.053,1.069,18.016,18.016,0,0,1-6.436,8.927,14.573,14.573,0,0,0-.393,2.855Zm-2.15-.357q.027-.489.081-.97-.591.3-1.206.564A10.911,10.911,0,0,1,28.237,37.079Z" transform="translate(0 7.68) rotate(-11)" fill="#00b5af"/>
    <path id="Path_51192" data-name="Path 51192" d="M.009,1.472Q.762,1.141,1.482.751A10.969,10.969,0,0,0,.025,0Q0,.458,0,.923,0,1.2.009,1.472Z" transform="translate(34.769 38.695) rotate(-11)" fill="#00b5af"/>
    <path id="Path_51193" data-name="Path 51193" d="M2.091,3.452a9.335,9.335,0,0,1,9.884-1.388q.22-.09.436-.186Q12.4,1.6,12.4,1.329q0-.464.025-.923A10.9,10.9,0,0,0,11.3,0,17.9,17.9,0,0,1,4.315,1.41a18.09,18.09,0,0,1-2.147-.127A11.054,11.054,0,0,0,.331,2.764Q.162,2.933,0,3.109A20.069,20.069,0,0,0,2.091,3.452Z" transform="translate(22.516 40.663) rotate(-11)" fill="#00b5af"/>
  </g>
</svg>
