<svg xmlns="http://www.w3.org/2000/svg" width="35.669" height="35.669" viewBox="0 0 35.669 35.669">
  <g id="Group_23305" data-name="Group 23305" transform="translate(-41.04 -41.04)">
    <path id="Icon_awesome-user-alt" data-name="Icon awesome-user-alt" d="M17.834,20.064A10.032,10.032,0,1,0,7.8,10.032,10.034,10.034,0,0,0,17.834,20.064Zm8.917,2.229H22.913a12.127,12.127,0,0,1-10.157,0H8.917A8.916,8.916,0,0,0,0,31.21v1.115a3.345,3.345,0,0,0,3.344,3.344H32.325a3.345,3.345,0,0,0,3.344-3.344V31.21A8.916,8.916,0,0,0,26.751,22.293Z" transform="translate(41.04 41.04)" fill="#818080"/>
  </g>
</svg>
