<svg xmlns="http://www.w3.org/2000/svg" xmlns:xlink="http://www.w3.org/1999/xlink" width="45" height="45" viewBox="0 0 45 45"><defs><clipPath id="a"><rect width="45" height="45" transform="translate(-0.273)" fill="#fff"/></clipPath></defs><g transform="translate(-63.001 -25)"><g transform="translate(63.273 25)" clip-path="url(#a)"><g transform="translate(5 2)"><path d="M4.5,7.5h-3v24a3.009,3.009,0,0,0,3,3h24v-3H4.5Zm27-6h-21a3.009,3.009,0,0,0-3,3v21a3.009,3.009,0,0,0,3,3h21a3.009,3.009,0,0,0,3-3V4.5A3.009,3.009,0,0,0,31.5,1.5Zm0,12v12h-21V4.5h21Z" fill="#fff"/></g><g transform="translate(70.35 19.822)"><path d="M18,12V24" transform="translate(-12 -12)" fill="none" stroke="#fff" stroke-linecap="round" stroke-linejoin="round" stroke-width="3"/><path d="M12,18H24" transform="translate(-12 -12)" fill="none" stroke="#fff" stroke-linecap="round" stroke-linejoin="round" stroke-width="3"/></g></g><g transform="translate(127.301 26.178)"><g transform="translate(-45.452 9.548)"><path d="M18,12V24" transform="translate(-12 -12)" fill="none" stroke="#fff" stroke-linecap="round" stroke-linejoin="round" stroke-width="3"/><path d="M12,18H24" transform="translate(-12 -12)" fill="none" stroke="#fff" stroke-linecap="round" stroke-linejoin="round" stroke-width="3"/></g></g></g></svg>