<svg xmlns="http://www.w3.org/2000/svg" xmlns:xlink="http://www.w3.org/1999/xlink" width="45" height="45" viewBox="0 0 45 45">
  <defs>
    <clipPath id="clip-path">
      <rect id="Rectangle_16867" data-name="Rectangle 16867" width="45" height="45" transform="translate(-0.321)" fill="#fff" stroke="#707070" stroke-width="1"/>
    </clipPath>
  </defs>
  <g id="Group_9911" data-name="Group 9911" transform="translate(0.321)">
    <g id="Mask_Group_83" data-name="Mask Group 83" clip-path="url(#clip-path)">
      <g id="Group_14358" data-name="Group 14358" transform="translate(-3.956 -3.706)">
        <g id="Group_9888" data-name="Group 9888" transform="translate(6.787 8.258)">
          <g id="Group_61" data-name="Group 61" transform="translate(0)">
            <path id="Path_2" data-name="Path 2" d="M17,36.374a9.268,9.268,0,0,0,8.852,9.245c-.74,2.316-.489,4.351.745,5.586a4.287,4.287,0,0,0,3.132,1.176,7.888,7.888,0,0,0,2.216-.346,15.017,15.017,0,0,0,6.125-3.855,15.016,15.016,0,0,0,3.855-6.125c.662-2.252.367-4.151-.831-5.349-1.235-1.236-3.27-1.486-5.586-.745a9.25,9.25,0,0,0-3.934-7.167h4.8a5.9,5.9,0,1,0,0-11.793H22.9a5.893,5.893,0,0,0-1.6,11.566A9.257,9.257,0,0,0,17,36.374Zm1.685,0a7.531,7.531,0,0,1,.7-3.163L29.428,43.254a7.511,7.511,0,0,1-3.162.7A7.59,7.59,0,0,1,18.685,36.374ZM39.9,37.9c.731.73.879,2.073.405,3.682a13.317,13.317,0,0,1-3.43,5.41,13.306,13.306,0,0,1-5.41,3.429c-1.611.474-2.951.327-3.682-.4-.869-.869-.9-2.531-.111-4.493a9.27,9.27,0,0,0,7.734-7.735C37.373,37,39.035,37.027,39.9,37.9Zm-6.058-1.523a7.53,7.53,0,0,1-.7,3.163L23.1,29.493a7.566,7.566,0,0,1,10.744,6.881ZM40.585,22.9a4.216,4.216,0,0,1-4.212,4.212h-5.9V18.685h5.9A4.216,4.216,0,0,1,40.585,22.9ZM22.9,27.108a4.212,4.212,0,1,1,0-8.423h5.9v8.423Zm-1.274,3.286L32.245,41.017a7.6,7.6,0,0,1-1.336,1.336L20.286,31.73A7.712,7.712,0,0,1,21.622,30.394Z" transform="translate(-17 -17)" fill="#fff" stroke="#fff" stroke-width="0.5"/>
          </g>
        </g>
        <path id="Icon_awesome-plus" data-name="Icon awesome-plus" d="M13.2,7.833H8.629V3.265A1.015,1.015,0,0,0,7.614,2.25H6.6A1.015,1.015,0,0,0,5.583,3.265V7.833H1.015A1.015,1.015,0,0,0,0,8.848V9.864a1.015,1.015,0,0,0,1.015,1.015H5.583v4.568A1.015,1.015,0,0,0,6.6,16.462H7.614a1.015,1.015,0,0,0,1.015-1.015V10.879H13.2a1.015,1.015,0,0,0,1.015-1.015V8.848A1.015,1.015,0,0,0,13.2,7.833Z" transform="translate(32.059 13.018)" fill="#fff"/>
      </g>
    </g>
  </g>
</svg>
