<svg xmlns="http://www.w3.org/2000/svg" width="78.555" height="95.765" viewBox="0 0 78.555 95.765"><defs><style>.a{fill:#fff;stroke:#93307e;stroke-width:2px;}</style></defs><path class="a" d="M97.565,32.5a48.266,48.266,0,0,1-33.273-13.25,2.94,2.94,0,0,0-3.975,0A48.266,48.266,0,0,1,27.044,32.5,2.953,2.953,0,0,0,24.1,35.443V81.377a3.465,3.465,0,0,0,.294,1.178,49.253,49.253,0,0,0,32.1,27.826c.306.088,5.889,1.619,5.889,1.619s5.519-1.512,5.889-1.619a49.253,49.253,0,0,0,32.1-27.826,3.462,3.462,0,0,0,.293-1.178V35.443A3.185,3.185,0,0,0,97.565,32.5Zm-2.944,48.29a43.387,43.387,0,0,1-27.973,24l-4.417,1.178-4.417-1.178a43.383,43.383,0,0,1-27.973-24V38.24A53.88,53.88,0,0,0,62.231,25.284,53.88,53.88,0,0,0,94.621,38.24ZM60.465,60.913,44.859,76.666l7.95,7.95,4.122-4.124L53.1,76.666,54.87,74.9,58.7,78.728,62.82,74.6l-3.828-3.828,5.595-5.595a10.765,10.765,0,0,0,4.86,1.178A10.306,10.306,0,1,0,59.141,56.054,13.18,13.18,0,0,0,60.465,60.913Zm9.128-9.275a4.417,4.417,0,1,1-4.417,4.417A4.338,4.338,0,0,1,69.592,51.637Z" transform="translate(-23.1 -17.272)"/></svg>