<svg xmlns="http://www.w3.org/2000/svg" xmlns:xlink="http://www.w3.org/1999/xlink" width="184" height="244" viewBox="0 0 184 244">
  <defs>
    <clipPath id="clip-path">
      <rect id="Rectangle_16869" data-name="Rectangle 16869" width="93" height="93" transform="translate(0.425 0.425)" fill="#fff" stroke="#707070" stroke-width="1"/>
    </clipPath>
  </defs>
  <g id="Group_10744" data-name="Group 10744" transform="translate(-1293 -495)">
    <g id="Rectangle_17064" data-name="Rectangle 17064" transform="translate(1293 495)" fill="rgba(94,162,223,0.09)" stroke="#fff" stroke-width="2">
      <rect width="184" height="184" rx="30" stroke="none"/>
      <rect x="1" y="1" width="182" height="182" rx="29" fill="none"/>
    </g>
    <text id="CMS" transform="translate(1385 731)" fill="#fff" font-size="30" font-family="Roboto-Regular, Roboto" letter-spacing="0.009em"><tspan x="-32" y="0">CMS</tspan></text>
    <g id="Group_14199" data-name="Group 14199" transform="translate(1339.125 540.804)">
      <g id="Mask_Group_85" data-name="Mask Group 85" transform="translate(-0.551 -0.229)" clip-path="url(#clip-path)">
        <path id="writing" d="M72.983,57.938a1.31,1.31,0,0,0-1.808.4c-2.377,8.489-11.041,13.4-17.139,13.4H20.326A17.726,17.726,0,0,1,2.621,54.035V20.883c.474-4.812-.587-1.31-1.31-1.31A1.31,1.31,0,0,0,0,20.883V54.035A20.349,20.349,0,0,0,20.326,74.361h33.71A21.19,21.19,0,0,0,73.928,58.887l-.945-.949ZM59.29,28.29,49.3,38.279a1.31,1.31,0,1,0,1.852,1.852l9.988-9.988A1.31,1.31,0,0,0,59.29,28.29ZM87.535,6.464,82.969,1.9a6.489,6.489,0,0,0-9.167,0l-4.74,4.74A20.2,20.2,0,0,0,54.036,0H20.326A20.364,20.364,0,0,0,7.471,4.581C3.908,7.493.338,12.029.029,20.838a1.31,1.31,0,0,0,1.006,1.556,1.374,1.374,0,0,0,.276.029A1.31,1.31,0,0,0,2.59,21.389,19.819,19.819,0,0,1,9.129,6.609a17.737,17.737,0,0,1,11.2-3.99h33.71a17.6,17.6,0,0,1,13.17,5.874L53.276,22.424H16.745a1.31,1.31,0,1,0,0,2.62H50.656l-6.281,6.28H16.745a1.31,1.31,0,1,0,0,2.621H41.754l-8.126,8.126A29.452,29.452,0,0,0,27.9,50.142l-3.729,7.746a5.537,5.537,0,0,0,4.953,7.929,5.568,5.568,0,0,0,2.417-.559L35.3,63.45h0l3.986-1.918A29.472,29.472,0,0,0,47.361,55.8L71.742,31.423V54.035a17.785,17.785,0,0,1-.511,4.241c1.987.841.257,1.412.96,1.584a1.307,1.307,0,0,0,.313.038,1.506,1.506,0,0,0,1.424-1.012,20.176,20.176,0,0,0,.434-4.852V28.8L78,25.162h0l9.53-9.529a6.49,6.49,0,0,0,0-9.167ZM30.408,62.9a2.9,2.9,0,0,1-3.873-3.873l1.105-2.3a32.437,32.437,0,0,1,5.065,5.065Zm7.746-3.728-3.031,1.459A35.083,35.083,0,0,0,28.8,54.31l1.459-3.031a26.825,26.825,0,0,1,3.77-5.786L43.94,55.4a26.849,26.849,0,0,1-5.786,3.77Zm7.7-5.562L35.825,43.58,65.2,14.207,75.225,24.234ZM77.078,22.382,67.051,12.354,70.285,9.12,80.313,19.148Zm8.6-8.6-3.517,3.517L72.138,7.267l3.516-3.517a3.867,3.867,0,0,1,5.462,0l4.566,4.566a3.867,3.867,0,0,1,0,5.462ZM16.745,16.143H57.618a1.31,1.31,0,1,0,0-2.62H16.745a1.31,1.31,0,1,0,0,2.62Zm0,0" transform="translate(2.995 10.646)" fill="#fff" stroke="#fff" stroke-width="0.8"/>
      </g>
    </g>
  </g>
</svg>
