<svg xmlns="http://www.w3.org/2000/svg" width="79.613" height="100.792" viewBox="0 0 79.613 100.792"><defs><style>.a{fill:#fff;stroke:#fff;}</style></defs><g transform="translate(0.5 0.504)"><path class="a" d="M-4067.039,356.738a27.065,27.065,0,0,0-24.289,16.615,51.065,51.065,0,0,0-3.934,21.206,11.778,11.778,0,0,0,11.059,11.416,51.366,51.366,0,0,0,8.285-.165l0,.721a7.28,7.28,0,0,1-4.609,6.772l-17.668,6.955a11.776,11.776,0,0,0-7.465,10.957V452.9a3.616,3.616,0,0,0,3.617,3.613h71.379a3.611,3.611,0,0,0,3.617-3.613V431.216a11.782,11.782,0,0,0-7.457-10.957l-17.676-6.955a7.281,7.281,0,0,1-4.613-6.772l0-.721a51.4,51.4,0,0,0,8.289.165,11.778,11.778,0,0,0,11.055-11.416,51.131,51.131,0,0,0-3.937-21.206,27.06,27.06,0,0,0-25.652-16.615Zm1.316,1.787a25.276,25.276,0,0,1,22.684,15.517,49.3,49.3,0,0,1,3.8,20.469,9.993,9.993,0,0,1-9.379,9.686,49.629,49.629,0,0,1-6.629-.045,26.719,26.719,0,0,0,7.395-12.762,11.8,11.8,0,0,0,.363-2.56,57.258,57.258,0,0,0-.719-10.656,10.852,10.852,0,0,0-10.48-8.179,3.609,3.609,0,0,0-2.777,1.3,23.285,23.285,0,0,1-21.387,8.087,1.772,1.772,0,0,0-1.352.345,1.787,1.787,0,0,0-.687,1.214,57.87,57.87,0,0,0-.34,7.89,11.8,11.8,0,0,0,.348,2.56,26.684,26.684,0,0,0,7.4,12.763,49.571,49.571,0,0,1-6.625.044,10,10,0,0,1-9.387-9.686,49.422,49.422,0,0,1,3.8-20.468,25.274,25.274,0,0,1,23.961-15.52Zm7.023,13.255a9.065,9.065,0,0,1,8.734,6.759,55.532,55.532,0,0,1,.688,10.245,10.428,10.428,0,0,1-.3,2.171,24.912,24.912,0,0,1-11.852,15.6,9.991,9.991,0,0,1-9.875,0,24.925,24.925,0,0,1-11.848-15.6,10.433,10.433,0,0,1-.3-2.171,54.879,54.879,0,0,1,.328-7.642,25.084,25.084,0,0,0,23.027-8.706h0a1.84,1.84,0,0,1,1.406-.655Zm-15.457,35.087c.641.44,1.3.853,1.977,1.237a11.766,11.766,0,0,0,11.637,0h0c.676-.385,1.328-.8,1.965-1.238a9.052,9.052,0,0,0,5.73,8.094l.223.082-13.734,13.6-13.727-13.6.2-.083a9.049,9.049,0,0,0,5.727-8.091Zm-7.75,8.886,14.449,14.3a1.95,1.95,0,0,0,.2.171v24.5h-34.8a1.826,1.826,0,0,1-1.828-1.831l-.012-21.687a9.993,9.993,0,0,1,6.336-9.3l10.547-4.151v4.5a6.529,6.529,0,0,0-5.473,5.02l-3.07,13.527a2.9,2.9,0,0,0,.68,2.582,6.374,6.374,0,0,0,2.945,1.844,1.915,1.915,0,0,0,2,1.279,1.924,1.924,0,0,0,1.723-1.634,1.928,1.928,0,0,0-1.168-2.067,1.927,1.927,0,0,0-2.289.635,4.65,4.65,0,0,1-1.887-1.249,1.117,1.117,0,0,1-.266-1l3.066-13.526a4.746,4.746,0,0,1,4.633-3.708,4.751,4.751,0,0,1,4.629,3.708l3.059,13.526a1.116,1.116,0,0,1-.258,1h0a4.581,4.581,0,0,1-1.895,1.249,1.934,1.934,0,0,0-2.293-.631,1.929,1.929,0,0,0-1.164,2.07,1.935,1.935,0,0,0,1.727,1.631,1.933,1.933,0,0,0,2-1.282,6.388,6.388,0,0,0,2.938-1.845,2.909,2.909,0,0,0,.68-2.581l-3.074-13.527a6.53,6.53,0,0,0-5.465-5.02v-5.2Zm31.082,0,5.375,2.115v9.126a7.012,7.012,0,0,0-6.105,7.4,7.015,7.015,0,0,0,6.992,6.564,7.012,7.012,0,0,0,7-6.562,7.012,7.012,0,0,0-6.1-7.4v-8.424l8.5,3.342a9.993,9.993,0,0,1,6.336,9.3V452.9a1.832,1.832,0,0,1-.535,1.3,1.833,1.833,0,0,1-1.3.534h-34.8V430.227a1.658,1.658,0,0,0,.207-.169Zm6.121,12.967a5.227,5.227,0,0,1,3.793,1.476,5.234,5.234,0,0,1,1.586,3.75,5.229,5.229,0,0,1-5.234,5.228,5.226,5.226,0,0,1-5.223-5.228A5.226,5.226,0,0,1-4044.7,428.72Z" transform="translate(4105.664 -356.729)"/></g></svg>