<svg xmlns="http://www.w3.org/2000/svg" width="61.349" height="72.175" viewBox="0 0 61.349 72.175"><defs><style>.a{fill:#fff;}</style></defs><g transform="translate(-62 -52)"><path class="a" d="M14.436,72.175H9.023A9.032,9.032,0,0,1,0,63.153V9.021A9.031,9.031,0,0,1,9.023,0h43.3a9.031,9.031,0,0,1,9.021,9.021V66.04a6.142,6.142,0,0,1-6.133,6.135ZM3.608,9.021V61.349H57.741V9.021a5.42,5.42,0,0,0-5.413-5.413H9.023A5.42,5.42,0,0,0,3.608,9.021Z" transform="translate(62 52)"/><path class="a" d="M5.413,7.218a1.805,1.805,0,0,1,1.8,1.8h3.609A5.406,5.406,0,0,0,7.218,3.941V0H3.609V3.941a5.4,5.4,0,0,0,1.8,10.494,1.8,1.8,0,1,1-1.8,1.8H0a5.406,5.406,0,0,0,3.609,5.081v3.941H7.218a4.923,4.923,0,0,1,0-3.941c.9-2.255,3.609-2.732,3.609-5.081a5.42,5.42,0,0,0-5.413-5.413,1.8,1.8,0,1,1,0-3.609Z" transform="translate(87.261 80.869)"/><g transform="translate(-438 -496)"><path class="a" d="M46.916,18.044H0V0H46.916V18.042ZM3.61,3.608V14.435h39.7V3.608Z" transform="translate(507.217 555.217)"/><rect class="a" width="3.609" height="3.609" transform="translate(514.435 562.434)"/><rect class="a" width="3.609" height="3.609" transform="translate(521.653 562.434)"/><rect class="a" width="3.609" height="3.609" transform="translate(528.87 562.434)"/><rect class="a" width="3.609" height="3.609" transform="translate(536.088 562.434)"/><rect class="a" width="3.609" height="3.609" transform="translate(543.305 562.434)"/></g></g></svg>