<svg xmlns="http://www.w3.org/2000/svg" width="98.5" height="98.5" viewBox="0 0 98.5 98.5"><defs><style>.a{fill:#fff;stroke:#fff;stroke-width:0.5px;}</style></defs><g transform="translate(0.25 0.25)"><path class="a" d="M25.267,32.333a13.067,13.067,0,0,1,26.133,0v1.633h3.267V32.333a16.333,16.333,0,0,0-32.667,0v1.633h3.267Z" transform="translate(10.667 6.867)"/><path class="a" d="M35.8,21.6A9.8,9.8,0,1,0,26,11.8,9.81,9.81,0,0,0,35.8,21.6Zm0-16.333A6.533,6.533,0,1,1,29.267,11.8,6.54,6.54,0,0,1,35.8,5.267Z" transform="translate(13.2 -2)"/><path class="a" d="M98.367,29H3.633A1.634,1.634,0,0,0,2,30.633v9.8a1.634,1.634,0,0,0,1.633,1.633v39.2A1.634,1.634,0,0,0,5.267,82.9H96.733a1.634,1.634,0,0,0,1.633-1.633v-39.2A1.634,1.634,0,0,0,100,40.433v-9.8A1.634,1.634,0,0,0,98.367,29Zm-93.1,3.267H96.733V38.8H5.267ZM95.1,79.633H6.9V42.067H95.1Z" transform="translate(-2 15.1)"/><path class="a" d="M35.8,60.6A9.8,9.8,0,1,0,26,50.8,9.81,9.81,0,0,0,35.8,60.6Zm0-16.333A6.533,6.533,0,1,1,29.267,50.8,6.54,6.54,0,0,1,35.8,44.267Z" transform="translate(13.2 22.7)"/><rect class="a" width="3" height="3" transform="translate(33 72)"/><rect class="a" width="3" height="3" transform="translate(62 72)"/></g></svg>