<svg xmlns="http://www.w3.org/2000/svg" width="54.858" height="84.017" viewBox="0 0 54.858 84.017"><defs><style>.a{fill:#fff;stroke:#983578;}</style></defs><g transform="translate(-788.5 -252.483)"><path class="a" d="M67.263,64.928c0-.05.029-.093.029-.144V38.02c0-5.347-1.817-9.462-4.649-10.885l2.939-11.757a1.661,1.661,0,0,0-1.054-1.967,53.722,53.722,0,0,0-37.66.008,1.661,1.661,0,0,0-1.033,1.959L28.77,27.116c-2.809,1.4-4.644,5.53-4.644,10.9V64.783c0,.051.025.094.029.144A12.9,12.9,0,0,0,18.78,75.393V91.347a1.66,1.66,0,0,0,1.66,1.66H70.978a1.66,1.66,0,0,0,1.66-1.66V75.393A12.9,12.9,0,0,0,67.263,64.928ZM61.991,16.052,59.355,26.6H32.063l-2.64-10.563A50.26,50.26,0,0,1,61.991,16.052ZM27.446,38.02c0-4.3,1.565-8.008,3.331-8.1H60.559c1.851.1,3.413,3.81,3.413,8.1V63.209a12.834,12.834,0,0,0-4.253-.734h-.175a6.089,6.089,0,0,1-2.956-.765c-.008-.005-.012-.014-.021-.019s-.011,0-.016-.005a6.086,6.086,0,0,1-2.926-3.834l-.474-1.9c0-.016-.014-.027-.019-.043a15.718,15.718,0,0,0,7.4-13.458V38.219a5.9,5.9,0,0,0-5.9-5.9H36.548a5.9,5.9,0,0,0-5.9,5.9v4.237a15.712,15.712,0,0,0,7.595,13.58l-.454,1.818a6.086,6.086,0,0,1-2.924,3.831c-.006,0-.013,0-.02.007s-.015.017-.026.023a6.09,6.09,0,0,1-2.95.76H31.7a12.834,12.834,0,0,0-4.253.734V38.02ZM45.726,54.7h-.263c-6.336,0-11.49-5.493-11.49-12.244V38.219a2.578,2.578,0,0,1,2.575-2.575H54.642a2.577,2.577,0,0,1,2.575,2.575v4.237C57.217,49.207,52.062,54.7,45.726,54.7ZM41.015,58.66l.16-.639h9.07l.16.637a9.376,9.376,0,0,0,3.024,4.854,9.9,9.9,0,0,1-15.437,0A9.376,9.376,0,0,0,41.015,58.66Zm28.3,31.028h-6.4V83.046a1.66,1.66,0,0,0-3.321,0v6.641H31.82V83.046a1.66,1.66,0,0,0-3.321,0v6.641H22.1V75.393a9.609,9.609,0,0,1,9.6-9.6h.175a9.41,9.41,0,0,0,3.236-.581,13.218,13.218,0,0,0,21.2,0,9.407,9.407,0,0,0,3.236.581h.175a9.609,9.609,0,0,1,9.6,9.6V89.687Z" transform="translate(770.22 242.992)"/><circle class="a" cx="1.944" cy="1.944" r="1.944" transform="translate(808.154 280.888)"/><circle class="a" cx="1.944" cy="1.944" r="1.944" transform="translate(819.816 280.888)"/><path class="a" d="M36.546,36.546a3.888,3.888,0,0,0,3.887-3.887H32.659A3.887,3.887,0,0,0,36.546,36.546Z" transform="translate(779.383 257.948)"/><path class="a" d="M34.16,19.311h.83v.83a1.66,1.66,0,0,0,3.321,0v-.83h.83a1.66,1.66,0,1,0,0-3.321h-.83v-.83a1.66,1.66,0,0,0-3.321,0v.83h-.83a1.66,1.66,0,0,0,0,3.321Z" transform="translate(779.278 245.298)"/><path class="a" d="M46.3,48.464H39.66a1.66,1.66,0,1,0,0,3.321H46.3a1.66,1.66,0,1,0,0-3.321Z" transform="translate(782.91 268.383)"/></g></svg>