<svg xmlns="http://www.w3.org/2000/svg" width="99.5" height="84.659" viewBox="0 0 99.5 84.659"><defs><style>.a{fill:#fff;}</style></defs><g transform="translate(5576 2656)"><g transform="translate(-5576 -2656)"><path class="a" d="M81.63,37.619l87.613-.04v15.4L82,52.965c.13.585-.119,1.4,0,2.007l87.238-.2v4.411h1.8V2.244h1.309V0H80.107V2.244h1.309c.248,8.172.214,16.346.214,16.346S81.377,22.24,81.63,37.619Zm1.582-1.836v-15.4h86.031v15.4H83.212ZM169.242,18.59H83.212V2.955h86.031V18.59Z" transform="translate(-80.059)"/><path class="a" d="M94.068,25.523h3.086a.9.9,0,0,0,.9-.9V19.519a.9.9,0,0,0-.9-.9h-.393V18h.645v-1.8H93.815V18h.645v.617h-.393a.9.9,0,0,0-.9.9v5.106A.9.9,0,0,0,94.068,25.523Z" transform="translate(-87.258 -8.934)"/><path class="a" d="M108.556,25.523h3.086a.9.9,0,0,0,.9-.9V19.519a.9.9,0,0,0-.9-.9h-.393V18h.645v-1.8H108.3V18h.645v.617h-.393a.9.9,0,0,0-.9.9v5.106A.9.9,0,0,0,108.556,25.523Z" transform="translate(-95.243 -8.934)"/><path class="a" d="M123.044,25.523h3.086a.9.9,0,0,0,.9-.9V19.519a.9.9,0,0,0-.9-.9h-.393V18h.645v-1.8h-3.591V18h.645v.617h-.393a.9.9,0,0,0-.9.9v5.106A.9.9,0,0,0,123.044,25.523Z" transform="translate(-103.229 -8.934)"/><path class="a" d="M137.532,25.523h3.086a.9.9,0,0,0,.9-.9V19.519a.9.9,0,0,0-.9-.9h-.393V18h.645v-1.8H137.28V18h.645v.617h-.393a.9.9,0,0,0-.9.9v5.106A.9.9,0,0,0,137.532,25.523Z" transform="translate(-111.214 -8.934)"/><path class="a" d="M152.02,25.523h3.086a.9.9,0,0,0,.9-.9V19.519a.9.9,0,0,0-.9-.9h-.393V18h.645v-1.8h-3.591V18h.645v.617h-.393a.9.9,0,0,0-.9.9v5.106A.9.9,0,0,0,152.02,25.523Z" transform="translate(-119.198 -8.934)"/><path class="a" d="M166.51,25.523H169.6a.9.9,0,0,0,.9-.9V19.519a.9.9,0,0,0-.9-.9H169.2V18h.645v-1.8h-3.591V18h.645v.617h-.393a.9.9,0,0,0-.9.9v5.106A.9.9,0,0,0,166.51,25.523Z" transform="translate(-127.185 -8.934)"/><path class="a" d="M181,25.523h3.086a.9.9,0,0,0,.9-.9V19.519a.9.9,0,0,0-.9-.9h-.393V18h.645v-1.8h-3.591V18h.645v.617H181a.9.9,0,0,0-.9.9v5.106A.9.9,0,0,0,181,25.523Z" transform="translate(-135.169 -8.934)"/><path class="a" d="M195.484,25.523h3.086a.9.9,0,0,0,.9-.9V19.519a.9.9,0,0,0-.9-.9h-.393V18h.645v-1.8h-3.591V18h.645v.617h-.393a.9.9,0,0,0-.9.9v5.106A.9.9,0,0,0,195.484,25.523Z" transform="translate(-143.154 -8.934)"/><rect class="a" width="4.489" height="2.469" transform="translate(9.212 31.27)"/><rect class="a" width="4.489" height="2.469" transform="translate(9.212 27.848)"/><rect class="a" width="4.489" height="2.469" transform="translate(15.048 31.27)"/><rect class="a" width="4.489" height="2.469" transform="translate(15.048 27.848)"/><rect class="a" width="4.489" height="2.469" transform="translate(15.048 24.425)"/><rect class="a" width="4.489" height="2.469" transform="translate(26.718 31.27)"/><rect class="a" width="4.489" height="2.469" transform="translate(32.553 31.27)"/><rect class="a" width="4.489" height="2.469" transform="translate(20.883 31.27)"/><rect class="a" width="4.489" height="2.469" transform="translate(20.883 27.848)"/><rect class="a" width="4.489" height="2.469" transform="translate(20.883 24.425)"/><path class="a" d="M236.644,90.941a.9.9,0,0,0-.9.9v1.01h3.3v5.087h-3.3v1.084a.9.9,0,0,0,.9.9h8.079a.9.9,0,0,0,.9-.9V91.839a.9.9,0,0,0-.9-.9h-.187v-.748h.187a.9.9,0,0,0,.9-.9v-.9a.9.9,0,0,0-.9-.9h-8.079a.9.9,0,0,0-.9.9v.9a.9.9,0,0,0,.9.9h.187v.748Z" transform="translate(-165.839 -48.225)"/><path class="a" d="M208.394,99.918h8.079a.9.9,0,0,0,.9-.9V91.839a.9.9,0,0,0-.9-.9h-.187v-.748h.187a.9.9,0,0,0,.9-.9v-.9a.9.9,0,0,0-.9-.9h-8.079a.9.9,0,0,0-.9.9v.9a.9.9,0,0,0,.9.9h.187v.748h-.187a.9.9,0,0,0-.9.9v7.182A.9.9,0,0,0,208.394,99.918Zm6.26-1.982h-5.835V92.849h5.835Z" transform="translate(-150.269 -48.225)"/><path class="a" d="M179.394,99.918h8.079a.9.9,0,0,0,.9-.9V91.839a.9.9,0,0,0-.9-.9h-.187v-.748h.187a.9.9,0,0,0,.9-.9v-.9a.9.9,0,0,0-.9-.9h-8.079a.9.9,0,0,0-.9.9v.9a.9.9,0,0,0,.9.9h.187v.748h-.187a.9.9,0,0,0-.9.9v7.182A.9.9,0,0,0,179.394,99.918Zm8.167-7.069v5.087h-5.835V92.849Z" transform="translate(-134.286 -48.225)"/><path class="a" d="M150.894,99.918h8.079a.9.9,0,0,0,.9-.9V91.839a.9.9,0,0,0-.9-.9h-.187v-.748h.187a.9.9,0,0,0,.9-.9v-.9a.9.9,0,0,0-.9-.9h-8.079a.9.9,0,0,0-.9.9v.9a.9.9,0,0,0,.9.9h.187v.748h-.187a.9.9,0,0,0-.9.9v7.182A.9.9,0,0,0,150.894,99.918Zm6.709-1.982h-5.835V92.849H157.6Z" transform="translate(-118.578 -48.225)"/><rect class="a" width="5.573" height="5.573" transform="translate(58.213 28.353)"/><rect class="a" width="5.573" height="5.573" transform="translate(58.213 21.733)"/><rect class="a" width="5.573" height="5.573" transform="translate(65.338 28.353)"/><rect class="a" width="5.573" height="5.573" transform="translate(65.338 21.733)"/><rect class="a" width="5.573" height="5.573" transform="translate(72.464 28.353)"/><rect class="a" width="5.573" height="5.573" transform="translate(51.087 28.353)"/><rect class="a" width="5.573" height="5.573" transform="translate(79.589 28.353)"/><path class="a" d="M220.9,29.932h6.434V26h.373v-1.8h-7.182V26h.374Z" transform="translate(-157.449 -13.343)"/><path class="a" d="M238.773,29.932h6.434V26h.373v-1.8H238.4V26h.374Z" transform="translate(-167.301 -13.343)"/><path class="a" d="M257.023,29.932h6.434V26h.373v-1.8h-7.182V26h.374Z" transform="translate(-177.359 -13.343)"/><path class="a" d="M97.256,26.437h0L0,26.26c.21-.415.268-6.82.252-12.675C.237,7.792.144,1.062,0,0L99.5.044V1.916H97.256V26.437ZM3.591,1.857V24.668H94.259V1.857Z" transform="translate(0 58.222)"/><path class="a" d="M132.022,98.642h-4.04V95.5h-1.347v3.142h-1.048V95.5h-1.347v3.142h-.9v5.237h8.678Z" transform="translate(-103.889 -52.635)"/><rect class="a" width="2.287" height="60.615" transform="translate(1.144 2.287)"/></g></g></svg>