<svg xmlns="http://www.w3.org/2000/svg" width="78.41" height="78.41" viewBox="0 0 78.41 78.41"><defs><style>.a{fill:none;stroke:#fff;stroke-linecap:round;stroke-linejoin:round;stroke-width:3px;}</style></defs><path class="a" d="M34.066,23.783A10.283,10.283,0,1,1,23.783,13.5,10.283,10.283,0,0,1,34.066,23.783Z" transform="translate(15.422 15.422)"/><path class="a" d="M64.57,49.488A5.656,5.656,0,0,0,65.7,55.726l.206.206a6.859,6.859,0,1,1-9.7,9.7L56,65.427a5.7,5.7,0,0,0-9.666,4.045v.583a6.855,6.855,0,0,1-13.711,0v-.308a5.656,5.656,0,0,0-3.7-5.176A5.656,5.656,0,0,0,22.683,65.7l-.206.206a6.859,6.859,0,1,1-9.7-9.7L12.983,56a5.7,5.7,0,0,0-4.045-9.666H8.355a6.855,6.855,0,1,1,0-13.711h.308a5.656,5.656,0,0,0,5.176-3.7,5.656,5.656,0,0,0-1.131-6.238l-.206-.206a6.859,6.859,0,1,1,9.7-9.7l.206.206a5.656,5.656,0,0,0,6.238,1.131h.274a5.656,5.656,0,0,0,3.428-5.176V8.355a6.855,6.855,0,1,1,13.711,0v.308a5.7,5.7,0,0,0,9.666,4.045l.206-.206a6.859,6.859,0,1,1,9.7,9.7l-.206.206A5.656,5.656,0,0,0,64.3,28.647v.274a5.656,5.656,0,0,0,5.176,3.428h.583a6.855,6.855,0,0,1,0,13.711h-.308a5.656,5.656,0,0,0-5.176,3.428Z"/></svg>