<svg xmlns="http://www.w3.org/2000/svg" xmlns:xlink="http://www.w3.org/1999/xlink" width="83" height="83" viewBox="0 0 83 83">
  <defs>
    <clipPath id="clip-path">
      <rect id="Rectangle_16866" data-name="Rectangle 16866" width="83" height="83" transform="translate(0.392 0.392)" fill="#fff" stroke="#707070" stroke-width="1"/>
    </clipPath>
  </defs>
  <g id="Group_14200" data-name="Group 14200" transform="translate(0.132 -0.596)">
    <g id="Mask_Group_82" data-name="Mask Group 82" transform="translate(-0.524 0.204)" clip-path="url(#clip-path)">
      <g id="support" transform="translate(8.284 1.672)">
        <path id="Shape" d="M1.829,80.248A1.983,1.983,0,0,1,0,79.453V74.594q.12-.909.236-1.82L.3,72.3l.058-.434.015-.118c.034-.264.068-.527.1-.788A7.061,7.061,0,0,1,4.806,64.9c.349-.152.706-.329,1.009-.483l.095-.047.039-.019c.277-.138.558-.277.84-.4a54.589,54.589,0,0,1,12.558-3.672,7.481,7.481,0,0,0,4.514-2.607,15.215,15.215,0,0,0,2.71-4.479l-.07-.058c-.086-.07-.17-.139-.256-.207l-.02-.016-.017-.012c-.208-.167-.479-.387-.728-.608s-.469-.45-.692-.683l-.025-.026-.02-.023-.012-.01a4.974,4.974,0,0,0-1.687-1.34,3.451,3.451,0,0,0-1.233-.187c-.313,0-.638.023-1.029.053l-.058,0-.05,0c-.3.021-.61.044-.906.044-3.581,0-5.837-1.739-6.706-5.169-.129-.515-.225-1.032-.31-1.514l-.007-.033-.036-.2c-.027-.156-.056-.308-.085-.456-.31-.037-.623-.06-.925-.081l-.042,0-.037,0-.016,0a7.817,7.817,0,0,1-2.044-.321,6.693,6.693,0,0,1-4.518-6.5c-.008-1.451-.008-2.952,0-5.537q0-1.615,0-3.232a6.813,6.813,0,0,1,4.526-6.737.783.783,0,0,0,.557-.785,17.47,17.47,0,0,1,2.042-6.852A22.8,22.8,0,0,1,19,4.978,27.81,27.81,0,0,1,28.448.8c1.031-.258,2.1-.416,3.127-.569l.014,0,.014,0h.008c.424-.063.952-.142,1.461-.229h4.411c.435.074.925.151,1.457.23h.008l.045.007c1.029.157,2.088.318,3.121.568a27.828,27.828,0,0,1,8.674,3.659,23.275,23.275,0,0,1,6.655,6.64A17.948,17.948,0,0,1,60.4,19.432a.941.941,0,0,0,.7.943,6.683,6.683,0,0,1,4.4,6.355c0,.078,0,.156,0,.234v.117l0,.122v.185l0,.284.006.473v.2c.022,2.369.046,5.055-.033,7.628a6.543,6.543,0,0,1-4.341,6.318,5.245,5.245,0,0,1-1.6.318c-.263.022-.552.033-.91.033-.176,0-.382,0-.628-.008H58l-.5-.006c-2.547-.018-3.392-.569-4.524-2.946-2.2,6.054-5.053,10.355-8.991,13.536a14.16,14.16,0,0,0,3.959,5.669,6.2,6.2,0,0,0,2.9,1.3,53.665,53.665,0,0,1,15.412,4.986,6.268,6.268,0,0,1,3.56,4.678c.325,2.041.533,4.115.7,5.9a18.557,18.557,0,0,1,.044,1.951v.065l0,.088v.09c0,.23,0,.436,0,.625,0,1.239-.413,1.658-1.639,1.66q-.813,0-1.627,0H65.662q-.814,0-1.627,0H51.566C37.77,80.234,19.649,80.235,1.829,80.248ZM27.039,50.124l0,0a9.94,9.94,0,0,0,1.77,1.567,1.254,1.254,0,0,1,.516,1.633,19.333,19.333,0,0,1-4.355,6.823,9.055,9.055,0,0,1-4.629,2.5c-2.086.425-4.309.9-6.433,1.471a36.644,36.644,0,0,0-8.67,3.419,3.854,3.854,0,0,0-2.057,2.878l-.019.117,0,.023,0,.016c-.187,1.186-.38,2.412-.464,3.645-.058.785-.044,1.573-.03,2.334v.1l0,.165c0,.307.009.6.009.883H68.1c-.034-.423-.071-.84-.112-1.3l-.021-.246-.031-.355-.008-.08-.018-.2-.008-.09c-.111-1.259-.214-2.447-.282-3.666a5.468,5.468,0,0,0-3.653-4.974A54.652,54.652,0,0,0,52.092,63l-.2-.039-.2-.041c-1.969-.392-3.828-.762-5.395-2.118a18.865,18.865,0,0,1-5.119-7.6c-.274-.678.126-1.144.6-1.547l.073-.061.073-.062.055-.049.095-.08.061-.051.164-.14.048-.041.01-.008.011-.009a29.111,29.111,0,0,0,2.814-2.619A31.47,31.47,0,0,0,51.2,37.287,32.887,32.887,0,0,0,52.56,22.6,17.438,17.438,0,0,0,49.191,14.1,17.1,17.1,0,0,0,35.312,7.514a18.085,18.085,0,0,0-9.8,2.765c-4.74,3.091-7.263,7.7-7.713,14.088A33.29,33.29,0,0,0,20.885,41.2c.7,1.47,1.53,2.88,2.339,4.243l.006.01.03.051.03.049.1.168.037.06.176.3c.191.324.385.654.574.979.125.215.4.52.62.524,1.029.024,2.012.027,2.838.027.421,0,.84,0,1.259,0h.054c.2,0,.409,0,.612,0h.615c.419-1.811,1.2-2.459,2.985-2.476.183,0,.368,0,.553,0,.282,0,.568,0,.854,0H34.6l.446,0a2.515,2.515,0,1,1,.035,5.011q-.7,0-1.4,0c-.64,0-1.289,0-1.932,0l-.926,0-.9,0-.017,0-.516,0-.516,0h-.07c-.324,0-.645,0-.969,0Zm-9.487-10.1h0c-.128.152-.258.324-.4.5l-.013.017-.006.008a7.386,7.386,0,0,1-1.275,1.4,1.246,1.246,0,0,0-.589,1.393c.509,3.013,1.8,4.3,4.312,4.3a9.838,9.838,0,0,0,1.592-.146l0-.008-.4-.823c-1.089-2.248-2.2-4.537-3.223-6.648ZM11.324,22.535A4.024,4.024,0,0,0,7.6,26.486c-.088,3.42-.053,6.788-.008,9.632A3.984,3.984,0,0,0,10.474,40a5.535,5.535,0,0,0,1.377.14c.145,0,.3,0,.432-.007l.133,0,.14,0,.115,0,.126,0c.136,0,.277-.007.416-.007h.2c1.212,0,1.709-.507,1.714-1.748,0-1.194,0-2.417,0-3.56V33.529c0-.711,0-1.42,0-2.131l0-1.746c0-1.707,0-3.472,0-5.225,0-1.387-.482-1.855-1.9-1.857-.154,0-.309.006-.481.012-.2.01-.349.014-.489.014a3.617,3.617,0,0,1-.524-.033A2.948,2.948,0,0,0,11.324,22.535Zm45.881.027c-1.281,0-1.781.51-1.783,1.812v6.969l0,2.373v4.752c0,.34.062,1.456.941,1.531l.037,0c.551.044,1.237.1,1.89.1a7.372,7.372,0,0,0,2.022-.242,3.725,3.725,0,0,0,2.646-3.8c.072-2.82.074-5.83.008-9.474a4.087,4.087,0,0,0-3.772-4.06,3.156,3.156,0,0,0-.419.027,4.252,4.252,0,0,1-.541.029c-.164,0-.326-.006-.5-.012h-.01c-.17-.007-.323-.01-.456-.01Zm-43.572-2.5a4.54,4.54,0,0,1,.621.037,6.06,6.06,0,0,1,1.016.26l.009,0,.012,0,.07.022c.128.04.252.078.379.114a21.476,21.476,0,0,1,6.435-11.05,19.072,19.072,0,0,1,11.9-4.329c.447-.02.9-.031,1.339-.031A19.379,19.379,0,0,1,47.853,9.02C51.06,11.578,53.4,15.391,54.8,20.355c1.046-.14,2.042-.273,3.1-.417l0-.021a.45.45,0,0,0,.014-.123c-.009-.135-.024-.264-.036-.367l0-.023A17.586,17.586,0,0,0,50.639,7.035,24.846,24.846,0,0,0,35.651,1.851,28.74,28.74,0,0,0,25.386,3.875,19.587,19.587,0,0,0,13.651,15.311a15.457,15.457,0,0,0-1.037,4.767l.07,0c.17,0,.336,0,.47-.008l.115,0C13.389,20.06,13.514,20.057,13.634,20.057Z" transform="translate(0 0)" fill="#fff" stroke="#fff" stroke-width="1"/>
      </g>
    </g>
  </g>
</svg>
