<svg xmlns="http://www.w3.org/2000/svg" width="95.992" height="92.273" viewBox="0 0 95.992 92.273"><defs><style>.a{fill:#fff;}</style></defs><g transform="translate(-1055 -248.001)"><path class="a" d="M70.213,108.135,106.29,71.387a6.142,6.142,0,0,0,.9-7.506l3.551-3.619a1.6,1.6,0,0,0-.02-2.262l-1.678-1.647,13.6-13.848a1.6,1.6,0,1,0-2.28-2.241l-13.6,13.849-1.678-1.647a1.551,1.551,0,0,0-1.136-.457,1.6,1.6,0,0,0-1.124.478l-3.581,3.65a7.315,7.315,0,0,0-3.047-.825,6.177,6.177,0,0,0-4.38,1.862l-.719.732s-.008,0-.011.007,0,.008-.007.011L79.8,69.415,76.225,73.05l0,0L55.734,93.918l-2.379-2.336a1.6,1.6,0,1,0-2.241,2.28l3.872,3.8L38.722,114.233l-3.871-3.8a1.6,1.6,0,1,0-2.241,2.28l5.008,4.917,0,.005.005,0,9.205,9.037h0l5.014,4.922a1.6,1.6,0,1,0,2.241-2.28l-3.873-3.8L66.48,108.95l3.872,3.8a1.6,1.6,0,1,0,2.241-2.28Zm-2.631-2.583,0,0h0l-3.467-3.4,19.284-19.81,3.9,3.834L67.93,105.893ZM79.8,73.978l2.145-2.184,9.914,9.733L91.392,82,89.54,83.885l-9.913-9.734ZM103.984,55.87l3.357,3.293-2.268,2.311-3.357-3.293Zm-7.76,2.639a3.359,3.359,0,0,1,2.143.867l5.606,5.5a3.023,3.023,0,0,1,.039,4.269l-9.916,10.1-9.913-9.734,2.907-2.961,2.123,2.084a1.6,1.6,0,0,0,2.241-2.284l-2.122-2.083L92.248,61.3l4.311,4.233A1.6,1.6,0,0,0,98.8,63.246l-4.231-4.154A2.961,2.961,0,0,1,96.223,58.509ZM77.386,76.433l3.726,3.659L61.828,99.9,58.017,96.16ZM47.932,123.276,41,116.474,57.27,99.906l3.461,3.4s0,.009.008.012.008,0,.012.008l3.447,3.385Z" transform="translate(1022.869 208.215)"/><path class="a" d="M433.4,85.276a4.981,4.981,0,0,0,9.962,0c0-2.215-2.826-6.252-3.689-7.434a1.66,1.66,0,0,0-2.584,0C436.23,79.024,433.4,83.06,433.4,85.276Zm6.761,0a1.78,1.78,0,1,1-3.56,0,11.849,11.849,0,0,1,1.78-3.646A11.8,11.8,0,0,1,440.165,85.276Z" transform="translate(707.626 178.804)"/><path class="a" d="M350.547,238.686v-2.835a4.376,4.376,0,0,0-4.372-4.368h-7.408a4.375,4.375,0,0,0-4.368,4.368v2.671a6.762,6.762,0,0,0-5.888,6.684V268.3a6.784,6.784,0,0,0,6.775,6.775h13.528a6.784,6.784,0,0,0,6.775-6.775V245.207A6.766,6.766,0,0,0,350.547,238.686ZM337.1,235.851a1.667,1.667,0,0,1,1.665-1.668h7.408a1.67,1.67,0,0,1,1.668,1.668v2.582H337.1Zm-5.888,18.557H342.8v5.71H331.214Zm21.671,13.89a4.076,4.076,0,0,1-4.072,4.072H335.285a4.076,4.076,0,0,1-4.072-4.072v-5.476h12.937a1.354,1.354,0,0,0,1.352-1.352v-8.414a1.354,1.354,0,0,0-1.352-1.352H331.214v-6.5a4.076,4.076,0,0,1,4.072-4.072h13.528a4.076,4.076,0,0,1,4.072,4.072Z" transform="translate(795.404 62.654)"/></g></svg>