<?xml version="1.0" encoding="UTF-8"?>
<svg width="37px" height="37px" viewBox="0 0 37 37" version="1.1" xmlns="http://www.w3.org/2000/svg" xmlns:xlink="http://www.w3.org/1999/xlink">
    <title>attach_image</title>
    <g id="Page-1" stroke="none" stroke-width="1" fill="none" fill-rule="evenodd" opacity="0.70357">
        <g id="My-Appointments---WebApp---Physician-Assistant-View" transform="translate(-947.000000, -1964.000000)" fill="#000000" fill-rule="nonzero">
            <g id="attach_image" transform="translate(947.000000, 1964.000000)">
                <path d="M6.16666667,37 L30.8333333,37 C34.2390893,37 37,34.2390893 37,30.8333333 L37,6.16666667 C37,2.76091071 34.2390893,0 30.8333333,0 L6.16666667,0 C2.76091071,0 0,2.76091071 0,6.16666667 L0,30.8333333 C0,34.2390893 2.76091071,37 6.16666667,37 Z M30.8333333,33.9166667 L6.16666667,33.9166667 C4.46378869,33.9166667 3.08333333,32.5362113 3.08333333,30.8333333 L3.08333333,26.848125 L10.7916667,19.1397917 L18.9509375,27.2990625 C19.2401052,27.5885521 19.6324941,27.7512128 20.0416667,27.7512128 C20.4508393,27.7512128 20.8432281,27.5885521 21.1323958,27.2990625 L26.2083333,22.223125 L33.9166667,29.9314583 L33.9166667,30.8333333 C33.9166667,32.5362113 32.5362113,33.9166667 30.8333333,33.9166667 Z M6.16666667,3.08333333 L30.8333333,3.08333333 C32.5362113,3.08333333 33.9166667,4.46378869 33.9166667,6.16666667 L33.9166667,25.5685417 L27.2990625,18.9509375 C27.0098948,18.6614479 26.6175059,18.4987872 26.2083333,18.4987872 C25.7991607,18.4987872 25.4067719,18.6614479 25.1176042,18.9509375 L20.0416667,24.026875 L11.8823958,15.8676042 C11.5932281,15.5781146 11.2008393,15.4154539 10.7916667,15.4154539 C10.3824941,15.4154539 9.99010523,15.5781146 9.7009375,15.8676042 L3.08333333,22.4852083 L3.08333333,6.16666667 C3.08333333,4.46378869 4.46378869,3.08333333 6.16666667,3.08333333 Z" id="Shape"></path>
                <path d="M20,16 C22.7614237,16 25,13.7614237 25,11 C25,8.23857625 22.7614237,6 20,6 C17.2385763,6 15,8.23857625 15,11 C15,13.7614237 17.2385763,16 20,16 Z M20,8.85714286 C21.1834673,8.85714286 22.1428571,9.81653268 22.1428571,11 C22.1428571,12.1834673 21.1834673,13.1428571 20,13.1428571 C18.8165327,13.1428571 17.8571429,12.1834673 17.8571429,11 C17.8571429,9.81653268 18.8165327,8.85714286 20,8.85714286 L20,8.85714286 Z" id="Shape"></path>
            </g>
        </g>
    </g>
</svg>