<?xml version="1.0" encoding="UTF-8"?>
<svg width="31px" height="39px" viewBox="0 0 31 39" version="1.1" xmlns="http://www.w3.org/2000/svg" xmlns:xlink="http://www.w3.org/1999/xlink">
    <title>attach_doc</title>
    <defs>
        <path d="M22.00845,0 C22.2177,0 22.4192,0.08325 22.56645,0.229708333 L30.21415,7.86404167 C30.3614,8.0105 30.44355,8.209375 30.44355,8.4175 L30.44355,34.6505 C30.44355,35.9455 29.38335,37 28.08135,37 L2.9171,37 C1.6151,37 0.5549,35.9455 0.5549,34.6505 L0.5549,2.3495 C0.5549,1.0545 1.6151,0 2.9171,0 L22.00845,0 Z M21.68295,1.56633333 L2.9171,1.56633333 C2.4831,1.56633333 2.1297,1.91783333 2.1297,2.3495 L2.1297,34.6505 C2.1297,35.0821667 2.4831,35.4336667 2.9171,35.4336667 L28.0829,35.4336667 C28.5169,35.4336667 28.8703,35.0821667 28.8703,34.6505 L28.8703,8.74125 L21.68295,1.56633333 Z" id="path-1"></path>
        <path d="M0.858,0.135384615 C1.2795,0.135384615 1.62,0.486153846 1.62,0.916923077 L1.62,0.916923077 L1.62,8.4 L7.716,8.4 C8.136,8.4 8.4765,8.74923077 8.4765,9.18153846 C8.4765,9.61384615 8.136,9.96307692 7.7145,9.96307692 L7.7145,9.96307692 L0.858,9.96307692 C0.4365,9.96307692 0.096,9.61384615 0.096,9.18153846 L0.096,9.18153846 L0.096,0.916923077 C0.096,0.484615385 0.4365,0.135384615 0.858,0.135384615 Z" id="path-3"></path>
        <path d="M17.9723077,11.3666667 C18.4046154,11.3666667 18.7553846,11.6586667 18.7553846,12.0333333 C18.7553846,12.408 18.4061538,12.7 17.9738462,12.7 L17.9738462,12.7 L0.781538462,12.7 C0.349230769,12.7 7.06990022e-13,12.408 7.06990022e-13,12.0333333 C7.06990022e-13,11.6586667 0.349230769,11.3666667 0.781538462,11.3666667 L0.781538462,11.3666667 L17.9723077,11.3666667 Z" id="path-5"></path>
        <path d="M17.9723077,5.68333333 C18.4046154,5.68333333 18.7553846,5.97533333 18.7553846,6.35 C18.7553846,6.72466667 18.4061538,7.01666667 17.9738462,7.01666667 L17.9738462,7.01666667 L0.781538462,7.01666667 C0.349230769,7.01666667 7.06990022e-13,6.72466667 7.06990022e-13,6.35 C7.06990022e-13,5.97533333 0.349230769,5.68333333 0.781538462,5.68333333 L0.781538462,5.68333333 L17.9723077,5.68333333 Z" id="path-7"></path>
        <path d="M17.9723077,0 C18.4046154,0 18.7553846,0.292 18.7553846,0.666666667 C18.7553846,1.04133333 18.4061538,1.33333333 17.9738462,1.33333333 L17.9738462,1.33333333 L0.781538462,1.33333333 C0.349230769,1.33333333 0,1.04133333 0,0.666666667 C0,0.292 0.349230769,0 0.781538462,0 L0.781538462,0 L17.9723077,0 Z" id="path-9"></path>
    </defs>
    <g id="Page-1" stroke="none" stroke-width="1" fill="none" fill-rule="evenodd" opacity="0.70357">
        <g id="My-Appointments---WebApp---Physician-Assistant-View" transform="translate(-877.000000, -1963.000000)">
            <g id="document" transform="translate(877.000000, 1964.000000)">
                <g id="Group-986">
                    <mask id="mask-2" fill="white">
                        <use xlink:href="#path-1"></use>
                    </mask>
                    <use id="Clip-985" stroke="#000000" fill="#000000" xlink:href="#path-1"></use>
                </g>
                <g id="Group-989" transform="translate(21.000000, 0.000000)">
                    <mask id="mask-4" fill="white">
                        <use xlink:href="#path-3"></use>
                    </mask>
                    <use id="Clip-988" stroke="#000000" fill="#000000" xlink:href="#path-3"></use>
                </g>
                <g id="Clip-994-+-Clip-997-Mask" transform="translate(6.623077, 15.633333)">
                    <mask id="mask-6" fill="white">
                        <use xlink:href="#path-5"></use>
                    </mask>
                    <use id="Mask" stroke="#000000" fill="#000000" xlink:href="#path-5"></use>
                    <mask id="mask-8" fill="white">
                        <use xlink:href="#path-7"></use>
                    </mask>
                    <use id="Clip-994" stroke="#000000" fill="#000000" xlink:href="#path-7"></use>
                    <mask id="mask-10" fill="white">
                        <use xlink:href="#path-9"></use>
                    </mask>
                    <use id="Clip-997" stroke="#000000" fill="#000000" xlink:href="#path-9"></use>
                </g>
            </g>
        </g>
    </g>
</svg>