<?xml version="1.0" encoding="UTF-8"?>
<svg width="36px" height="36px" viewBox="0 0 36 36" version="1.1" xmlns="http://www.w3.org/2000/svg" xmlns:xlink="http://www.w3.org/1999/xlink">
    <title>call</title>
    <defs>
        <path d="M9.9234,1.1394 C11.6415,2.7432 13.3011,4.428 14.8986,6.1416 C16.1145,7.4457 16.1145,9.4617 14.8986,10.7658 C14.049,11.7252 13.1085,12.5991 12.2103,13.5162 C12.1284,13.5936 12.042,13.6602 11.8926,13.7952 C14.2893,18.1116 17.8686,21.663 22.2138,24.0354 L24.3567,21.8799 C24.8823,21.2616 25.542,20.7693 26.2863,20.4399 C27.4815,19.9224 28.8711,20.1681 29.8143,21.0636 C31.6125,22.7664 33.3657,24.5178 35.0739,26.316 C36.2727,27.5949 36.3123,29.5668 35.1657,30.8916 C34.0848,32.1588 32.8878,33.3594 31.6764,34.5213 C30.8142,35.3106 29.7162,35.7975 28.5498,35.9091 C28.4661,35.928 28.3842,35.9523 28.3032,35.9811 L26.8803,36 C26.2188,35.8893 25.5528,35.8029 24.8967,35.6643 C22.4487,35.0622 20.1033,34.1055 17.9334,32.8266 C14.5197,30.9384 11.4255,28.5282 8.7651,25.6824 C5.5278,22.1823 2.835,18.3267 1.1367,13.8429 C0.4779,12.2292 0.0999,10.5174 0.0171,8.7777 C-0.1116,7.0578 0.4986,5.3631 1.6965,4.1157 C2.709,3.0834 3.6891,2.0133 4.7799,1.0719 C6.4638,-0.3681 8.2971,-0.3681 9.9234,1.1394 Z M6.0246,2.8728 C5.1174,3.7701 4.2633,4.5621 3.438,5.4603 C3.0312,5.8779 2.7045,6.3666 2.4732,6.9003 C2.1105,8.0469 2.0952,9.2745 2.4291,10.4292 C2.8314,12.2229 3.4641,13.9581 4.3119,15.5907 C5.7663,18.4698 7.6104,21.1365 9.7929,23.517 C13.5495,27.7704 18.3033,31.0365 23.6322,33.0237 C24.8454,33.4791 26.1216,33.7464 27.4158,33.8157 L27.4158,33.8346 C28.6182,33.9003 29.79,33.4413 30.6243,32.5764 C31.4352,31.7322 32.265,30.906 33.0858,30.0708 C33.192,29.9646 33.2919,29.8521 33.3846,29.7342 C33.6672,29.4516 33.822,29.0673 33.8142026,28.6695 C33.8049,28.2708 33.6348,27.8928 33.3414,27.6219 C32.6799,26.9118 31.9806,26.2395 31.2957,25.5528 C30.4029,24.6645 29.52,23.7717 28.6173,22.8978 C28.3518,22.6008 27.9747,22.4262 27.5751,22.4154 C27.1764,22.4046 26.7903,22.5585 26.5086,22.8402 C26.3736,22.9509 26.253,23.0751 26.127,23.2002 C25.2684,24.0498 24.4188,24.9093 23.5557,25.7499 C23.0418,26.3367 22.1823,26.4798 21.5046,26.0901 C20.979,25.8264 20.457,25.5627 19.9512,25.2648 C17.7192,23.9076 15.7005,22.2318 13.9572,20.2905 C12.3426,18.6444 11.0034,16.7517 9.9909,14.6835 C9.4797,13.5594 9.5904,13.0122 10.4733,12.1581 C11.3562,11.3031 12.3021,10.3959 13.176,9.4743 C13.4613,9.2187 13.6269,8.8569 13.6332,8.4753 C13.6395,8.0937 13.4865,7.7265 13.2093,7.4619 C13.1031,7.3377 12.9924,7.2225 12.8817,7.1073 L8.6445,2.8728 C7.7373,1.9845 6.9318,1.9746 6.0246,2.8728 Z" id="path-1"></path>
    </defs>
    <g id="Page-1" stroke="none" stroke-width="1" fill="none" fill-rule="evenodd">
        <g id="My-Appointments---WebApp---Physician-Assistant-View" transform="translate(-1952.000000, -242.000000)">
            <g id="call" transform="translate(1952.000000, 242.000000)">
                <mask id="mask-2" fill="white">
                    <use xlink:href="#path-1"></use>
                </mask>
                <g id="Clip-723"></g>
                <polygon id="Fill-722" fill="#000000" mask="url(#mask-2)" points="-9 45 45 45 45 -9 -9 -9"></polygon>
            </g>
        </g>
    </g>
</svg>