<svg xmlns="http://www.w3.org/2000/svg" xmlns:xlink="http://www.w3.org/1999/xlink" width="37.93" height="37.928" viewBox="0 0 37.93 37.928"><defs><style>.a,.b{fill:none;}.a{clip-rule:evenodd;}.c{clip-path:url(#a);}.d{clip-path:url(#b);}.e{isolation:isolate;}.f{clip-path:url(#c);}.g{clip-path:url(#d);}.h{clip-path:url(#e);}.i{clip-path:url(#g);}.j{clip-path:url(#h);}.k{clip-path:url(#i);}.l{clip-path:url(#l);}.m{clip-path:url(#m);}.n{clip-path:url(#n);}.o{clip-path:url(#o);}.p{clip-path:url(#p);}</style><clipPath id="a"><path class="a" d="M33.33-26a1.206,1.206,0,0,1,1.254,1.149A1.205,1.205,0,0,1,33.33-23.7H8.254A1.205,1.205,0,0,1,7-24.851,1.206,1.206,0,0,1,8.254-26H33.33Z" transform="translate(-7 26)"/></clipPath><clipPath id="b"><path class="b" d="M-1838,2076.222H718.1V-273H-1838Z" transform="translate(1838 273)"/></clipPath><clipPath id="c"><rect class="b" width="39" height="14"/></clipPath><clipPath id="d"><path class="b" d="M7-23.7H34.584V-26H7Z" transform="translate(-7 26)"/></clipPath><clipPath id="e"><path class="a" d="M33.33-22a1.205,1.205,0,0,1,1.254,1.149A1.206,1.206,0,0,1,33.33-19.7H8.254A1.206,1.206,0,0,1,7-20.851,1.205,1.205,0,0,1,8.254-22H33.33Z" transform="translate(-7 22)"/></clipPath><clipPath id="g"><rect class="b" width="39" height="13"/></clipPath><clipPath id="h"><path class="b" d="M7-19.7H34.584V-22H7Z" transform="translate(-7 22)"/></clipPath><clipPath id="i"><path class="a" d="M33.33-18a1.205,1.205,0,0,1,1.254,1.149A1.205,1.205,0,0,1,33.33-15.7H8.254A1.205,1.205,0,0,1,7-16.851,1.205,1.205,0,0,1,8.254-18H33.33Z" transform="translate(-7 18)"/></clipPath><clipPath id="l"><path class="b" d="M7-15.7H34.584V-18H7Z" transform="translate(-7 18)"/></clipPath><clipPath id="m"><path class="a" d="M32.352-33A5.268,5.268,0,0,1,36.3-31.149a6.773,6.773,0,0,1,1.634,4.47h0v16.435A6.773,6.773,0,0,1,36.3-5.774a5.265,5.265,0,0,1-3.944,1.851H16.076L8.6,4.561a1.057,1.057,0,0,1-.792.367.852.852,0,0,1-.423-.1,1.275,1.275,0,0,1-.692-1.163h0V-3.923H5.578C2.5-3.923,0-6.753,0-10.244H0V-26.679C0-30.17,2.5-33,5.578-33H32.352Zm0,2.528H5.578a3.59,3.59,0,0,0-3.347,3.793h0v16.435A3.59,3.59,0,0,0,5.578-6.451H7.809A1.2,1.2,0,0,1,8.924-5.187h0v5.8l5.9-6.7a1.055,1.055,0,0,1,.792-.367H32.352A3.59,3.59,0,0,0,35.7-10.244h0V-26.679a3.59,3.59,0,0,0-3.347-3.793Z" transform="translate(0 33)"/></clipPath><clipPath id="n"><path class="b" d="M-1838,2076.222H441.9V-273H-1838Z" transform="translate(1838 273)"/></clipPath><clipPath id="o"><rect class="b" width="47.273" height="49"/></clipPath><clipPath id="p"><path class="b" d="M0,4.928H37.93V-33H0Z" transform="translate(0 33)"/></clipPath></defs><g transform="translate(0 0)"><g class="c" transform="translate(5.571 8.045)"><g class="d" transform="translate(-2120.506 -283.884)"><g class="e" transform="translate(2114.869 277.868)"><g class="f" transform="translate(0 0)"><g class="g" transform="translate(5.637 6.016)"><path d="M2-31H41.077v13.792H2Z" transform="translate(-7.747 25.253)"/></g></g></g></g></g><g class="h" transform="translate(5.571 12.643)"><g class="d" transform="translate(-2120.506 -288.481)"><g class="e" transform="translate(2114.869 282.868)"><g class="i" transform="translate(0 0)"><g class="j" transform="translate(5.637 5.613)"><path d="M2-27H41.077v13.792H2Z" transform="translate(-7.747 21.253)"/></g></g></g></g></g><g class="k" transform="translate(5.571 17.24)"><g class="d" transform="translate(-2120.506 -293.078)"><g class="e" transform="translate(2114.869 287.868)"><g class="f" transform="translate(0 0)"><g class="l" transform="translate(5.637 5.211)"><path d="M2-23H41.077V-9.208H2Z" transform="translate(-7.747 17.253)"/></g></g></g></g></g><g class="m" transform="translate(0 0)"><g class="n" transform="translate(-1884.199 -275.838)"><g class="e" transform="translate(1879.211 270.867)"><g class="o" transform="translate(0 0)"><g class="p" transform="translate(4.987 4.971)"><path d="M-5-38H43.181V11.421H-5Z" transform="translate(-0.126 32.253)"/></g></g></g></g></g></g></svg>