<?xml version="1.0" encoding="UTF-8"?>
<svg width="36px" height="8px" viewBox="0 0 36 8" version="1.1" xmlns="http://www.w3.org/2000/svg" xmlns:xlink="http://www.w3.org/1999/xlink">
    <title>menu_dots</title>
    <defs>
        <path d="M4.42716279,0 C6.54948837,0 8.26911628,1.71962791 8.26911628,3.84195349 C8.26911628,5.96344186 6.54948837,7.68390698 4.42716279,7.68390698 C2.30483721,7.68390698 0.585209302,5.96344186 0.585209302,3.84195349 C0.585209302,1.71962791 2.30483721,0 4.42716279,0 Z M17.8744186,0 C19.9967442,0 21.7163721,1.71962791 21.7163721,3.84195349 C21.7163721,5.96344186 19.9967442,7.68390698 17.8744186,7.68390698 C15.7512558,7.68390698 14.0324651,5.96344186 14.0324651,3.84195349 C14.0324651,1.71962791 15.7512558,0 17.8744186,0 Z M31.3208372,0 C33.4431628,0 35.1627907,1.71962791 35.1627907,3.84195349 C35.1627907,5.96344186 33.4431628,7.68390698 31.3208372,7.68390698 C29.1985116,7.68390698 27.4788837,5.96344186 27.4788837,3.84195349 C27.4788837,1.71962791 29.1985116,0 31.3208372,0 Z" id="path-1"></path>
    </defs>
    <g id="Page-1" stroke="none" stroke-width="1" fill="none" fill-rule="evenodd">
        <g id="My-Appointments---WebApp---Physician-Assistant-View" transform="translate(-2138.000000, -258.000000)">
            <g id="menu_dots" transform="translate(2138.000000, 258.000000)">
                <mask id="mask-2" fill="white">
                    <use xlink:href="#path-1"></use>
                </mask>
                <g id="Clip-728"></g>
                <polygon id="Fill-727" fill="#333232" mask="url(#mask-2)" points="-26.9966512 35.2649302 62.7446512 35.2649302 62.7446512 -27.5810233 -26.9966512 -27.5810233"></polygon>
            </g>
        </g>
    </g>
</svg>