<svg xmlns="http://www.w3.org/2000/svg" width="20.11" height="20.11" viewBox="0 0 20.11 20.11">
  <g id="noun_New_Window_299638" data-name="noun_New Window_299638" transform="translate(-10 -10)">
    <g id="Group_8470" data-name="Group 8470" transform="translate(10 10)">
      <g id="Group_8469" data-name="Group 8469">
        <path id="Path_7930" data-name="Path 7930" d="M24.538,10.011l-7.346,7.346a1.106,1.106,0,0,0,1.564,1.564L26.1,11.578v2.456a1.006,1.006,0,0,0,2.011,0V9a1.006,1.006,0,0,0-1-1H22.076a1.006,1.006,0,0,0,0,2.011ZM28.11,20.066V25.6a2.379,2.379,0,0,1-2.229,2.506H10.229A2.381,2.381,0,0,1,8,25.6v-15.1A2.379,2.379,0,0,1,10.229,8h5.815a1.006,1.006,0,1,1,0,2.011h-5.46a.625.625,0,0,0-.573.671V25.428a.632.632,0,0,0,.573.671H25.526a.625.625,0,0,0,.573-.671V20.066a1.006,1.006,0,0,1,2.011,0Z" transform="translate(-8 -8)" fill-rule="evenodd"/>
      </g>
    </g>
  </g>
</svg>
