<?xml version="1.0" encoding="UTF-8"?>
<svg width="42px" height="29px" viewBox="0 0 42 29" version="1.1" xmlns="http://www.w3.org/2000/svg" xmlns:xlink="http://www.w3.org/1999/xlink">
    <title>video</title>
    <g id="Page-1" stroke="none" stroke-width="1" fill="none" fill-rule="evenodd">
        <g id="My-Appointments---WebApp---Physician-Assistant-View" transform="translate(-2037.000000, -246.000000)" stroke="#000000" stroke-width="2">
            <path d="M2061.88312,247 L2042.24128,247 C2039.89889,247 2038,249.049822 2038,251.578405 L2038,269.088267 C2038,271.61685 2039.89889,273.666667 2042.24128,273.666667 L2061.88312,273.666667 C2064.22552,273.666667 2066.1244,271.61685 2066.1244,269.088267 L2066.1244,264.35215 L2077.2931,271.311334 C2077.4392,271.402384 2077.61925,271.4022 2077.76517,271.310834 C2077.9111,271.219467 2078.00066,271.050867 2078,270.86875 L2078,249.797915 C2078.00066,249.615808 2077.9111,249.447205 2077.76517,249.355838 C2077.61925,249.264472 2077.4392,249.26428 2077.2931,249.355335 L2066.1244,256.314512 L2066.1244,251.578405 C2066.1244,249.049822 2064.22552,247 2061.88312,247 Z M2065.1819,269.088267 C2065.1819,271.054934 2063.70499,272.64925 2061.88312,272.64925 L2042.24128,272.64925 C2040.41942,272.64925 2038.94251,271.054934 2038.94251,269.088267 L2038.94251,251.578405 C2038.94251,249.61173 2040.41942,248.017423 2042.24128,248.017423 L2061.88312,248.017423 C2063.70499,248.017423 2065.1819,249.61173 2065.1819,251.578405 L2065.1819,269.088267 Z M2077.05749,250.667812 L2077.05749,269.99885 L2066.1244,263.177032 L2066.1244,257.489635 L2077.05749,250.667812 Z" id="video"></path>
        </g>
    </g>
</svg>