<?xml version="1.0" encoding="UTF-8"?>
<svg width="16px" height="30px" viewBox="0 0 16 30" version="1.1" xmlns="http://www.w3.org/2000/svg" xmlns:xlink="http://www.w3.org/1999/xlink">
    <title>Group 693</title>
    <defs>
        <path d="M3.44112351,0.533732143 L3.5672,0.658928571 L15.3879,13.3596429 C15.7175125,13.7130804 15.9139828,14.1559319 15.9773109,14.6157024 L15.9963,14.8135714 L15.9963,15.1864286 C15.9710125,15.6495536 15.8125828,16.1061161 15.5210109,16.483621 L15.3879,16.6403571 L3.5672,29.3410714 C2.7512,30.2196429 1.4281,30.2196429 0.612,29.3410714 C-0.1632,28.5094821 -0.20196,27.185708 0.49572,26.3021444 L0.612,26.1664286 L11.006,14.9978571 L0.612,3.83357143 C-0.204,2.95714286 -0.204,1.53428571 0.612,0.658928571 C1.387295,-0.175714286 2.6201575,-0.217446429 3.44112351,0.533732143 L3.44112351,0.533732143 Z" id="path-1"></path>
    </defs>
    <g id="Page-1" stroke="none" stroke-width="1" fill="none" fill-rule="evenodd">
        <g id="My-Appointments---iPad---Doctor---Patient-Info-Copy" transform="translate(-724.000000, -769.000000)">
            <g id="Group-693" transform="translate(724.000000, 769.000000)">
                <mask id="mask-2" fill="white">
                    <use xlink:href="#path-1"></use>
                </mask>
                <g id="Clip-692"></g>
                <polygon id="Fill-691" fill="#737373" mask="url(#mask-2)" points="-10 40.7142857 25.99634 40.7142857 25.99634 -10.7142857 -10 -10.7142857"></polygon>
            </g>
        </g>
    </g>
</svg>