<?xml version="1.0" encoding="UTF-8"?>
<svg width="32px" height="40px" viewBox="0 0 32 40" version="1.1" xmlns="http://www.w3.org/2000/svg" xmlns:xlink="http://www.w3.org/1999/xlink">
    <title>case_sheet</title>
    <g id="Page-1" stroke="none" stroke-width="1" fill="none" fill-rule="evenodd">
        <g id="My-Appointments---WebApp---Physician-Assistant-View" transform="translate(-1884.000000, -238.000000)" fill="#000000" fill-rule="nonzero">
            <g id="case_sheet" transform="translate(1884.000000, 238.000000)">
                <path d="M27.0400809,39.9525019 L5.35554061,39.9525019 C2.78166837,39.9525019 0.687316811,38.281681 0.687316811,36.2283106 L0.687316811,8.57511492 C0.687316811,6.52128195 2.78166837,4.85046107 5.35554061,4.85046107 L11.1242847,4.85046107 C11.604965,4.85046107 11.994032,5.16084889 11.994032,5.54432356 C11.994032,5.92779823 11.604965,6.23818605 11.1242847,6.23818605 L5.35554061,6.23818605 C3.74070975,6.23818605 2.42681146,7.28638099 2.42681146,8.57511492 L2.42681146,36.2283106 C2.42681146,37.516582 3.74070975,38.5647769 5.35554061,38.5647769 L27.0395011,38.5647769 C28.6543319,38.5647769 29.9682302,37.516582 29.9682302,36.2283106 L29.9682302,8.57511492 C29.9682302,7.28638099 28.6543319,6.23818605 27.0395011,6.23818605 L21.8500087,6.23818605 C21.3693283,6.23818605 20.9802614,5.92779823 20.9802614,5.54432356 C20.9802614,5.16084889 21.3693283,4.85046107 21.8500087,4.85046107 L27.0395011,4.85046107 C29.6133733,4.85046107 31.707725,6.52128195 31.707725,8.57511492 L31.707725,36.2283106 C31.7083047,38.281681 29.6139531,39.9525019 27.0400809,39.9525019 Z" id="Path"></path>
                <path d="M23.3413757,27.7666818 L8.46926682,27.7666818 C8.0431746,27.7666818 7.69829176,27.4217989 7.69829176,26.9957067 C7.69829176,26.5696145 8.0431746,26.2247317 8.46926682,26.2247317 L23.3413757,26.2247317 C23.7674679,26.2247317 24.1123507,26.5696145 24.1123507,26.9957067 C24.1123507,27.4217989 23.7674679,27.7666818 23.3413757,27.7666818 Z" id="Path"></path>
                <path d="M23.3413757,31.1343008 L8.46926682,31.1343008 C8.0431746,31.1343008 7.69829176,30.789418 7.69829176,30.3633258 C7.69829176,29.9372336 8.0431746,29.5923507 8.46926682,29.5923507 L23.3413757,29.5923507 C23.7674679,29.5923507 24.1123507,29.9372336 24.1123507,30.3633258 C24.1123507,30.789418 23.7674679,31.1343008 23.3413757,31.1343008 Z" id="Path"></path>
                <path d="M23.3413757,34.5014059 L8.46926682,34.5014059 C8.0431746,34.5014059 7.69829176,34.1565231 7.69829176,33.7304308 C7.69829176,33.3043386 8.0431746,32.9594558 8.46926682,32.9594558 L23.3413757,32.9594558 C23.7674679,32.9594558 24.1123507,33.3043386 24.1123507,33.7304308 C24.1123507,34.1565231 23.7674679,34.5014059 23.3413757,34.5014059 Z" id="Path"></path>
                <g id="Group" transform="translate(11.799063, 11.882751)">
                    <rect id="Rectangle" x="3.79088435" y="5.94746474e-13" width="2.12018141" height="9.70053666"></rect>
                    <rect id="Rectangle" x="5.92303984e-13" y="3.79088435" width="9.70053666" height="2.12018141"></rect>
                </g>
                <path d="M19.2860469,4.81396825 C18.8599546,4.81396825 18.5150718,4.46908541 18.5150718,4.0429932 C18.5150718,2.85620559 17.549811,1.89094482 16.3630234,1.89094482 C15.1762358,1.89094482 14.2109751,2.85620559 14.2109751,4.0429932 C14.2109751,4.46908541 13.8660922,4.81396825 13.44,4.81396825 C13.0139078,4.81396825 12.6690249,4.46908541 12.6690249,4.0429932 C12.6690249,2.0060771 14.3261073,0.348994709 16.3630234,0.348994709 C18.3999395,0.348994709 20.0570219,2.0060771 20.0570219,4.0429932 C20.0570219,4.46908541 19.7116251,4.81396825 19.2860469,4.81396825 Z" id="Path"></path>
                <path d="M20.3232653,7.72928193 L12.7707937,7.72928193 C11.8749206,7.72928193 11.1460922,7.00045351 11.1460922,6.1045805 C11.1460922,6.07631141 11.3439758,3.27201814 12.7707937,3.27201814 L20.3232653,3.27201814 C21.7500831,3.27201814 21.947967,6.07631141 21.947967,6.1045805 C21.9484807,7.00045351 21.2196523,7.72928193 20.3232653,7.72928193 Z M13.0277853,4.81396825 C12.8648526,5.13623583 12.6880423,5.8511867 12.6880423,6.1045805 C12.6880423,6.15032502 12.7250491,6.18733182 12.7707937,6.18733182 L20.3232653,6.18733182 C20.3690098,6.18733182 20.4060166,6.15032502 20.4060166,6.1045805 C20.4060166,5.8511867 20.2297203,5.13674981 20.0662736,4.81396825 L13.0277853,4.81396825 Z" id="Shape"></path>
            </g>
        </g>
    </g>
</svg>