<?xml version="1.0" encoding="UTF-8"?>
<svg width="147px" height="189px" viewBox="0 0 147 189" version="1.1" xmlns="http://www.w3.org/2000/svg" xmlns:xlink="http://www.w3.org/1999/xlink">
    <title>noun_medical record_3157307</title>
    <g id="Page-1" stroke="none" stroke-width="1" fill="none" fill-rule="evenodd" opacity="0.243678502">
        <g id="Artboard" transform="translate(-552.000000, -206.000000)" fill="#000000" fill-rule="nonzero">
            <g id="noun_medical-record_3157307" transform="translate(552.000000, 206.000000)">
                <path d="M21,0 L21,21 L0,21 L0,163.474609 L25.5253906,189 L126,189 L126,168 L147,168 L147,0 L21,0 Z M24.5,3.5 L143.5,3.5 L143.5,164.5 L126,164.5 L126,21 L24.5,21 L24.5,3.5 Z M3.5,24.5 L122.5,24.5 L122.5,185.5 L28,185.5 L28,161 L3.5,161 L3.5,24.5 Z M5.97460938,164.5 L24.5,164.5 L24.5,183.025391 L5.97460938,164.5 Z" id="Shape"></path>
                <path d="M56.5,42 L56.5,52.5 L46,52.5 L46,66.5 L56.5,66.5 L56.5,77 L70.5,77 L70.5,66.5 L81,66.5 L81,52.5 L70.5,52.5 L70.5,42 L56.5,42 Z M60,45.5 L67,45.5 L67,56 L77.5,56 L77.5,63 L67,63 L67,73.5 L60,73.5 L60,63 L49.5,63 L49.5,56 L60,56 L60,45.5 Z" id="Shape"></path>
                <polygon id="Path" points="25 98 102 98 102 102 25 102"></polygon>
                <polygon id="Path" points="25 112 102 112 102 116 25 116"></polygon>
                <polygon id="Path" points="25 126 102 126 102 130 25 130"></polygon>
                <polygon id="Path" points="25 140 74 140 74 144 25 144"></polygon>
            </g>
        </g>
    </g>
</svg>