<?xml version="1.0" encoding="UTF-8"?>
<svg width="41px" height="41px" viewBox="0 0 41 41" version="1.1" xmlns="http://www.w3.org/2000/svg" xmlns:xlink="http://www.w3.org/1999/xlink">
    <title>Group 9</title>
    <g id="Page-1" stroke="none" stroke-width="1" fill="none" fill-rule="evenodd">
        <g id="My-Appointments---WebApp---Physician-Assistant-View" transform="translate(-473.000000, -1613.000000)">
            <g id="Group-9" transform="translate(473.000000, 1613.000000)">
                <circle id="Oval" fill="#D8243C" cx="20.5" cy="20.5" r="20.5"></circle>
                <path d="M20.3846154,10.08358 C14.6575508,10.08358 10,14.7411262 10,20.4681954 C10,26.1952646 14.6575508,30.8528108 20.3846154,30.8528108 C24.125392,30.8528108 27.4546383,28.8950915 29.2836538,25.9129069 C29.4843443,25.5863437 29.3825207,25.1589342 29.0561469,24.9579357 C28.7297732,24.7569373 28.3022678,24.8583576 28.1009615,25.1845415 C26.5216595,27.75958 23.6407563,29.4681954 20.3846154,29.4681954 C15.4058523,29.4681954 11.3846154,25.4469492 11.3846154,20.4681954 C11.3846154,15.4894277 15.4058523,11.4681954 20.3846154,11.4681954 C23.376844,11.4681954 26.0237809,12.9278756 27.6610577,15.1677146 L26.1105769,14.7205992 C25.87225,14.6535912 25.6162786,14.7188257 25.4390929,14.8917275 C25.2619072,15.0646293 25.1904287,15.3189279 25.2515849,15.5588231 C25.3127412,15.7987183 25.4972402,15.9877608 25.7355769,16.0547338 L28.9663462,16.9778108 C29.3325607,17.0796383 29.7123911,16.8671908 29.8173077,16.5018492 L30.7403846,13.27108 C30.8056677,13.0573196 30.7637467,12.8251918 30.627818,12.6477691 C30.4918894,12.4703465 30.2786731,12.3694529 30.0552885,12.3768492 C29.7523139,12.3885793 29.4922157,12.5960734 29.4134615,12.8888685 L28.9375,14.5547338 C27.0591414,11.850013 23.9200729,10.08358 20.3846154,10.08358 Z M20.3774038,13.2998877 C20.1925256,13.3018304 20.0160884,13.3775986 19.8874006,13.5103503 C19.7587127,13.643102 19.6884649,13.8218088 19.6923077,14.0066569 L19.6923077,20.4681954 C19.6945786,20.7280597 19.8421743,20.9647697 20.0745192,21.0811762 L24.6899038,23.3888685 C24.9126184,23.5241312 25.1924156,23.5228982 25.4139295,23.3856781 C25.6354434,23.2484579 25.7611581,22.9984903 25.7392389,22.7388418 C25.7173198,22.4791934 25.5514791,22.2538385 25.3100962,22.1556954 L21.0769231,20.0355031 L21.0769231,14.0066569 C21.0808183,13.8193075 21.0086078,13.6383798 20.8767844,13.5051974 C20.7449609,13.3720149 20.5647834,13.2979526 20.3774038,13.2998877 Z" id="Shape" stroke="#FFFFFF" fill="#FFFFFF" fill-rule="nonzero"></path>
            </g>
        </g>
    </g>
</svg>