<?xml version="1.0" encoding="UTF-8"?>
<svg width="27px" height="27px" viewBox="0 0 27 27" version="1.1" xmlns="http://www.w3.org/2000/svg" xmlns:xlink="http://www.w3.org/1999/xlink">
    <title>noun_Search_860389</title>
    <g id="Page-1" stroke="none" stroke-width="1" fill="none" fill-rule="evenodd" opacity="0.358197893">
        <g id="My-Appointments---WebApp---Physician-Assistant-View-Copy-3" transform="translate(-1584.000000, -128.000000)" fill="#000000" fill-rule="nonzero">
            <g id="Shape" transform="translate(1584.000000, 128.000000)">
                <path d="M19.7413225,17.6811554 L26.4858468,24.368458 C27.0105416,24.8887014 27.0122499,25.7304885 26.4814541,26.2567811 C25.9543331,26.7794298 25.0921143,26.7719072 24.5769731,26.2611365 L17.8324488,19.5738339 C13.5962673,22.8426917 7.46870746,22.5467694 3.57497013,18.6860672 C-0.641997114,14.5048774 -0.641997114,7.72582931 3.57497013,3.54463951 C7.79193737,-0.636550306 14.6289922,-0.636550306 18.8459594,3.54463951 C22.7396967,7.40534173 23.0381511,13.4809143 19.7413225,17.6811554 L19.7413225,17.6811554 Z M16.9370858,16.7933888 C20.0998111,13.6574964 20.0998111,8.57321032 16.9370858,5.43731797 C13.7743603,2.30142561 8.64656922,2.30142561 5.48384379,5.43731797 C2.32111836,8.57321032 2.32111836,13.6574964 5.48384379,16.7933888 C8.64656922,19.9292811 13.7743603,19.9292811 16.9370858,16.7933888 Z"></path>
            </g>
        </g>
    </g>
</svg>