<svg xmlns="http://www.w3.org/2000/svg" width="54" height="54" viewBox="0 0 54 54">
  <g id="Group_23455" data-name="Group 23455" transform="translate(-344 -721)">
    <circle id="Ellipse_208" data-name="Ellipse 208" cx="27" cy="27" r="27" transform="translate(344 721)" fill="rgba(66,66,66,0.5)"/>
    <g id="Group_23450" data-name="Group 23450" transform="translate(-11085 -6367.007)">
      <g id="Icon_feather-camera" data-name="Icon feather-camera" transform="translate(11443 7104.007)">
        <path id="Path_51304" data-name="Path 51304" d="M28.5,24.056A2.45,2.45,0,0,1,26.045,26.5H3.955A2.45,2.45,0,0,1,1.5,24.056V10.611A2.45,2.45,0,0,1,3.955,8.167H8.864L11.318,4.5h7.364l2.455,3.667h4.909A2.45,2.45,0,0,1,28.5,10.611Z" transform="translate(-1.5 -4.5)" fill="none" stroke="#fff" stroke-linecap="round" stroke-linejoin="round" stroke-width="2"/>
      </g>
      <g id="Icon_feather-refresh-ccw" data-name="Icon feather-refresh-ccw" transform="translate(11449.63 7110.896)">
        <path id="Path_51306" data-name="Path 51306" d="M1.5,6V9.716H5.216" transform="translate(-1.5 -5.382)" fill="none" stroke="#fff" stroke-linecap="round" stroke-linejoin="round" stroke-width="2"/>
        <path id="Path_51307" data-name="Path 51307" d="M29.216,24.716V21H25.5" transform="translate(-15.591 -14.189)" fill="none" stroke="#fff" stroke-linecap="round" stroke-linejoin="round" stroke-width="2"/>
        <path id="Path_51308" data-name="Path 51308" d="M13.57,8.218a5.574,5.574,0,0,0-9.2-2.081L1.5,8.837m13.625,2.477-2.874,2.7a5.574,5.574,0,0,1-9.2-2.081" transform="translate(-1.5 -4.503)" fill="none" stroke="#fff" stroke-linecap="round" stroke-linejoin="round" stroke-width="2"/>
      </g>
    </g>
  </g>
</svg>
