<svg xmlns="http://www.w3.org/2000/svg" width="54" height="54" viewBox="0 0 54 54">
  <g id="Group_23459" data-name="Group 23459" transform="translate(-344 -801)">
    <circle id="Ellipse_209" data-name="Ellipse 209" cx="27" cy="27" r="27" transform="translate(344 801)" fill="rgba(66,66,66,0.5)"/>
    <path id="Path_9160" data-name="Path 9160" d="M30.878,11.981H14.5a2.84,2.84,0,0,0-2.816,2.855V26.4A2.833,2.833,0,0,0,14.5,29.247h9.37a.8.8,0,0,1,.562.24l4.656,4.354c.259.255.687.15.687-.217V29.832c0-.45.281-.592.724-.592h.074a3.093,3.093,0,0,0,3.111-2.848V14.836A2.824,2.824,0,0,0,30.878,11.981Z" transform="translate(348.814 805.519)" fill="none" stroke="#fff" stroke-width="2"/>
  </g>
</svg>
