<svg xmlns="http://www.w3.org/2000/svg" width="56" height="55.837" viewBox="0 0 56 55.837">
  <g id="Group_23457" data-name="Group 23457" transform="translate(-90 -808)">
    <path id="Path_2584" data-name="Path 2584" d="M276-786.418A27.959,27.959,0,0,1,304-758.5a27.959,27.959,0,0,1-28,27.918A27.959,27.959,0,0,1,248-758.5,27.959,27.959,0,0,1,276-786.418Z" transform="translate(-158 1594.418)" fill="rgba(66,66,66,0.51)"/>
    <g id="microphone" transform="translate(108.499 822.999)">
      <path id="Path_8788" data-name="Path 8788" d="M17.681,260.606a.79.79,0,0,0-1.581,0,7.01,7.01,0,1,1-14.019,0,.79.79,0,0,0-1.581,0,8.6,8.6,0,0,0,7.8,8.554v2.127H5.368a.79.79,0,0,0,0,1.581h7.446a.79.79,0,0,0,0-1.581H9.881V269.16a8.6,8.6,0,0,0,7.8-8.554Zm0,0" transform="translate(0 -246.369)" fill="#fff"/>
      <path id="Path_8789" data-name="Path 8789" d="M73.774,19.3a5.066,5.066,0,0,0,5.06-5.06V5.061a5.06,5.06,0,0,0-10.12,0v9.177A5.066,5.066,0,0,0,73.774,19.3ZM70.295,5.061a3.479,3.479,0,0,1,6.959,0v9.177a3.479,3.479,0,0,1-6.959,0Zm0,0" transform="translate(-64.683 0)" fill="#fff"/>
    </g>
  </g>
</svg>
