<svg xmlns="http://www.w3.org/2000/svg" width="54" height="54" viewBox="0 0 54 54">
  <g id="Group_23458" data-name="Group 23458" transform="translate(-264 -801)">
    <circle id="Ellipse_210" data-name="Ellipse 210" cx="27" cy="27" r="27" transform="translate(264 801)" fill="rgba(66,66,66,0.5)"/>
    <path id="video-camera" d="M24.741,1.427a.523.523,0,0,0-.524-.01L18.481,4.6V2.69A2.672,2.672,0,0,0,15.832,0H2.649A2.672,2.672,0,0,0,0,2.69V13.31A2.672,2.672,0,0,0,2.649,16H15.832a2.672,2.672,0,0,0,2.648-2.69V11.436l5.736,3.181a.523.523,0,0,0,.524-.009A.54.54,0,0,0,25,14.145V1.89a.54.54,0,0,0-.259-.463ZM17.421,13.31a1.6,1.6,0,0,1-1.589,1.614H2.649A1.6,1.6,0,0,1,1.06,13.31V2.69A1.6,1.6,0,0,1,2.649,1.076H15.832A1.6,1.6,0,0,1,17.421,2.69Zm6.52-.072-5.46-3.028V5.824L23.941,2.8Zm0,0" transform="translate(278.499 820.5)" fill="#fff" stroke="#fff" stroke-width="0.5"/>
  </g>
</svg>
