<svg xmlns="http://www.w3.org/2000/svg" xmlns:xlink="http://www.w3.org/1999/xlink" width="50" height="50" viewBox="0 0 50 50"><defs><style>.a,.c{fill:#fff;}.a{stroke:#707070;}.b{clip-path:url(#a);}</style><clipPath id="a"><rect class="a" width="50" height="50" transform="translate(-16523.551 -3631.551)"/></clipPath></defs><g class="b" transform="translate(16523.551 3631.551)"><g transform="translate(-16480.01 -3528.713)"><path class="c" d="M13.474,18.948A6.474,6.474,0,1,0,7,12.474a6.474,6.474,0,0,0,6.474,6.474Zm0-10.79a4.316,4.316,0,1,1-4.316,4.316,4.316,4.316,0,0,1,4.316-4.316Z" transform="translate(-37.067 -96.522)"/><path class="c" d="M25.79,10.474V8.316a4.316,4.316,0,0,0-8.632,0v2.158A2.159,2.159,0,0,0,15,12.632v6.474a2.159,2.159,0,0,0,2.158,2.158H25.79a2.159,2.159,0,0,0,2.158-2.158V12.632a2.159,2.159,0,0,0-2.158-2.158Zm-3.237,6.474a1.079,1.079,0,0,1-2.158,0V14.79a1.079,1.079,0,0,1,2.158,0Zm1.079-6.474H19.316V8.316a2.158,2.158,0,0,1,4.316,0Z" transform="translate(-27.804 -98.838)"/><path class="c" d="M27.055,15.548l-4.206-1.53a17.309,17.309,0,0,0-11.8,0l-4.206,1.53A4.33,4.33,0,0,0,4,19.6v6.364a2.159,2.159,0,0,0,2.158,2.158h21.58A2.159,2.159,0,0,0,29.9,25.969V19.6a4.33,4.33,0,0,0-2.841-4.057Zm.683,11.5V25.969H6.158V19.6a2.168,2.168,0,0,1,1.42-2.029l4.206-1.53a15.162,15.162,0,0,1,10.326,0l4.206,1.53a2.168,2.168,0,0,1,1.42,2.029v6.364h0Z" transform="translate(-40.541 -88.437)"/></g></g></svg>