<svg xmlns="http://www.w3.org/2000/svg" xmlns:xlink="http://www.w3.org/1999/xlink" width="45" height="45" viewBox="0 0 45 45">
  <defs>
    <clipPath id="clip-path">
      <rect id="Rectangle_16863" data-name="Rectangle 16863" width="45" height="45" transform="translate(-0.321)" fill="#fff" stroke="#707070" stroke-width="1"/>
    </clipPath>
  </defs>
  <g id="Group_10421" data-name="Group 10421" transform="translate(0.321)">
    <g id="Group_9891" data-name="Group 9891">
      <g id="Mask_Group_79" data-name="Mask Group 79" clip-path="url(#clip-path)">
        <g id="employees" transform="translate(3 8)">
          <g id="Group" transform="translate(-1.542 -1)">
            <path id="Shape" d="M.838,19.048H.673a.775.775,0,0,1-.518-.331.886.886,0,0,1-.14-.663A9.68,9.68,0,0,1,2.225,13.5a9.969,9.969,0,0,1,4.122-2.816,5.808,5.808,0,0,1-2.467-4.8A5.859,5.859,0,0,1,5.6,1.729a5.79,5.79,0,0,1,8.244-.01A5.735,5.735,0,0,1,15.557,5.8a5.73,5.73,0,0,1-2.467,4.8,10.012,10.012,0,0,1,6.332,7.371.855.855,0,0,1-.659.994,1.129,1.129,0,0,1-.187.016.77.77,0,0,1-.8-.6,8.214,8.214,0,0,0-16.118,0A.8.8,0,0,1,.838,19.048ZM9.719,1.657a4.224,4.224,0,0,0,0,8.447,4.164,4.164,0,0,0,4.194-4.223A4.214,4.214,0,0,0,9.719,1.657Z" transform="translate(17.519 3.999)" fill="#fff" stroke="#fff" stroke-width="0.5"/>
            <path id="Shape-2" data-name="Shape" d="M25.143,25.747a1.145,1.145,0,0,1-1.128-.913,11.1,11.1,0,0,0-21.773,0,1.088,1.088,0,0,1-1.111.9H.909a1.047,1.047,0,0,1-.7-.448,1.2,1.2,0,0,1-.189-.9,13.081,13.081,0,0,1,2.985-6.152,13.473,13.473,0,0,1,5.568-3.8A7.74,7.74,0,0,1,5.242,7.943,7.913,7.913,0,0,1,7.561,2.335a7.805,7.805,0,0,1,11.135,0,7.911,7.911,0,0,1,2.32,5.608,7.74,7.74,0,0,1-3.332,6.488,13.152,13.152,0,0,1,5.609,3.845,13.313,13.313,0,0,1,2.944,6.11,1.158,1.158,0,0,1-.89,1.343A1.232,1.232,0,0,1,25.143,25.747ZM13.129,2.238a5.706,5.706,0,0,0,0,11.411,5.624,5.624,0,0,0,5.664-5.705A5.691,5.691,0,0,0,13.129,2.238Z" transform="translate(0.033 6.357)" fill="#fff" stroke="#fff" stroke-width="0.5"/>
            <path id="Icon_awesome-plus" data-name="Icon awesome-plus" d="M8.852,5.995H5.788V2.931a.681.681,0,0,0-.681-.681H4.426a.681.681,0,0,0-.681.681V5.995H.681A.681.681,0,0,0,0,6.676v.681a.681.681,0,0,0,.681.681H3.745V11.1a.681.681,0,0,0,.681.681h.681a.681.681,0,0,0,.681-.681V8.038H8.852a.681.681,0,0,0,.681-.681V6.676A.681.681,0,0,0,8.852,5.995Z" transform="translate(32.188 -1.283)" fill="#fff"/>
          </g>
        </g>
      </g>
    </g>
  </g>
</svg>
