<svg xmlns="http://www.w3.org/2000/svg" xmlns:xlink="http://www.w3.org/1999/xlink" width="45" height="45" viewBox="0 0 45 45"><defs><clipPath id="a"><rect width="45" height="45" transform="translate(-87 -3984)" fill="#fff"/></clipPath></defs><g transform="translate(87 3984)" clip-path="url(#a)"><g transform="translate(-127.499 -3982)"><path d="M209.267,157.492h8.639a.608.608,0,1,0,0-1.217h-8.639a.608.608,0,1,0,0,1.217Z" transform="translate(-155.925 -143.599)" fill="#fff"/><path d="M209.267,224.383h8.639a.608.608,0,1,0,0-1.217h-8.639a.608.608,0,0,0,0,1.217Z" transform="translate(-155.925 -205.064)" fill="#fff"/><path d="M209.267,291.275h7.056a.608.608,0,1,0,0-1.217h-7.056a.608.608,0,1,0,0,1.217Z" transform="translate(-155.925 -266.53)" fill="#fff"/><path d="M209.267,358.194h2.655a.608.608,0,1,0,0-1.217h-2.655a.608.608,0,1,0,0,1.217Z" transform="translate(-155.925 -328.021)" fill="#fff"/><path d="M321.961,361.913H320.61v-1.351a.86.86,0,0,0-.859-.859h-2.5a.86.86,0,0,0-.859.859v1.351h-1.351a.863.863,0,0,0-.862.861v2.5a.863.863,0,0,0,.862.861h1.351v1.351a.86.86,0,0,0,.859.859h2.5a.86.86,0,0,0,.859-.859v-1.351h1.351a.863.863,0,0,0,.861-.861v-2.5A.862.862,0,0,0,321.961,361.913Zm-.355,3H320.36a.966.966,0,0,0-.966.964v1.246h-1.785v-1.246a.966.966,0,0,0-.966-.964H315.4V363.13h1.246a.966.966,0,0,0,.966-.964V360.92h1.785v1.246a.966.966,0,0,0,.966.964h1.246v1.787Z" transform="translate(-246.887 -330.526)" fill="#fff"/><path d="M76.311,26.984V18.065a.608.608,0,0,0-1.217,0v8.193a7.968,7.968,0,0,0-2-.657V7.478a1,1,0,0,0-1-1H68.48v-2H74.5a.591.591,0,0,1,.591.589V19.719a.608.608,0,0,0,1.217,0V5.065A1.809,1.809,0,0,0,74.5,3.259H68.415a1.043,1.043,0,0,0-.977-.687H65.3a5.039,5.039,0,0,0-8.784,0h-2.14a1.045,1.045,0,0,0-.98.687H47.3A1.808,1.808,0,0,0,45.5,5.065V37.318A1.808,1.808,0,0,0,47.3,39.124H65.887a8.03,8.03,0,1,0,10.425-12.14ZM54.545,3.789h2.272a.653.653,0,0,0,.642-.4l.006-.013a3.819,3.819,0,0,1,6.877,0l0,.008.009.018a.643.643,0,0,0,.637.39h2.271V7.405H54.545ZM47.3,37.907a.59.59,0,0,1-.589-.589V5.065a.59.59,0,0,1,.589-.589h6.024v2H49.718a1,1,0,0,0-1,1V22.64a.608.608,0,1,0,1.217,0V7.694h3.4a1.044,1.044,0,0,0,1.037.928H67.438a1.043,1.043,0,0,0,1.035-.928h3.4V25.469c-.087,0-.175,0-.263,0a8.035,8.035,0,0,0-7.945,9.225H49.934V20.1a.608.608,0,1,0-1.217,0V34.905a1,1,0,0,0,1,1H63.949a8.006,8.006,0,0,0,.953,2Zm24.309,2.406A6.816,6.816,0,1,1,78.431,33.5,6.825,6.825,0,0,1,71.614,40.313Z" transform="translate(0 0)" fill="#fff"/></g></g></svg>