<?xml version="1.0" standalone="no"?>
<!DOCTYPE svg PUBLIC "-//W3C//DTD SVG 20010904//EN"
 "http://www.w3.org/TR/2001/REC-SVG-20010904/DTD/svg10.dtd">
<svg version="1.0" xmlns="http://www.w3.org/2000/svg"
 width="70.000000pt" height="72.000000pt" viewBox="0 0 70.000000 72.000000"
 preserveAspectRatio="xMidYMid meet">

<g transform="translate(0.000000,72.000000) scale(0.100000,-0.100000)"
fill="#fff" stroke="none">
<path d="M232 684 c-56 -28 -91 -63 -125 -128 -18 -35 -22 -61 -25 -177 l-4
-137 -39 -38 c-44 -43 -45 -46 -23 -68 11 -12 36 -16 99 -16 l83 0 21 -35 c59
-100 203 -100 262 0 l21 35 83 0 c63 0 88 4 99 16 22 22 21 25 -23 68 l-39 38
-4 136 c-3 116 -7 143 -26 178 -54 104 -133 154 -242 154 -51 0 -78 -6 -118
-26z m219 -41 c35 -18 64 -43 84 -71 30 -43 30 -46 33 -190 l3 -147 32 -32 31
-33 -284 0 -284 0 31 33 32 32 3 147 c3 144 3 147 33 190 38 55 119 98 185 98
31 0 65 -9 101 -27z m-7 -537 c-23 -60 -165 -60 -188 0 -4 12 12 14 94 14 82
0 98 -2 94 -14z"/>
</g>
</svg>
