<svg xmlns="http://www.w3.org/2000/svg" width="55" height="40" viewBox="0 0 55 40">
    <path fill="#FFF" fill-rule="evenodd" d="M37.722 11.008c-.001.39.41.8.815.813.432.016.902-.443.896-.875-.005-.353-.469-.79-.845-.795-.419-.006-.864.435-.866.857zM18.608 24.044c.183-.913.41-1.822.526-2.745.296-2.326.34-4.665.004-6.987-.135-.939-.472-1.85-.751-2.762-.158-.517-.35-1.031-.588-1.515-.368-.745-.779-1.47-1.193-2.191-.19-.331-.42-.64-.648-.947-.377-.507-.72-1.052-1.162-1.493-.792-.789-1.618-1.55-2.486-2.25-.588-.475-1.254-.863-1.92-1.225-.7-.381-1.44-.685-2.162-1.024-.056-.027-.105-.073-.226-.158.18-.086.305-.164.44-.207 1.734-.555 3.516-.66 5.298-.415.934.128 1.846.456 2.754.74.571.179 1.135.406 1.669.678.616.315 1.249.638 1.78 1.075 1.079.885 2.16 1.785 3.116 2.8.872.927 1.611 1.99 2.347 3.04.613.871 1.16 1.794 1.69 2.722.413.72.747 1.488 1.132 2.225.385.737.79 1.464 1.186 2.194.194.359.399.712.583 1.077.539 1.065 1.231 2.006 2.137 2.778.25.093.583.283.668.202.244-.23-.104-.356-.21-.53-.553-.915-1.142-1.81-1.64-2.755-.46-.875-.83-1.8-1.223-2.711-.25-.577.014-1.193.241-1.604.228-.41.822-1.51 1.677-2.472.772-.867 1.87-1.519 2.36-1.736 1.323-.588 2.578-.53 4.13-.265s2.586.925 3.242 1.248c.656.324 1.283.495 1.957.478 2.284-.061 4.566-.169 6.848-.268 1.323-.058 2.607-.09 3.93-.134.246-.008.547.055.776.169.097.048.11.244.11.326 0 .083-.143.175-.258.182-.498.03-1.03.045-1.496.045-2.142 0-4.25.234-6.343.594-1.355.233-2.73.592-3.882 1.422-.59.426-1.125.969-1.576 1.546-.64.818-1.196 1.706-1.756 2.585-.404.634-.746 1.309-1.132 1.955-.36.602-.719 1.206-1.117 1.782-.54.783-1.07 1.582-1.69 2.297-1.22 1.408-2.47 2.792-3.763 4.131-.785.814-1.651 1.553-2.521 2.275-.717.596-1.488 1.125-2.243 1.672-.563.409-1.13.813-1.711 1.194-.604.396-1.22.772-1.842 1.137-.757.445-1.52.88-2.292 1.3-.437.236-.897.428-1.345.644-.21.103-1.012.293-1.19.311.316-.496.699-.81 1.028-1.209.596-.72 1.194-1.44 1.766-2.18.572-.742 1.138-1.49 1.66-2.267.418-.624.783-1.287 1.142-1.948.422-.778.844-1.558 1.206-2.365.267-.596.73-1.812.873-2.257.144-.445.253-.723.011-1.017-.037.035-.098.064-.104.103-.03.183-.08.354-.146.52-.1.25-.235.488-.378.73-.491.838-.893 1.729-1.362 2.58-.363.66-.737 1.318-1.17 1.93-.633.895-1.279 1.789-2 2.61-.826.939-1.714 1.826-2.624 2.682-.661.621-1.38 1.186-2.112 1.72-.88.642-1.786 1.25-2.71 1.825-.642.4-1.319.754-2.007 1.069-1.057.484-2.129.936-3.21 1.364-.558.222-1.14.396-1.726.53-1.034.236-2.077.442-3.121.63-.98.177-1.965.324-2.95.463-.241.034-.496-.004-.74-.038-.067-.009-.161-.117-.169-.188-.006-.064.074-.165.141-.205.645-.375 1.309-.718 1.94-1.114.877-.549 1.733-1.13 2.592-1.707.784-.527 1.58-1.039 2.333-1.61.9-.683 1.784-1.394 2.63-2.145.638-.566 1.226-1.193 1.797-1.83.422-.47.8-.985 1.16-1.508.417-.608.84-1.221 1.171-1.879.295-.584.482-1.228.688-1.855.107-.327.141-.678.226-1.013.226-.886.23-1.766-.033-2.646-.19-.634-.34-1.282-.565-1.902-.477-1.313-1.32-2.38-2.297-3.34-.975-.957-2.072-1.755-3.264-2.399-.814-.44-1.673-.795-2.526-1.154-.517-.218-1.064-.364-1.59-.56-.105-.04-.267-.176-.254-.237.031-.15.118-.323.237-.413.116-.087.297-.103.452-.115 1.386-.108 2.772-.276 4.159-.287 1.017-.009 2.058.093 3.048.324 1.083.253 2.156.6 3.152 1.158.827.463 1.643.928 2.321 1.603.115.115.237.26.275.412.284 1.114.467 2.244.46 3.4-.008 1.443-.012 2.885-.012 4.327 0 .293.01.587.039.879.012.13.08.255.16.491.091-.207.15-.295.168-.392z"/>
</svg>
