<?xml version="1.0" encoding="UTF-8"?>
<svg width="283px" height="207px" viewBox="0 0 283 207" version="1.1" xmlns="http://www.w3.org/2000/svg" xmlns:xlink="http://www.w3.org/1999/xlink">
    <title>branding@2x</title>
    <defs>
        <linearGradient x1="50%" y1="0%" x2="50%" y2="100%" id="linearGradient-1">
            <stop stop-color="#95CF20" offset="0%"></stop>
            <stop stop-color="#5CA20E" offset="100%"></stop>
        </linearGradient>
    </defs>
    <g id="Page-1" stroke="none" stroke-width="1" fill="none" fill-rule="evenodd">
        <g id="Home-page" transform="translate(-116.000000, -45.000000)">
            <g id="branding" transform="translate(116.000000, 49.000000)">
                <g id="Group" transform="translate(0.000000, 127.000000)" fill="#FFFFFF">
                    <path d="M170.068913,39 C172.778158,39 175.296366,38.4892473 177.623538,37.4677419 C179.950709,36.4462366 182,34.7607527 183.771439,32.4112903 L183.771439,32.4112903 L180.957993,30.3172043 C180.298048,31.3046595 179.533902,32.1474014 178.665555,32.8454301 C177.797207,33.5434588 176.885442,34.1223118 175.93026,34.5819892 C174.975077,35.0416667 173.993845,35.3821685 172.986561,35.6034946 C171.979278,35.8248208 171.006729,35.9354839 170.068913,35.9354839 C167.672274,35.9354839 165.510089,35.5268817 163.582357,34.7096774 C161.654625,33.8924731 160.013448,32.7688172 158.658826,31.3387097 C157.304204,29.9086022 156.262187,28.2231183 155.532775,26.2822581 C154.803363,24.3413978 154.438657,22.2473118 154.438657,20 C154.438657,17.7526882 154.803363,15.6586022 155.532775,13.7177419 C156.262187,11.7768817 157.304204,10.0913978 158.658826,8.66129032 C160.013448,7.2311828 161.654625,6.10752688 163.582357,5.29032258 C165.510089,4.47311828 167.672274,4.06451613 170.068913,4.06451613 C171.944544,4.06451613 173.776758,4.45609319 175.565554,5.23924731 C177.35435,6.02240143 178.821857,7.26523297 179.968076,8.96774194 L179.968076,8.96774194 L182.781522,6.66935484 C181.149029,4.62634409 179.247348,3.17069892 177.076479,2.30241935 C174.90561,1.43413978 172.569755,1 170.068913,1 C167.255467,1 164.676475,1.47670251 162.331936,2.43010753 C159.987398,3.38351254 157.981515,4.70295699 156.314287,6.38844086 C154.64706,8.07392473 153.344539,10.0743728 152.406723,12.3897849 C151.468908,14.7051971 151,17.2419355 151,20 C151,22.7580645 151.468908,25.3033154 152.406723,27.6357527 C153.344539,29.96819 154.64706,31.9771505 156.314287,33.6626344 C157.981515,35.3481183 159.987398,36.6590502 162.331936,37.5954301 C164.676475,38.53181 167.255467,39 170.068913,39 Z M189.859382,38.0806452 L194.027451,28.4784946 L213.565272,28.4784946 L217.577038,38.0806452 L221.432501,38.0806452 L205.906446,1.91935484 L202.363588,1.91935484 L186.264423,38.0806452 L189.859382,38.0806452 Z M212.314851,25.4139785 L195.382073,25.4139785 L203.978714,5.59677419 L212.314851,25.4139785 Z M231.167505,38.0806452 L231.167505,20.9193548 L237.57591,20.9193548 L247.94398,38.0806452 L251.851545,38.0806452 L241.118768,20.7150538 C242.126051,20.578853 243.185435,20.3405018 244.29692,20 C245.408405,19.6594982 246.424372,19.140233 247.344821,18.4422043 C248.265269,17.7441756 249.029415,16.8333333 249.637258,15.7096774 C250.245102,14.5860215 250.549023,13.155914 250.549023,11.4193548 C250.549023,9.85304659 250.288519,8.52508961 249.76751,7.43548387 C249.246502,6.34587814 248.586558,5.44354839 247.787678,4.72849462 C246.988798,4.01344086 246.085716,3.46863799 245.078433,3.09408602 C244.07115,2.71953405 243.081234,2.44713262 242.108684,2.27688172 C241.136135,2.10663082 240.233054,2.00448029 239.39944,1.97043011 C238.565826,1.93637993 237.905882,1.91935484 237.419607,1.91935484 L237.419607,1.91935484 L227.728848,1.91935484 L227.728848,38.0806452 L231.167505,38.0806452 Z M238.461624,17.8548387 L231.167505,17.8548387 L231.167505,4.98387097 L238.461624,4.98387097 C240.267788,4.98387097 241.735295,5.20519713 242.864147,5.64784946 C243.992999,6.09050179 244.87003,6.63530466 245.49524,7.28225806 C246.12045,7.92921147 246.545941,8.62724014 246.771711,9.37634409 C246.997481,10.125448 247.110367,10.8064516 247.110367,11.4193548 C247.110367,12.0322581 246.997481,12.7132616 246.771711,13.4623656 C246.545941,14.2114695 246.12045,14.9094982 245.49524,15.5564516 C244.87003,16.203405 243.992999,16.7482079 242.864147,17.1908602 C241.735295,17.6335125 240.267788,17.8548387 238.461624,17.8548387 L238.461624,17.8548387 Z M283,38.0806452 L283,35.016129 L263.045372,35.016129 L263.045372,20.9193548 L280.968067,20.9193548 L280.968067,17.8548387 L263.045372,17.8548387 L263.045372,4.98387097 L282.166386,4.98387097 L282.166386,1.91935484 L259.606715,1.91935484 L259.606715,38.0806452 L283,38.0806452 Z" id="CARE" fill-opacity="0.46331403" fill-rule="nonzero"></path>
                    <g id="Group-22" opacity="0.990373884">
                        <path d="M28.3418359,0.0141398601 C28.3905902,4.46281119 28.4793624,8.91148252 28.4768793,13.3601538 C28.4741488,17.8085455 28.4366672,22.2584755 28.2984361,26.7043497 C28.2439046,28.4588951 28.1441415,30.2919021 27.5965717,31.9353986 C26.3422058,35.7014126 23.3580493,37.8039301 19.6993646,39.0067273 C18.4430259,39.4197343 17.1032695,39.582951 15.8015584,39.8601538 C14.4998473,40.1373566 12.4883809,39.7439301 12.3070319,39.725049 C9.340348,39.4152587 6.64364444,38.4116224 4.31344343,36.553021 C2.04186029,34.7412727 0.566691019,32.4692448 0.430009941,29.4846294 C0.338419529,27.4840699 0.251619999,1.67945455 0.302346997,0.0141398601 L8.75642389,0.0141398601 C8.73049676,2.36602797 8.69667876,4.71791608 8.67976976,7.06994406 C8.6280564,14.3110629 8.40344853,21.5533007 8.87788687,28.7903636 C8.97750906,30.3103636 9.70980963,31.379035 11.0330797,32.0723217 C12.7531477,32.9737203 14.5721333,33.1233706 16.429305,32.6155385 C18.3085994,32.1018322 19.4678522,30.9039301 19.6523012,28.9258881 C19.7688324,27.6751189 19.8853636,26.4177762 19.8814181,25.1636503 C19.8546455,16.7802937 19.795464,8.39721678 19.7467098,0.0141398601 L28.3418359,0.0141398601 Z" id="Fill-4"></path>
                        <path d="M42.8020011,39.2799223 L41.8082387,39.2799223 C39.6328211,39.2799223 37.4572646,39.2803429 35.281847,39.2797821 C34.3365507,39.2795017 34.3348842,39.2785204 34.3348842,38.3406294 C34.3344676,26.7092396 34.3346065,15.0778498 34.3346065,3.44646005 C34.3346065,2.53562635 34.3559926,1.62395149 34.3265519,0.714099142 C34.3105818,0.218376815 34.4388988,0.00233945421 34.9793855,0.00808736581 C37.270344,0.0323407489 39.5617191,0.0261722584 41.8528164,0.0117323829 C42.2841504,0.00906871657 42.4960679,0.161178085 42.5259252,0.599421296 C42.664102,2.634182 43.5491283,4.3881362 44.7135634,5.97385884 C47.5504246,9.8371564 50.4575547,13.6480218 53.3412155,17.4764113 C53.8828132,18.195461 54.4464915,18.8974072 54.9998933,19.6073444 C55.0600245,19.5933251 55.1201558,19.5793058 55.180287,19.5652865 L55.180287,18.7741776 C55.180287,12.8185 55.1920911,6.86254205 55.1644557,0.90686447 C55.1612616,0.20730157 55.3294347,-0.0137827369 56.0436494,0.000657138619 C58.310722,0.0463600455 60.5795999,0.0337426786 62.847228,0.00654524319 C63.4260432,-0.000464405108 63.6457375,0.129073895 63.6447686,0.775223275 C63.6253234,13.3642712 63.6304616,25.953179 63.6290729,38.5422269 C63.6290729,38.7490116 63.6103253,38.9557962 63.5982435,39.2078631 C63.3999354,39.2335184 63.2241245,39.2759969 63.0481746,39.2762773 C60.6875028,39.2807635 58.326831,39.2729127 55.9662981,39.2857143 C55.5535728,39.2879133 55.3190193,39.2059004 55.31402,38.7197112 C55.2834683,35.7950056 54.1530566,33.2317174 52.7250439,30.7654427 C50.3128509,26.5993284 47.4253017,22.7743035 44.4655394,19.0003088 C43.9662974,18.3638328 43.4649723,17.7291792 42.8020011,17.1339199 L42.8020011,39.2799223 Z" id="Fill-14"></path>
                        <path d="M107.266464,6.97281121 L106.329035,6.97281121 C101.951335,6.97281121 97.5736359,6.98570305 93.1960785,6.95935885 C92.5276223,6.95529512 92.2832175,7.12092725 92.3018213,7.81344333 C92.3478336,9.51614728 92.3401648,11.2213735 92.3048036,12.9247781 C92.2921644,13.5362998 92.4854444,13.7289768 93.1118647,13.7256137 C97.4182734,13.7026326 101.725108,13.7288367 106.031801,13.6989892 C106.742293,13.6940847 106.974343,13.8815769 106.952757,14.5993162 C106.901348,16.30188 106.937419,18.006826 106.935857,19.7107911 C106.934863,20.6422266 106.932733,20.64587 106.012345,20.6461502 C101.800233,20.6475515 97.5882632,20.6465706 93.3761513,20.646991 C92.3187209,20.6471311 92.3171587,20.6483923 92.3170167,21.6650261 C92.3165907,27.1737659 92.3168747,32.6823656 92.3165907,38.1911054 C92.3165907,39.2738799 92.3155966,39.2745805 91.1855974,39.2747207 C88.9375282,39.2751411 86.689317,39.2588861 84.4416738,39.2857143 C83.8608398,39.292517 83.6671337,39.1202988 83.6678418,38.5335799 C83.6821871,25.9290026 83.6816191,13.3244252 83.6694059,0.719847831 C83.6688379,0.176568826 83.8293128,-0.00125450545 84.3929633,0 C91.5153521,0.0162615832 98.6380249,0.0165418406 105.760556,0 C106.34565,-0.00125450545 106.485817,0.177970113 106.533818,0.751096533 C106.68918,2.60457897 106.938129,4.45035432 107.153705,6.29865199 C107.174723,6.47983841 107.213351,6.65906303 107.266464,6.97281121" id="Fill-16"></path>
                        <path d="M127.834855,39.2749378 C125.678489,39.2749378 123.647292,39.275078 121.616094,39.2749378 C121.113504,39.2749378 120.609132,39.2477427 120.108873,39.282087 C119.623831,39.31545 119.480293,39.1200381 119.485777,38.6387976 C119.506341,36.7942995 119.493591,34.9492406 119.493454,33.1043219 C119.493317,29.6016259 119.484131,26.0987896 119.503599,22.5960935 C119.506478,22.0840133 119.349504,21.7268328 118.996074,21.3720353 C115.983414,18.3477761 113.279765,15.0745559 111.303954,11.2275759 C109.796184,8.29205113 108.894237,5.18774871 108.80444,1.85565259 C108.788811,1.27964994 108.735618,0.704488376 108.696683,0.0812448187 C108.961414,0.0553113823 109.15979,0.0192849329 109.358303,0.0188643907 C111.688368,0.0150795108 114.01857,0.0215278247 116.348771,0.0118553538 C116.763895,0.0100330042 117.043705,0.0550310208 117.03781,0.600053726 C116.988182,5.15985274 118.915736,8.94220939 121.545353,12.4369152 C122.211771,13.3227172 122.92535,14.1715116 123.593276,15.007129 C123.715976,14.9827375 123.776298,14.9898867 123.799467,14.9632524 C126.385488,11.9908601 128.659892,8.80945823 129.690708,4.90598543 C130.037833,3.59165084 130.093904,2.19236672 130.228257,0.826305436 C130.28666,0.232640015 130.45748,-0.0107137448 131.094286,0 C133.423802,0.0404522242 135.754415,0.0156402337 138.084617,0.0194251136 C138.238986,0.0197054751 138.393217,0.0544702979 138.731293,0.0956834346 C138.50824,1.96877844 138.413919,3.8350046 138.044996,5.6426352 C137.126735,10.1421565 134.819976,13.9424563 131.988007,17.4255271 C130.836547,18.841773 129.57171,20.163397 128.326477,21.4970766 C127.985933,21.8616867 127.822928,22.2108769 127.82471,22.7223964 C127.841573,27.9064202 127.834992,33.0907244 127.834855,38.2747483 L127.834855,39.2749378 Z" id="Fill-18"></path>
                        <path d="M77.1604669,39.2793821 C75.4086336,39.2793821 73.7226947,39.2795223 72.0367557,39.2793821 C71.0987463,39.2792419 70.1604553,39.2631167 69.223009,39.2852713 C68.7917387,39.2955072 68.6196811,39.1290676 68.6550219,38.712618 C68.6668491,38.5736612 68.6553035,38.4327414 68.6553035,38.2926629 C68.6553035,25.8725086 68.6551627,13.4523544 68.6554443,1.03205991 C68.6555851,0.0112675756 68.6569931,0.0102860445 69.6920137,0.00986538828 C71.9431238,0.00930451337 74.1946562,0.0236068236 76.4456254,0 C76.9960125,-0.00555867178 77.2325564,0.116291403 77.231854,0.729327681 C77.2162236,13.3595296 77.2203068,25.9898717 77.2179132,38.6200736 C77.2179132,38.8026384 77.1869373,38.985063 77.1604669,39.2793821" id="Fill-20"></path>
                    </g>
                </g>
                <path d="M46.106,202 L46.106,195.29 L51.936,186.424 L49.956,186.424 L45.314,193.772 L40.672,186.424 L38.692,186.424 L44.522,195.29 L44.522,202 L46.106,202 Z M56.9017143,202.264 C57.708381,202.264 58.445381,202.128333 59.1127143,201.857 C59.7800476,201.585667 60.3557143,201.208 60.8397143,200.724 C61.3237143,200.24 61.701381,199.668 61.9727143,199.008 C62.2440476,198.348 62.3797143,197.629333 62.3797143,196.852 C62.3797143,196.074667 62.2440476,195.356 61.9727143,194.696 C61.701381,194.036 61.3237143,193.464 60.8397143,192.98 C60.3557143,192.496 59.7800476,192.118333 59.1127143,191.847 C58.445381,191.575667 57.708381,191.44 56.9017143,191.44 C56.1097143,191.44 55.3800476,191.575667 54.7127143,191.847 C54.045381,192.118333 53.4697143,192.496 52.9857143,192.98 C52.5017143,193.464 52.1240476,194.036 51.8527143,194.696 C51.581381,195.356 51.4457143,196.074667 51.4457143,196.852 C51.4457143,197.629333 51.581381,198.348 51.8527143,199.008 C52.1240476,199.668 52.5017143,200.24 52.9857143,200.724 C53.4697143,201.208 54.045381,201.585667 54.7127143,201.857 C55.3800476,202.128333 56.1097143,202.264 56.9017143,202.264 Z M56.9017143,200.944 C56.300381,200.944 55.761381,200.837667 55.2847143,200.625 C54.8080476,200.412333 54.4047143,200.122667 54.0747143,199.756 C53.7447143,199.389333 53.4880476,198.956667 53.3047143,198.458 C53.121381,197.959333 53.0297143,197.424 53.0297143,196.852 C53.0297143,196.28 53.121381,195.744667 53.3047143,195.246 C53.4880476,194.747333 53.7447143,194.314667 54.0747143,193.948 C54.4047143,193.581333 54.8080476,193.291667 55.2847143,193.079 C55.761381,192.866333 56.300381,192.76 56.9017143,192.76 C57.5030476,192.76 58.0420476,192.866333 58.5187143,193.079 C58.995381,193.291667 59.402381,193.581333 59.7397143,193.948 C60.0770476,194.314667 60.337381,194.747333 60.5207143,195.246 C60.7040476,195.744667 60.7957143,196.28 60.7957143,196.852 C60.7957143,197.424 60.7040476,197.959333 60.5207143,198.458 C60.337381,198.956667 60.0770476,199.389333 59.7397143,199.756 C59.402381,200.122667 58.995381,200.412333 58.5187143,200.625 C58.0420476,200.837667 57.5030476,200.944 56.9017143,200.944 Z M69.6774286,202.264 C70.0147619,202.264 70.3557619,202.216333 70.7004286,202.121 C71.0450952,202.025667 71.3714286,201.893667 71.6794286,201.725 C71.9874286,201.556333 72.2660952,201.354667 72.5154286,201.12 C72.7647619,200.885333 72.9700952,200.628667 73.1314286,200.35 L73.1314286,200.35 L73.1754286,200.35 C73.1754286,200.628667 73.1790952,200.903667 73.1864286,201.175 C73.1937619,201.446333 73.2120952,201.721333 73.2414286,202 L73.2414286,202 L74.7374286,202 C74.7080952,201.618667 74.6824286,201.215333 74.6604286,200.79 C74.6384286,200.364667 74.6274286,200.012667 74.6274286,199.734 L74.6274286,199.734 L74.6274286,191.704 L73.1754286,191.704 L73.1754286,196.984 C73.1754286,197.922667 73.0287619,198.656 72.7354286,199.184 C72.4420952,199.712 72.1084286,200.108 71.7344286,200.372 C71.3604286,200.636 71.0047619,200.797333 70.6674286,200.856 C70.3300952,200.914667 70.1247619,200.944 70.0514286,200.944 C69.5087619,200.944 69.0577619,200.867 68.6984286,200.713 C68.3390952,200.559 68.0530952,200.331667 67.8404286,200.031 C67.6277619,199.730333 67.4774286,199.36 67.3894286,198.92 C67.3014286,198.48 67.2574286,197.974 67.2574286,197.402 L67.2574286,197.402 L67.2574286,191.704 L65.8054286,191.704 L65.8054286,198.238 C65.8054286,199.528667 66.1207619,200.522333 66.7514286,201.219 C67.3820952,201.915667 68.3574286,202.264 69.6774286,202.264 Z M80.4291429,202 L80.4291429,196.192 C80.4291429,195.84 80.4914762,195.473333 80.6161429,195.092 C80.7408095,194.710667 80.9351429,194.355 81.1991429,194.025 C81.4631429,193.695 81.7931429,193.423667 82.1891429,193.211 C82.5851429,192.998333 83.0618095,192.892 83.6191429,192.892 C83.9858095,192.892 84.2644762,192.928667 84.4551429,193.002 L84.4551429,193.002 L84.7411429,191.572 C84.4331429,191.484 84.0738095,191.44 83.6631429,191.44 C83.2084762,191.44 82.8014762,191.502333 82.4421429,191.627 C82.0828095,191.751667 81.7674762,191.916667 81.4961429,192.122 C81.2248095,192.327333 80.9938095,192.558333 80.8031429,192.815 C80.6124762,193.071667 80.4658095,193.339333 80.3631429,193.618 L80.3631429,193.618 L80.3191429,193.618 L80.3191429,191.704 L78.8891429,191.704 C78.9038095,192.452 78.9221429,193.060667 78.9441429,193.53 C78.9661429,193.999333 78.9771429,194.461333 78.9771429,194.916 L78.9771429,194.916 L78.9771429,202 L80.4291429,202 Z M95.9265714,202 L95.9265714,194.63 L104.418571,194.63 L104.418571,202 L106.002571,202 L106.002571,186.424 L104.418571,186.424 L104.418571,193.178 L95.9265714,193.178 L95.9265714,186.424 L94.3425714,186.424 L94.3425714,202 L95.9265714,202 Z M115.280286,202.264 C116.130952,202.264 116.926619,202.095333 117.667286,201.758 C118.407952,201.420667 119.086286,200.863333 119.702286,200.086 L119.702286,200.086 L118.580286,199.162 C118.286952,199.631333 117.857952,200.045667 117.293286,200.405 C116.728619,200.764333 116.057619,200.944 115.280286,200.944 C114.766952,200.944 114.290286,200.848667 113.850286,200.658 C113.410286,200.467333 113.021619,200.207 112.684286,199.877 C112.346952,199.547 112.075619,199.154667 111.870286,198.7 C111.664952,198.245333 111.540286,197.761333 111.496286,197.248 L111.496286,197.248 L120.076286,197.248 L120.076286,196.588 C120.076286,195.884 119.966286,195.220333 119.746286,194.597 C119.526286,193.973667 119.207286,193.431 118.789286,192.969 C118.371286,192.507 117.854286,192.136667 117.238286,191.858 C116.622286,191.579333 115.925619,191.44 115.148286,191.44 C114.414952,191.44 113.732952,191.575667 113.102286,191.847 C112.471619,192.118333 111.921619,192.496 111.452286,192.98 C110.982952,193.464 110.616286,194.036 110.352286,194.696 C110.088286,195.356 109.956286,196.074667 109.956286,196.852 C109.956286,197.629333 110.091952,198.348 110.363286,199.008 C110.634619,199.668 111.004952,200.24 111.474286,200.724 C111.943619,201.208 112.504619,201.585667 113.157286,201.857 C113.809952,202.128333 114.517619,202.264 115.280286,202.264 Z M118.492286,196.06 L111.540286,196.06 C111.540286,195.634667 111.639286,195.224 111.837286,194.828 C112.035286,194.432 112.299286,194.08 112.629286,193.772 C112.959286,193.464 113.344286,193.218333 113.784286,193.035 C114.224286,192.851667 114.678952,192.76 115.148286,192.76 C116.204286,192.76 117.025619,193.064333 117.612286,193.673 C118.198952,194.281667 118.492286,195.077333 118.492286,196.06 L118.492286,196.06 Z M126.516,202.264 C127.352,202.264 128.059667,202.113667 128.639,201.813 C129.218333,201.512333 129.720667,201.017333 130.146,200.328 L130.146,200.328 L130.19,200.328 C130.19,200.606667 130.201,200.892667 130.223,201.186 C130.245,201.479333 130.278,201.750667 130.322,202 L130.322,202 L131.73,202 C131.686,201.721333 131.645667,201.365667 131.609,200.933 C131.572333,200.500333 131.554,200.086 131.554,199.69 L131.554,199.69 L131.554,195.092 C131.554,194.461333 131.451333,193.918667 131.246,193.464 C131.040667,193.009333 130.769333,192.631667 130.432,192.331 C130.094667,192.030333 129.695,191.806667 129.233,191.66 C128.771,191.513333 128.290667,191.44 127.792,191.44 C125.856,191.44 124.404,191.938667 123.436,192.936 L123.436,192.936 L124.316,193.97 C125.210667,193.163333 126.259333,192.76 127.462,192.76 C129.222,192.76 130.102,193.647333 130.102,195.422 L130.102,195.422 L130.102,195.686 L129.376,195.686 C128.76,195.686 128.081667,195.715333 127.341,195.774 C126.600333,195.832667 125.903667,195.979333 125.251,196.214 C124.598333,196.448667 124.055667,196.804333 123.623,197.281 C123.190333,197.757667 122.974,198.414 122.974,199.25 C122.974,199.748667 123.073,200.185 123.271,200.559 C123.469,200.933 123.733,201.248333 124.063,201.505 C124.393,201.761667 124.770667,201.952333 125.196,202.077 C125.621333,202.201667 126.061333,202.264 126.516,202.264 Z M126.978,200.944 C126.684667,200.944 126.395,200.911 126.109,200.845 C125.823,200.779 125.562667,200.669 125.328,200.515 C125.093333,200.361 124.906333,200.163 124.767,199.921 C124.627667,199.679 124.558,199.389333 124.558,199.052 C124.558,198.538667 124.737667,198.135333 125.097,197.842 C125.456333,197.548667 125.889,197.332333 126.395,197.193 C126.901,197.053667 127.429,196.965667 127.979,196.929 C128.529,196.892333 128.987333,196.874 129.354,196.874 L129.354,196.874 L130.102,196.874 L130.102,197.622 C130.102,198.076667 130.039667,198.505667 129.915,198.909 C129.790333,199.312333 129.596,199.664333 129.332,199.965 C129.068,200.265667 128.741667,200.504 128.353,200.68 C127.964333,200.856 127.506,200.944 126.978,200.944 Z M137.487714,202 L137.487714,185.368 L136.035714,185.368 L136.035714,202 L137.487714,202 Z M145.225429,202.264 C145.988095,202.264 146.640762,202.139333 147.183429,201.89 L147.183429,201.89 L147.117429,200.548 C146.897429,200.665333 146.655429,200.760667 146.391429,200.834 C146.127429,200.907333 145.870762,200.944 145.621429,200.944 C145.401429,200.944 145.199762,200.918333 145.016429,200.867 C144.833095,200.815667 144.675429,200.724 144.543429,200.592 C144.411429,200.46 144.308762,200.273 144.235429,200.031 C144.162095,199.789 144.125429,199.477333 144.125429,199.096 L144.125429,199.096 L144.125429,193.024 L147.095429,193.024 L147.095429,191.704 L144.125429,191.704 L144.125429,188.8 L142.673429,188.8 L142.673429,191.704 L140.495429,191.704 L140.495429,193.024 L142.673429,193.024 L142.673429,199.514 C142.673429,200.086 142.754095,200.548 142.915429,200.9 C143.076762,201.252 143.282095,201.530667 143.531429,201.736 C143.780762,201.941333 144.055762,202.080667 144.356429,202.154 C144.657095,202.227333 144.946762,202.264 145.225429,202.264 Z M151.313143,202 L151.313143,196.72 C151.313143,195.781333 151.45981,195.048 151.753143,194.52 C152.046476,193.992 152.380143,193.596 152.754143,193.332 C153.128143,193.068 153.48381,192.906667 153.821143,192.848 C154.158476,192.789333 154.36381,192.76 154.437143,192.76 C155.50781,192.76 156.241143,193.064333 156.637143,193.673 C157.033143,194.281667 157.231143,195.158 157.231143,196.302 L157.231143,196.302 L157.231143,202 L158.683143,202 L158.683143,195.466 C158.683143,194.175333 158.36781,193.181667 157.737143,192.485 C157.106476,191.788333 156.131143,191.44 154.811143,191.44 C154.47381,191.44 154.13281,191.487667 153.788143,191.583 C153.443476,191.678333 153.117143,191.810333 152.809143,191.979 C152.501143,192.147667 152.222476,192.349333 151.973143,192.584 C151.72381,192.818667 151.518476,193.075333 151.357143,193.354 L151.357143,193.354 L151.313143,193.354 L151.313143,185.368 L149.861143,185.368 L149.861143,202 L151.313143,202 Z M171.892571,202 L171.892571,194.762 L174.840571,194.762 C176.424571,194.762 177.674905,194.413667 178.591571,193.717 C179.508238,193.020333 179.966571,191.975333 179.966571,190.582 C179.966571,189.188667 179.508238,188.147333 178.591571,187.458 C177.674905,186.768667 176.424571,186.424 174.840571,186.424 L174.840571,186.424 L170.308571,186.424 L170.308571,202 L171.892571,202 Z M174.444571,193.31 L171.892571,193.31 L171.892571,187.876 L174.444571,187.876 C175.148571,187.876 175.746238,187.945667 176.237571,188.085 C176.728905,188.224333 177.121238,188.418667 177.414571,188.668 C177.707905,188.917333 177.920571,189.207 178.052571,189.537 C178.184571,189.867 178.250571,190.215333 178.250571,190.582 C178.250571,190.963333 178.184571,191.319 178.052571,191.649 C177.920571,191.979 177.707905,192.265 177.414571,192.507 C177.121238,192.749 176.728905,192.943333 176.237571,193.09 C175.746238,193.236667 175.148571,193.31 174.444571,193.31 L174.444571,193.31 Z M186.208286,202.264 C187.044286,202.264 187.751952,202.113667 188.331286,201.813 C188.910619,201.512333 189.412952,201.017333 189.838286,200.328 L189.838286,200.328 L189.882286,200.328 C189.882286,200.606667 189.893286,200.892667 189.915286,201.186 C189.937286,201.479333 189.970286,201.750667 190.014286,202 L190.014286,202 L191.422286,202 C191.378286,201.721333 191.337952,201.365667 191.301286,200.933 C191.264619,200.500333 191.246286,200.086 191.246286,199.69 L191.246286,199.69 L191.246286,195.092 C191.246286,194.461333 191.143619,193.918667 190.938286,193.464 C190.732952,193.009333 190.461619,192.631667 190.124286,192.331 C189.786952,192.030333 189.387286,191.806667 188.925286,191.66 C188.463286,191.513333 187.982952,191.44 187.484286,191.44 C185.548286,191.44 184.096286,191.938667 183.128286,192.936 L183.128286,192.936 L184.008286,193.97 C184.902952,193.163333 185.951619,192.76 187.154286,192.76 C188.914286,192.76 189.794286,193.647333 189.794286,195.422 L189.794286,195.422 L189.794286,195.686 L189.068286,195.686 C188.452286,195.686 187.773952,195.715333 187.033286,195.774 C186.292619,195.832667 185.595952,195.979333 184.943286,196.214 C184.290619,196.448667 183.747952,196.804333 183.315286,197.281 C182.882619,197.757667 182.666286,198.414 182.666286,199.25 C182.666286,199.748667 182.765286,200.185 182.963286,200.559 C183.161286,200.933 183.425286,201.248333 183.755286,201.505 C184.085286,201.761667 184.462952,201.952333 184.888286,202.077 C185.313619,202.201667 185.753619,202.264 186.208286,202.264 Z M186.670286,200.944 C186.376952,200.944 186.087286,200.911 185.801286,200.845 C185.515286,200.779 185.254952,200.669 185.020286,200.515 C184.785619,200.361 184.598619,200.163 184.459286,199.921 C184.319952,199.679 184.250286,199.389333 184.250286,199.052 C184.250286,198.538667 184.429952,198.135333 184.789286,197.842 C185.148619,197.548667 185.581286,197.332333 186.087286,197.193 C186.593286,197.053667 187.121286,196.965667 187.671286,196.929 C188.221286,196.892333 188.679619,196.874 189.046286,196.874 L189.046286,196.874 L189.794286,196.874 L189.794286,197.622 C189.794286,198.076667 189.731952,198.505667 189.607286,198.909 C189.482619,199.312333 189.288286,199.664333 189.024286,199.965 C188.760286,200.265667 188.433952,200.504 188.045286,200.68 C187.656619,200.856 187.198286,200.944 186.670286,200.944 Z M197.004,202 L197.004,196.192 C197.004,195.84 197.066333,195.473333 197.191,195.092 C197.315667,194.710667 197.51,194.355 197.774,194.025 C198.038,193.695 198.368,193.423667 198.764,193.211 C199.16,192.998333 199.636667,192.892 200.194,192.892 C200.560667,192.892 200.839333,192.928667 201.03,193.002 L201.03,193.002 L201.316,191.572 C201.008,191.484 200.648667,191.44 200.238,191.44 C199.783333,191.44 199.376333,191.502333 199.017,191.627 C198.657667,191.751667 198.342333,191.916667 198.071,192.122 C197.799667,192.327333 197.568667,192.558333 197.378,192.815 C197.187333,193.071667 197.040667,193.339333 196.938,193.618 L196.938,193.618 L196.894,193.618 L196.894,191.704 L195.464,191.704 C195.478667,192.452 195.497,193.060667 195.519,193.53 C195.541,193.999333 195.552,194.461333 195.552,194.916 L195.552,194.916 L195.552,202 L197.004,202 Z M206.941714,202.264 C207.704381,202.264 208.357048,202.139333 208.899714,201.89 L208.899714,201.89 L208.833714,200.548 C208.613714,200.665333 208.371714,200.760667 208.107714,200.834 C207.843714,200.907333 207.587048,200.944 207.337714,200.944 C207.117714,200.944 206.916048,200.918333 206.732714,200.867 C206.549381,200.815667 206.391714,200.724 206.259714,200.592 C206.127714,200.46 206.025048,200.273 205.951714,200.031 C205.878381,199.789 205.841714,199.477333 205.841714,199.096 L205.841714,199.096 L205.841714,193.024 L208.811714,193.024 L208.811714,191.704 L205.841714,191.704 L205.841714,188.8 L204.389714,188.8 L204.389714,191.704 L202.211714,191.704 L202.211714,193.024 L204.389714,193.024 L204.389714,199.514 C204.389714,200.086 204.470381,200.548 204.631714,200.9 C204.793048,201.252 204.998381,201.530667 205.247714,201.736 C205.497048,201.941333 205.772048,202.080667 206.072714,202.154 C206.373381,202.227333 206.663048,202.264 206.941714,202.264 Z M213.029429,202 L213.029429,196.72 C213.029429,195.781333 213.176095,195.048 213.469429,194.52 C213.762762,193.992 214.096429,193.596 214.470429,193.332 C214.844429,193.068 215.200095,192.906667 215.537429,192.848 C215.874762,192.789333 216.080095,192.76 216.153429,192.76 C217.224095,192.76 217.957429,193.064333 218.353429,193.673 C218.749429,194.281667 218.947429,195.158 218.947429,196.302 L218.947429,196.302 L218.947429,202 L220.399429,202 L220.399429,195.466 C220.399429,194.175333 220.084095,193.181667 219.453429,192.485 C218.822762,191.788333 217.847429,191.44 216.527429,191.44 C216.190095,191.44 215.849095,191.487667 215.504429,191.583 C215.159762,191.678333 214.833429,191.810333 214.525429,191.979 C214.217429,192.147667 213.938762,192.349333 213.689429,192.584 C213.440095,192.818667 213.234762,193.075333 213.073429,193.354 L213.073429,193.354 L213.029429,193.354 C213.029429,193.075333 213.025762,192.800333 213.018429,192.529 C213.011095,192.257667 212.992762,191.982667 212.963429,191.704 L212.963429,191.704 L211.467429,191.704 C211.496762,192.085333 211.522429,192.488667 211.544429,192.914 C211.566429,193.339333 211.577429,193.691333 211.577429,193.97 L211.577429,193.97 L211.577429,202 L213.029429,202 Z M229.391143,202.264 C230.24181,202.264 231.037476,202.095333 231.778143,201.758 C232.51881,201.420667 233.197143,200.863333 233.813143,200.086 L233.813143,200.086 L232.691143,199.162 C232.39781,199.631333 231.96881,200.045667 231.404143,200.405 C230.839476,200.764333 230.168476,200.944 229.391143,200.944 C228.87781,200.944 228.401143,200.848667 227.961143,200.658 C227.521143,200.467333 227.132476,200.207 226.795143,199.877 C226.45781,199.547 226.186476,199.154667 225.981143,198.7 C225.77581,198.245333 225.651143,197.761333 225.607143,197.248 L225.607143,197.248 L234.187143,197.248 L234.187143,196.588 C234.187143,195.884 234.077143,195.220333 233.857143,194.597 C233.637143,193.973667 233.318143,193.431 232.900143,192.969 C232.482143,192.507 231.965143,192.136667 231.349143,191.858 C230.733143,191.579333 230.036476,191.44 229.259143,191.44 C228.52581,191.44 227.84381,191.575667 227.213143,191.847 C226.582476,192.118333 226.032476,192.496 225.563143,192.98 C225.09381,193.464 224.727143,194.036 224.463143,194.696 C224.199143,195.356 224.067143,196.074667 224.067143,196.852 C224.067143,197.629333 224.20281,198.348 224.474143,199.008 C224.745476,199.668 225.11581,200.24 225.585143,200.724 C226.054476,201.208 226.615476,201.585667 227.268143,201.857 C227.92081,202.128333 228.628476,202.264 229.391143,202.264 Z M232.603143,196.06 L225.651143,196.06 C225.651143,195.634667 225.750143,195.224 225.948143,194.828 C226.146143,194.432 226.410143,194.08 226.740143,193.772 C227.070143,193.464 227.455143,193.218333 227.895143,193.035 C228.335143,192.851667 228.78981,192.76 229.259143,192.76 C230.315143,192.76 231.136476,193.064333 231.723143,193.673 C232.30981,194.281667 232.603143,195.077333 232.603143,196.06 L232.603143,196.06 Z M239.218857,202 L239.218857,196.192 C239.218857,195.84 239.28119,195.473333 239.405857,195.092 C239.530524,194.710667 239.724857,194.355 239.988857,194.025 C240.252857,193.695 240.582857,193.423667 240.978857,193.211 C241.374857,192.998333 241.851524,192.892 242.408857,192.892 C242.775524,192.892 243.05419,192.928667 243.244857,193.002 L243.244857,193.002 L243.530857,191.572 C243.222857,191.484 242.863524,191.44 242.452857,191.44 C241.99819,191.44 241.59119,191.502333 241.231857,191.627 C240.872524,191.751667 240.55719,191.916667 240.285857,192.122 C240.014524,192.327333 239.783524,192.558333 239.592857,192.815 C239.40219,193.071667 239.255524,193.339333 239.152857,193.618 L239.152857,193.618 L239.108857,193.618 L239.108857,191.704 L237.678857,191.704 C237.693524,192.452 237.711857,193.060667 237.733857,193.53 C237.755857,193.999333 237.766857,194.461333 237.766857,194.916 L237.766857,194.916 L237.766857,202 L239.218857,202 Z" id="YourHealthPartner" fill-opacity="0.564739948" fill="#FFFFFF" fill-rule="nonzero"></path>
                <g id="logo" transform="translate(101.000000, 0.000000)">
                    <path d="M40,84 C49.7711867,84 62.0640769,79.0719425 69.4755232,71.8708506 C74.1928694,67.2873939 78.8975711,59.8415646 79.905517,54.5067021 C80.2990712,52.4236956 79.4449819,49.1573843 77.6826925,47.4716037 C77.0779264,46.8930932 73.8004534,45.3418599 71.0256689,46.4922734 C66.880795,48.2107199 62.8814462,52.903146 60.9980801,54.9407435 C59.3742905,56.6975074 54.6488972,61.0715991 49.2153053,62.9569511 C43.5982383,64.9059654 37.1606423,63.773068 34.6116614,62.9569511 C32.0626805,62.1408343 24.0481564,58.912405 20.1293458,49.4748314 C19.0741675,46.9336718 18.301388,42.2312528 17.9182553,37.2951147 C17.5542881,32.6058965 17.5981823,27.6944583 16.0008504,24.6435818 C13.9669898,20.758943 7.24917197,22.0898804 5.9067556,22.8459251 C2.3667018,24.8396722 0,30.6290879 0,42.0738435 C0,64.8549346 17.5904346,84 40,84 Z" id="Oval" fill="#FFFFFF"></path>
                    <circle id="Oval" fill="#FFFFFF" cx="41" cy="44" r="11"></circle>
                    <path d="M82,39 C82,17.4608948 64.7677149,0 43.510614,0 C32.2070429,0 22.0415426,4.93730284 15,12.7996761" id="Oval" stroke="url(#linearGradient-1)" stroke-width="8" stroke-linecap="round"></path>
                </g>
            </g>
        </g>
    </g>
</svg>