<svg xmlns="http://www.w3.org/2000/svg" xmlns:xlink="http://www.w3.org/1999/xlink" width="40" height="40" viewBox="0 0 40 40"><defs><clipPath id="a"><rect width="40" height="40" transform="translate(1106 242)" fill="#fff" stroke="#707070" stroke-width="1"/></clipPath></defs><g transform="translate(-1106 -242)" clip-path="url(#a)"><g transform="translate(1116.717 252.717)"><path d="M16.174,1.451H14.506V.58a.58.58,0,0,0-1.16,0v.87H5.222V.58a.58.58,0,1,0-1.16,0v.87H2.394A2.4,2.4,0,0,0,0,3.844v12.33a2.4,2.4,0,0,0,2.394,2.394H16.174a2.4,2.4,0,0,0,2.394-2.394V3.844A2.4,2.4,0,0,0,16.174,1.451ZM2.394,2.611H4.062v.58a.58.58,0,1,0,1.16,0v-.58h8.123v.58a.58.58,0,0,0,1.16,0v-.58h1.668a1.234,1.234,0,0,1,1.233,1.233V5.222H1.16V3.844A1.234,1.234,0,0,1,2.394,2.611Zm13.781,14.8H2.394A1.234,1.234,0,0,1,1.16,16.174V6.383H17.407v9.792A1.234,1.234,0,0,1,16.174,17.407Z" transform="translate(0)" fill="#555" stroke="#555" stroke-width="0.5"/></g></g></svg>