<svg xmlns="http://www.w3.org/2000/svg" xmlns:xlink="http://www.w3.org/1999/xlink" width="40.001" height="40" viewBox="0 0 40.001 40"><defs><style>.a{fill:none;}.b{clip-path:url(#a);}</style><clipPath id="a"><path class="a" d="M29.867,40h0c-.23-.038-.464-.075-.69-.11-.5-.077-1.013-.157-1.514-.263a28.773,28.773,0,0,1-7.736-3.154A41.229,41.229,0,0,1,9.739,28.535,40.492,40.492,0,0,1,1.263,15.381,16.99,16.99,0,0,1,.019,9.752a6.759,6.759,0,0,1,1.866-5.18c.253-.258.508-.522.754-.777C3.492,2.912,4.372,2,5.311,1.191A4.386,4.386,0,0,1,8.159,0a4.2,4.2,0,0,1,2.867,1.266c1.8,1.68,3.608,3.5,5.528,5.558a3.764,3.764,0,0,1,0,5.138c-.636.718-1.33,1.4-2,2.069-.326.323-.661.655-.987.987-.046.043-.093.084-.148.131s-.121.1-.2.179A28.979,28.979,0,0,0,24.682,26.706l2.381-2.395a6.043,6.043,0,0,1,2.144-1.6,3.612,3.612,0,0,1,3.92.693c1.974,1.869,3.94,3.833,5.844,5.837a3.79,3.79,0,0,1,.1,5.084c-1.3,1.529-2.757,2.959-3.877,4.033A6.026,6.026,0,0,1,31.721,39.9a2.248,2.248,0,0,0-.274.08ZM8.146,2.448a2.118,2.118,0,0,0-1.451.744c-.291.287-.577.566-.854.835-.7.683-1.367,1.329-2.021,2.04a5.314,5.314,0,0,0-1.072,1.6,6.735,6.735,0,0,0-.049,3.92,23.675,23.675,0,0,0,2.092,5.736,39.17,39.17,0,0,0,6.09,8.806A38.567,38.567,0,0,0,26.257,36.693a14.115,14.115,0,0,0,4.2.88v.021c.078,0,.163.007.252.007a4.628,4.628,0,0,0,3.314-1.4c.609-.635,1.238-1.27,1.846-1.885q.446-.45.888-.9a4.086,4.086,0,0,0,.332-.374,1.626,1.626,0,0,0-.048-2.347c-.534-.573-1.1-1.133-1.646-1.675q-.315-.313-.628-.625l-.8-.8-.019-.019c-.7-.7-1.428-1.427-2.153-2.129a1.616,1.616,0,0,0-1.158-.536H30.6a1.627,1.627,0,0,0-1.143.473c-.124.1-.236.213-.354.33l-.07.069q-.531.525-1.059,1.053c-.588.587-1.2,1.192-1.8,1.78a1.823,1.823,0,0,1-2.279.378c-.567-.285-1.154-.58-1.726-.917a29.661,29.661,0,0,1-6.66-5.527,23.878,23.878,0,0,1-4.407-6.23,2.016,2.016,0,0,1,.536-2.806l.292-.283c.9-.874,1.836-1.777,2.711-2.7a1.521,1.521,0,0,0,.038-2.236c-.123-.143-.253-.278-.365-.394L9.6,3.191A2.145,2.145,0,0,0,8.146,2.448Z" transform="translate(0 0)"/></clipPath></defs><g transform="translate(0 0)"><path class="a" d="M29.867,40h0c-.23-.038-.464-.075-.69-.11-.5-.077-1.013-.157-1.514-.263a28.773,28.773,0,0,1-7.736-3.154A41.229,41.229,0,0,1,9.739,28.535,40.492,40.492,0,0,1,1.263,15.381,16.99,16.99,0,0,1,.019,9.752a6.759,6.759,0,0,1,1.866-5.18c.253-.258.508-.522.754-.777C3.492,2.912,4.372,2,5.311,1.191A4.386,4.386,0,0,1,8.159,0a4.2,4.2,0,0,1,2.867,1.266c1.8,1.68,3.608,3.5,5.528,5.558a3.764,3.764,0,0,1,0,5.138c-.636.718-1.33,1.4-2,2.069-.326.323-.661.655-.987.987-.046.043-.093.084-.148.131s-.121.1-.2.179A28.979,28.979,0,0,0,24.682,26.706l2.381-2.395a6.043,6.043,0,0,1,2.144-1.6,3.612,3.612,0,0,1,3.92.693c1.974,1.869,3.94,3.833,5.844,5.837a3.79,3.79,0,0,1,.1,5.084c-1.3,1.529-2.757,2.959-3.877,4.033A6.026,6.026,0,0,1,31.721,39.9a2.248,2.248,0,0,0-.274.08ZM8.146,2.448a2.118,2.118,0,0,0-1.451.744c-.291.287-.577.566-.854.835-.7.683-1.367,1.329-2.021,2.04a5.314,5.314,0,0,0-1.072,1.6,6.735,6.735,0,0,0-.049,3.92,23.675,23.675,0,0,0,2.092,5.736,39.17,39.17,0,0,0,6.09,8.806A38.567,38.567,0,0,0,26.257,36.693a14.115,14.115,0,0,0,4.2.88v.021c.078,0,.163.007.252.007a4.628,4.628,0,0,0,3.314-1.4c.609-.635,1.238-1.27,1.846-1.885q.446-.45.888-.9a4.086,4.086,0,0,0,.332-.374,1.626,1.626,0,0,0-.048-2.347c-.534-.573-1.1-1.133-1.646-1.675q-.315-.313-.628-.625l-.8-.8-.019-.019c-.7-.7-1.428-1.427-2.153-2.129a1.616,1.616,0,0,0-1.158-.536H30.6a1.627,1.627,0,0,0-1.143.473c-.124.1-.236.213-.354.33l-.07.069q-.531.525-1.059,1.053c-.588.587-1.2,1.192-1.8,1.78a1.823,1.823,0,0,1-2.279.378c-.567-.285-1.154-.58-1.726-.917a29.661,29.661,0,0,1-6.66-5.527,23.878,23.878,0,0,1-4.407-6.23,2.016,2.016,0,0,1,.536-2.806l.292-.283c.9-.874,1.836-1.777,2.711-2.7a1.521,1.521,0,0,0,.038-2.236c-.123-.143-.253-.278-.365-.394L9.6,3.191A2.145,2.145,0,0,0,8.146,2.448Z" transform="translate(0 0)"/><g class="b"><path d="M0,60H60V0H0Z" transform="translate(-10 -10)"/></g></g></svg>