<svg xmlns="http://www.w3.org/2000/svg" width="61" height="61" viewBox="0 0 61 61">
  <g id="Group_14315" data-name="Group 14315" transform="translate(-922 -352)">
    <g id="Ellipse_87" data-name="Ellipse 87" transform="translate(922 352)" fill="#000" stroke="#707070" stroke-width="1">
      <circle cx="30.5" cy="30.5" r="30.5" stroke="none"/>
      <circle cx="30.5" cy="30.5" r="30" fill="none"/>
    </g>
    <g id="Icon_feather-camera" data-name="Icon feather-camera" transform="translate(938.147 370.39)">
      <path id="Path_46293" data-name="Path 46293" d="M31.1,26.029a2.691,2.691,0,0,1-2.691,2.691H4.191A2.691,2.691,0,0,1,1.5,26.029v-14.8A2.691,2.691,0,0,1,4.191,8.537H9.574L12.265,4.5h8.074l2.691,4.037h5.382A2.691,2.691,0,0,1,31.1,11.228Z" transform="translate(-1.5 -4.5)" fill="none" stroke="#fff" stroke-linecap="round" stroke-linejoin="round" stroke-width="3"/>
      <path id="Path_46294" data-name="Path 46294" d="M22.765,18.882A5.382,5.382,0,1,1,17.382,13.5,5.382,5.382,0,0,1,22.765,18.882Z" transform="translate(-2.581 -5.426)" fill="none" stroke="#fff" stroke-linecap="round" stroke-linejoin="round" stroke-width="3"/>
    </g>
  </g>
</svg>
