<?xml version="1.0" encoding="UTF-8"?>
<svg width="38px" height="46px" viewBox="0 0 38 46" version="1.1" xmlns="http://www.w3.org/2000/svg" xmlns:xlink="http://www.w3.org/1999/xlink">
    <title>case-sheet</title>
    <g id="Page-1" stroke="none" stroke-width="1" fill="none" fill-rule="evenodd">
        <g id="My-Appointments---WebApp---Physician-Assistant-View" transform="translate(-1856.000000, -240.000000)" fill="#000000" fill-rule="nonzero" stroke="#000000" stroke-width="0.5">
            <g id="case-sheet" transform="translate(1857.000000, 241.000000)">
                <path d="M0,32.2875 L0,35.4375 C0,36.46125 0.626086957,37.3275 1.56521739,37.6425 L1.56521739,40.1625 C1.56521739,42.3675 3.28695652,44.1 5.47826087,44.1 L32.0869565,44.1 C34.2782609,44.1 36,42.3675 36,40.1625 L36,3.9375 C36,1.7325 34.2782609,0 32.0869565,0 L5.47826087,0 C3.28695652,0 1.56521739,1.7325 1.56521739,3.9375 L1.56521739,6.4575 C0.626086957,6.7725 0,7.7175 0,8.6625 L0,11.8125 C0,12.83625 0.626086957,13.7025 1.56521739,14.0175 L1.56521739,30.0825 C0.626086957,30.3975 0,31.26375 0,32.2875 Z M1.56521739,32.2875 C1.56521739,31.815 1.87826087,31.5 2.34782609,31.5 L4.69565217,31.5 L4.69565217,36.225 L2.34782609,36.225 C1.87826087,36.225 1.56521739,35.91 1.56521739,35.4375 L1.56521739,32.2875 Z M5.47826087,1.575 L32.0869565,1.575 C33.4173913,1.575 34.4347826,2.59875 34.4347826,3.9375 L34.4347826,40.1625 C34.4347826,41.50125 33.4173913,42.525 32.0869565,42.525 L32.0869565,42.525 L5.47826087,42.525 C4.14782609,42.525 3.13043478,41.50125 3.13043478,40.1625 L3.13043478,40.1625 L3.13043478,37.8 L5.47826087,37.8 C5.94782609,37.8 6.26086957,37.485 6.26086957,37.0125 L6.26086957,30.7125 C6.26086957,30.24 5.94782609,29.925 5.47826087,29.925 L3.13043478,29.925 L3.13043478,14.175 L5.47826087,14.175 C5.94782609,14.175 6.26086957,13.86 6.26086957,13.3875 L6.26086957,7.0875 C6.26086957,6.615 5.94782609,6.3 5.47826087,6.3 L3.13043478,6.3 L3.13043478,3.9375 C3.13043478,2.59875 4.14782609,1.575 5.47826087,1.575 Z M1.56521739,8.6625 C1.56521739,8.19 1.87826087,7.875 2.34782609,7.875 L4.69565217,7.875 L4.69565217,12.6 L2.34782609,12.6 C1.87826087,12.6 1.56521739,12.285 1.56521739,11.8125 L1.56521739,8.6625 Z" id="Shape"></path>
                <g id="noun_Health_2098225" transform="translate(6.800000, 12.700000)">
                    <path d="M18.3666667,0.3 C15.3888889,0.3 13.5277778,2.13397833 12.6972222,3.20131579 C11.8583333,2.13939628 9.98055556,0.3 7.03333333,0.3 C3.075,0.3 0.2,3.33947368 0.2,7.52755418 C0.2,7.87430341 0.338888889,16.0906347 12.4694444,21.2539474 C12.5444444,21.2864551 12.6222222,21.3 12.7,21.3 C12.7777778,21.3 12.8583333,21.2837461 12.9305556,21.2539474 C25.0611111,16.0879257 25.2,7.87430341 25.2,7.5248452 C25.2,3.33947368 22.325,0.3 18.3666667,0.3 Z M7.03333333,1.42693498 C10.4166667,1.42693498 12.1222222,4.35534056 12.1944444,4.47995356 C12.4,4.8375387 13.0083333,4.8375387 13.2083333,4.47724458 C13.2777778,4.3499226 14.9583333,1.42693498 18.3666667,1.42693498 C21.6555556,1.42693498 24.0444444,3.99233746 24.0444444,7.52755418 C24.0444444,7.55735294 24.025,8.63010836 23.425,10.2202786 L15.2444444,10.2202786 C15.0027778,10.2202786 14.7861111,10.3665635 14.7027778,10.5859907 L13.7388889,13.1134675 L12.4055556,6.19744582 C12.3583333,5.94821981 12.1444444,5.76130031 11.8861111,5.73962848 C11.6111111,5.71795666 11.3861111,5.86965944 11.2944444,6.10534056 L9.73888889,10.1904799 L1.93611111,10.1904799 C1.38333333,8.68157895 1.35555556,7.63862229 1.35555556,7.5248452 C1.35555556,3.99233746 3.74444444,1.42693498 7.03333333,1.42693498 Z M12.7,20.1215944 C6.50277778,17.426161 3.69166667,13.9424149 2.41666667,11.3174149 L10.1416667,11.3174149 C10.3833333,11.3174149 10.6,11.17113 10.6833333,10.9489938 L11.6527778,8.3998452 L12.9861111,15.3104489 C13.0333333,15.5596749 13.2472222,15.7465944 13.5055556,15.7682663 C13.5222222,15.7709752 13.5388889,15.7709752 13.5555556,15.7709752 C13.7944444,15.7709752 14.0138889,15.6273994 14.0972222,15.4052632 L15.6472222,11.3445046 L22.9361111,11.3445046 C21.6361111,13.9749226 18.8194444,17.4586687 12.7,20.1215944 Z" id="Shape"></path>
                </g>
            </g>
        </g>
    </g>
</svg>