<svg xmlns="http://www.w3.org/2000/svg" width="34" height="35" viewBox="0 0 34 35">
    <g fill="none" fill-rule="evenodd">
        <g>
            <g transform="translate(-1753 -253) translate(1754 254)">
                <ellipse cx="16" cy="16.5" fill="#FFF" stroke="#4A90E2" rx="16" ry="16.5"/>
                <g fill="#2067B9" fill-rule="nonzero">
                    <g>
                        <path d="M10.045 2.8c-.045-.044-.107-.07-.171-.07-.064 0-.126.026-.171.07C.446 11.964.975 11.403.923 11.568l-.87 2.681c-.055.171-.01.358.119.485.128.127.317.172.49.117 2.935-.931 2.787-.863 2.902-.977l8.663-8.574c.045-.045.07-.106.07-.17 0-.063-.025-.124-.07-.168L10.045 2.8zM11.98.547l-1.251 1.238c-.095.094-.095.245 0 .339l2.18 2.16c.095.093.248.093.343 0l1.25-1.238c.337-.33.525-.781.524-1.25 0-1.561-1.921-2.362-3.047-1.249z" transform="translate(9 9)"/>
                    </g>
                </g>
            </g>
        </g>
    </g>
</svg>
