<?xml version="1.0" encoding="UTF-8"?>
<svg width="56px" height="50px" viewBox="0 0 56 50" version="1.1" xmlns="http://www.w3.org/2000/svg" xmlns:xlink="http://www.w3.org/1999/xlink">
    <title>chat</title>
    <defs>
        <path d="M47.765,0 C49.949,0 52.044,0.868 53.588,2.412 C55.132,3.956 56,6.051 56,8.235 L56,8.235 L56,29.647 C56,31.831 55.132,33.926 53.588,35.47 C52.044,37.015 49.949,37.882 47.765,37.882 L47.765,37.882 L23.734,37.882 L12.699,48.934 C12.388,49.242 11.967,49.414 11.529,49.4123754 C11.313,49.417 11.099,49.372 10.904,49.28 C10.288,49.027 9.886,48.43 9.882,47.765 L9.882,47.765 L9.882,37.882 L8.235,37.882 C3.687,37.882 0,34.195 0,29.647 L0,29.647 L0,8.235 C0,3.687 3.687,0 8.235,0 L8.235,0 L47.765,0 Z M47.765,3.294 L8.235,3.294 C5.506,3.294 3.294,5.506 3.294,8.235 L3.294,8.235 L3.294,29.647 C3.294,32.376 5.506,34.588 8.235,34.588 L8.235,34.588 L11.529,34.588 C12.439,34.588 13.176,35.326 13.176,36.235 L13.176,36.235 L13.176,43.795 L21.889,35.066 C22.2,34.758 22.621,34.586 23.059,34.588 L23.059,34.588 L47.765,34.588 C50.494,34.588 52.706,32.376 52.706,29.647 L52.706,29.647 L52.706,8.235 C52.706,5.506 50.494,3.294 47.765,3.294 L47.765,3.294 Z" id="path-1"></path>
        <path d="M44.471,23.059 C45.38,23.059 46.118,23.796 46.118,24.706 C46.118,25.616 45.38,26.353 44.471,26.353 L44.471,26.353 L11.529,26.353 C10.62,26.353 9.882,25.616 9.882,24.706 C9.882,23.796 10.62,23.059 11.529,23.059 L11.529,23.059 L44.471,23.059 Z" id="path-3"></path>
        <path d="M44.471,17.059 C45.38,17.059 46.118,17.796 46.118,18.706 C46.118,19.616 45.38,20.353 44.471,20.353 L44.471,20.353 L11.529,20.353 C10.62,20.353 9.882,19.616 9.882,18.706 C9.882,17.796 10.62,17.059 11.529,17.059 L11.529,17.059 L44.471,17.059 Z" id="path-5"></path>
        <path d="M44.471,11.059 C45.38,11.059 46.118,11.796 46.118,12.706 C46.118,13.616 45.38,14.353 44.471,14.353 L44.471,14.353 L11.529,14.353 C10.62,14.353 9.882,13.616 9.882,12.706 C9.882,11.796 10.62,11.059 11.529,11.059 L11.529,11.059 L44.471,11.059 Z" id="path-7"></path>
    </defs>
    <g id="Page-1" stroke="none" stroke-width="1" fill="none" fill-rule="evenodd">
        <g id="VideoCallWithPatientDetails---iPad---Doctor" transform="translate(-2118.000000, -120.000000)">
            <g id="chat" transform="translate(2118.000000, 120.000000)">
                <mask id="mask-2" fill="white">
                    <use xlink:href="#path-1"></use>
                </mask>
                <g id="Clip-1756"></g>
                <polygon id="Fill-1755" fill="#000000" mask="url(#mask-2)" points="-10 59.413 66 59.413 66 -10 -10 -10"></polygon>
                <mask id="mask-4" fill="white">
                    <use xlink:href="#path-3"></use>
                </mask>
                <use id="Clip-1753" fill="#000000" xlink:href="#path-3"></use>
                <mask id="mask-6" fill="white">
                    <use xlink:href="#path-5"></use>
                </mask>
                <use id="Clip-1753" fill="#000000" xlink:href="#path-5"></use>
                <mask id="mask-8" fill="white">
                    <use xlink:href="#path-7"></use>
                </mask>
                <use id="Clip-1753" fill="#000000" xlink:href="#path-7"></use>
            </g>
        </g>
    </g>
</svg>