<svg xmlns="http://www.w3.org/2000/svg" xmlns:xlink="http://www.w3.org/1999/xlink" width="45" height="45" viewBox="0 0 45 45">
  <defs>
    <clipPath id="clip-path">
      <rect id="Rectangle_16869" data-name="Rectangle 16869" width="45" height="45" transform="translate(-1293 -10544)" fill="#fff" stroke="#707070" stroke-width="1"/>
    </clipPath>
  </defs>
  <g id="Mask_Group_85" data-name="Mask Group 85" transform="translate(1293 10544)" clip-path="url(#clip-path)">
    <path id="writing" d="M35.093,27.859a.63.63,0,0,0-.869.195A9.213,9.213,0,0,1,25.982,34.5H9.773A8.523,8.523,0,0,1,1.26,25.982V10.041c.228-2.314-.282-.63-.63-.63a.63.63,0,0,0-.63.63v15.94a9.784,9.784,0,0,0,9.773,9.774H25.982a10.189,10.189,0,0,0,9.565-7.441l-.454-.456ZM28.509,13.6l-4.8,4.8a.63.63,0,1,0,.891.891l4.8-4.8a.63.63,0,1,0-.891-.891ZM42.09,3.108l-2.2-2.2a3.12,3.12,0,0,0-4.408,0L33.207,3.191A9.714,9.714,0,0,0,25.982,0H9.773A9.792,9.792,0,0,0,3.592,2.2C1.879,3.6.162,5.783.014,10.02a.63.63,0,0,0,.484.748.661.661,0,0,0,.133.014.63.63,0,0,0,.615-.5A9.53,9.53,0,0,1,4.389,3.178,8.529,8.529,0,0,1,9.773,1.259H25.982a8.462,8.462,0,0,1,6.333,2.824l-6.7,6.7H8.051a.63.63,0,1,0,0,1.26H24.357l-3.02,3.02H8.051a.63.63,0,1,0,0,1.26H20.077l-3.907,3.907a14.162,14.162,0,0,0-2.753,3.881l-1.793,3.725A2.663,2.663,0,0,0,14,31.647a2.677,2.677,0,0,0,1.162-.269l1.807-.87h0l1.917-.922a14.171,14.171,0,0,0,3.881-2.753L34.5,15.109V25.982a8.552,8.552,0,0,1-.246,2.039c.956.4.124.679.462.762a.628.628,0,0,0,.151.018.724.724,0,0,0,.684-.486,9.7,9.7,0,0,0,.209-2.333V13.849L37.507,12.1h0L42.09,7.516a3.121,3.121,0,0,0,0-4.408ZM14.621,30.243a1.395,1.395,0,0,1-1.862-1.862l.531-1.1a15.6,15.6,0,0,1,2.435,2.435Zm3.725-1.793-1.458.7a16.869,16.869,0,0,0-3.038-3.038l.7-1.458a12.9,12.9,0,0,1,1.813-2.782l4.764,4.764a12.91,12.91,0,0,1-2.782,1.813Zm3.7-2.674-4.822-4.822L31.349,6.831l4.822,4.822ZM37.062,10.762,32.24,5.94,33.8,4.385l4.822,4.822ZM41.2,6.625,39.508,8.316,34.686,3.494,36.377,1.8A1.859,1.859,0,0,1,39,1.8L41.2,4a1.859,1.859,0,0,1,0,2.626ZM8.051,7.762H27.7a.63.63,0,0,0,0-1.26H8.051a.63.63,0,1,0,0,1.26Zm0,0" transform="translate(-1291.999 -10538.999)" fill="#fff" stroke="#fff" stroke-width="0.8"/>
  </g>
</svg>
