<svg xmlns="http://www.w3.org/2000/svg" width="281" height="281" viewBox="0 0 281 281">
    <g fill="none" fill-rule="evenodd" transform="translate(3 3)">
        <circle cx="137.5" cy="137.5" r="137.5" stroke="#FFF" stroke-width="5"/>
        <path fill="#FFF" fill-rule="nonzero" d="M213.235 98.24L119.1 191.2c-1.984 1.96-4.536 2.8-7.372 2.8-2.552 0-5.387-.84-7.372-2.8l-34.591-34.16c-3.687-3.64-3.687-9.8 0-13.44 1.984-1.96 4.253-2.8 6.804-2.8 2.552 0 5.104.84 6.805 2.8l28.354 28 87.898-86.8c1.984-1.96 4.253-2.8 6.805-2.8 2.551 0 5.103.84 6.804 2.8 3.687 3.64 3.687 9.8 0 13.44z"/>
    </g>
</svg>
