<svg xmlns="http://www.w3.org/2000/svg" xmlns:xlink="http://www.w3.org/1999/xlink" width="45" height="45" viewBox="0 0 45 45">
  <defs>
    <clipPath id="clip-path">
      <rect id="Rectangle_16865" data-name="Rectangle 16865" width="45" height="45" transform="translate(62 235)" fill="#fff" stroke="#707070" stroke-width="1"/>
    </clipPath>
  </defs>
  <g id="Mask_Group_81" data-name="Mask Group 81" transform="translate(-62 -235)" clip-path="url(#clip-path)">
    <g id="dashboard" transform="translate(65 238)">
      <path id="Path_8465" data-name="Path 8465" d="M15.781,13.648H2.985A2.989,2.989,0,0,1,0,10.663V2.986A2.989,2.989,0,0,1,2.985,0h12.8a2.989,2.989,0,0,1,2.986,2.985v7.677A2.989,2.989,0,0,1,15.781,13.648ZM2.985,2.559a.427.427,0,0,0-.426.426v7.677a.427.427,0,0,0,.426.427h12.8a.427.427,0,0,0,.427-.427V2.986a.427.427,0,0,0-.427-.426Zm0,0" transform="translate(0 0)" fill="#fff"/>
      <path id="Path_8466" data-name="Path 8466" d="M15.781,237.217H2.985A2.989,2.989,0,0,1,0,234.231V216.318a2.989,2.989,0,0,1,2.985-2.986h12.8a2.989,2.989,0,0,1,2.986,2.986v17.913A2.989,2.989,0,0,1,15.781,237.217Zm-12.8-21.326a.427.427,0,0,0-.426.427v17.913a.427.427,0,0,0,.426.426h12.8a.427.427,0,0,0,.427-.426V216.318a.427.427,0,0,0-.427-.427Zm0,0" transform="translate(0 -198.217)" fill="#fff"/>
      <path id="Path_8467" data-name="Path 8467" d="M293.113,354.98h-12.8A2.989,2.989,0,0,1,277.332,352v-7.677a2.989,2.989,0,0,1,2.986-2.986h12.8a2.989,2.989,0,0,1,2.985,2.986V352A2.989,2.989,0,0,1,293.113,354.98Zm-12.8-11.089a.427.427,0,0,0-.427.427V352a.427.427,0,0,0,.427.426h12.8a.427.427,0,0,0,.426-.426v-7.677a.427.427,0,0,0-.426-.427Zm0,0" transform="translate(-257.099 -315.98)" fill="#fff"/>
      <path id="Path_8468" data-name="Path 8468" d="M293.113,23.885h-12.8a2.989,2.989,0,0,1-2.986-2.986V2.986A2.989,2.989,0,0,1,280.318,0h12.8A2.989,2.989,0,0,1,296.1,2.986V20.9A2.989,2.989,0,0,1,293.113,23.885Zm-12.8-21.326a.427.427,0,0,0-.427.426V20.9a.427.427,0,0,0,.427.427h12.8a.427.427,0,0,0,.426-.427V2.986a.427.427,0,0,0-.426-.426Zm0,0" transform="translate(-257.099 0)" fill="#fff"/>
    </g>
  </g>
</svg>
