<svg xmlns="http://www.w3.org/2000/svg" width="79.862" height="86.839" viewBox="0 0 79.862 86.839"><defs><style>.a{fill:#fff;}.b{fill:#ec1d3c;}</style></defs><g transform="translate(0 0)"><path class="a" d="M36.441-47.784H8.908A8.909,8.909,0,0,0,0-38.876v19.669a4.591,4.591,0,0,0,4.592,4.591H13.8A5.283,5.283,0,0,0,19.084-19.9v-8.516A5.283,5.283,0,0,1,24.367-33.7H34.3a5.282,5.282,0,0,1,5.283,5.283V-19.9a5.283,5.283,0,0,0,5.285,5.283h8.514A5.283,5.283,0,0,1,58.67-9.333V.6a5.282,5.282,0,0,1-5.285,5.283H44.871a5.285,5.285,0,0,0-5.285,5.285v8.516A5.283,5.283,0,0,1,34.3,24.97H24.367a5.284,5.284,0,0,1-5.283-5.283V11.172A5.284,5.284,0,0,0,13.8,5.887H4.592A4.593,4.593,0,0,0,0,10.481V30.148a8.908,8.908,0,0,0,8.908,8.907H36.441A43.42,43.42,0,0,0,79.862-4.363,43.422,43.422,0,0,0,36.441-47.784" transform="translate(0 47.784)"/><path class="b" d="M21.7-28.543c-5.568-.669-10.648,1.776-11.1,7.253C10.135-15.7,12.377-11.667,17.947-11s12.37-1.508,12.816-7.869c.393-5.6-3.5-9.007-9.067-9.675" transform="translate(8.613 63.422)"/></g></svg>