<?xml version="1.0" encoding="UTF-8"?>
<svg width="237px" height="60px" viewBox="0 0 237 60" version="1.1" xmlns="http://www.w3.org/2000/svg" xmlns:xlink="http://www.w3.org/1999/xlink">
    <title>Group 3</title>
    <defs>
        <filter x="-5.5%" y="-28.6%" width="111.0%" height="157.1%" filterUnits="objectBoundingBox" id="filter-1">
            <feOffset dx="0" dy="2" in="SourceAlpha" result="shadowOffsetOuter1"></feOffset>
            <feGaussianBlur stdDeviation="2" in="shadowOffsetOuter1" result="shadowBlurOuter1"></feGaussianBlur>
            <feColorMatrix values="0 0 0 0 0   0 0 0 0 0   0 0 0 0 0  0 0 0 0.5 0" type="matrix" in="shadowBlurOuter1" result="shadowMatrixOuter1"></feColorMatrix>
            <feMerge>
                <feMergeNode in="shadowMatrixOuter1"></feMergeNode>
                <feMergeNode in="SourceGraphic"></feMergeNode>
            </feMerge>
        </filter>
        <linearGradient x1="50%" y1="0%" x2="50%" y2="100%" id="linearGradient-2">
            <stop stop-color="#FFFFFF" offset="0%"></stop>
            <stop stop-color="#DEDEDE" offset="100%"></stop>
        </linearGradient>
        <linearGradient x1="50%" y1="0%" x2="50%" y2="100%" id="linearGradient-3">
            <stop stop-color="#FFFFFF" offset="0%"></stop>
            <stop stop-color="#DEDEDE" offset="100%"></stop>
        </linearGradient>
        <linearGradient x1="50%" y1="0%" x2="50%" y2="100%" id="linearGradient-4">
            <stop stop-color="#FFFFFF" offset="0%"></stop>
            <stop stop-color="#DEDEDE" offset="100%"></stop>
        </linearGradient>
        <linearGradient x1="50%" y1="0%" x2="50%" y2="100%" id="linearGradient-5">
            <stop stop-color="#FFFFFF" offset="0%"></stop>
            <stop stop-color="#DEDEDE" offset="100%"></stop>
        </linearGradient>
        <linearGradient x1="50%" y1="0%" x2="50%" y2="100%" id="linearGradient-6">
            <stop stop-color="#FFFFFF" offset="0%"></stop>
            <stop stop-color="#DEDEDE" offset="100%"></stop>
        </linearGradient>
    </defs>
    <g id="Page-1" stroke="none" stroke-width="1" fill="none" fill-rule="evenodd">
        <g id="Login" transform="translate(-121.000000, -117.000000)">
            <g id="logo_name" transform="translate(66.000000, 120.000000)">
                <g id="Group-3" filter="url(#filter-1)" transform="translate(64.000000, 6.000000)">
                    <path d="M34,41 L41,41 L41,10.204599 L34,10.204599 L34,41 Z M34,3.34099825 C34,2.45113772 34.0093131,1.78231542 34.0294097,1.33712572 C34.0475457,0.891417145 34.1622435,0.567642816 34.3730131,0.36476499 C34.5832925,0.162924903 34.9268959,0.0518869118 35.4062741,0.0311321471 C35.8836916,0.0108962515 36.5821721,0 37.5007352,0 C38.4188082,0 39.1163084,0.0108962515 39.5947063,0.0311321471 C40.072614,0.0518869118 40.4167075,0.162924903 40.6269869,0.36476499 C40.8377565,0.567642816 40.9519641,0.891417145 40.9720608,1.33712572 C40.9906869,1.78231542 41,2.45113772 41,3.34099825 C41,4.2324154 40.9906869,4.90071882 40.9720608,5.34538966 C40.9519641,5.7916171 40.8377565,6.11539143 40.6269869,6.31723152 C40.4167075,6.52062821 40.072614,6.6316662 39.5947063,6.6519021 C39.1163084,6.67265686 38.4188082,6.68199651 37.5007352,6.68199651 C36.5821721,6.68199651 35.8836916,6.67265686 35.4062741,6.6519021 C34.9268959,6.6316662 34.5832925,6.52062821 34.3730131,6.31723152 C34.1622435,6.11539143 34.0475457,5.7916171 34.0294097,5.34538966 C34.0093131,4.90071882 34,4.2324154 34,3.34099825 L34,3.34099825 Z" id="Fill-1" fill="url(#linearGradient-2)"></path>
                    <path d="M85.3254681,0 L85.3254681,13.7879091 C85.6860734,13.3842289 86.106694,12.9587562 86.5868171,12.5130477 C87.0669402,12.067858 87.6275968,11.6621023 88.267248,11.2983751 C88.9079251,10.9336101 89.6496538,10.6399301 90.4898692,10.4173353 C91.3300846,10.1952593 92.2913568,10.0831836 93.3721467,10.0831836 C94.5724545,10.0831836 95.8035394,10.3062973 97.0648884,10.7509681 C98.3262375,11.1971956 99.4665299,11.8748386 100.487817,12.7859728 C101.508079,13.697107 102.348807,14.830836 103.00949,16.1876788 C103.670172,17.5445215 104,19.1338176 104,20.9550482 L104,41 L96.6745319,41 L96.6745319,24.2358577 C96.6745319,23.2640158 96.6145165,22.3627401 96.4949987,21.5325495 C96.374455,20.7033967 96.1236214,19.9640082 95.7445499,19.3154218 C95.3629136,18.668392 94.8032829,18.1619758 94.0620672,17.7972108 C93.3213645,17.4324458 92.3308541,17.2508416 91.0900231,17.2508416 C89.8081559,17.2508416 88.7878943,17.4324458 88.0276994,17.7972108 C87.2669915,18.1619758 86.6765837,18.668392 86.256989,19.3154218 C85.8358553,19.9640082 85.5655296,20.7033967 85.4460118,21.5325495 C85.3254681,22.3627401 85.2654527,23.2640158 85.2654527,24.2358577 L85.3854835,41 L78,41 L78,0 L85.3254681,0" id="Fill-2" fill="url(#linearGradient-3)"></path>
                    <path d="M121.499216,16.1247502 C119.990394,16.1247502 118.777379,16.4264715 117.859648,17.03043 C116.942439,17.6338727 116.238984,18.3889498 115.748238,19.2941139 C115.259583,20.2003095 114.932419,21.1761331 114.770405,22.223132 C114.606823,23.2696151 114.525293,24.2356392 114.525293,25.1206885 C114.525293,26.0067694 114.606823,26.9727935 114.770405,28.0182451 C114.932419,29.0662755 115.259583,30.0415834 115.748238,30.9472632 C116.238984,31.8529431 116.942439,32.6075044 117.859648,33.2114628 C118.777379,33.8149056 119.990394,34.1171427 121.499216,34.1171427 C123.008038,34.1171427 124.222621,33.8149056 125.140352,33.2114628 C126.058084,32.6075044 126.761538,31.8529431 127.250194,30.9472632 C127.740417,30.0415834 128.066536,29.0662755 128.229595,28.0182451 C128.392654,26.9727935 128.474184,26.0067694 128.474184,25.1206885 C128.474184,24.2356392 128.392654,23.2696151 128.229595,22.223132 C128.066536,21.1761331 127.740417,20.2003095 127.250194,19.2941139 C126.761538,18.3889498 126.058084,17.6338727 125.140352,17.03043 C124.222621,16.4264715 123.008038,16.1247502 121.499216,16.1247502 Z M107,25.1206885 C107,23.028238 107.204347,21.1962478 107.611995,19.6262652 C108.019121,18.0567984 108.560562,16.6987944 109.233181,15.550706 C109.906324,14.403649 110.680856,13.4479402 111.558345,12.6835794 C112.435312,11.9192186 113.321685,11.2941139 114.219557,10.8118754 C116.339329,9.68544904 118.766404,9.08149056 121.499216,9 C124.192308,9.08149056 126.598479,9.68544904 128.719818,10.8118754 C129.616645,11.2941139 130.503019,11.9192186 131.380508,12.6835794 C132.256429,13.4479402 133.032529,14.403649 133.705671,15.550706 C134.377769,16.6987944 134.929662,18.0567984 135.35717,19.6262652 C135.785723,21.1962478 136,23.028238 136,25.1206885 C136,27.2141706 135.785723,29.045645 135.35717,30.6145961 C134.929662,32.1845787 134.377769,33.5338147 133.705671,34.6602411 C133.032529,35.7871833 132.256429,36.7238089 131.380508,37.4675392 C130.503019,38.2133325 129.616645,38.8260589 128.719818,39.3088131 C126.598479,40.3960415 124.192308,40.9592547 121.499216,41 C118.766404,40.9592547 116.339329,40.3960415 114.219557,39.3088131 C113.321685,38.8260589 112.435312,38.2133325 111.558345,37.4675392 C110.680856,36.7238089 109.906324,35.7871833 109.233181,34.6602411 C108.560562,33.5338147 108.019121,32.1845787 107.611995,30.6145961 C107.204347,29.045645 107,27.2141706 107,25.1206885 L107,25.1206885 Z" id="Fill-3" fill="url(#linearGradient-4)"></path>
                    <path d="M210.984717,21.1962478 C210.780363,20.5525756 210.525835,19.9078718 210.219565,19.2636838 C209.913818,18.6210431 209.495179,18.0371994 208.966262,17.5126684 C208.435778,16.9907163 207.803377,16.5775901 207.069061,16.275353 C206.33579,15.9736316 205.47813,15.8225131 204.499739,15.8225131 C203.520825,15.8225131 202.66421,15.9736316 201.929893,16.275353 C201.1961,16.5775901 200.563177,16.9907163 200.032692,17.5126684 C199.502208,18.0371994 199.074684,18.6210431 198.748554,19.2636838 C198.421901,19.9078718 198.176258,20.5525756 198.014238,21.1962478 L210.984717,21.1962478 Z M218.69373,21.1962478 C218.774217,21.7996905 218.846865,22.4242795 218.908014,23.0679518 C218.968641,23.7126555 219,24.3960415 219,25.1206885 L219,26.2074012 L197.585146,26.2074012 C197.667201,26.8923345 197.76964,27.5865515 197.891416,28.290568 C198.014238,28.9945845 198.217546,29.689833 198.502911,30.373219 C198.952385,31.4207337 199.645412,32.3465283 200.584605,33.1506028 C201.521708,33.9562246 202.826752,34.358004 204.499739,34.358004 C206.171157,34.358004 207.476724,33.9562246 208.415395,33.1506028 C209.353542,32.3465283 210.045524,31.4207337 210.495521,30.373219 L218.449132,30.373219 C218.122479,31.7833151 217.663597,33.0097995 217.073008,34.0562826 C216.481374,35.1032815 215.828068,36.0089614 215.114135,36.7733222 C214.400202,37.5381987 213.63505,38.1725872 212.820246,38.6754561 C212.003875,39.1788408 211.208409,39.5904197 210.433849,39.9122558 C208.557554,40.6374186 206.579866,41 204.499739,41 C201.766306,40.9592547 199.339665,40.3960415 197.219295,39.3088131 C196.321391,38.8260589 195.433939,38.2133325 194.557464,37.4675392 C193.679943,36.7238089 192.904861,35.7871833 192.232739,34.6602411 C191.559573,33.5338147 191.018112,32.1845787 190.612017,30.6145961 C190.202786,29.045645 190,27.2141706 190,25.1206885 C190,23.028238 190.202786,21.1962478 190.612017,19.6262652 C191.018112,18.0567984 191.559573,16.6987944 192.232739,15.550706 C192.904861,14.403649 193.679943,13.4479402 194.557464,12.6835794 C195.433939,11.9192186 196.321391,11.2941139 197.219295,10.8118754 C199.339665,9.68544904 201.766306,9.08149056 204.499739,9 C206.741885,9.08149056 208.842918,9.54361421 210.801791,10.388434 C211.616595,10.7510154 212.442897,11.2244858 213.279128,11.8078138 C214.114315,12.3916575 214.890443,13.1163046 215.603853,13.9817549 C216.317264,14.8472052 216.950187,15.8735736 217.500532,17.0598285 C218.051399,18.2476307 218.449132,19.6262652 218.69373,21.1962478 L218.69373,21.1962478 Z" id="Fill-4" fill="url(#linearGradient-4)"></path>
                    <path d="M65.410349,30.9472632 C64.8970001,31.8529431 64.1790482,32.6075044 63.2554411,33.2114628 C62.331834,33.8149056 61.1105267,34.1171427 59.5920451,34.1171427 C58.0730376,34.1171427 56.8517303,33.8149056 55.9281232,33.2114628 C55.0045161,32.6075044 54.2965576,31.8529431 53.8042477,30.9472632 C53.3114118,30.0415834 52.9821532,29.0662755 52.8191019,28.0182451 C52.6549985,26.9727935 52.5729469,26.0067694 52.5729469,25.1206885 C52.5729469,24.2356392 52.6549985,23.2696151 52.8191019,22.223132 C52.9821532,21.1761331 53.3114118,20.2003095 53.8042477,19.2941139 C54.2965576,18.3889498 55.0045161,17.6338727 55.9281232,17.03043 C56.8517303,16.4264715 58.0730376,16.1247502 59.5920451,16.1247502 C61.1931043,16.1247502 62.464379,16.3867578 63.409025,16.9092257 C64.353145,17.4332409 65.0611035,18.1274579 65.5339524,18.9923925 C66.0046975,19.8583586 66.3129172,20.8248985 66.4575595,21.8904648 C66.6006239,22.9575785 66.6732081,24.0344917 66.6732081,25.1206885 C66.6732081,26.0067694 66.5901045,26.9727935 66.4260012,28.0182451 C66.2618979,29.0662755 65.9236978,30.0415834 65.410349,30.9472632 Z M73.1989444,18.3889498 C72.6656087,16.3965573 71.8140598,14.7053704 70.6442977,13.3174521 C69.4745357,11.9290181 67.9855086,10.8624202 66.1798462,10.1171427 C64.3736579,9.37289665 62.1777242,9 59.5920451,9 C56.8417368,9.08149056 54.3991222,9.68544904 52.2652532,10.8118754 C51.3616331,11.2941139 50.4685324,11.9192186 49.5864771,12.6835794 C48.7033698,13.4479402 47.9244051,14.403649 47.247479,15.550706 C46.5700268,16.6987944 46.0245937,18.0567984 45.6159134,19.6262652 C45.2046032,21.1962478 45,23.028238 45,25.1206885 C45,27.2141706 45.1946097,29.0451293 45.584355,30.6145961 C45.9741004,32.1845787 46.4869232,33.5338147 47.1238755,34.6602411 C47.7597758,35.7871833 48.4782538,36.7238089 49.2787834,37.4675392 C50.0798389,38.2133325 50.910349,38.8260589 51.7729433,39.3088131 C53.7427089,40.3960415 56.0001814,40.9592547 58.5453606,41 C59.8171612,40.9185094 61.048462,40.6575334 62.2397889,40.2144929 C63.2654346,39.8132293 64.3115932,39.1685256 65.3798426,38.2829605 C65.8469058,37.8951067 66.2766251,37.4252466 66.6732081,36.8831797 L66.6732081,40.3960415 L74,40.3960415 L74,25.1810328 C74,22.6450261 73.7322802,20.3808265 73.1989444,18.3889498 L73.1989444,18.3889498 Z" id="Fill-8" fill="url(#linearGradient-4)"></path>
                    <path d="M21.4270531,28.8168951 C21.2618979,29.8811807 20.9236978,30.8716158 20.410349,31.791343 C19.8970001,32.7110701 19.1785222,33.4773348 18.2559671,34.0906608 C17.33236,34.7034631 16.1100007,35.010388 14.5920451,35.010388 C13.0730376,35.010388 11.8527822,34.7034631 10.9291751,34.0906608 C10.005568,33.4773348 9.2965576,32.7110701 8.80424768,31.791343 C8.31193775,30.8716158 7.98320517,29.8811807 7.81910186,28.8168951 C7.65499855,27.7552283 7.57294689,26.7742209 7.57294689,25.8743967 C7.57294689,24.9756201 7.65499855,23.9946127 7.81910186,22.9318984 C7.98320517,21.8686603 8.31193775,20.8777014 8.80424768,19.9574505 C9.2965576,19.0382471 10.005568,18.2714587 10.9291751,17.6586564 C11.8527822,17.0453304 13.0730376,16.7389293 14.5920451,16.7389293 C16.1100007,16.7389293 17.33236,17.0453304 18.2559671,17.6586564 C19.1785222,18.2714587 19.8970001,19.0382471 20.410349,19.9574505 C20.9236978,20.8777014 21.2618979,21.8686603 21.4270531,22.9318984 C21.5901045,23.9946127 21.6732081,24.9756201 21.6732081,25.8743967 C21.6732081,26.7742209 21.5901045,27.7552283 21.4270531,28.8168951 Z M21.6732081,0 L21.6732081,13.9195151 C21.2766251,13.3643268 20.8469058,12.8803701 20.3798426,12.4781204 C19.3121191,11.5583933 18.2654346,10.8733118 17.2392629,10.4239235 C16.048462,9.93263415 14.8171612,9.62623302 13.5448346,9.50367257 C11.0001814,9.58642707 8.74270894,10.1997531 6.77294327,11.3436506 C5.91087493,11.8333687 5.07931297,12.468169 4.2782574,13.2443851 C3.47825377,14.0206013 2.75924985,14.9911334 2.12334954,16.1559815 C1.48744922,17.3218771 0.974100406,18.700944 0.584881021,20.2947536 C0.19408372,21.889087 0,23.7494918 0,25.8743967 C0,28.0003492 0.204077191,29.8597064 0.615387406,31.4535161 C1.02564568,33.0478495 1.56950087,34.4180124 2.24695299,35.56191 C2.92440511,36.7063313 3.70336985,37.6574842 4.58647707,38.4127499 C5.46853236,39.1701106 6.36163305,39.7923406 7.26525319,40.2825824 C9.39912217,41.386674 11.8417368,41.9586228 14.5920451,42 C17.2597758,41.9586228 19.6608387,41.386674 21.7957596,40.2825824 C22.6978018,39.7923406 23.581961,39.1701106 24.4440293,38.4127499 C25.3055717,37.6574842 26.0750689,36.6963798 26.752521,35.5315318 C27.4294472,34.3656362 27.9733024,32.9860455 28.3840866,31.3927596 C28.7938189,29.7984262 29,27.9390689 29,25.8131165 L29,0 L21.6732081,0 L21.6732081,0 Z" id="Fill-9" fill="url(#linearGradient-5)"></path>
                    <path d="M185.396205,19.8306803 C184.992643,18.231022 184.47916,16.8468944 183.855239,15.6767204 C183.230285,14.5075978 182.505216,13.5335042 181.681062,12.7544396 C180.854327,11.975375 180.019336,11.3382452 179.173507,10.8467301 C177.199563,9.69863486 174.94488,9.08305817 172.407394,9 C169.829655,9.08305817 167.553297,9.69863486 165.580385,10.8467301 C164.735073,11.3382452 163.90937,11.975375 163.103795,12.7544396 C162.893241,12.9578795 162.689395,13.1760386 162.489679,13.4057628 C162.288414,13.1760386 162.08044,12.9578795 161.865241,12.7544396 C161.040055,11.975375 160.204032,11.3382452 159.358719,10.8467301 C157.384259,9.69863486 155.129576,9.08305817 152.591574,9 C150.014351,9.08305817 147.739025,9.69863486 145.765597,10.8467301 C144.919769,11.3382452 144.094582,11.975375 143.289007,12.7544396 C142.482915,13.5335042 141.757845,14.5075978 141.114314,15.6767204 C140.469234,16.8468944 139.95575,18.231022 139.573863,19.8306803 C139.190944,21.4308643 139,23.298096 139,25.4307985 L139,41 L146.369908,41 L146.369908,25.4307985 C146.369908,24.5287237 146.419966,23.6061472 146.520599,22.661492 C146.620715,21.7184137 146.87307,20.8568167 147.276116,20.0767007 C147.67813,19.2981617 148.292246,18.6520953 149.11898,18.1379758 C149.944166,17.625959 151.101698,17.3688992 152.591574,17.3688992 C154.08145,17.3688992 155.240014,17.625959 156.065716,18.1379758 C156.891418,18.6520953 157.505534,19.2981617 157.90858,20.0767007 C158.310594,20.8568167 158.562949,21.7184137 158.664097,22.661492 C158.763182,23.6061472 158.814788,24.5287237 158.814788,25.4307985 L158.814788,41 L166.184696,41 L166.184696,25.4307985 C166.184696,24.5287237 166.234754,23.6061472 166.335903,22.661492 C166.436535,21.7184137 166.687858,20.8568167 167.090904,20.0767007 C167.493434,19.2981617 168.10755,18.6520953 168.933252,18.1379758 C169.757922,17.625959 170.916485,17.3688992 172.407394,17.3688992 C173.896754,17.3688992 175.055318,17.625959 175.880504,18.1379758 C176.70569,18.6520953 177.320322,19.2981617 177.723368,20.0767007 C178.125382,20.8568167 178.377737,21.7184137 178.478369,22.661492 C178.578486,23.6061472 178.629576,24.5287237 178.629576,25.4307985 L178.629576,41 L186,41 L186,25.4307985 C186,23.298096 185.797703,21.4308643 185.396205,19.8306803" id="Fill-10" fill="url(#linearGradient-6)"></path>
                </g>
            </g>
        </g>
    </g>
</svg>