<svg xmlns="http://www.w3.org/2000/svg" width="301" height="71" viewBox="0 0 301 71">
    <defs>
        <linearGradient id="r0siuerq0b" x1="50%" x2="50%" y1="0%" y2="100%">
            <stop offset="0%" stop-color="#FFF"/>
            <stop offset="100%" stop-color="#DEDEDE"/>
        </linearGradient>
        <linearGradient id="tdwrxpmbac" x1="50%" x2="50%" y1="0%" y2="100%">
            <stop offset="0%" stop-color="#FFF"/>
            <stop offset="100%" stop-color="#DEDEDE"/>
        </linearGradient>
        <linearGradient id="ii4jt6yftd" x1="50%" x2="50%" y1="0%" y2="100%">
            <stop offset="0%" stop-color="#FFF"/>
            <stop offset="100%" stop-color="#DEDEDE"/>
        </linearGradient>
        <linearGradient id="qlyvvk9n4e" x1="50%" x2="50%" y1="0%" y2="100%">
            <stop offset="0%" stop-color="#FFF"/>
            <stop offset="100%" stop-color="#DEDEDE"/>
        </linearGradient>
        <linearGradient id="e9o1pqftaf" x1="50%" x2="50%" y1="0%" y2="100%">
            <stop offset="0%" stop-color="#FFF"/>
            <stop offset="100%" stop-color="#DEDEDE"/>
        </linearGradient>
        <linearGradient id="cxnaudwmih" x1="117.476%" x2="13.482%" y1="109.262%" y2="0%">
            <stop offset="0%" stop-color="#FFF"/>
            <stop offset="100%" stop-color="#EDEDED"/>
        </linearGradient>
        <filter id="uxh1frrlma" width="111%" height="157.1%" x="-5.5%" y="-28.6%" filterUnits="objectBoundingBox">
            <feOffset dy="2" in="SourceAlpha" result="shadowOffsetOuter1"/>
            <feGaussianBlur in="shadowOffsetOuter1" result="shadowBlurOuter1" stdDeviation="2"/>
            <feColorMatrix in="shadowBlurOuter1" result="shadowMatrixOuter1" values="0 0 0 0 0 0 0 0 0 0 0 0 0 0 0 0 0 0 0.5 0"/>
            <feMerge>
                <feMergeNode in="shadowMatrixOuter1"/>
                <feMergeNode in="SourceGraphic"/>
            </feMerge>
        </filter>
        <filter id="rvb7e4ewcg" width="149%" height="145.3%" x="-24.5%" y="-22.6%" filterUnits="objectBoundingBox">
            <feOffset dy="2" in="SourceAlpha" result="shadowOffsetOuter1"/>
            <feGaussianBlur in="shadowOffsetOuter1" result="shadowBlurOuter1" stdDeviation="2"/>
            <feColorMatrix in="shadowBlurOuter1" result="shadowMatrixOuter1" values="0 0 0 0 0 0 0 0 0 0 0 0 0 0 0 0 0 0 0.5 0"/>
            <feMerge>
                <feMergeNode in="shadowMatrixOuter1"/>
                <feMergeNode in="SourceGraphic"/>
            </feMerge>
        </filter>
    </defs>
    <g fill="none" fill-rule="evenodd">
        <g>
            <g>
                <g filter="url(#uxh1frrlma)" transform="translate(-57 -111) translate(66 120) translate(64 6)">
                    <path fill="url(#r0siuerq0b)" d="M34 41h7V10.205h-7V41zm0-37.659c0-.89.01-1.559.03-2.004.018-.446.132-.77.343-.972.21-.202.554-.313 1.033-.334C35.884.011 36.582 0 37.501 0c.918 0 1.615.01 2.094.031.478.02.822.132 1.032.334.21.203.325.526.345.972.019.445.028 1.114.028 2.004 0 .891-.01 1.56-.028 2.004-.02.447-.134.77-.345.972-.21.204-.554.315-1.032.335-.479.02-1.176.03-2.094.03-.919 0-1.617-.01-2.095-.03-.48-.02-.823-.131-1.033-.335-.21-.202-.325-.525-.344-.972C34.01 4.901 34 4.232 34 3.341z"/>
                    <path fill="url(#tdwrxpmbac)" d="M85.325 0v13.788c.361-.404.782-.83 1.262-1.275.48-.445 1.04-.85 1.68-1.215.64-.364 1.383-.658 2.223-.88.84-.223 1.801-.335 2.882-.335 1.2 0 2.432.223 3.693.668 1.261.446 2.402 1.124 3.423 2.035 1.02.911 1.86 2.045 2.521 3.402.661 1.357.991 2.946.991 4.767V41h-7.325V24.236c0-.972-.06-1.873-.18-2.703-.12-.83-.371-1.569-.75-2.218-.382-.647-.942-1.153-1.683-1.518-.74-.365-1.731-.546-2.972-.546-1.282 0-2.302.181-3.062.546-.761.365-1.351.871-1.771 1.518-.421.649-.691 1.388-.811 2.218-.12.83-.18 1.731-.18 2.703L85.385 41H78V0h7.325"/>
                    <path fill="url(#ii4jt6yftd)" d="M121.5 16.125c-1.51 0-2.723.301-3.64.905-.918.604-1.621 1.359-2.112 2.264-.488.906-.816 1.882-.978 2.93-.163 1.046-.245 2.012-.245 2.897 0 .886.082 1.852.245 2.897.162 1.048.49 2.024.978 2.93.491.905 1.194 1.66 2.112 2.263.917.604 2.13.906 3.64.906 1.508 0 2.723-.302 3.64-.906.918-.603 1.622-1.358 2.11-2.264.49-.905.817-1.88.98-2.929.163-1.045.244-2.011.244-2.897 0-.885-.081-1.851-.244-2.898-.163-1.047-.49-2.023-.98-2.929-.488-.905-1.192-1.66-2.11-2.264-.917-.604-2.132-.905-3.64-.905zM107 25.12c0-2.093.204-3.925.612-5.495.407-1.57.949-2.927 1.621-4.075.673-1.147 1.448-2.103 2.325-2.867.877-.765 1.764-1.39 2.662-1.872 2.12-1.127 4.546-1.73 7.28-1.812 2.692.081 5.098.685 7.22 1.812.897.482 1.783 1.107 2.66 1.872.876.764 1.653 1.72 2.326 2.867.672 1.148 1.224 2.506 1.651 4.075.429 1.57.643 3.402.643 5.495s-.214 3.925-.643 5.494c-.427 1.57-.98 2.919-1.651 4.045-.673 1.127-1.45 2.064-2.325 2.808-.878.745-1.764 1.358-2.661 1.84-2.122 1.088-4.528 1.651-7.22 1.692-2.734-.04-5.16-.604-7.28-1.691-.898-.483-1.785-1.096-2.662-1.841-.877-.744-1.652-1.68-2.325-2.808-.672-1.126-1.214-2.475-1.621-4.045-.408-1.57-.612-3.4-.612-5.494zM210.985 21.196c-.205-.643-.46-1.288-.765-1.932-.306-.643-.725-1.227-1.254-1.751-.53-.522-1.163-.935-1.897-1.238-.733-.301-1.59-.452-2.57-.452-.978 0-1.835.15-2.57.452-.733.303-1.366.716-1.896 1.238-.53.524-.958 1.108-1.284 1.75-.327.645-.573 1.29-.735 1.933h12.97zm7.709 0c.08.604.153 1.228.214 1.872.06.645.092 1.328.092 2.053v1.086h-21.415c.082.685.185 1.38.306 2.084.123.704.327 1.399.612 2.082.45 1.048 1.142 1.974 2.082 2.778.937.805 2.242 1.207 3.915 1.207 1.671 0 2.977-.402 3.915-1.207.939-.804 1.63-1.73 2.08-2.778h7.954c-.327 1.41-.785 2.637-1.376 3.683-.592 1.047-1.245 1.953-1.959 2.717-.714.765-1.479 1.4-2.294 1.902-.816.504-1.612.915-2.386 1.237-1.876.725-3.854 1.088-5.934 1.088-2.734-.04-5.16-.604-7.28-1.691-.899-.483-1.786-1.096-2.663-1.841-.877-.744-1.652-1.68-2.324-2.808-.673-1.126-1.215-2.475-1.621-4.045-.41-1.57-.612-3.4-.612-5.494 0-2.093.203-3.925.612-5.495.406-1.57.948-2.927 1.62-4.075.673-1.147 1.448-2.103 2.325-2.867.877-.765 1.764-1.39 2.662-1.872 2.12-1.127 4.547-1.73 7.28-1.812 2.243.081 4.344.544 6.303 1.388.815.363 1.64.836 2.477 1.42.835.584 1.611 1.308 2.325 2.174.713.865 1.346 1.892 1.897 3.078.55 1.188.948 2.566 1.193 4.136zM65.41 30.947c-.513.906-1.231 1.66-2.155 2.264-.923.604-2.144.906-3.663.906-1.519 0-2.74-.302-3.664-.906-.923-.603-1.631-1.358-2.124-2.264-.493-.905-.822-1.88-.985-2.929-.164-1.045-.246-2.011-.246-2.897 0-.885.082-1.851.246-2.898.163-1.047.492-2.023.985-2.929.493-.905 1.2-1.66 2.124-2.264.924-.604 2.145-.905 3.664-.905 1.601 0 2.872.262 3.817.784.944.524 1.652 1.218 2.125 2.083.47.866.779 1.833.924 2.898.143 1.068.215 2.144.215 3.23 0 .887-.083 1.853-.247 2.898-.164 1.048-.502 2.024-1.016 2.93zM73.2 18.39c-.533-1.992-1.385-3.684-2.555-5.072-1.17-1.388-2.658-2.455-4.464-3.2C64.374 9.373 62.178 9 59.592 9c-2.75.081-5.193.685-7.327 1.812-.903.482-1.796 1.107-2.679 1.872-.883.764-1.662 1.72-2.339 2.867-.677 1.148-1.222 2.506-1.631 4.075-.411 1.57-.616 3.402-.616 5.495s.195 3.924.584 5.494c.39 1.57.903 2.919 1.54 4.045.636 1.127 1.354 2.064 2.155 2.808.8.745 1.631 1.358 2.494 1.84C53.743 40.397 56 40.96 58.545 41c1.272-.081 2.503-.342 3.695-.786 1.025-.4 2.072-1.045 3.14-1.931.467-.388.897-.858 1.293-1.4v3.513H74V25.181c0-2.536-.268-4.8-.801-6.792z"/>
                    <path fill="url(#qlyvvk9n4e)" d="M21.427 28.817c-.165 1.064-.503 2.055-1.017 2.974-.513.92-1.231 1.686-2.154 2.3-.924.612-2.146.92-3.664.92-1.519 0-2.74-.308-3.663-.92-.923-.614-1.632-1.38-2.125-2.3-.492-.92-.82-1.91-.985-2.974-.164-1.062-.246-2.043-.246-2.943 0-.898.082-1.88.246-2.942.164-1.063.493-2.054.985-2.975.493-.919 1.202-1.686 2.125-2.298.924-.614 2.144-.92 3.663-.92 1.518 0 2.74.306 3.664.92.923.612 1.641 1.38 2.154 2.298.514.92.852 1.912 1.017 2.975.163 1.063.246 2.044.246 2.942 0 .9-.083 1.881-.246 2.943zM21.673 0v13.92c-.396-.556-.826-1.04-1.293-1.442-1.068-.92-2.115-1.605-3.14-2.054-1.192-.491-2.423-.798-3.695-.92-2.545.082-4.802.696-6.772 1.84-.862.49-1.694 1.124-2.495 1.9-.8.777-1.519 1.747-2.155 2.912-.636 1.166-1.149 2.545-1.538 4.139C.195 21.889 0 23.749 0 25.875 0 28 .204 29.86.615 31.453c.41 1.594.955 2.964 1.632 4.108.677 1.144 1.456 2.095 2.34 2.85.882.758 1.775 1.38 2.678 1.87C9.4 41.388 11.842 41.96 14.592 42c2.668-.041 5.069-.613 7.204-1.717.902-.49 1.786-1.113 2.648-1.87.862-.756 1.631-1.717 2.309-2.881.676-1.166 1.22-2.546 1.631-4.14.41-1.594.616-3.453.616-5.579V0h-7.327z"/>
                    <path fill="url(#e9o1pqftaf)" d="M185.396 19.83c-.403-1.599-.917-2.983-1.54-4.153-.626-1.17-1.35-2.143-2.175-2.923-.827-.779-1.662-1.416-2.507-1.907-1.974-1.148-4.23-1.764-6.767-1.847-2.577.083-4.854.699-6.827 1.847-.845.491-1.67 1.128-2.476 1.907-.21.204-.415.422-.614.652-.202-.23-.41-.448-.625-.652-.825-.779-1.661-1.416-2.506-1.907-1.975-1.148-4.23-1.764-6.767-1.847-2.578.083-4.853.699-6.826 1.847-.846.491-1.671 1.128-2.477 1.907-.806.78-1.531 1.754-2.175 2.923-.645 1.17-1.158 2.554-1.54 4.154-.383 1.6-.574 3.467-.574 5.6V41h7.37V25.43c0-.901.05-1.824.15-2.769.1-.943.353-1.804.756-2.584.402-.779 1.016-1.425 1.843-1.939.825-.512 1.983-.77 3.473-.77 1.49 0 2.648.258 3.474.77.825.514 1.44 1.16 1.843 1.939.402.78.654 1.641.755 2.584.1.945.15 1.868.15 2.77V41h7.37V25.43c0-.901.05-1.824.152-2.769.1-.943.352-1.804.755-2.584.402-.779 1.017-1.425 1.842-1.939.825-.512 1.983-.77 3.474-.77 1.49 0 2.648.258 3.474.77.825.514 1.44 1.16 1.842 1.939.402.78.655 1.641.755 2.584.1.945.152 1.868.152 2.77V41H186V25.43c0-2.132-.202-4-.604-5.6"/>
                </g>
                <g filter="url(#rvb7e4ewcg)" transform="translate(-57 -111) translate(66 120)">
                    <g fill="url(#cxnaudwmih)">
                        <path d="M5.582.176C2.58.176.148 2.6.148 5.593V17.55c0 1.543 1.254 2.793 2.8 2.793h5.618c1.78 0 3.223-1.439 3.223-3.213v-5.178c0-1.775 1.443-3.213 3.223-3.213h6.061c1.78 0 3.223 1.438 3.223 3.213v5.178c0 1.774 1.443 3.213 3.223 3.213h5.195c1.78 0 3.223 1.438 3.223 3.212v6.042c0 1.774-1.443 3.213-3.223 3.213h-5.195c-1.78 0-3.223 1.438-3.223 3.212v5.179c0 1.774-1.443 3.213-3.223 3.213h-6.061c-1.78 0-3.223-1.439-3.223-3.213v-5.179c0-1.774-1.443-3.212-3.223-3.212H2.95c-1.547 0-2.801 1.25-2.801 2.792v11.96c0 2.99 2.433 5.416 5.434 5.416h16.795c14.628 0 26.486-11.82 26.486-26.402 0-14.58-11.858-26.401-26.486-26.401H5.582z"/>
                    </g>
                    <path fill="#D8243C" d="M18.636 21.383c-3.397-.406-6.495 1.08-6.771 4.41-.282 3.4 1.086 5.852 4.484 6.258 3.397.407 7.547-.917 7.818-4.785.24-3.402-2.133-5.476-5.53-5.883"/>
                </g>
            </g>
        </g>
    </g>
</svg>
