<?xml version="1.0" encoding="UTF-8"?>
<svg width="146px" height="155px" viewBox="0 0 146 155" version="1.1" xmlns="http://www.w3.org/2000/svg" xmlns:xlink="http://www.w3.org/1999/xlink">
    <title>home@3x</title>
    <g id="Page-1" stroke="none" stroke-width="1" fill="none" fill-rule="evenodd" opacity="0.228739421">
        <g id="Artboard" transform="translate(-768.000000, -325.000000)">
            <g id="Group-2" transform="translate(771.000000, 327.000000)">
                <g id="Group-7"></g>
                <path d="M15.9480851,0.496628991 C7.37382979,0.496628991 0.422978723,7.35392928 0.422978723,15.8142539 L0.422978723,49.6305741 C0.422978723,53.9915056 4.00489362,57.5266812 8.42531915,57.5266812 L24.4746809,57.5266812 C29.5593617,57.5266812 33.6819149,53.459613 33.6819149,48.441897 L33.6819149,33.7986884 C33.6819149,28.7809724 37.8044681,24.7139042 42.8906383,24.7139042 L60.2089362,24.7139042 C65.2951064,24.7139042 69.4176596,28.7809724 69.4176596,33.7986884 L69.4176596,48.441897 C69.4176596,53.459613 73.5402128,57.5266812 78.626383,57.5266812 L93.4678723,57.5266812 C98.5540426,57.5266812 102.676596,61.5937494 102.676596,66.609996 L102.676596,83.6952088 C102.676596,88.7129247 98.5540426,92.7814622 93.4678723,92.7814622 L78.626383,92.7814622 C73.5402128,92.7814622 69.4176596,96.8485304 69.4176596,101.864777 L69.4176596,116.507986 C69.4176596,121.525702 65.2951064,125.59277 60.2089362,125.59277 L42.8906383,125.59277 C37.8044681,125.59277 33.6819149,121.525702 33.6819149,116.507986 L33.6819149,101.864777 C33.6819149,96.8485304 29.5593617,92.7814622 24.4746809,92.7814622 L8.42531915,92.7814622 C4.00489362,92.7814622 0.422978723,96.3151685 0.422978723,100.6761 L0.422978723,134.49389 C0.422978723,142.952745 7.37382979,149.810045 15.9480851,149.810045 L63.9338298,149.810045 C105.728298,149.810045 139.608298,116.384563 139.608298,75.1540717 C139.608298,33.922111 105.728298,0.496628991 63.9338298,0.496628991 L15.9480851,0.496628991 Z" id="Fill-5" stroke="#434343" stroke-width="5"></path>
                <path d="M53.2461702,60.4667836 C43.54,59.3163087 34.6887234,63.5170847 33.8993617,72.9383424 C33.093617,82.5506112 37.0031915,89.4828466 46.7108511,90.6333215 C56.4170213,91.782327 68.2738298,88.0399778 69.0497872,77.1023854 C69.7334043,67.4813007 62.9538298,61.6172584 53.2461702,60.4667836" id="Fill-11" stroke="#D8243C" stroke-width="5"></path>
            </g>
        </g>
    </g>
</svg>