<svg xmlns="http://www.w3.org/2000/svg" xmlns:xlink="http://www.w3.org/1999/xlink" width="30" height="30" viewBox="0 0 30 30"><defs><style>.a{fill:#fff;stroke:#707070;}.b{clip-path:url(#a);}.c{fill:#555;}</style><clipPath id="a"><rect class="a" width="30" height="30" transform="translate(-0.499)"/></clipPath></defs><g class="b" transform="translate(0.499)"><path class="c" d="M26.578,14.077a11.312,11.312,0,0,0-9.986-9.986V1.5H14.077V4.091A11.01,11.01,0,0,0,10.1,5.311L11.989,7.2a8.791,8.791,0,0,1,12.149,8.137,8.843,8.843,0,0,1-.654,3.333l1.886,1.886a11.376,11.376,0,0,0,1.22-3.962h2.578V14.077ZM4.015,5.613,6.581,8.178a11.21,11.21,0,0,0-2.49,5.9H1.5v2.515H4.091a11.312,11.312,0,0,0,9.986,9.986v2.591h2.515V26.578a11.311,11.311,0,0,0,5.9-2.49l2.566,2.566,1.6-1.6L5.613,4.015ZM20.7,22.3A8.8,8.8,0,0,1,8.367,9.964Z" transform="translate(-0.833 -0.168)"/></g></svg>