<svg xmlns="http://www.w3.org/2000/svg" xmlns:xlink="http://www.w3.org/1999/xlink" width="45" height="45" viewBox="0 0 45 45"><defs><clipPath id="a"><rect width="45" height="45" transform="translate(-164 -3900)" fill="#fff" stroke="#707070" stroke-width="1"/></clipPath></defs><g transform="translate(164 3900)" clip-path="url(#a)"><g transform="translate(2 5.395)"><g transform="translate(-158 -3902.396)"><g transform="translate(0)"><g transform="translate(0)"><path d="M90.762,2.579H90V1.814A1.816,1.816,0,0,0,88.183,0H68.655a.556.556,0,0,0-.387.157l-4,3.887a.556.556,0,0,0-.169.4V25.737a.556.556,0,1,0,1.112,0V5l2.948.008h0A1.043,1.043,0,0,0,69.2,3.969l.008-2.857H82.553c.213.013.766.013,1.112,0h4.517a.7.7,0,0,1,.7.7V13.936a.556.556,0,0,0,1.112,0V3.691h.765a.7.7,0,0,1,.7.7V36.172a.7.7,0,0,1-.7.7H68.49a.7.7,0,0,1-.7-.7v-.765h20.4A1.817,1.817,0,0,0,90,33.593V12.624a.556.556,0,0,0-1.112,0V33.593a.7.7,0,0,1-.7.7H65.911a.7.7,0,0,1-.7-.7V21.853a.556.556,0,1,0-1.112,0v11.74a1.817,1.817,0,0,0,1.815,1.815h.765v.765a1.817,1.817,0,0,0,1.814,1.814H90.762a1.817,1.817,0,0,0,1.815-1.814V4.394a1.817,1.817,0,0,0-1.815-1.815ZM68.09,3.9l-2.07-.005L67.4,2.554l.7-.679Z" transform="translate(-64.096)" fill="#fff" stroke="#fff" stroke-width="0.5"/></g></g></g><g transform="translate(-153.667 -3892.198)"><g transform="translate(0 0.743)"><path d="M45.945,19.932H43.717v1.393h1.532v2.623a4.178,4.178,0,0,1-8.355,0V21.325h1.485V19.932H36.2a.7.7,0,0,0-.7.7v3.319a5.57,5.57,0,1,0,11.141,0V20.628A.7.7,0,0,0,45.945,19.932Z" transform="translate(-35.501 -19.932)" fill="#fff" stroke="#fff" stroke-width="0.5"/></g><g transform="translate(5.326 9.295)"><path d="M172.789,260.33v3.2a3.483,3.483,0,0,1-6.963,0v-4.414h-1.393v4.414a4.876,4.876,0,0,0,9.748,0v-3.2Z" transform="translate(-164.434 -259.114)" fill="#fff" stroke="#fff" stroke-width="0.5"/></g><g transform="translate(11.802 6.65)"><path d="M340.792,171.912a2.576,2.576,0,1,0,2.576,2.576A2.579,2.579,0,0,0,340.792,171.912Zm0,3.76a1.184,1.184,0,1,1,1.184-1.184A1.185,1.185,0,0,1,340.792,175.672Z" transform="translate(-338.216 -171.912)" fill="#fff" stroke="#fff" stroke-width="0.5"/></g><g transform="translate(2.158)"><path d="M94.124,0a.7.7,0,0,0-.7.7V2.182a.7.7,0,0,0,1.393,0V.7A.7.7,0,0,0,94.124,0Z" transform="translate(-93.428 0)" fill="#fff" stroke="#fff" stroke-width="0.5"/></g><g transform="translate(7.804)"><path d="M238.63,0a.7.7,0,0,0-.7.7V2.182a.7.7,0,1,0,1.393,0V.7A.7.7,0,0,0,238.63,0Z" transform="translate(-237.934 0)" fill="#fff" stroke="#fff" stroke-width="0.5"/></g></g></g></g></svg>