<svg xmlns="http://www.w3.org/2000/svg" width="27.777" height="35.06" viewBox="0 0 27.777 35.06"><g transform="translate(-0.5)"><path d="M19.393.271A.848.848,0,0,0,18.784,0H5.107A4.626,4.626,0,0,0,.5,4.6V30.461a4.626,4.626,0,0,0,4.607,4.6H23.67a4.626,4.626,0,0,0,4.607-4.6V9.925a.911.911,0,0,0-.246-.593Zm.246,2.718,5.784,6.072h-3.76a2.017,2.017,0,0,1-2.024-2.015ZM23.67,33.366H5.107a2.933,2.933,0,0,1-2.913-2.9V4.6a2.933,2.933,0,0,1,2.913-2.9H17.945V7.046a3.7,3.7,0,0,0,3.718,3.709h4.92V30.461A2.928,2.928,0,0,1,23.67,33.366Zm0,0" transform="translate(0 0)" fill="#7e7e7e"/><path d="M103.958,401.934H90.019a.847.847,0,0,0,0,1.694h13.948a.847.847,0,1,0-.009-1.694Zm0,0" transform="translate(-82.6 -374.411)" fill="#7e7e7e"/><path d="M123.809,183.118a.841.841,0,0,0,1.236,0l4.963-5.327a.845.845,0,1,0-1.236-1.152l-3.5,3.751v-9.247a.847.847,0,0,0-1.694,0v9.247l-3.489-3.751a.845.845,0,0,0-1.236,1.152Zm0,0" transform="translate(-110.039 -158.636)" fill="#7e7e7e"/></g></svg>