<svg xmlns="http://www.w3.org/2000/svg" width="66" height="39" viewBox="0 0 66 39">
    <g fill="none" fill-rule="evenodd">
        <g fill="#FFF" fill-rule="nonzero" stroke="#FFF">
            <g>
                <path d="M43 23.062c.5-.101.9-.605.8-1.209-.8-3.927-3.6-7.452-7.7-8.963 1.9-1.309 3-3.424 3-5.84C39.1 3.222 35.9 0 32 0c-3.9 0-7.1 3.223-7.1 7.15 0 2.316 1.1 4.532 3 5.841-3.9 1.41-6.9 4.733-7.7 8.963-.1.503.2 1.108.8 1.208h.2c.5 0 .9-.302 1-.805.9-4.633 5-8.057 9.8-8.057 5 0 8.9 3.525 9.8 8.057.1.503.6.805 1.2.705zM26.9 7.15c0-2.82 2.3-5.136 5.1-5.136s5.1 2.316 5.1 5.136c0 2.92-2.3 5.136-5.1 5.136S26.9 9.97 26.9 7.15z" transform="translate(-37 -225) translate(38 226)"/>
                <path d="M16.2 26.486c1.9-1.31 3-3.424 3-5.841 0-3.928-3.2-7.15-7.1-7.15-3.9 0-7.1 3.222-7.1 7.15 0 2.417 1.1 4.531 3 5.84-3.9 1.41-6.9 4.734-7.7 8.963-.1.504.2 1.108.8 1.209h.2c.5 0 .9-.302 1-.806.9-4.632 5-8.056 9.8-8.056 5 0 8.9 3.524 9.8 8.056.1.504.6.907 1.2.806.5-.1.9-.604.8-1.209-.8-4.129-3.7-7.553-7.7-8.962zM7 20.645c0-2.82 2.3-5.136 5.1-5.136s5.1 2.316 5.1 5.136c0 2.92-2.3 5.136-5.1 5.136S7 23.464 7 20.645zM42 34.743c.9-4.632 5-8.056 9.8-8.056 5 0 8.9 3.525 9.8 8.056.1.504.6.907 1.2.806.5-.1.9-.604.8-1.208-.8-4.029-3.7-7.453-7.7-8.963 1.9-1.31 3-3.424 3-5.841 0-3.928-3.2-7.15-7.1-7.15-3.9 0-7.1 3.222-7.1 7.15 0 2.316 1.1 4.532 3 5.84-3.9 1.41-6.9 4.734-7.7 8.964-.1.503.2 1.107.8 1.208h.2c.5 0 1-.302 1-.806zm4.7-15.105c0-2.82 2.3-5.136 5.1-5.136s5.1 2.316 5.1 5.136c0 2.92-2.3 5.136-5.1 5.136-2.8-.101-5.1-2.317-5.1-5.136z" transform="translate(-37 -225) translate(38 226)"/>
            </g>
        </g>
    </g>
</svg>
