<svg xmlns="http://www.w3.org/2000/svg" width="30.628" height="30.628" viewBox="0 0 30.628 30.628">
  <path id="Icon_awesome-facebook-square" data-name="Icon awesome-facebook-square" d="M27.346,2.25H3.282A3.282,3.282,0,0,0,0,5.532V29.6a3.282,3.282,0,0,0,3.282,3.282h9.383V22.465H8.358v-4.9h4.307V13.828c0-4.249,2.53-6.6,6.4-6.6a26.093,26.093,0,0,1,3.8.331v4.17H20.726a2.451,2.451,0,0,0-2.763,2.648v3.182h4.7l-.752,4.9h-3.95V32.878h9.383A3.282,3.282,0,0,0,30.628,29.6V5.532A3.282,3.282,0,0,0,27.346,2.25Z" transform="translate(0 -2.25)" fill="#4267b2"/>
</svg>
