<?xml version="1.0" encoding="UTF-8"?>
<svg width="50px" height="50px" viewBox="0 0 50 50" version="1.1" xmlns="http://www.w3.org/2000/svg" xmlns:xlink="http://www.w3.org/1999/xlink">
    <title>info</title>
    <defs>
        <path d="M25.205,20.455 C26.033,20.455 26.705,21.126 26.705,21.955 L26.705,32.591 C26.705,33.419 26.033,34.091 25.205,34.091 L24.795,34.091 C23.967,34.091 23.295,33.419 23.295,32.591 L23.295,21.955 C23.295,21.126 23.967,20.455 24.795,20.455 L25.205,20.455 Z" id="path-1"></path>
        <path d="M25,0 C38.807,0 50,11.193 50,25 C50,38.807 38.807,50 25,50 C11.193,50 0,38.807 0,25 C0,11.193 11.193,0 25,0 Z M25,3.409 C13.076,3.409 3.409,13.076 3.409,25 C3.409,36.924 13.076,46.591 25,46.591 C36.924,46.591 46.591,36.924 46.591,25 C46.591,13.076 36.924,3.409 25,3.409 Z" id="path-3"></path>
    </defs>
    <g id="Page-1" stroke="none" stroke-width="1" fill="none" fill-rule="evenodd">
        <g id="VideoCallWithPatientDetails---iPad---Doctor" transform="translate(-1960.000000, -120.000000)">
            <g id="info" transform="translate(1960.000000, 120.000000)">
                <mask id="mask-2" fill="white">
                    <use xlink:href="#path-1"></use>
                </mask>
                <use id="Mask" fill="#000000" xlink:href="#path-1"></use>
                <path d="M25,13.636 C26.255,13.636 27.273,14.654 27.273,15.909 C27.273,17.164 26.255,18.182 25,18.182 C23.745,18.182 22.727,17.164 22.727,15.909 C22.727,14.654 23.745,13.636 25,13.636 Z" id="Clip-1659" fill="#000000"></path>
                <mask id="mask-4" fill="white">
                    <use xlink:href="#path-3"></use>
                </mask>
                <use id="Clip-1662" fill="#000000" xlink:href="#path-3"></use>
            </g>
        </g>
    </g>
</svg>