<svg xmlns="http://www.w3.org/2000/svg" xmlns:xlink="http://www.w3.org/1999/xlink" width="45" height="45" viewBox="0 0 45 45"><defs><clipPath id="a"><rect width="45" height="45" transform="translate(-183 -3628)" fill="#fff" stroke="#707070" stroke-width="1"/></clipPath></defs><g transform="translate(183 3628)" clip-path="url(#a)"><g transform="translate(-179.556 -3625.243)"><path d="M126.959,356.552a1.987,1.987,0,1,0,1.987-1.987A1.99,1.99,0,0,0,126.959,356.552Zm2.832,0a.844.844,0,1,1-.844-.844A.845.845,0,0,1,129.791,356.552Z" transform="translate(-113.981 -327.54)" fill="#fff" stroke="#fff" stroke-width="0.5"/><path d="M26.447,13.652a1.9,1.9,0,0,0,.429-1.205A2.254,2.254,0,0,0,26,10.776c-.374-.349-.915-.9-1.227-1.227a1.913,1.913,0,0,0-2.234-.342l-7.1-7.1a3.064,3.064,0,0,0-3.884-.366L10.429.62a2.115,2.115,0,0,0-2.992,0L5.925,2.132a2.115,2.115,0,0,0,0,2.992L7.049,6.249a3.059,3.059,0,0,0-.065,3.342A13.511,13.511,0,0,0,4.656,23.866a.572.572,0,0,0,1.051-.45A12.37,12.37,0,0,1,7.742,10.46l2.978,2.978a8.179,8.179,0,0,0,1.568,11.749c-.986.769-1.211,1.5-2.482,3.38a15.6,15.6,0,0,1-4.35-5.711.572.572,0,0,0-.951.635A16.283,16.283,0,0,0,9.188,29.53L7.254,32.547a3.436,3.436,0,0,0-3.109,3.416v1.266a1.8,1.8,0,0,0,1.8,1.8h26.2a2.279,2.279,0,0,0,2.277-2.277A4.222,4.222,0,0,0,30.2,32.532H19.852V30.466h8.487a1.719,1.719,0,0,0,1.717-1.717,3.517,3.517,0,0,0-3.513-3.513H18.1a4.688,4.688,0,0,0-4.71-.686,7.035,7.035,0,0,1-1.853-10.3l2.977,2.977a1.909,1.909,0,0,0,.343,2.234L16.4,21.012a1.908,1.908,0,0,0,2.7,0l4.6-4.6C24.99,15.115,26.355,13.765,26.447,13.652Zm6.826,23.1a1.135,1.135,0,0,1-1.133,1.133H5.941a.653.653,0,0,1-.653-.653V35.963a2.291,2.291,0,0,1,2.288-2.288H30.2A3.077,3.077,0,0,1,33.273,36.748Zm-6.73-10.369a2.373,2.373,0,0,1,2.37,2.37.574.574,0,0,1-.573.573H19.852a5.007,5.007,0,0,0-.729-2.944Zm-7.834,2.484c0,.009,0,.017,0,.025v3.644H8.622c3.819-5.959,3.624-5.679,3.854-5.949a3.542,3.542,0,0,1,6.232,2.28ZM14.63,2.92l7.034,7.034-4.271,4.271L15.258,16.36C7.691,8.792,8.225,9.329,8.15,9.247a1.915,1.915,0,0,1,.074-2.632l3.7-3.7a1.918,1.918,0,0,1,2.71,0Zm-7.9.021L8.245,1.429a.974.974,0,0,1,1.375,0l1.087,1.087L7.82,5.4,6.733,4.316a.974.974,0,0,1,0-1.375ZM18.293,20.2a.766.766,0,0,1-1.083,0l-1.548-1.548a.766.766,0,0,1,0-1.083l2.4-2.4,4.81-4.81a.766.766,0,0,1,1.083,0l1.547,1.548a.767.767,0,0,1,0,1.083Z" transform="translate(0 0)" fill="#fff" stroke="#fff" stroke-width="0.5"/></g></g></svg>