<svg xmlns="http://www.w3.org/2000/svg" xmlns:xlink="http://www.w3.org/1999/xlink" width="50" height="50" viewBox="0 0 50 50">
  <defs>
    <clipPath id="clip-path">
      <rect id="Rectangle_16923" data-name="Rectangle 16923" width="50" height="50" transform="translate(-1259 -10593)" fill="#9e2d6b" stroke="#9e2d6b" stroke-width="1"/>
    </clipPath>
  </defs>
  <g id="Mask_Group_87" data-name="Mask Group 87" transform="translate(1259 10593)" clip-path="url(#clip-path)">
    <g id="Group_10264" data-name="Group 10264" transform="translate(-1243.199 -10584.134)">
      <g id="Group_10263" data-name="Group 10263" transform="translate(0 0)">
        <path id="Path_8820" data-name="Path 8820" d="M42.708,30.607H33.924V48.752A4.328,4.328,0,0,0,35.2,51.83a4.439,4.439,0,0,0,3.112,1.275,4.5,4.5,0,0,0,1.105-.132l.132-.034a5.527,5.527,0,0,1-1.671-2.232,7.576,7.576,0,0,1-.361-4.162,7,7,0,0,1,2.258-3.916A16.224,16.224,0,0,0,42.7,38.544Zm-9.332-1.1H43.809v9.158l-.06.234a16.793,16.793,0,0,1-3.159,4.464,6.142,6.142,0,0,0-1.981,3.359,6.526,6.526,0,0,0,.3,3.571,4.426,4.426,0,0,0,2.079,2.266l.9.463-.9.5a4.971,4.971,0,0,1-1.275.51,5.3,5.3,0,0,1-1.377.179,5.5,5.5,0,0,1-3.89-1.6,5.4,5.4,0,0,1-1.6-3.852V29.51Z" transform="translate(-31.148 -22.24)" fill="#9e2d6b" stroke="#9e2d6b" stroke-width="0.8"/>
        <path id="Path_8821" data-name="Path 8821" d="M29.961,24.618H42.1V22.067H29.961Zm12.185,1.1H29.91a1.059,1.059,0,0,1-.744-.306,1.016,1.016,0,0,1-.306-.74v-2.64a1.012,1.012,0,0,1,.306-.736A1.059,1.059,0,0,1,29.91,21H42.146a1.067,1.067,0,0,1,.744.306,1.05,1.05,0,0,1,.31.736v2.64a1.054,1.054,0,0,1-.31.74,1.067,1.067,0,0,1-.744.306Z" transform="translate(-28.86 -17.348)" fill="#9e2d6b" stroke="#9e2d6b" stroke-width="0.8"/>
        <path id="Path_8822" data-name="Path 8822" d="M43.263,16.062V13.511h-5.5v2.551Zm1.105-2.593v3.686H36.66v-3.7a1.046,1.046,0,0,1,.3-.74h0a1.054,1.054,0,0,1,.736-.306h5.612a1.067,1.067,0,0,1,.744.306h0a1.05,1.05,0,0,1,.31.74Z" transform="translate(-33.344 -12.41)" fill="#9e2d6b" stroke="#9e2d6b" stroke-width="0.8"/>
        <path id="Path_8823" data-name="Path 8823" d="M49.393,51.49a17.7,17.7,0,0,1-2.67,3.516,6.142,6.142,0,0,0-1.981,3.359c-.455,2.776.5,4.643,1.956,5.608a5.038,5.038,0,0,0,5.378,0c1.463-.965,2.419-2.831,1.964-5.608a6.164,6.164,0,0,0-1.977-3.354,17.385,17.385,0,0,1-2.67-3.516Zm-3.482,2.78a16.122,16.122,0,0,0,2.976-4.2.591.591,0,0,1,.255-.255.548.548,0,0,1,.736.255,16.317,16.317,0,0,0,2.976,4.2,7.016,7.016,0,0,1,2.258,3.916c.536,3.282-.646,5.527-2.44,6.692a6.105,6.105,0,0,1-6.59,0c-1.794-1.182-2.976-3.4-2.445-6.692a7,7,0,0,1,2.258-3.916Z" transform="translate(-37.281 -33.88)" fill="#9e2d6b" stroke="#9e2d6b" stroke-width="0.8"/>
        <g id="Group_10262" data-name="Group 10262" transform="translate(12.723 21.653) rotate(9)">
          <path id="Path_8824" data-name="Path 8824" d="M.187,0S-.343.226.38,1.22c.621.854,1.244,1.106,1.9,1.92.672.837.213,1.344.213,1.344" transform="translate(0 0)" fill="#9e2d6b" stroke="#9e2d6b" stroke-linecap="round" stroke-linejoin="round" stroke-width="0.8"/>
          <g id="Ellipse_55" data-name="Ellipse 55" transform="translate(2.338 5.74)" fill="#9e2d6b" stroke="#9e2d6b" stroke-width="0.8">
            <circle cx="0.638" cy="0.638" r="0.638" stroke="none"/>
            <circle cx="0.638" cy="0.638" r="0.238" fill="none"/>
          </g>
        </g>
      </g>
    </g>
  </g>
</svg>
