<svg xmlns="http://www.w3.org/2000/svg" width="29.113" height="29.113" viewBox="0 0 29.113 29.113">
  <path id="Icon_awesome-linkedin" data-name="Icon awesome-linkedin" d="M27.033,2.25H2.073A2.088,2.088,0,0,0,0,4.349V29.264a2.088,2.088,0,0,0,2.073,2.1h24.96a2.094,2.094,0,0,0,2.079-2.1V4.349A2.094,2.094,0,0,0,27.033,2.25ZM8.8,27.2H4.484V13.31H8.805V27.2ZM6.641,11.413a2.5,2.5,0,1,1,2.5-2.5,2.5,2.5,0,0,1-2.5,2.5ZM24.973,27.2H20.658V20.445c0-1.612-.032-3.685-2.242-3.685-2.248,0-2.593,1.755-2.593,3.568V27.2H11.509V13.31h4.139v1.9h.058a4.545,4.545,0,0,1,4.087-2.242c4.367,0,5.179,2.879,5.179,6.622Z" transform="translate(0 -2.25)" fill="#2867b2"/>
</svg>
