<?xml version="1.0" encoding="UTF-8"?>
<svg width="430px" height="535px" viewBox="0 0 430 535" version="1.1" xmlns="http://www.w3.org/2000/svg" xmlns:xlink="http://www.w3.org/1999/xlink">
    <title>branding@2x</title>
    <defs>
        <filter x="-29.3%" y="-33.3%" width="163.4%" height="162.0%" filterUnits="objectBoundingBox" id="filter-1">
            <feOffset dx="0" dy="2" in="SourceAlpha" result="shadowOffsetOuter1"></feOffset>
            <feGaussianBlur stdDeviation="21" in="shadowOffsetOuter1" result="shadowBlurOuter1"></feGaussianBlur>
            <feColorMatrix values="0 0 0 0 0   0 0 0 0 0   0 0 0 0 0  0 0 0 0.5 0" type="matrix" in="shadowBlurOuter1" result="shadowMatrixOuter1"></feColorMatrix>
            <feMerge>
                <feMergeNode in="shadowMatrixOuter1"></feMergeNode>
                <feMergeNode in="SourceGraphic"></feMergeNode>
            </feMerge>
        </filter>
        <linearGradient x1="50%" y1="0%" x2="50%" y2="100%" id="linearGradient-2">
            <stop stop-color="#95CF20" offset="0%"></stop>
            <stop stop-color="#5CA20E" offset="100%"></stop>
        </linearGradient>
    </defs>
    <g id="Page-1" stroke="none" stroke-width="1" fill="none" fill-rule="evenodd">
        <g id="Splash---iPad" transform="translate(-348.000000, -124.000000)">
            <g id="branding" transform="translate(355.000000, 201.000000)">
                <g id="Group" transform="translate(0.000000, 349.000000)" fill="#FFFFFF">
                    <path d="M240.98104,55.575 C244.819934,55.575 248.388137,54.8471774 251.685649,53.3915323 C254.98316,51.9358871 257.886939,49.5340726 260.396986,46.1860887 L260.396986,46.1860887 L256.410442,43.2020161 C255.475326,44.6091398 254.392561,45.810047 253.162147,46.8047379 C251.931732,47.7994288 250.639796,48.6242944 249.28634,49.2793347 C247.932884,49.934375 246.542515,50.4195901 245.115234,50.7349798 C243.687953,51.0503696 242.309888,51.2080645 240.98104,51.2080645 C237.585095,51.2080645 234.521362,50.6258065 231.789841,49.4612903 C229.05832,48.2967742 226.732836,46.6955645 224.813389,44.6576613 C222.893942,42.6197581 221.417444,40.2179435 220.383896,37.4522177 C219.350348,34.6864919 218.833573,31.7024194 218.833573,28.5 C218.833573,25.2975806 219.350348,22.3135081 220.383896,19.5477823 C221.417444,16.7820565 222.893942,14.3802419 224.813389,12.3423387 C226.732836,10.3044355 229.05832,8.70322581 231.789841,7.53870968 C234.521362,6.37419355 237.585095,5.79193548 240.98104,5.79193548 C243.638736,5.79193548 246.234911,6.3499328 248.769566,7.46592742 C251.30422,8.58192204 253.383621,10.352957 255.007769,12.7790323 L255.007769,12.7790323 L258.994313,9.50383065 C256.681133,6.59254032 253.986524,4.51824597 250.910487,3.28094758 C247.83445,2.04364919 244.524635,1.425 240.98104,1.425 C236.994496,1.425 233.340164,2.10430108 230.018044,3.46290323 C226.695924,4.82150538 223.853666,6.70171371 221.491269,9.10352823 C219.128873,11.5053427 217.283251,14.3559812 215.954403,17.6554435 C214.625555,20.9549059 213.961131,24.5697581 213.961131,28.5 C213.961131,32.4302419 214.625555,36.0572245 215.954403,39.3809476 C217.283251,42.7046707 219.128873,45.5674395 221.491269,47.969254 C223.853666,50.3710685 226.695924,52.2391465 230.018044,53.5734879 C233.340164,54.9078293 236.994496,55.575 240.98104,55.575 Z M269.023365,54.2649194 L274.929356,40.5818548 L302.613689,40.5818548 L308.298206,54.2649194 L313.761247,54.2649194 L291.761431,2.73508065 L286.741338,2.73508065 L263.929448,54.2649194 L269.023365,54.2649194 Z M300.841892,36.2149194 L276.848803,36.2149194 L289.02991,7.97540323 L300.841892,36.2149194 Z M327.555369,54.2649194 L327.555369,29.8100806 L336.63583,29.8100806 L351.326983,54.2649194 L356.863849,54.2649194 L341.655922,29.5189516 C343.083204,29.3248656 344.58431,28.9852151 346.159241,28.5 C347.734172,28.0147849 349.173757,27.274832 350.477997,26.2801411 C351.782236,25.2854503 352.865001,23.9875 353.726292,22.3862903 C354.587582,20.7850806 355.018227,18.7471774 355.018227,16.2725806 C355.018227,14.0405914 354.649103,12.1482527 353.910854,10.5955645 C353.172605,9.04287634 352.23749,7.75705645 351.105508,6.73810484 C349.973526,5.71915323 348.693895,4.94280914 347.266614,4.40907258 C345.839333,3.87533602 344.43666,3.48716398 343.058595,3.24455645 C341.680531,3.00194892 340.400899,2.85638441 339.219701,2.8078629 C338.038503,2.7593414 337.103388,2.73508065 336.414355,2.73508065 L322.682926,2.73508065 L322.682926,54.2649194 L327.555369,54.2649194 Z M337.890853,25.4431452 L327.555369,25.4431452 L327.555369,7.10201613 L337.890853,7.10201613 C340.450116,7.10201613 342.529517,7.41740591 344.129056,8.04818548 C345.728595,8.67896505 346.971314,9.45530914 347.857213,10.3772177 C348.743112,11.2991263 349.346015,12.2938172 349.665923,13.3612903 C349.985831,14.4287634 350.145785,15.3991935 350.145785,16.2725806 C350.145785,17.1459677 349.985831,18.1163978 349.665923,19.183871 C349.346015,20.2513441 348.743112,21.2460349 347.857213,22.1679435 C346.971314,23.0898522 345.728595,23.8661962 344.129056,24.4969758 C342.529517,25.1277554 340.450116,25.4431452 337.890853,25.4431452 L337.890853,25.4431452 Z M401,54.2649194 L401,49.8979839 L372.725068,49.8979839 L372.725068,29.8100806 L398.120829,29.8100806 L398.120829,25.4431452 L372.725068,25.4431452 L372.725068,7.10201613 L399.818802,7.10201613 L399.818802,2.73508065 L367.852625,2.73508065 L367.852625,54.2649194 L401,54.2649194 Z" id="CARE" fill-opacity="0.763314" fill-rule="nonzero"></path>
                    <g id="Group-22" opacity="0.990373884">
                        <path d="M40.1592798,0.0201493007 C40.2283628,6.35950594 40.3541496,12.6988626 40.350631,19.0382192 C40.3467621,25.3771773 40.2936521,31.7183276 40.097784,38.0536983 C40.020515,40.5539255 39.8791546,43.1659605 39.1032695,45.507943 C37.3258817,50.8745129 33.0974479,53.8706003 27.9132339,55.5845864 C26.1330509,56.1731213 24.2346682,56.4057052 22.3901941,56.8007192 C20.54572,57.1957332 17.6955504,56.6351003 17.4385859,56.6081948 C13.2349101,56.1667437 9.41378593,54.7365619 6.11198168,52.0880549 C2.89323667,49.5063136 0.802979146,46.2686738 0.609307373,42.0155969 C0.479527318,39.1647997 0.356535759,2.39322273 0.428413943,0.0201493007 L12.4075123,0.0201493007 C12.3707746,3.37158986 12.3228558,6.72303042 12.2988964,10.0746703 C12.2256206,20.3932647 11.9073599,30.7134535 12.5796206,41.0262682 C12.7207814,43.1922682 13.7584228,44.7151248 15.6334451,45.7030584 C18.0707146,46.9875514 20.6481464,47.2008031 23.2796866,46.4771423 C25.9425737,45.7451108 27.5851898,44.0381003 27.8465469,41.2193906 C28.0116671,39.4370444 28.1767872,37.6453311 28.1711967,35.8582017 C28.133261,23.9119185 28.0494031,11.9660339 27.9803202,0.0201493007 L40.1592798,0.0201493007 Z" id="Fill-4"></path>
                        <path d="M60.6487719,55.9738893 L59.2406492,55.9738893 C56.158167,55.9738893 53.0754881,55.9744886 49.9930059,55.9736895 C48.6535577,55.97329 48.6511964,55.9718915 48.6511964,54.635397 C48.650606,38.0606665 48.6508028,21.485936 48.6508028,4.91120557 C48.6508028,3.61326754 48.6811062,2.31413087 48.6393899,1.01759128 C48.6167607,0.311186961 48.7985809,0.00333372225 49.5644297,0.0115244963 C52.8106288,0.0460855672 56.0574182,0.0372954682 59.303814,0.0167186457 C59.9149975,0.0129229211 60.2152764,0.22967877 60.257583,0.854175347 C60.4533743,3.75370935 61.7074221,6.25309408 63.3573814,8.51274884 C67.3771035,14.0179479 71.4963937,19.448431 75.582429,24.9038861 C76.349852,25.928532 77.1485622,26.9288053 77.932711,27.9404657 C78.0179146,27.9204882 78.1031182,27.9005107 78.1883219,27.8805332 L78.1883219,26.7532031 C78.1883219,18.2663625 78.2050478,9.77912242 78.1658895,1.29228187 C78.1613637,0.295404738 78.3996583,-0.0196404 79.4116728,0.000936422532 C82.6240265,0.0660630648 85.8389384,0.048083317 89.0520792,0.00932697154 C89.8722379,-0.000661777279 90.1835361,0.183930301 90.1821633,1.10469317 C90.1546102,19.0440865 90.1618909,36.98328 90.1599231,54.9226734 C90.1599231,55.2173415 90.1333585,55.5120096 90.116239,55.871205 C89.8352442,55.9077638 89.5861269,55.9682956 89.3368128,55.9686951 C85.9918326,55.9750879 82.6468524,55.9639005 79.302069,55.9821429 C78.7172534,55.9852765 78.3849002,55.8684081 78.3778163,55.1755885 C78.3345258,51.0078829 76.7327763,47.3551973 74.7093378,43.8407559 C71.2913541,37.9040429 67.1998091,32.4533825 63.0059411,27.0754401 C62.2985345,26.1684617 61.5881763,25.2640804 60.6487719,24.4158358 L60.6487719,55.9738893 Z" id="Fill-14"></path>
                        <path d="M151.99241,9.93625597 L150.664109,9.93625597 C144.461079,9.93625597 138.258049,9.95462685 132.055221,9.91708636 C131.108044,9.91129555 130.761732,10.1473213 130.788093,11.1341567 C130.853291,13.5605099 130.842424,15.9904573 130.792319,18.4178088 C130.77441,19.2892272 131.04828,19.5637919 131.935893,19.5589995 C138.037907,19.5262514 144.140524,19.5635922 150.242941,19.5210597 C151.24968,19.5140707 151.578486,19.7812471 151.547899,20.8040256 C151.475055,23.230179 151.526167,25.6597271 151.523953,28.0878773 C151.522544,29.415173 151.519526,29.4203647 150.215373,29.4207641 C144.246974,29.4227609 138.278776,29.4213631 132.310377,29.4219622 C130.812039,29.4221619 130.809826,29.423959 130.809624,30.8726622 C130.809021,38.7226164 130.809423,46.5723709 130.809021,54.4223251 C130.809021,55.9652789 130.807612,55.9662773 129.206447,55.966477 C126.021021,55.967076 122.835393,55.9439127 119.65057,55.9821429 C118.82755,55.9918368 118.553076,55.7464258 118.55408,54.9103514 C118.574406,36.9488287 118.573602,18.9873059 118.556296,1.02578316 C118.555491,0.251610577 118.782878,-0.00178767026 119.581549,0 C129.673697,0.023172756 139.766247,0.0235721228 149.858597,0 C150.687653,-0.00178767026 150.886264,0.253607411 150.954279,1.07031256 C151.174421,3.71152503 151.527173,6.3417549 151.832636,8.97557909 C151.862417,9.23376973 151.917151,9.48916482 151.99241,9.93625597" id="Fill-16"></path>
                        <path d="M181.137021,55.9667864 C178.081535,55.9667864 175.203406,55.9669861 172.325278,55.9667864 C171.613128,55.9667864 170.898452,55.9280334 170.189604,55.976974 C169.502319,56.0245163 169.298931,55.7460543 169.306701,55.0602866 C169.33584,52.4318768 169.317774,49.8026679 169.317579,47.1736588 C169.317385,42.1823169 169.30437,37.1907752 169.331955,32.1994333 C169.336034,31.469719 169.113608,30.9607367 168.612811,30.4551504 C164.343989,26.145581 160.513024,21.4812422 157.713376,15.9992957 C155.576926,11.8161729 154.298901,7.39254191 154.171662,2.64430494 C154.149517,1.82350116 154.074145,1.00389594 154.018975,0.115773867 C154.394088,0.0788187198 154.675179,0.0274810294 154.956465,0.0268817567 C158.258076,0.0214883029 161.559881,0.0306771502 164.861687,0.0168938792 C165.4499,0.014297031 165.846381,0.0784192047 165.838028,0.85507656 C165.767707,7.35279016 168.498976,12.7426484 172.225041,17.7226041 C173.169329,18.9848721 174.180443,20.194404 175.126869,21.3851588 C175.30073,21.350401 175.386203,21.3605886 175.419033,21.3226347 C179.083324,17.0869756 182.306066,12.553478 183.766693,6.99102923 C184.258554,5.11810244 184.338006,3.12412257 184.528379,1.17748525 C184.611133,0.331512021 184.853178,-0.0152670864 185.755507,0 C189.056341,0.0576444195 192.358729,0.0222873331 195.660535,0.0276807869 C195.879269,0.028080302 196.09781,0.0776201745 196.57685,0.136348894 C196.260792,2.80550928 196.127143,5.46488155 195.604394,8.04075516 C194.303253,14.452573 191.034666,19.8680002 187.021876,24.831376 C185.390302,26.8495266 183.598077,28.7328408 181.83363,30.6333341 C181.351093,31.1529035 181.12012,31.6504995 181.122645,32.3794148 C181.146539,39.7666488 181.137215,47.1542823 181.137021,54.5415163 L181.137021,55.9667864 Z" id="Fill-18"></path>
                        <path d="M109.333382,55.9731195 C106.851103,55.9731195 104.462193,55.9733193 102.073283,55.9731195 C100.74416,55.9729197 99.414638,55.9499413 98.0863131,55.9815116 C97.4752199,55.9960978 97.231421,55.7589213 97.2814975,55.1654806 C97.2982562,54.9674673 97.2818965,54.7666565 97.2818965,54.5670446 C97.2818965,36.8683248 97.281697,19.169605 97.282096,1.47068538 C97.2822955,0.0160562952 97.2842906,0.0146576134 98.7508746,0.0140581783 C101.94061,0.0132589315 105.130944,0.0336397236 108.32048,0 C109.100357,-0.00792110729 109.435531,0.165715249 109.434535,1.03929195 C109.412388,19.0373297 109.418173,37.0355672 109.414782,55.0336049 C109.414782,55.2937597 109.37089,55.5537147 109.333382,55.9731195" id="Fill-20"></path>
                    </g>
                </g>
                <text id="The-Virtual-Hospital" font-family="Helvetica" font-size="26" font-weight="normal" letter-spacing="0.735118944" fill="#FFFFFF" fill-opacity="0.766608392">
                    <tspan x="77" y="452">The Virtual Hospital</tspan>
                </text>
                <g id="logo" filter="url(#filter-1)" transform="translate(56.000000, 0.000000)">
                    <path d="M141.5,297 C176.065573,297 219.551672,279.592829 245.769663,254.156714 C262.457275,237.966762 279.100158,211.666172 282.665766,192.822061 C284.057964,185.464344 281.036624,173.92689 274.802525,167.972278 C272.663165,165.928829 261.069104,160.449473 251.253304,164.51303 C236.590812,170.583027 222.443116,187.157887 215.780708,194.355207 C210.036553,200.56055 193.320474,216.010971 174.099143,222.670521 C154.228768,229.554942 131.455772,225.553256 122.438752,222.670521 C113.421732,219.787786 85.0703532,208.38414 71.2075609,175.048195 C67.4748677,166.072163 64.74116,149.462006 63.3858282,132.026292 C62.0982941,115.462764 62.2535697,98.1142962 56.6030084,87.3378133 C49.4082265,73.6162663 25.6439458,78.3174809 20.8951479,80.9880258 C8.37220761,88.030455 0,108.480165 0,148.905996 C0,229.374688 62.2261622,297 141.5,297 Z" id="Oval" fill="#FFFFFF"></path>
                    <circle id="Oval" fill="#FFFFFF" cx="145" cy="156" r="39"></circle>
                    <path d="M290,138 C290,61.7847045 229.044006,0 153.850978,0 C113.866704,0 77.9081431,17.4704562 53,45.2911617" id="Oval" stroke="url(#linearGradient-2)" stroke-width="28" stroke-linecap="round"></path>
                </g>
            </g>
        </g>
    </g>
</svg>