<?xml version="1.0" encoding="UTF-8"?>
<svg width="40px" height="40px" viewBox="0 0 40 40" version="1.1" xmlns="http://www.w3.org/2000/svg" xmlns:xlink="http://www.w3.org/1999/xlink">
    <title>max</title>
    <g id="Page-1" stroke="none" stroke-width="1" fill="none" fill-rule="evenodd">
        <g id="Artboard" transform="translate(-295.000000, -145.000000)" fill="#ffffff" fill-rule="nonzero">
            <g id="Group" transform="translate(295.000000, 145.000000)">
                <path d="M1.19442724,0.16112967 C0.512802477,0.231785269 -0.00366450123,0.801950849 -0.000133819859,1.47974505 L-0.000133819859,12.9077626 C-0.00679804932,13.3833019 0.245832941,13.8256236 0.661156138,14.0653552 C1.07647933,14.3050868 1.59014911,14.3050868 2.00547231,14.0653552 C2.4207955,13.8256236 2.67342649,13.3833019 2.66662844,12.9077626 L2.66662844,2.79836484 L12.8887031,2.79836484 C13.3695339,2.80507447 13.8167717,2.55522515 14.059167,2.14448546 C14.3015622,1.73374576 14.3015622,1.22574874 14.059167,0.815009047 C13.8167717,0.404269353 13.3695339,0.154420033 12.8887031,0.16112967 L1.33331413,0.16112967 C1.28704994,0.158743638 1.24069144,0.158743638 1.19442724,0.16112967 L1.19442724,0.16112967 Z M26.9718338,0.16112967 C26.2354644,0.199059404 25.6696099,0.820172729 25.7079624,1.54842511 C25.7463149,2.27667749 26.374351,2.83629457 27.1107204,2.79836484 L37.3327956,2.79836484 L37.3327956,12.9077626 C37.3259975,13.3833019 37.5786285,13.8256236 37.9939517,14.0653552 C38.4092749,14.3050868 38.9229447,14.3050868 39.3382679,14.0653552 C39.7535911,13.8256236 40.006222,13.3833019 39.9995578,12.9077626 L39.9995578,1.47974505 C39.9993495,0.751523758 39.4024478,0.161202434 38.6661098,0.16112967 L27.1107204,0.16112967 C27.0644563,0.158743646 27.0180979,0.158743646 26.9718338,0.16112967 L26.9718338,0.16112967 Z M1.31942542,25.6268718 C0.96337277,25.6305722 0.623576213,25.7748823 0.375737132,26.0277255 C0.127898051,26.2805687 -0.00739469868,26.6209404 8.92767305e-13,26.973011 L8.92767305e-13,38.401011 C6.22389674e-05,39.1292408 0.596967518,39.7195755 1.33331413,39.7197824 L12.8887031,39.7197824 C13.3695705,39.7264145 13.8168671,39.4765781 14.0592974,39.0658158 C14.3017278,38.6550536 14.3017278,38.1470123 14.0592974,37.7362501 C13.8168671,37.3254879 13.3695705,37.0756515 12.8887031,37.0824176 L2.66662844,37.0824176 L2.66662844,26.973011 C2.67412408,26.6161761 2.53505135,26.2715746 2.28117343,26.0179109 C2.02729551,25.7642473 1.68029542,25.6231862 1.31942542,25.6268718 L1.31942542,25.6268718 Z M38.6522209,25.6268718 C38.2961683,25.6305722 37.9563717,25.7748824 37.7085327,26.0277256 C37.4606936,26.2805688 37.3254009,26.6209404 37.3327956,26.973011 L37.3327956,37.0824176 L27.1107204,37.0824176 C26.629853,37.0756515 26.1825565,37.3254879 25.9401261,37.7362501 C25.6976957,38.1470123 25.6976957,38.6550536 25.9401261,39.0658158 C26.1825565,39.4765781 26.629853,39.7264145 27.1107204,39.7197824 L38.6661098,39.7197824 C39.4024564,39.7195756 39.9993618,39.1292409 39.999424,38.401011 L39.999424,26.973011 C40.0069196,26.6161761 39.8678469,26.2715745 39.613969,26.0179109 C39.360091,25.7642473 39.0130909,25.6231862 38.6522209,25.6268718 L38.6522209,25.6268718 Z" id="Shape"></path>
            </g>
        </g>
    </g>
</svg>