<svg xmlns="http://www.w3.org/2000/svg" width="37.194" height="51.828" viewBox="0 0 37.194 51.828"><defs><style>.a{fill:#fff;stroke:#fff;stroke-width:0.5px;}</style></defs><g transform="translate(986.25 836.25)"><g transform="translate(-986 -836)"><path class="a" d="M17,45.107A13.446,13.446,0,0,0,29.842,58.518c-1.073,3.359-.71,6.312,1.081,8.1a6.219,6.219,0,0,0,4.544,1.706,11.443,11.443,0,0,0,3.215-.5,21.786,21.786,0,0,0,8.887-5.592,21.784,21.784,0,0,0,5.593-8.887c.961-3.266.533-6.022-1.2-7.76-1.791-1.793-4.744-2.156-8.1-1.081a13.42,13.42,0,0,0-5.707-10.4h6.959a8.554,8.554,0,1,0,0-17.108H25.554a8.55,8.55,0,0,0-2.321,16.78A13.43,13.43,0,0,0,17,45.107Zm2.444,0a10.925,10.925,0,0,1,1.016-4.589l14.57,14.57A10.9,10.9,0,0,1,30.442,56.1,11.011,11.011,0,0,1,19.444,45.107Zm30.785,2.209c1.061,1.059,1.275,3.007.588,5.341a19.32,19.32,0,0,1-4.976,7.849,19.3,19.3,0,0,1-7.849,4.975c-2.337.688-4.281.474-5.341-.587-1.261-1.261-1.3-3.672-.161-6.518A13.449,13.449,0,0,0,43.71,47.155C46.557,46.015,48.968,46.055,50.229,47.316Zm-8.789-2.209A10.925,10.925,0,0,1,40.425,49.7L25.854,35.124a10.976,10.976,0,0,1,15.587,9.983Zm9.776-19.552a6.117,6.117,0,0,1-6.11,6.11H36.552V19.444h8.554A6.117,6.117,0,0,1,51.217,25.554Zm-25.663,6.11a6.11,6.11,0,1,1,0-12.22h8.554v12.22Zm-1.849,4.767L39.116,51.842a11.02,11.02,0,0,1-1.938,1.938L21.767,38.37A11.189,11.189,0,0,1,23.705,36.431Z" transform="translate(-17 -17)"/></g></g></svg>