<?xml version="1.0" encoding="UTF-8"?>
<svg width="42px" height="42px" viewBox="0 0 42 42" version="1.1" xmlns="http://www.w3.org/2000/svg" xmlns:xlink="http://www.w3.org/1999/xlink">
    <title>min</title>
    <g id="Page-1" stroke="none" stroke-width="1" fill="none" fill-rule="evenodd">
        <g id="Artboard" transform="translate(-243.000000, -144.000000)" fill="#ffffff" fill-rule="nonzero" stroke="#000000" stroke-width="0.5">
            <g id="Shape" transform="translate(244.000000, 145.000000)">
                <path d="M10.9987632,28 C10.9991754,28 10.9995877,28 11,28 C11.275726,28 11.5253883,28.1135969 11.7062876,28.2953954 C11.888128,28.4726765 12,28.7223462 12,29 C12,29.0004123 12,29.0008246 12,29.0012368 C12,29.0016487 12,29.002061 12,29.0024733 L12,38.9975267 C12,39.5511774 11.5561352,40 11,40 C10.4477153,40 10,39.544239 10,38.9975267 L10,30 L1.0024733,30 C0.4488226,30 0,29.5561352 0,29 C0,28.4477153 0.455761,28 1.0024733,28 L10.9975267,28 C10.997939,28 10.9983513,28 10.9987635,28 L10.9987632,28 Z M29.0012368,28 C29.0008246,28 29.0004123,28 29,28 C28.724274,28 28.4746117,28.1135969 28.2937124,28.2953954 C28.111872,28.4726765 28,28.7223462 28,29 C28,29.0004123 28,29.0008246 28,29.0012368 C28,29.0016487 28,29.002061 28,29.0024733 L28,38.9975267 C28,39.5511774 28.4438648,40 29,40 C29.5522847,40 30,39.544239 30,38.9975267 L30,30 L38.9975267,30 C39.5511774,30 40,29.5561352 40,29 C40,28.4477153 39.544239,28 38.9975267,28 L29.0024733,28 C29.002061,28 29.0016487,28 29.0012365,28 L29.0012368,28 Z M10.9987632,12 C10.9991754,12 10.9995877,12 11,12 C11.275726,12 11.5253883,11.8864031 11.7062876,11.7046046 C11.888128,11.5273235 12,11.2776538 12,11 C12,10.9995877 12,10.9991754 12,10.9987632 C12,10.9983513 12,10.997939 12,10.9975267 L12,1.0024733 C12,0.4488226 11.5561352,0 11,0 C10.4477153,0 10,0.455761 10,1.0024733 L10,10 L1.0024733,10 C0.4488226,10 0,10.4438648 0,11 C0,11.5522847 0.455761,12 1.0024733,12 L10.9975267,12 C10.997939,12 10.9983513,12 10.9987635,12 L10.9987632,12 Z M29.0012368,12 C29.0008246,12 29.0004123,12 29,12 C28.724274,12 28.4746117,11.8864031 28.2937124,11.7046046 C28.111872,11.5273235 28,11.2776538 28,11 C28,10.9995877 28,10.9991754 28,10.9987632 C28,10.9983513 28,10.997939 28,10.9975267 L28,1.0024733 C28,0.4488226 28.4438648,0 29,0 C29.5522847,0 30,0.455761 30,1.0024733 L30,10 L38.9975267,10 C39.5511774,10 40,10.4438648 40,11 C40,11.5522847 39.544239,12 38.9975267,12 L29.0024733,12 C29.002061,12 29.0016487,12 29.0012365,12 L29.0012368,12 Z"></path>
            </g>
        </g>
    </g>
</svg>