<svg xmlns="http://www.w3.org/2000/svg" xmlns:xlink="http://www.w3.org/1999/xlink" width="312" height="361" viewBox="0 0 312 361"><defs><style>.a{fill:none;}.b{opacity:0.595;isolation:isolate;}.c{clip-path:url(#a);}.d{clip-path:url(#b);}.e{clip-path:url(#c);}.f{fill:rgba(0,0,0,0.35);}</style><clipPath id="a"><rect class="a" width="312" height="361" transform="translate(914 -1256)"/></clipPath><clipPath id="b"><path class="a" d="M922.417-1254.993a8.183,8.183,0,0,0-7.417,8.181v135a98.071,98.071,0,0,0,90.026,97.8v20.838A98.161,98.161,0,0,0,1103.237-895a98.16,98.16,0,0,0,98.21-98.18v-46.15A32.818,32.818,0,0,0,1226-1070.906a32.857,32.857,0,0,0-32.737-32.726,32.857,32.857,0,0,0-32.737,32.726,32.818,32.818,0,0,0,24.553,31.576v46.15a81.471,81.471,0,0,1-81.842,81.817A81.471,81.471,0,0,1,1021.4-993.18v-20.838a98.071,98.071,0,0,0,90.026-97.8v-135a8.183,8.183,0,0,0-8.184-8.181H1070.5a8.185,8.185,0,0,0-7.185,4.057,8.18,8.18,0,0,0,0,8.249,8.185,8.185,0,0,0,7.185,4.057h24.553v126.816A81.471,81.471,0,0,1,1013.211-1030a81.471,81.471,0,0,1-81.842-81.817V-1238.63h24.553a8.184,8.184,0,0,0,7.185-4.057,8.18,8.18,0,0,0,0-8.249,8.184,8.184,0,0,0-7.185-4.057H923.184Q922.8-1255.006,922.417-1254.993Zm270.846,167.724a16.244,16.244,0,0,1,16.369,16.363,16.244,16.244,0,0,1-16.369,16.364,16.244,16.244,0,0,1-16.368-16.364A16.243,16.243,0,0,1,1193.263-1087.269Z"/></clipPath><clipPath id="c"><path class="a" d="M915-895h311v-360H915Z"/></clipPath></defs><g class="b" transform="translate(-914 1256)"><g class="c"><g class="d"><g class="e"><path class="f" d="M910-1260h321v370H910Z"/></g></g></g></g></svg>