<svg xmlns="http://www.w3.org/2000/svg" width="35" height="36" viewBox="0 0 35 36">
    <g fill="none" fill-rule="evenodd" opacity=".503">
        <g fill="#000" fill-rule="nonzero">
            <g>
                <g>
                    <path d="M31.152 23.439v-9.865C31.12 6.074 25.017 0 17.492 0 9.972 0 3.868 6.074 3.832 13.574v9.865L0 27.273v1.363C0 29.392.609 30 1.366 30h32.268c.757 0 1.366-.608 1.366-1.364v-1.363l-3.848-3.834zm-27.3 3.838l2.697-2.693.015-11.006c.032-6 4.914-10.85 10.928-10.85 6.014 0 10.897 4.854 10.928 10.85l.016 11.006 2.696 2.693H3.852zM22.31 30s0 .004 0 0c-.963 1.796-2.754 3-4.806 3-2.048 0-3.843-1.204-4.802-2.996 0 0 0-.004-.004-.004H9.655v.004C10.8 33.497 13.88 36 17.5 36c3.617 0 6.7-2.503 7.845-5.996V30H22.31z" transform="translate(-1767 -81) translate(1708 72) translate(59 9)"/>
                </g>
            </g>
        </g>
    </g>
</svg>
