<svg xmlns="http://www.w3.org/2000/svg" xmlns:xlink="http://www.w3.org/1999/xlink" width="45" height="45" viewBox="0 0 45 45">
  <defs>
    <clipPath id="clip-path">
      <rect id="Rectangle_16944" data-name="Rectangle 16944" width="45" height="45" transform="translate(-123 -4020)" fill="#fff"/>
    </clipPath>
  </defs>
  <g id="Mask_Group_97" data-name="Mask Group 97" transform="translate(123 4020)" clip-path="url(#clip-path)">
    <g id="search" transform="translate(-118.485 -4015)">
      <path id="Path_8869" data-name="Path 8869" d="M2.247,35.351H24.569a1.765,1.765,0,0,0,1.762-1.768V31.226a.587.587,0,1,0-1.175,0v2.357a.588.588,0,0,1-.587.589H2.247a.588.588,0,0,1-.587-.589V1.767a.588.588,0,0,1,.587-.589A1.765,1.765,0,0,1,4.009,2.946V4.713A1.177,1.177,0,0,0,5.184,5.891H25.156V9.427a.587.587,0,1,0,1.175,0V5.891h2.349a1.177,1.177,0,0,0,1.175-1.178V2.946A2.945,2.945,0,0,0,26.918,0H2.247A1.765,1.765,0,0,0,.485,1.767V33.583a1.765,1.765,0,0,0,1.762,1.768ZM26.918,1.178a1.765,1.765,0,0,1,1.762,1.768V4.713H5.184V2.946a2.922,2.922,0,0,0-.6-1.768Zm0,0" transform="translate(0 0)" fill="#fff" stroke="#fff" stroke-width="0.5"/>
      <path id="Path_8877" data-name="Path 8877" d="M43.048,420.869H62.2a.6.6,0,0,0,0-1.2H43.048a.6.6,0,0,0,0,1.2Zm0,0" transform="translate(-38.972 -390.306)" fill="#fff" stroke="#fff" stroke-width="0.5"/>
      <path id="Path_8879" data-name="Path 8879" d="M142.524,139.913l-1.331-1.331a8.365,8.365,0,0,0-.721-10.351c-.087-.1-.179-.195-.271-.287a8.384,8.384,0,0,0-11.844,0,8.09,8.09,0,0,0-1.344,1.762,8.182,8.182,0,0,0-.506,1.032,8.38,8.38,0,0,0,1.852,9.049l.077.079c.064.066.126.131.193.189a8.382,8.382,0,0,0,5,2.156c.214.019.432.029.647.029s.428-.01.638-.028a8.332,8.332,0,0,0,4.031-1.4l1.341,1.433a1.026,1.026,0,0,0,.24.852l3.85,4.363a2.49,2.49,0,0,0,1.779.837h.077a2.479,2.479,0,0,0,1.64-4.335l-4.363-3.85a1.027,1.027,0,0,0-.991-.206Zm-1.648,1.478-1.117-1.194c.152-.133.3-.269.443-.41s.249-.258.371-.4l1.151,1.151Zm-6.041-.191a6.417,6.417,0,0,1-1.121,0,7.375,7.375,0,0,1-4.411-1.9c-.051-.044-.095-.092-.141-.139l-.091-.094a7.37,7.37,0,0,1-1.629-7.954,7.241,7.241,0,0,1,.449-.91,7.108,7.108,0,0,1,1.181-1.549,7.373,7.373,0,0,1,10.413,0c.079.08.158.164.233.247l0,0a7.36,7.36,0,0,1,.415,9.42,7.921,7.921,0,0,1-.652.742,7.824,7.824,0,0,1-.738.649,7.324,7.324,0,0,1-3.911,1.481Zm12.867,4.578a1.467,1.467,0,0,1-2.563,1.015L141.29,142.4l1.554-1.529,4.363,3.85a1.448,1.448,0,0,1,.5,1.055Zm0,0" transform="translate(-113.212 -115.328)" fill="#fff" stroke="#fff" stroke-width="0.5"/>
    </g>
  </g>
</svg>
