<svg xmlns="http://www.w3.org/2000/svg" width="176" height="176" viewBox="0 0 176 176">
  <g id="Group_3" data-name="Group 3" transform="translate(0.5 0.5)">
    <circle id="Oval_5" data-name="Oval 5" cx="87.5" cy="87.5" r="87.5" fill="#6d3c92" stroke="#007e7c" stroke-width="1" opacity="0.27"/>
    <g id="tick" transform="translate(42.636 52.182)">
      <path id="Shape" d="M93.059,10.335l-59.9,59.156a6.435,6.435,0,0,1-4.691,1.782,6.728,6.728,0,0,1-4.691-1.782L1.759,47.753a6.077,6.077,0,0,1,0-8.553,5.9,5.9,0,0,1,4.33-1.782A5.631,5.631,0,0,1,10.42,39.2L28.463,57.018,84.4,1.782A5.9,5.9,0,0,1,88.729,0a5.631,5.631,0,0,1,4.33,1.782A6.077,6.077,0,0,1,93.059,10.335Z" fill="#6d3c92"/>
    </g>
  </g>
</svg>
