<svg xmlns="http://www.w3.org/2000/svg" xmlns:xlink="http://www.w3.org/1999/xlink" width="45" height="45" viewBox="0 0 45 45">
  <defs>
    <clipPath id="clip-path">
      <rect id="Rectangle_16945" data-name="Rectangle 16945" width="45" height="45" transform="translate(-139 -3987)" fill="#fff" stroke="#707070" stroke-width="1"/>
    </clipPath>
  </defs>
  <g id="Mask_Group_98" data-name="Mask Group 98" transform="translate(139 3987)" clip-path="url(#clip-path)">
    <g id="medical" transform="translate(-156.777 -4002.787)">
      <path id="Path_8880" data-name="Path 8880" d="M313.443,315.194h-2.5v-2.476a.7.7,0,0,0-.7-.719h-2.236a.737.737,0,0,0-.739.719v2.476h-2.536a.737.737,0,0,0-.739.719v2.236a.737.737,0,0,0,.739.719h2.536v2.555a.737.737,0,0,0,.739.719h2.236a.7.7,0,0,0,.7-.719v-2.555h2.5a.7.7,0,0,0,.7-.719v-2.236a.7.7,0,0,0-.7-.719Zm-.419,2.555h-2.456a.737.737,0,0,0-.739.719v2.555h-1.437v-2.555a.7.7,0,0,0-.7-.719h-2.575v-1.437h2.575a.7.7,0,0,0,.7-.719v-2.476h1.437v2.476a.737.737,0,0,0,.739.719h2.456Z" transform="translate(-259.48 -269.602)" fill="#fff" stroke="#fff" stroke-width="0.3"/>
      <path id="Path_8881" data-name="Path 8881" d="M49.777,37.7a9.572,9.572,0,0,0-7.858,4.11q-.226-.069-.427-.135l-.543-1.539a6.239,6.239,0,0,0,2.262-4.169c1.128-.306,2.163-1.631,2.578-3.387a1.9,1.9,0,0,0-.815-2.2,1.394,1.394,0,0,0-.637-.155c.037-.276.075-.613.115-1.027.093-.968.152-1.947.152-2.194,0-.176,0-.357.007-.549a6.356,6.356,0,0,0-1.62-5.138h0a8.054,8.054,0,0,0-11.574.278l-.131.147c-.848.947-2.009,2.245-1.926,5.568A21.524,21.524,0,0,0,30,30.262a1.408,1.408,0,0,0-.536.166,1.878,1.878,0,0,0-.779,2.152c.415,1.759,1.454,3.086,2.585,3.388A6.405,6.405,0,0,0,33.512,40.1L32.8,41.572c-.511.16-1.087.319-1.682.485C27.272,43.134,22,44.609,22,49.4v5.01c0,1.184.633,2.441,1.769,2.441H49.826A9.576,9.576,0,1,0,49.777,37.7ZM32.118,22.487l.135-.152a6.772,6.772,0,0,1,4.889-2.215A6.843,6.843,0,0,1,42.2,22.1a5.358,5.358,0,0,1,1.3,4.33c0,.2-.007.384-.007.57,0,.119-.012.364-.032.677a6.407,6.407,0,0,0-1.169-2.543l-.041-.083a.559.559,0,0,0-1.009.019c-.9,1.981-1.793,1.9-3.271,1.77-.172-.015-.346-.031-.524-.043a.762.762,0,0,0-.827.431c-.182.423.071.88.535,1.422-1.476-.176-1.85-1.256-2.187-2.229-.234-.676-.5-1.442-1.27-1.442a2.6,2.6,0,0,0-1.978.852,4.936,4.936,0,0,0-1.075,2.351,7.076,7.076,0,0,1-.16-.9C30.4,24.4,31.315,23.385,32.118,22.487Zm.219,12.964a.563.563,0,0,0-.559-.536h-.024c-.819,0-1.683-1.336-1.98-2.593-.114-.482.036-.811.223-.912.211-.114.437.087.524.179a.709.709,0,0,0,1.033-.635c-.059-.857,0-3.312.977-4.359a1.5,1.5,0,0,1,1.092-.494,3.969,3.969,0,0,1,.28.688c.414,1.2,1.185,3.424,4.6,2.937a.559.559,0,0,0,.3-.965,10.147,10.147,0,0,1-.771-.79c1.314.114,2.655.157,3.763-1.586a16.286,16.286,0,0,1,1.154,4.961.559.559,0,0,0,.556.511l.048,0a.559.559,0,0,0,.467-.339c.11-.109.279-.227.439-.144.205.106.353.466.239.95-.3,1.257-1.162,2.593-1.98,2.593h-.014A.563.563,0,0,0,42.4,35a.557.557,0,0,0-.262.458,5.138,5.138,0,0,1-2.145,3.978l-.009.006a5.159,5.159,0,0,1-2.746.69,5.051,5.051,0,0,1-2.74-.706,5.284,5.284,0,0,1-2.16-3.975Zm1.36,6.824.775-1.593a6.465,6.465,0,0,0,2.765.566,6.612,6.612,0,0,0,2.73-.538l.561,1.591a.559.559,0,0,0,.347.343q.209.071.442.145a9.511,9.511,0,0,0-.675,1.609A4.474,4.474,0,0,1,34,44.547a4.181,4.181,0,0,1-1.036-1.857q.206-.063.4-.127a.559.559,0,0,0,.33-.287ZM23.118,54.411V49.4c0-3.944,4.606-5.232,8.3-6.267l.467-.13a5.6,5.6,0,0,0,8.375,3.2,9.579,9.579,0,0,0,5.032,9.527H23.769C23.413,55.734,23.118,55.023,23.118,54.411Zm26.659,1.323a8.458,8.458,0,1,1,8.459-8.459A8.458,8.458,0,0,1,49.777,55.734Z" transform="translate(0 0)" fill="#fff" stroke="#fff" stroke-width="0.3"/>
    </g>
  </g>
</svg>
