<?xml version="1.0" encoding="UTF-8"?>
<svg width="181px" height="214px" viewBox="0 0 181 214" version="1.1" xmlns="http://www.w3.org/2000/svg" xmlns:xlink="http://www.w3.org/1999/xlink">
    <title>Group 2@3x</title>
    <defs>
        <rect id="path-1" x="14" y="0" width="163" height="206" rx="16"></rect>
        <filter x="-4.3%" y="-2.4%" width="108.6%" height="106.8%" filterUnits="objectBoundingBox" id="filter-2">
            <feOffset dx="0" dy="2" in="SourceAlpha" result="shadowOffsetOuter1"></feOffset>
            <feGaussianBlur stdDeviation="2" in="shadowOffsetOuter1" result="shadowBlurOuter1"></feGaussianBlur>
            <feColorMatrix values="0 0 0 0 0   0 0 0 0 0   0 0 0 0 0  0 0 0 0.5 0" type="matrix" in="shadowBlurOuter1"></feColorMatrix>
        </filter>
    </defs>
    <g id="Page-1" stroke="none" stroke-width="1" fill="none" fill-rule="evenodd">
        <g id="Attach-pdf" transform="translate(-199.000000, -147.000000)">
            <g id="Group-2" transform="translate(199.000000, 149.000000)">
                <g id="Rectangle">
                    <use fill="black" fill-opacity="1" filter="url(#filter-2)" xlink:href="#path-1"></use>
                    <use fill="#FFFFFF" fill-rule="evenodd" xlink:href="#path-1"></use>
                </g>
                <g id="Group" transform="translate(0.000000, 26.000000)">
                    <path d="M7,0 L148.001344,0 C151.867337,-1.35567601e-14 155.001344,3.13400675 155.001344,7 L155.001344,52 C154.997478,55.8644841 151.865826,58.9978653 148.001345,59.0038647 L3.20838051,59.0838054 L3.20838051,59.0838054 C1.91599609,59.2685987 1.05742563,59.6237706 0.63266912,60.149321 C0.207912612,60.6748713 -0.00297709411,61.6250977 1.98951966e-13,63 L1.98951966e-13,7 C1.96702162e-13,3.13400675 3.13400675,7.10171439e-16 7,0 Z" id="Rectangle" fill="#4A90E2"></path>
                    <path d="M3,59 L14,59 L14,59 L14,66 L3,66 C1.34314575,66 -2.41183085e-16,64.6568542 0,63 L0,62 C-6.46995335e-16,60.3431458 1.34314575,59 3,59 Z" id="Rectangle" fill="#0E4789"></path>
                </g>
                <path d="M49.76,72.48 C49.52,70.96 49.44,69.44 49.44,67.28 L49.44,60.6 L57.08,60.6 C60.92,60.6 63.64,59.68 65.6,57.72 C67.36,55.88 68.28,53.4 68.28,50.36 C68.28,47.48 67.44,45.08 65.8,43.48 C63.88,41.56 61.16,40.64 57.28,40.64 L48.92,40.64 C46.8,40.64 45.56,40.6 43.84,40.52 C44.08,42.32 44.16,43.76 44.16,45.68 L44.16,67.32 C44.16,69.48 44.08,70.88 43.84,72.48 L49.76,72.48 Z M57.08,56 L49.44,56 L49.44,45.24 L57.08,45.24 C59.2,45.24 60.52,45.68 61.44,46.68 C62.32,47.6 62.76,48.92 62.76,50.52 C62.76,54.04 60.76,56 57.08,56 Z M73.033968,72.6 C74.673968,72.52 75.673968,72.48 78.113968,72.48 L85.393968,72.48 C90.113968,72.48 93.313968,71.4 95.873968,69 C98.993968,66.04 100.593968,61.72 100.593968,56.28 C100.593968,51.08 99.073968,46.92 96.153968,44.16 C93.593968,41.68 90.353968,40.64 85.353968,40.64 L78.113968,40.64 C75.593968,40.64 74.633968,40.6 73.033968,40.52 C73.273968,42.28 73.353968,43.48 73.353968,45.72 L73.353968,67.32 C73.353968,69.72 73.273968,70.96 73.033968,72.6 Z M85.033968,67.76 L78.673968,67.76 L78.673968,45.36 L85.073968,45.36 C88.553968,45.36 90.633968,46.04 92.273968,47.76 C94.113968,49.68 95.033968,52.52 95.033968,56.32 C95.033968,60.08 94.033968,63.16 92.113968,65.2 C90.433968,67 88.313968,67.76 85.033968,67.76 Z M111.987936,72.48 C111.747936,70.96 111.667936,69.56 111.667936,66.72 L111.667936,58.72 L120.227936,58.72 C122.667936,58.72 124.187936,58.8 125.667936,59 L125.667936,53.68 C124.199701,53.8682353 122.873196,53.950173 120.654624,53.9591614 L111.667936,53.96 L111.667936,45.48 L122.307936,45.48 C124.867936,45.48 126.347936,45.56 127.787936,45.76 L127.787936,40.36 C126.20676,40.5482353 124.979908,40.630173 122.740104,40.6391614 L111.107936,40.64 C108.667936,40.64 107.667936,40.6 106.027936,40.52 C106.267936,42.36 106.347936,43.52 106.347936,45.72 L106.347936,66.8 C106.347936,69.44 106.267936,71.12 106.027936,72.48 L111.987936,72.48 Z" id="PDF" fill="#FFFFFF" fill-rule="nonzero"></path>
                <line x1="38" y1="109" x2="153" y2="109" id="Line" stroke="#D8D8D9" stroke-width="7" stroke-linecap="round"></line>
                <line x1="38" y1="133" x2="153" y2="133" id="Line" stroke="#D8D8D9" stroke-width="7" stroke-linecap="round"></line>
                <line x1="38" y1="157" x2="153" y2="157" id="Line" stroke="#D8D8D9" stroke-width="7" stroke-linecap="round"></line>
                <line x1="38" y1="181" x2="115.5" y2="181.5" id="Line" stroke="#D8D8D9" stroke-width="7" stroke-linecap="round"></line>
            </g>
        </g>
    </g>
</svg>