<?xml version="1.0" encoding="UTF-8"?>
<svg width="181px" height="214px" viewBox="0 0 181 214" version="1.1" xmlns="http://www.w3.org/2000/svg" xmlns:xlink="http://www.w3.org/1999/xlink">
    <title>Group 2@3x</title>
    <defs>
        <rect id="path-1" x="14" y="0" width="163" height="206" rx="16"></rect>
        <filter x="-4.3%" y="-2.4%" width="108.6%" height="106.8%" filterUnits="objectBoundingBox" id="filter-2">
            <feOffset dx="0" dy="2" in="SourceAlpha" result="shadowOffsetOuter1"></feOffset>
            <feGaussianBlur stdDeviation="2" in="shadowOffsetOuter1" result="shadowBlurOuter1"></feGaussianBlur>
            <feColorMatrix values="0 0 0 0 0   0 0 0 0 0   0 0 0 0 0  0 0 0 0.5 0" type="matrix" in="shadowBlurOuter1"></feColorMatrix>
        </filter>
    </defs>
    <g id="Page-1" stroke="none" stroke-width="1" fill="none" fill-rule="evenodd">
        <g id="Attach-pdf" transform="translate(-116.000000, -138.000000)">
            <g id="Group-2" transform="translate(116.000000, 140.000000)">
                <g id="Rectangle">
                    <use fill="black" fill-opacity="1" filter="url(#filter-2)" xlink:href="#path-1"></use>
                    <use fill="#FFFFFF" fill-rule="evenodd" xlink:href="#path-1"></use>
                </g>
                <g id="Group" transform="translate(0.000000, 26.000000)">
                    <path d="M7,0 L148.001344,0 C151.867337,-1.35567601e-14 155.001344,3.13400675 155.001344,7 L155.001344,52 C154.997478,55.8644841 151.865826,58.9978653 148.001345,59.0038647 L3.20838051,59.0838054 L3.20838051,59.0838054 C1.91599609,59.2685987 1.05742563,59.6237706 0.63266912,60.149321 C0.207912612,60.6748713 -0.00297709411,61.6250977 1.98951966e-13,63 L1.98951966e-13,7 C1.96702162e-13,3.13400675 3.13400675,7.10171439e-16 7,0 Z" id="Rectangle" fill="#4A90E2"></path>
                    <path d="M3,59 L14,59 L14,59 L14,66 L3,66 C1.34314575,66 -2.41183085e-16,64.6568542 0,63 L0,62 C-6.46995335e-16,60.3431458 1.34314575,59 3,59 Z" id="Rectangle" fill="#0E4789"></path>
                </g>
                <text id="PDF" font-family="HiraginoSansGB-W6, Hiragino Sans GB" font-size="40" font-weight="500" letter-spacing="0.753968" fill="#FFFFFF">
                    <tspan x="41" y="72">PDF</tspan>
                </text>
                <line x1="38" y1="109" x2="153" y2="109" id="Line" stroke="#D8D8D9" stroke-width="7" stroke-linecap="round"></line>
                <line x1="38" y1="133" x2="153" y2="133" id="Line" stroke="#D8D8D9" stroke-width="7" stroke-linecap="round"></line>
                <line x1="38" y1="157" x2="153" y2="157" id="Line" stroke="#D8D8D9" stroke-width="7" stroke-linecap="round"></line>
                <line x1="38" y1="181" x2="115.5" y2="181.5" id="Line" stroke="#D8D8D9" stroke-width="7" stroke-linecap="round"></line>
            </g>
        </g>
    </g>
</svg>