<svg xmlns="http://www.w3.org/2000/svg" xmlns:xlink="http://www.w3.org/1999/xlink" width="45" height="45" viewBox="0 0 45 45"><defs><clipPath id="a"><rect width="45" height="45" transform="translate(-1299 -10708)" fill="#fff" stroke="#fff" stroke-width="1"/></clipPath></defs><g transform="translate(1299 10708)" clip-path="url(#a)"><g transform="translate(-1293 -10702)"><g transform="translate(0 0)"><path d="M28.113,16.453l1.841-1.841a8.559,8.559,0,0,0-12.1-12.1L2.509,17.85a8.559,8.559,0,0,0,12.1,12.1l1.841-1.841A8.557,8.557,0,1,0,28.113,16.453ZM15.344,23.9a8.54,8.54,0,0,0,.318,2.313l-2.394,2.394A6.657,6.657,0,0,1,3.854,19.2l6.941-6.941,6.373,6.373A8.516,8.516,0,0,0,15.344,23.9Zm7.608,6.589a6.657,6.657,0,0,1,0-13.177ZM18.5,17.27l-6.36-6.36L19.2,3.853a6.657,6.657,0,0,1,9.414,9.414l-2.394,2.394A8.551,8.551,0,0,0,18.5,17.27ZM24.854,30.49V17.314a6.657,6.657,0,0,1,0,13.177Z" transform="translate(0 0.001)" fill="#fff"/></g></g></g></svg>