<svg xmlns="http://www.w3.org/2000/svg" width="20" height="20" viewBox="0 0 20 20">
    <g fill="none" fill-rule="evenodd">
        <g fill="#000" fill-rule="nonzero">
            <g>
                <path d="M14.933 20c-.367-.061-.737-.11-1.101-.187-1.36-.334-2.664-.865-3.869-1.576-1.897-1.049-3.615-2.388-5.093-3.969-1.8-1.944-3.295-4.086-4.239-6.577C.266 6.794.055 5.843.01 4.877c-.07-.956.268-1.897.933-2.59.563-.574 1.107-1.169 1.713-1.691.936-.8 1.955-.8 2.858.037.954.89 1.877 1.827 2.764 2.78.675.724.675 1.843 0 2.568-.472.533-.995 1.019-1.493 1.528-.046.043-.094.08-.177.155 1.331 2.398 3.32 4.371 5.734 5.69l1.19-1.198c.293-.344.66-.618 1.073-.8.663-.288 1.436-.151 1.96.346.998.946 1.972 1.919 2.921 2.918.667.71.689 1.806.051 2.542-.6.704-1.265 1.371-1.938 2.016-.479.439-1.089.71-1.737.771-.046.011-.092.025-.137.04l-.79.011zm.298-1.203c.668.037 1.32-.219 1.783-.699.45-.47.911-.928 1.367-1.392.059-.06.114-.122.166-.187.157-.157.243-.37.238-.592-.004-.221-.099-.43-.262-.581-.367-.395-.756-.769-1.137-1.15-.496-.493-.986-.99-1.488-1.475-.147-.165-.356-.262-.578-.268-.222-.006-.437.08-.593.236-.075.061-.142.13-.212.2-.477.472-.949.95-1.429 1.416-.285.326-.763.406-1.139.19-.292-.147-.582-.294-.863-.459-1.24-.754-2.362-1.685-3.33-2.763-.897-.915-1.641-1.967-2.203-3.116-.285-.624-.223-.928.268-1.403.49-.474 1.016-.979 1.5-1.49.16-.142.252-.343.255-.555.004-.212-.082-.416-.235-.563-.06-.07-.121-.134-.183-.198L4.803 1.596c-.504-.494-.952-.499-1.456 0s-.979.939-1.437 1.437c-.226.233-.408.504-.536.8-.202.638-.21 1.32-.024 1.961.223.997.574 1.96 1.045 2.867.808 1.6 1.833 3.082 3.046 4.404 2.087 2.363 4.728 4.177 7.688 5.281.674.254 1.383.402 2.102.44v.011z" transform="translate(-1387 -279) translate(1387 279)"/>
            </g>
        </g>
    </g>
</svg>
