<svg xmlns="http://www.w3.org/2000/svg" width="34.667" height="48.439" viewBox="0 0 34.667 48.439">
  <g id="Group_760" data-name="Group 760" transform="translate(-54.5 -702)">
    <g id="Group_759" data-name="Group 759" transform="translate(55 764.5)">
      <path id="Path_2878" data-name="Path 2878" d="M15.912-34.462a2.306,2.306,0,0,0,2.3,2.3h2.426a2.306,2.306,0,0,0,2.3-2.3v-2.617h2.609a2.306,2.306,0,0,0,2.3-2.3v-2.418a2.306,2.306,0,0,0-2.3-2.3H22.921V-46.7a2.306,2.306,0,0,0-2.3-2.3H18.208a2.306,2.306,0,0,0-2.3,2.3v2.617H13.3a2.306,2.306,0,0,0-2.3,2.3v2.426a2.306,2.306,0,0,0,2.3,2.3h2.617ZM13.3-38.609a.769.769,0,0,1-.765-.765v-2.418a.769.769,0,0,1,.765-.765h3.382a.769.769,0,0,0,.765-.765V-46.7a.769.769,0,0,1,.765-.765h2.426a.769.769,0,0,1,.765.765v3.382a.769.769,0,0,0,.765.765h3.374a.769.769,0,0,1,.765.765v2.426a.769.769,0,0,1-.765.765H22.156a.769.769,0,0,0-.765.765v3.374a.769.769,0,0,1-.765.765H18.208a.769.769,0,0,1-.765-.765v-3.382a.769.769,0,0,0-.765-.765Z" transform="translate(-2.583 -3.053)" fill="#fff"/>
      <path id="Path_2879" data-name="Path 2879" d="M29.841-58.939H22.955V-59.7a2.306,2.306,0,0,0-2.3-2.3H13.008a2.306,2.306,0,0,0-2.3,2.3v.765H3.826A3.844,3.844,0,0,0,0-55.114v36.727a3.844,3.844,0,0,0,3.826,3.826H29.841a3.844,3.844,0,0,0,3.826-3.826V-55.114A3.844,3.844,0,0,0,29.841-58.939Zm-17.6-.765a.769.769,0,0,1,.765-.765h7.652a.769.769,0,0,1,.765.765v3.061a.769.769,0,0,1-.765.765H13.008a.769.769,0,0,1-.765-.765ZM32.136-18.386a2.306,2.306,0,0,1-2.3,2.3H3.826a2.306,2.306,0,0,1-2.3-2.3V-55.114a2.306,2.306,0,0,1,2.3-2.3h6.886v.765a2.306,2.306,0,0,0,2.3,2.3h7.652a2.306,2.306,0,0,0,2.3-2.3v-.765h6.886a2.306,2.306,0,0,1,2.3,2.3Z" fill="#fff" stroke="#fff" stroke-width="1"/>
      <path id="Path_2880" data-name="Path 2880" d="M8.826-25H7.3A2.306,2.306,0,0,0,5-22.7v1.53a2.306,2.306,0,0,0,2.3,2.3h1.53a2.306,2.306,0,0,0,2.3-2.3V-22.7A2.306,2.306,0,0,0,8.826-25Zm.765,3.826a.769.769,0,0,1-.765.765H7.3a.769.769,0,0,1-.765-.765V-22.7A.769.769,0,0,1,7.3-23.47h1.53a.769.769,0,0,1,.765.765Z" transform="translate(-1.174 -8.689)" fill="#fff"/>
      <path id="Path_2881" data-name="Path 2881" d="M32.833-22H16.765a.769.769,0,0,0-.765.765.769.769,0,0,0,.765.765H32.833a.769.769,0,0,0,.765-.765A.769.769,0,0,0,32.833-22Z" transform="translate(-3.758 -9.394)" fill="#fff"/>
      <path id="Path_2882" data-name="Path 2882" d="M8.826-14H7.3A2.306,2.306,0,0,0,5-11.7v1.53a2.306,2.306,0,0,0,2.3,2.3h1.53a2.306,2.306,0,0,0,2.3-2.3V-11.7A2.306,2.306,0,0,0,8.826-14Zm.765,3.826a.769.769,0,0,1-.765.765H7.3a.769.769,0,0,1-.765-.765V-11.7A.769.769,0,0,1,7.3-12.47h1.53a.769.769,0,0,1,.765.765Z" transform="translate(-1.174 -11.273)" fill="#fff"/>
      <path id="Path_2883" data-name="Path 2883" d="M32.833-11H16.765a.769.769,0,0,0-.765.765.769.769,0,0,0,.765.765H32.833a.769.769,0,0,0,.765-.765A.769.769,0,0,0,32.833-11Z" transform="translate(-3.758 -11.977)" fill="#fff"/>
    </g>
  </g>
</svg>
