<svg xmlns="http://www.w3.org/2000/svg" xmlns:xlink="http://www.w3.org/1999/xlink" width="50" height="50" viewBox="0 0 50 50">
  <defs>
    <clipPath id="clip-path">
      <rect id="Rectangle_16924" data-name="Rectangle 16924" width="50" height="50" transform="translate(-1299 -10708)" fill="#9e2d6b" stroke="#707070" stroke-width="1"/>
    </clipPath>
  </defs>
  <g id="Mask_Group_88" data-name="Mask Group 88" transform="translate(1299 10708)" clip-path="url(#clip-path)">
    <g id="money" transform="translate(-1289 -10698)">
      <g id="Group_10115" data-name="Group 10115" transform="translate(17.414 14.903)">
        <path id="Path_8798" data-name="Path 8798" d="M302.431,260.456a1.135,1.135,0,1,1,1.3-1.123.59.59,0,1,0,1.18,0,2.346,2.346,0,0,0-1.887-2.236v-.307a.59.59,0,0,0-1.18,0v.307a2.346,2.346,0,0,0-1.887,2.236,2.4,2.4,0,0,0,2.477,2.3,1.135,1.135,0,1,1-1.3,1.123.59.59,0,1,0-1.18,0A2.346,2.346,0,0,0,301.841,265v.255a.59.59,0,1,0,1.18,0V265a2.346,2.346,0,0,0,1.887-2.236A2.4,2.4,0,0,0,302.431,260.456Z" transform="translate(-299.954 -256.201)" fill="#9e2d6b" stroke="#9e2d6b" stroke-width="0.5"/>
      </g>
      <g id="Group_10117" data-name="Group 10117" transform="translate(22.249 12.817)">
        <path id="Path_8799" data-name="Path 8799" d="M387.908,223.621a7.684,7.684,0,0,0-3.139-2.778.59.59,0,1,0-.511,1.063,6.493,6.493,0,0,1,2.924,8.893.59.59,0,1,0,1.041.554,7.675,7.675,0,0,0-.316-7.732Z" transform="translate(-383.924 -220.785)" fill="#9e2d6b" stroke="#9e2d6b" stroke-width="0.5"/>
      </g>
      <g id="Group_10119" data-name="Group 10119" transform="translate(20.187 12.132)">
        <path id="Path_8800" data-name="Path 8800" d="M347.629,209h-.04a.59.59,0,0,0,0,1.18h.037a.59.59,0,0,0,0-1.18Z" transform="translate(-347 -209.001)" fill="#9e2d6b" stroke="#9e2d6b" stroke-width="0.5"/>
      </g>
      <g id="Group_10121" data-name="Group 10121" transform="translate(12.306 15.867)">
        <path id="Path_8801" data-name="Path 8801" d="M216.862,282.471a6.493,6.493,0,0,1-2.924-8.893.59.59,0,0,0-1.041-.554,7.67,7.67,0,0,0,3.454,10.51.59.59,0,1,0,.511-1.063Z" transform="translate(-212.002 -272.711)" fill="#9e2d6b" stroke="#9e2d6b" stroke-width="0.5"/>
      </g>
      <g id="Group_10123" data-name="Group 10123" transform="translate(18.405 26.263)">
        <path id="Path_8802" data-name="Path 8802" d="M317,449h-.034a.59.59,0,0,0-.005,1.18H317a.59.59,0,1,0,0-1.18Z" transform="translate(-316.378 -448.999)" fill="#9e2d6b" stroke="#9e2d6b" stroke-width="0.5"/>
      </g>
      <g id="Group_10125" data-name="Group 10125">
        <path id="Path_8803" data-name="Path 8803" d="M22.55,13.14a2.713,2.713,0,0,0-.259-.481h1.515a2.709,2.709,0,0,0,0-5.419H19.145A2.714,2.714,0,0,0,16.938,3H2.678a2.709,2.709,0,0,0,0,5.419H7.339a2.728,2.728,0,0,0,0,3.063H5.821a2.714,2.714,0,0,0-1.664,4.83,2.724,2.724,0,0,0,0,4.241,2.724,2.724,0,0,0,0,4.241,2.714,2.714,0,0,0,1.664,4.83h6.86A9.816,9.816,0,0,0,19.907,32.8,10.027,10.027,0,0,0,22.55,13.14Zm1.257-4.722a1.531,1.531,0,0,1,0,3.063H9.546a1.531,1.531,0,0,1,0-3.063ZM2.678,7.241a1.531,1.531,0,0,1,0-3.063H16.938a1.531,1.531,0,0,1,0,3.063Zm3.143,5.419H20.081a1.5,1.5,0,0,1,.66.154c-.275-.023-.554-.036-.835-.036a9.807,9.807,0,0,0-7,2.945H5.821a1.531,1.531,0,0,1,0-3.063Zm0,4.241H11.91a10.032,10.032,0,0,0-1.5,3.063H5.821a1.531,1.531,0,0,1,0-3.063Zm0,4.241h4.326a10.138,10.138,0,0,0-.036,3.063H5.821a1.531,1.531,0,0,1,0-3.063Zm0,7.3a1.531,1.531,0,0,1,0-3.063h4.528a10.028,10.028,0,0,0,1.4,3.063Zm14.086,3.181a8.835,8.835,0,1,1,8.731-8.835A8.793,8.793,0,0,1,19.907,31.624Z" transform="translate(0 -3)" fill="#9e2d6b" stroke="#9e2d6b" stroke-width="0.5"/>
      </g>
    </g>
  </g>
</svg>
