<svg xmlns="http://www.w3.org/2000/svg" width="48" height="49" viewBox="0 0 48 49">
    <g fill="none" fill-rule="evenodd">
        <g fill="#FFF" fill-rule="nonzero" stroke="#FFF">
            <g>
                <path d="M41.351 6.509h-4.453V4.845c0-2.545-2.055-4.6-4.6-4.6-2.545 0-4.6 2.055-4.6 4.6v1.664h-9.494V4.845c0-2.545-2.055-4.6-4.6-4.6-2.544 0-4.6 2.055-4.6 4.6v1.664H4.6c-2.447 0-4.453 2.006-4.453 4.453V42.28c0 2.447 2.006 4.453 4.453 4.453h36.751c2.447 0 4.453-2.006 4.453-4.453V10.96c0-2.446-2.006-4.452-4.453-4.452zM30.194 4.845c0-1.175.978-2.154 2.153-2.154 1.174 0 2.153.98 2.153 2.154v5.774c0 1.175-.979 2.153-2.153 2.153-1.175 0-2.153-.978-2.153-2.153V4.845zm-18.694 0c0-1.175.979-2.154 2.153-2.154 1.175 0 2.153.98 2.153 2.154v5.774c0 1.175-.978 2.153-2.153 2.153-1.174 0-2.153-.978-2.153-2.153V4.845zM4.649 8.906h4.404v1.664c0 2.545 2.056 4.6 4.6 4.6 2.545 0 4.6-2.055 4.6-4.6V8.906h9.543v1.664c0 2.545 2.055 4.6 4.6 4.6 2.544 0 4.6-2.055 4.6-4.6V8.906h4.453c1.125 0 2.006.93 2.006 2.007v7.39H2.594v-7.341c0-1.126.93-2.056 2.055-2.056zM41.35 44.287H4.65c-1.126 0-2.006-.93-2.006-2.006V20.749h40.763V42.28c0 1.125-.93 2.006-2.055 2.006z" transform="translate(-46 -321) translate(47 322)"/>
            </g>
        </g>
    </g>
</svg>
