<svg xmlns="http://www.w3.org/2000/svg" width="131" height="54" viewBox="0 0 131 54">
    <g fill="none" fill-rule="evenodd">
        <path fill="#CE0000" d="M16.228 19.628v.126c2.268.882 3.528 3.066 4.284 6.342.924 3.822 1.764 7.686 2.394 8.904h-6.384c-.462-.924-1.26-3.738-2.016-7.644-.84-4.158-2.142-5.46-5.082-5.46h-2.1V35H1.15V3.122c2.142-.378 5.166-.672 8.316-.672 4.074 0 12.306.504 12.306 9.156 0 3.948-2.52 6.846-5.544 8.022zm-8.904-2.352h2.562c3.528 0 5.67-2.058 5.67-5.124 0-4.158-3.108-4.956-5.376-4.956-1.386 0-2.352.084-2.856.252v9.828zm39.018-5.67V27.86c0 2.772.126 5.166.21 7.14h-5.418l-.294-3.108h-.126c-.966 1.512-3.108 3.57-6.72 3.57-4.452 0-7.476-2.898-7.476-9.912V11.606h6.216v13.02c0 3.528 1.008 5.754 3.57 5.754 2.016 0 3.822-1.722 3.822-4.368V11.606h6.216zm6.426 0v-.966c0-7.056 4.116-9.87 8.694-9.87 1.554 0 2.772.252 3.696.546l-.462 4.788c-.588-.21-1.302-.378-2.268-.378-3.486 0-3.486 3.528-3.486 5.88h4.662v4.578h-4.62V35h-6.216V16.184H49.66v-4.578h3.108zm23.814-.504c6.552 0 10.668 4.914 10.668 12.012 0 8.904-5.712 12.348-10.92 12.348-6.3 0-10.836-4.452-10.836-12.054 0-7.854 4.746-12.306 11.088-12.306zM80.95 23.24c0-3.654-1.302-7.56-4.494-7.56-3.444 0-4.662 4.032-4.662 7.602 0 4.158 1.596 7.602 4.62 7.602 2.94 0 4.536-3.486 4.536-7.644zm30.534-11.634V27.86c0 2.772.126 5.166.21 7.14h-5.418l-.294-3.108h-.126c-.966 1.512-3.108 3.57-6.72 3.57-4.452 0-7.476-2.898-7.476-9.912V11.606h6.216v13.02c0 3.528 1.008 5.754 3.57 5.754 2.016 0 3.822-1.722 3.822-4.368V11.606h6.216zm19.11.798l-1.176 4.368c-1.008-.546-2.646-1.218-4.41-1.218-1.89 0-2.898.966-2.898 2.226 0 1.302.882 1.974 3.57 3.108 3.948 1.638 5.796 3.906 5.796 7.14 0 4.452-3.36 7.392-9.198 7.392-2.562 0-5.04-.63-6.594-1.554l1.176-4.494c1.218.714 3.528 1.554 5.46 1.554 2.184 0 3.234-.924 3.234-2.352s-.798-2.184-3.36-3.276c-4.368-1.764-5.964-4.242-5.964-6.804 0-4.2 3.36-7.392 8.568-7.392 2.394 0 4.452.588 5.796 1.302z" transform="translate(-1)"/>
        <path fill="#5F5F5F" d="M2.265 53h-.93V41.615h5.61v.78h-4.68v4.395H6.57v.78H2.265V53zm12.96-8.13v6.09c0 .765.03 1.425.075 2.04h-.855l-.06-1.38h-.045c-.39.705-1.26 1.56-2.685 1.56-1.095 0-2.7-.57-2.7-3.525v-4.77h.93v4.575c0 1.71.51 2.925 2.025 2.925 1.065 0 2.385-.87 2.385-2.445v-5.07h.93zm2.955.015V43.4l.915-.33v1.815h2.22v.735h-2.22v5.115c0 1.035.315 1.665 1.155 1.665.405 0 .675-.06.885-.135l.09.72c-.255.105-.63.18-1.125.18-1.68 0-1.92-1.32-1.92-2.55V45.62h-1.32v-.735h1.32zm11.07-.015v6.09c0 .765.03 1.425.075 2.04h-.855l-.06-1.38h-.045c-.39.705-1.26 1.56-2.685 1.56-1.095 0-2.7-.57-2.7-3.525v-4.77h.93v4.575c0 1.71.51 2.925 2.025 2.925 1.065 0 2.385-.87 2.385-2.445v-5.07h.93zm6.09-.135v.885c-.12-.03-.24-.03-.405-.03-1.35 0-2.13 1.455-2.13 2.925V53h-.93v-5.715c0-.81-.015-1.605-.06-2.415h.84l.03 1.62h.06c.345-1.005 1.185-1.8 2.25-1.8.12 0 .225.03.345.045zm6.96 7.23l.225.69c-.36.195-1.185.51-2.52.51-2.34 0-3.765-1.695-3.765-4.08 0-2.655 1.5-4.395 3.6-4.395 2.58 0 3.12 2.43 3.135 3.69 0 .225-.015.36-.03.54h-5.79c0 2.52 1.38 3.495 2.97 3.495 1.11 0 1.71-.225 2.175-.45zM37.2 48.2h4.83c.015-1.155-.465-2.76-2.28-2.76-1.68 0-2.415 1.545-2.55 2.76zm14.505-3.51c2.235 0 3.705 1.71 3.705 4.17 0 3.03-2.025 4.32-3.81 4.32-2.085 0-3.69-1.59-3.69-4.17 0-2.79 1.785-4.32 3.795-4.32zm2.76 4.215c0-1.485-.795-3.465-2.79-3.465-1.965 0-2.82 1.83-2.82 3.525 0 1.935 1.185 3.465 2.775 3.465 1.62 0 2.835-1.53 2.835-3.525zm3.015-4.02v-.45c0-1.2.24-2.22.885-2.895.51-.51 1.185-.705 1.83-.705.51 0 .93.135 1.185.27l-.24.72c-.225-.105-.51-.225-.99-.225-1.425 0-1.74 1.335-1.74 2.82v.465h2.1v.735h-2.1V53h-.93v-7.38h-1.155v-.735h1.155zm19.335-3.27h.945L74.46 53h-.9l-1.65-6.435c-.42-1.59-.675-2.73-.84-3.825h-.03c-.18 1.08-.495 2.205-.975 3.825L68.235 53h-.9l-2.94-11.385h.96l1.575 6.27c.36 1.47.69 2.835.9 3.93h.045c.18-1.11.57-2.445.99-3.945l1.77-6.255h.9l1.605 6.21c.36 1.38.72 2.79.885 3.99h.045c.255-1.275.6-2.52.99-3.945l1.755-6.255zm5.535 3.075c2.235 0 3.705 1.71 3.705 4.17 0 3.03-2.025 4.32-3.81 4.32-2.085 0-3.69-1.59-3.69-4.17 0-2.79 1.785-4.32 3.795-4.32zm2.76 4.215c0-1.485-.795-3.465-2.79-3.465-1.965 0-2.82 1.83-2.82 3.525 0 1.935 1.185 3.465 2.775 3.465 1.62 0 2.835-1.53 2.835-3.525zm6.39-4.17v.885c-.12-.03-.24-.03-.405-.03-1.35 0-2.13 1.455-2.13 2.925V53h-.93v-5.715c0-.81-.015-1.605-.06-2.415h.84l.03 1.62h.06c.345-1.005 1.185-1.8 2.25-1.8.12 0 .225.03.345.045zm3.9 3.51L99.015 53H97.89l-3.135-4.185-.795.855V53h-.93V41.015h.93v7.74h.03c.195-.255.51-.63.75-.9l2.715-2.985h1.125l-3.18 3.375zm4.905-3.36v-.45c0-1.2.24-2.22.885-2.895.51-.51 1.185-.705 1.83-.705.51 0 .93.135 1.185.27l-.24.72c-.225-.105-.51-.225-.99-.225-1.425 0-1.74 1.335-1.74 2.82v.465h2.1v.735h-2.1V53h-.93v-7.38H99.15v-.735h1.155zm7.53-.195c2.235 0 3.705 1.71 3.705 4.17 0 3.03-2.025 4.32-3.81 4.32-2.085 0-3.69-1.59-3.69-4.17 0-2.79 1.785-4.32 3.795-4.32zm2.76 4.215c0-1.485-.795-3.465-2.79-3.465-1.965 0-2.82 1.83-2.82 3.525 0 1.935 1.185 3.465 2.775 3.465 1.62 0 2.835-1.53 2.835-3.525zm6.39-4.17v.885c-.12-.03-.24-.03-.405-.03-1.35 0-2.13 1.455-2.13 2.925V53h-.93v-5.715c0-.81-.015-1.605-.06-2.415h.84l.03 1.62h.06c.345-1.005 1.185-1.8 2.25-1.8.12 0 .225.03.345.045zm6.84 7.2l.21.72c-.36.18-1.185.51-2.295.51-2.31 0-3.855-1.68-3.855-4.14 0-2.55 1.71-4.335 4.155-4.335.975 0 1.74.285 2.04.48l-.285.75c-.375-.21-.975-.465-1.83-.465-2.07 0-3.135 1.635-3.135 3.51 0 2.085 1.275 3.435 3.06 3.435.915 0 1.5-.27 1.935-.465zm7.485.03l.225.69c-.36.195-1.185.51-2.52.51-2.34 0-3.765-1.695-3.765-4.08 0-2.655 1.5-4.395 3.6-4.395 2.58 0 3.12 2.43 3.135 3.69 0 .225-.015.36-.03.54h-5.79c0 2.52 1.38 3.495 2.97 3.495 1.11 0 1.71-.225 2.175-.45zm-5.1-3.765h4.83c.015-1.155-.465-2.76-2.28-2.76-1.68 0-2.415 1.545-2.55 2.76z" transform="translate(-1)"/>
    </g>
</svg>
