<svg xmlns="http://www.w3.org/2000/svg" width="197" height="176" viewBox="0 0 197 176">
    <g fill="#FFF" fill-rule="evenodd">
        <g fill-rule="nonzero">
            <path d="M11.764 51V31.656h3.1c4.34 0 6.262 1.922 7.502 8.06 1.116 5.766 2.294 9.92 2.976 11.284h9.424c-.93-1.798-2.17-7.502-3.534-13.144-1.116-4.836-2.976-8.06-6.324-9.362v-.186c4.464-1.736 8.184-6.014 8.184-11.842C33.092 3.694 20.94 2.95 14.926 2.95c-4.65 0-9.114.434-12.276.992V51h9.114zm3.782-26.164h-3.782V10.328c.744-.248 2.17-.372 4.216-.372 3.348 0 7.936 1.178 7.936 7.316 0 4.526-3.162 7.564-8.37 7.564zm35.588 26.846c5.332 0 8.494-3.038 9.92-5.27h.186L61.674 51h7.998c-.124-2.914-.31-6.448-.31-10.54V16.466h-9.176v21.266c0 3.906-2.666 6.448-5.642 6.448-3.782 0-5.27-3.286-5.27-8.494v-19.22h-9.176V37.05c0 10.354 4.464 14.632 11.036 14.632zM88.024 51V23.224h6.82v-6.758h-6.882c0-3.472 0-8.68 5.146-8.68 1.426 0 2.48.248 3.348.558l.682-7.068C95.774.842 93.976.47 91.682.47c-6.758 0-12.834 4.154-12.834 14.57v1.426H74.26v6.758h4.588V51h9.176zm25.606.682c7.688 0 16.12-5.084 16.12-18.228 0-10.478-6.076-17.732-15.748-17.732-9.362 0-16.368 6.572-16.368 18.166 0 11.222 6.696 17.794 15.996 17.794zm.124-6.758c-4.464 0-6.82-5.084-6.82-11.222 0-5.27 1.798-11.222 6.882-11.222 4.712 0 6.634 5.766 6.634 11.16 0 6.138-2.356 11.284-6.696 11.284zm33.542 6.758c5.332 0 8.494-3.038 9.92-5.27h.186l.434 4.588h7.998c-.124-2.914-.31-6.448-.31-10.54V16.466h-9.176v21.266c0 3.906-2.666 6.448-5.642 6.448-3.782 0-5.27-3.286-5.27-8.494v-19.22h-9.176V37.05c0 10.354 4.464 14.632 11.036 14.632zm34.162-.062c8.618 0 13.578-4.34 13.578-10.912 0-4.774-2.728-8.122-8.556-10.54-3.968-1.674-5.27-2.666-5.27-4.588 0-1.86 1.488-3.286 4.278-3.286 2.604 0 5.022.992 6.51 1.798l1.736-6.448c-1.984-1.054-5.022-1.922-8.556-1.922-7.688 0-12.648 4.712-12.648 10.912 0 3.782 2.356 7.44 8.804 10.044 3.782 1.612 4.96 2.728 4.96 4.836s-1.55 3.472-4.774 3.472c-2.852 0-6.262-1.24-8.06-2.294l-1.736 6.634c2.294 1.364 5.952 2.294 9.734 2.294z" transform="translate(0 94)"/>
            <path fill-opacity=".538" d="M3.696 79v-7.744H9.79v-1.518H3.696v-5.962h6.622v-1.54H1.87V79h1.826zm13.398.264c2.046 0 3.278-1.21 3.828-2.156h.066L21.076 79h1.65c-.044-.924-.11-1.958-.11-3.19v-8.8H20.79v7.458c0 2.112-1.694 3.256-3.124 3.256-2.002 0-2.684-1.628-2.684-3.96V67.01h-1.826v7.084c0 4.136 2.134 5.17 3.938 5.17zm12.606-.022c.77 0 1.386-.11 1.782-.286l-.11-1.408c-.308.11-.682.176-1.232.176-1.166 0-1.628-.836-1.628-2.354v-6.93h3.102v-1.43h-3.102v-2.794l-1.804.616v2.178H24.86v1.43h1.848v6.886c0 1.276.088 3.916 2.992 3.916zm8.184.022c2.046 0 3.278-1.21 3.828-2.156h.066L41.866 79h1.65c-.044-.924-.11-1.958-.11-3.19v-8.8H41.58v7.458c0 2.112-1.694 3.256-3.124 3.256-2.002 0-2.684-1.628-2.684-3.96V67.01h-1.826v7.084c0 4.136 2.134 5.17 3.938 5.17zM48.84 79v-6.512c0-2.024 1.012-3.982 2.992-3.982.264 0 .462.022.66.044v-1.738c-.198-.022-.352-.066-.55-.066-1.474 0-2.728 1.078-3.256 2.574h-.066l-.088-2.31h-1.606c.066 1.144.088 2.31.088 3.586V79h1.826zm10.516.242c1.826 0 3.08-.418 3.762-.748l-.352-1.32c-.748.308-1.65.616-3.146.616-2.156 0-4.048-1.254-4.07-4.576h8.162c.022-.286.044-.594.044-1.012 0-2.09-.946-5.478-4.642-5.478-3.234 0-5.346 2.706-5.346 6.468 0 3.586 2.09 6.05 5.588 6.05zm2.596-7.392h-6.358c.176-1.65 1.144-3.74 3.344-3.74 2.354 0 3.036 2.112 3.014 3.74zm14.234 7.414c2.662 0 5.61-1.892 5.61-6.358 0-3.674-2.178-6.182-5.456-6.182-3.058 0-5.61 2.266-5.61 6.358 0 3.872 2.376 6.182 5.456 6.182zm.044-1.43c-2.156 0-3.63-2.156-3.63-4.818 0-2.31 1.078-4.862 3.674-4.862 2.618 0 3.652 2.684 3.652 4.818 0 2.706-1.518 4.862-3.696 4.862zM86.592 79V68.44h2.904v-1.43h-2.904v-.682c0-1.936.462-3.696 2.354-3.696.638 0 1.056.154 1.386.286l.308-1.43c-.396-.176-1.012-.352-1.782-.352-.946 0-1.98.308-2.772 1.078-1.32 1.342-1.32 3.3-1.32 4.796h-1.65v1.43h1.65V79h1.826zm14.52 0l2.42-8.976c.616-2.2 1.056-3.85 1.32-5.522h.044c.22 1.672.572 3.344 1.122 5.544L108.196 79h1.87l4.62-16.742h-1.87l-2.266 8.668c-.528 2.068-.99 3.916-1.32 5.83h-.066c-.242-1.826-.726-3.828-1.188-5.83l-2.112-8.668h-1.848l-2.31 8.69c-.55 2.156-1.1 4.136-1.342 5.83h-.066c-.286-1.672-.748-3.696-1.232-5.808l-2.046-8.712h-1.936L99.242 79h1.87zm20.196.264c2.662 0 5.61-1.892 5.61-6.358 0-3.674-2.178-6.182-5.456-6.182-3.058 0-5.61 2.266-5.61 6.358 0 3.872 2.376 6.182 5.456 6.182zm.044-1.43c-2.156 0-3.63-2.156-3.63-4.818 0-2.31 1.078-4.862 3.674-4.862 2.618 0 3.652 2.684 3.652 4.818 0 2.706-1.518 4.862-3.696 4.862zM131.516 79v-6.512c0-2.024 1.012-3.982 2.992-3.982.264 0 .462.022.66.044v-1.738c-.198-.022-.352-.066-.55-.066-1.474 0-2.728 1.078-3.256 2.574h-.066l-.088-2.31h-1.606c.066 1.144.088 2.31.088 3.586V79h1.826zm7.612 0v-4.664l1.1-1.254L144.364 79h2.244l-5.126-7.04 4.51-4.95h-2.2l-3.586 4.246c-.33.396-.748.924-1.034 1.342h-.044V61.4h-1.826V79h1.826zm11.132 0V68.44h2.904v-1.43h-2.904v-.682c0-1.936.462-3.696 2.354-3.696.638 0 1.056.154 1.386.286l.308-1.43c-.396-.176-1.012-.352-1.782-.352-.946 0-1.98.308-2.772 1.078-1.32 1.342-1.32 3.3-1.32 4.796h-1.65v1.43h1.65V79h1.826zm9.372.264c2.662 0 5.61-1.892 5.61-6.358 0-3.674-2.178-6.182-5.456-6.182-3.058 0-5.61 2.266-5.61 6.358 0 3.872 2.376 6.182 5.456 6.182zm.044-1.43c-2.156 0-3.63-2.156-3.63-4.818 0-2.31 1.078-4.862 3.674-4.862 2.618 0 3.652 2.684 3.652 4.818 0 2.706-1.518 4.862-3.696 4.862zM169.84 79v-6.512c0-2.024 1.012-3.982 2.992-3.982.264 0 .462.022.66.044v-1.738c-.198-.022-.352-.066-.55-.066-1.474 0-2.728 1.078-3.256 2.574h-.066l-.088-2.31h-1.606c.066 1.144.088 2.31.088 3.586V79h1.826zm10.626.242c1.54 0 2.728-.418 3.256-.682l-.33-1.408c-.594.264-1.408.594-2.596.594-2.42 0-4.158-1.826-4.158-4.73 0-2.574 1.452-4.796 4.224-4.796 1.166 0 1.958.33 2.464.616l.462-1.474c-.462-.242-1.54-.638-2.882-.638-3.696 0-6.138 2.706-6.138 6.402 0 3.674 2.266 6.116 5.698 6.116zm10.538 0c1.826 0 3.08-.418 3.762-.748l-.352-1.32c-.748.308-1.65.616-3.146.616-2.156 0-4.048-1.254-4.07-4.576h8.162c.022-.286.044-.594.044-1.012 0-2.09-.946-5.478-4.642-5.478-3.234 0-5.346 2.706-5.346 6.468 0 3.586 2.09 6.05 5.588 6.05zm2.596-7.392h-6.358c.176-1.65 1.144-3.74 3.344-3.74 2.354 0 3.036 2.112 3.014 3.74z" transform="translate(0 94)"/>
        </g>
        <path d="M125.753 17.042c-.712-.009-1.469.728-1.471 1.433-.002.65.695 1.335 1.385 1.36.733.025 1.531-.742 1.522-1.463-.008-.591-.797-1.321-1.436-1.33M91.803 40.26c.31-1.527.695-3.045.894-4.587.502-3.887.577-7.796.007-11.677-.23-1.568-.803-3.09-1.277-4.615-.269-.864-.593-1.723-.998-2.53-.626-1.247-1.325-2.457-2.028-3.662-.322-.554-.713-1.07-1.1-1.583-.641-.847-1.225-1.758-1.976-2.495-1.346-1.318-2.75-2.588-4.223-3.759-1-.794-2.132-1.443-3.263-2.048-1.189-.637-2.447-1.143-3.674-1.71-.096-.045-.179-.122-.385-.264.307-.144.52-.274.75-.346 2.945-.928 5.973-1.104 9-.695 1.588.215 3.138.763 4.68 1.238.97.298 1.929.678 2.836 1.133 1.047.526 2.122 1.065 3.026 1.795 1.832 1.48 3.67 2.983 5.294 4.68 1.48 1.55 2.738 3.327 3.989 5.078 1.04 1.458 1.97 3 2.872 4.55.7 1.204 1.268 2.486 1.922 3.719.654 1.231 1.342 2.445 2.015 3.666.33.6.678 1.19.991 1.799.916 1.78 2.092 3.352 3.632 4.643.424.155.99.472 1.135.337.415-.385-.177-.595-.356-.885-.94-1.53-1.943-3.026-2.788-4.605-.783-1.462-1.411-3.009-2.08-4.53-.422-.964-.409-1.81.412-2.68.971-1.028 5.105-6.266 6.86-7.032 2.248-.983 4.6-1.359 7.017-.442 1.115.422 4.88 1.652 5.509 2.085 1.028.707 2.18.828 3.326.798 3.88-.101 7.757-.28 11.635-.447 2.248-.096 4.494-.246 6.743-.318.417-.013.864.185 1.254.376.165.081.219.392.324.599-.192.087-.38.239-.576.25-.846.05-1.696.105-2.542.075-3.636-.126-7.222.392-10.778.993-2.303.39-4.639.99-6.597 2.377-1.003.71-1.91 1.618-2.678 2.583-1.086 1.367-2.032 2.85-2.983 4.32-.686 1.06-1.268 2.186-1.923 3.266-.611 1.007-1.222 2.016-1.898 2.978-.92 1.308-1.82 2.643-2.873 3.839-2.072 2.353-4.197 4.665-6.393 6.903-1.334 1.36-2.806 2.594-4.285 3.802-1.218.995-2.528 1.878-3.81 2.793-.958.683-1.92 1.359-2.908 1.995-1.026.662-2.073 1.29-3.13 1.9-1.287.744-2.583 1.472-3.894 2.171-.743.396-1.525.716-2.286 1.078-.358.17-.693.399-1.065.527-.28.095-.6.072-.901.102.537-.83 1.131-1.465 1.691-2.13 1.013-1.204 2.028-2.407 3-3.644.972-1.238 1.934-2.489 2.821-3.788.711-1.041 1.33-2.15 1.94-3.255.717-1.299 1.435-2.602 2.05-3.951.453-.996 1.24-3.029 1.484-3.772.243-.743.43-1.207.018-1.699-.062.058-.166.108-.177.172-.124.772-.49 1.418-.89 2.089-.834 1.4-1.517 2.889-2.314 4.312-.617 1.101-1.252 2.201-1.988 3.224-1.076 1.496-2.174 2.99-3.4 4.36-1.402 1.57-2.912 3.052-4.458 4.482-1.123 1.039-2.344 1.983-3.589 2.876-1.494 1.072-3.034 2.088-4.603 3.048-1.093.67-2.243 1.26-3.411 1.787-1.796.81-3.618 1.565-5.454 2.28-.95.37-1.94.661-2.933.885-1.759.395-3.53.738-5.305 1.053-1.665.295-3.338.542-5.013.773-.41.057-.841-.006-1.256-.062-.115-.016-.275-.197-.288-.315-.01-.107.126-.276.24-.342 1.096-.627 2.224-1.2 3.298-1.863 1.488-.916 2.944-1.887 4.402-2.851 1.332-.88 2.686-1.736 3.965-2.69 1.53-1.142 3.031-2.33 4.47-3.585 1.082-.945 2.083-1.993 3.052-3.057.717-.787 1.361-1.648 1.972-2.522.709-1.015 1.427-2.04 1.99-3.138.5-.978.819-2.053 1.168-3.101.182-.546.24-1.132.385-1.693.383-1.48.39-2.951-.057-4.42-.323-1.06-.577-2.144-.96-3.18-.81-2.193-2.241-3.977-3.903-5.581-1.656-1.599-3.52-2.933-5.546-4.008-1.383-.735-2.843-1.328-4.292-1.928-.88-.364-1.807-.61-2.703-.937-.178-.066-.452-.295-.43-.395.052-.253.2-.54.402-.69.197-.146.505-.173.769-.193 2.354-.18 4.71-.46 7.066-.48 1.728-.014 3.497.156 5.179.542 1.841.423 3.664 1.003 5.357 1.935 1.405.774 2.79 1.55 3.944 2.68.195.191.401.433.467.687.483 1.862.794 3.75.782 5.683-.014 2.41-.02 4.819-.022 7.229 0 .49.019.982.067 1.469.021.217.138.425.273.82.154-.346.252-.493.285-.654z"/>
    </g>
</svg>
