<svg xmlns="http://www.w3.org/2000/svg" width="44.931" height="44.544" viewBox="0 0 44.931 44.544"><g transform="translate(-0.26 -0.257)"><g transform="translate(0.26 0.257)"><path d="M42.635,44.544a2.267,2.267,0,0,1-1.611-.655L29.572,32.536a18.485,18.485,0,0,1-11.241,3.817A18.291,18.291,0,0,1,5.369,31.029a18.069,18.069,0,0,1,0-25.706,18.446,18.446,0,0,1,25.927,0,18.081,18.081,0,0,1,1.519,24L44.264,40.675a2.25,2.25,0,0,1-.007,3.206A2.287,2.287,0,0,1,42.635,44.544Zm-24.3-40A13.721,13.721,0,0,0,8.609,8.536a13.554,13.554,0,0,0,0,19.28,13.835,13.835,0,0,0,19.445,0,13.549,13.549,0,0,0,0-19.28A13.721,13.721,0,0,0,18.331,4.543Z" transform="translate(0 0)"/></g></g></svg>