<svg xmlns="http://www.w3.org/2000/svg" width="36" height="36" viewBox="0 0 36 36">
    <g fill="none" fill-rule="evenodd" opacity=".491">
        <g fill="#000" fill-rule="nonzero" stroke="#000">
            <g>
                <g>
                    <path d="M19.083 1.26v4.124c.846.153 1.67.4 2.471.736.773.326 1.497.732 2.177 1.21l2.921-2.924 2.967 2.966-2.939 2.942c.444.646.818 1.336 1.127 2.061.34.802.585 1.63.738 2.477h4.166v4.198h-4.17c-.152.85-.398 1.676-.738 2.478-.315.742-.7 1.443-1.154 2.102l2.967 2.97-2.964 2.97-2.96-2.963c-.668.465-1.382.86-2.138 1.183-.797.336-1.625.583-2.471.735v4.216h-4.194v-4.212c-.849-.153-1.677-.4-2.481-.74-.728-.308-1.414-.683-2.059-1.127l-2.97 2.974-2.967-2.967 2.953-2.956c-.478-.68-.88-1.408-1.21-2.179-.34-.8-.585-1.63-.738-2.477H1.258V14.86h4.166c.153-.85.399-1.675.738-2.477.32-.756.714-1.47 1.182-2.14L4.42 7.313l2.967-2.966 2.932 2.935c.655-.454 1.358-.84 2.1-1.155.8-.34 1.633-.586 2.482-.739V1.259h4.183m0-1.259h-4.194c-.693 0-1.258.566-1.258 1.26v3.115c-.582.156-1.157.35-1.712.586-.489.208-.967.448-1.431.711L8.266 3.45c-.246-.247-.568-.368-.89-.368-.323 0-.645.121-.891.368l-2.96 2.97c-.492.492-.492 1.29 0 1.78l2.211 2.213c-.277.475-.523.968-.735 1.474-.235.555-.43 1.128-.586 1.71H1.258c-.693 0-1.258.566-1.258 1.26v4.198c0 .694.565 1.26 1.258 1.26h3.157c.156.582.35 1.155.586 1.71.222.52.475 1.027.76 1.516l-2.236 2.238c-.236.235-.368.555-.368.891 0 .333.132.656.368.892l2.967 2.966c.246.246.568.368.89.368.323 0 .645-.122.891-.368l2.263-2.265c.447.256.912.485 1.39.687.558.235 1.13.433 1.712.586v3.206c0 .693.565 1.259 1.258 1.259h4.194c.693 0 1.258-.566 1.258-1.26v-3.205c.579-.156 1.15-.35 1.702-.586.506-.216.998-.462 1.473-.736l2.246 2.248c.246.247.568.368.89.368.323 0 .645-.121.891-.368l2.967-2.966c.492-.493.492-1.29 0-1.78l-2.253-2.255c.267-.461.506-.94.71-1.433.236-.555.43-1.127.586-1.71h3.158c.693 0 1.258-.562 1.258-1.26V14.86c0-.693-.562-1.259-1.258-1.259H29.56c-.156-.583-.35-1.155-.585-1.71-.202-.476-.43-.94-.687-1.392l2.229-2.23c.492-.493.492-1.291 0-1.78L27.55 3.52c-.236-.235-.554-.367-.89-.367-.337 0-.656.132-.891.367l-2.205 2.207c-.488-.285-.994-.541-1.514-.76-.555-.232-1.123-.43-1.702-.583V1.26C20.341.566 19.78 0 19.083 0h0z" transform="translate(-1707 -78) translate(1708 72) translate(0 7)"/>
                    <path d="M16.983 23.946c-3.816 0-6.918-3.105-6.918-6.925s3.102-6.925 6.918-6.925c3.816 0 6.918 3.108 6.918 6.925 0 3.82-3.102 6.925-6.918 6.925zm0-12.59c-3.123 0-5.66 2.542-5.66 5.665 0 3.122 2.537 5.665 5.66 5.665 3.122 0 5.66-2.543 5.66-5.665 0-3.123-2.538-5.666-5.66-5.666z" transform="translate(-1707 -78) translate(1708 72) translate(0 7)"/>
                </g>
            </g>
        </g>
    </g>
</svg>
