<svg xmlns="http://www.w3.org/2000/svg" width="36.591" height="36.618" viewBox="0 0 36.591 36.618"><g transform="translate(0.25 0.25)"><path d="M7.348,14.712A7.356,7.356,0,1,1,14.7,7.356,7.359,7.359,0,0,1,7.348,14.712Z" transform="translate(10.69 10.725)" fill="none" stroke="#7e7e7e" stroke-miterlimit="10" stroke-width="2"/><path d="M20.278,36.118H15.822a1.337,1.337,0,0,1-1.332-1.34v-3.4a13.653,13.653,0,0,1-3.3-1.355L8.785,32.428a1.314,1.314,0,0,1-.944.391,1.331,1.331,0,0,1-.946-.391l-3.151-3.15a1.354,1.354,0,0,1-.39-.949,1.33,1.33,0,0,1,.39-.945l2.374-2.377a14.591,14.591,0,0,1-.8-1.611,13.965,13.965,0,0,1-.624-1.815H1.336A1.339,1.339,0,0,1,0,20.239V15.78a1.338,1.338,0,0,1,1.336-1.336H4.689a14.156,14.156,0,0,1,.624-1.815,12.61,12.61,0,0,1,.78-1.569L3.743,8.709a1.313,1.313,0,0,1-.39-.942,1.335,1.335,0,0,1,.39-.949L6.886,3.664a1.346,1.346,0,0,1,1.9,0L11.14,6.026a15.451,15.451,0,0,1,1.525-.754,13.4,13.4,0,0,1,1.813-.624V1.34A1.342,1.342,0,0,1,15.818,0H20.27a1.346,1.346,0,0,1,1.342,1.34V4.659a13.1,13.1,0,0,1,1.807.62,13.725,13.725,0,0,1,1.612.808l2.34-2.346a1.344,1.344,0,0,1,1.895,0l3.151,3.15a1.341,1.341,0,0,1,0,1.891l-2.372,2.37a13.829,13.829,0,0,1,.732,1.477,14.249,14.249,0,0,1,.625,1.818h3.353a1.338,1.338,0,0,1,1.336,1.336v4.46a1.34,1.34,0,0,1-1.336,1.34H31.4a13.893,13.893,0,0,1-.625,1.815,12.553,12.553,0,0,1-.755,1.524l2.394,2.4a1.313,1.313,0,0,1,.39.942,1.333,1.333,0,0,1-.39.949l-3.151,3.151a1.344,1.344,0,0,1-1.895,0L24.986,29.97a14.933,14.933,0,0,1-1.566.781,13.841,13.841,0,0,1-1.807.624v3.4A1.337,1.337,0,0,1,20.278,36.118Zm-9.284-7.794h0a12.135,12.135,0,0,0,2.185,1.194,12.444,12.444,0,0,0,2.632.785v4.475H20.27V30.3a12.352,12.352,0,0,0,2.626-.781,12.691,12.691,0,0,0,2.27-1.256l3.147,3.147,3.146-3.154L28.31,25.1a12.994,12.994,0,0,0,1.224-2.232,12.359,12.359,0,0,0,.784-2.634h4.429V15.78H30.318a12.2,12.2,0,0,0-.78-2.634,12.508,12.508,0,0,0-1.2-2.19l3.125-3.124L28.313,4.682l-3.105,3.1A12.336,12.336,0,0,0,20.27,5.719V1.34H15.826V5.723a12.352,12.352,0,0,0-2.635.785,12.531,12.531,0,0,0-2.232,1.229L7.843,4.617,4.693,7.767,7.8,10.879a12.47,12.47,0,0,0-2.04,4.9H1.336v4.46H5.753a12.616,12.616,0,0,0,.784,2.634A12.992,12.992,0,0,0,7.82,25.189L4.685,28.328l3.151,3.151,3.158-3.154Z" transform="translate(0)" fill="#7e7e7e" stroke="#7e7e7e" stroke-miterlimit="10" stroke-width="0.5"/></g></svg>