<svg xmlns="http://www.w3.org/2000/svg" width="48" height="54" viewBox="0 0 48 54">
    <g fill="none" fill-rule="evenodd">
        <g fill="#FFF" fill-rule="nonzero" stroke="#FFF">
            <g>
                <path d="M45.722 48.853c-.122-1.272-.252-2.545-.454-3.805-.223-1.39-1.05-2.349-2.295-3.017-3.121-1.672-6.49-2.564-9.939-3.215-.701-.132-1.324-.39-1.87-.842-1.186-.984-1.97-2.246-2.553-3.655 2.837-2.29 4.564-5.32 5.799-8.73.73 1.534 1.29 1.89 2.914 1.901.44.002.883.024 1.32-.011.349-.027.714-.075 1.033-.206 1.822-.744 2.74-2.156 2.799-4.074.061-1.985.027-3.974.01-5.961-.016-1.872-1.087-3.419-2.838-4.098-.32-.124-.42-.285-.45-.608-.187-1.946-.828-3.744-1.91-5.37-2.37-3.568-5.777-5.638-9.885-6.642-.98-.238-1.99-.35-2.986-.52h-2.844c-.995.17-2.006.277-2.983.52-4.549 1.126-8.206 3.491-10.5 7.674-.754 1.373-1.174 2.86-1.316 4.418-.025.267-.099.399-.36.506-1.932.787-2.921 2.28-2.92 4.345.003 1.885-.007 3.77 0 5.655.008 1.939 1.091 3.555 2.914 4.19.603.21 1.29.18 1.977.264.086.437.16.934.283 1.418.562 2.217 2.02 3.335 4.324 3.333.71-.001 1.489-.18 2.112.054.606.227 1.05.881 1.571 1.342.225.2.466.385.703.58-.43 1.067-.99 2.036-1.747 2.89-.783.883-1.698 1.474-2.91 1.682-2.788.475-5.5 1.238-8.1 2.366-.432.188-.843.426-1.277.613C1.62 42.594.79 43.967.551 45.76c-.104.78-.203 1.563-.305 2.344v3.133c.285.417.684.513 1.178.513 13.371-.011 26.743-.01 40.115-.01 1.05 0 2.099.003 3.148 0 .786-.002 1.057-.275 1.057-1.07-.001-.607.035-1.216-.022-1.817zM38.15 14.545c1.428-.188 2.676 1.146 2.702 2.601.038 2.036.048 4.074-.004 6.11-.029 1.145-.577 2.123-1.707 2.448-.794.229-1.701.16-2.546.09-.46-.038-.609-.526-.607-.987v-4.595h-.003v-4.494c.001-.843.324-1.168 1.15-1.169.338 0 .682.04 1.015-.004zM9.048 9.875c1.411-3.585 4.029-6.02 7.568-7.375C22.371.296 27.885.824 32.9 4.537c2.66 1.971 4.258 4.655 4.672 7.977.01.083.02.166.026.25.002.033-.007.067-.012.094-.685.092-1.328.178-2.003.27C33.708 6.482 29.238 2.983 22.221 3.3c-6.324.285-10.201 3.855-11.825 9.918-.325-.092-.637-.217-.96-.26-.33-.045-.67-.011-1.057-.011.07-1.096.287-2.105.67-3.074zm.95 10.372c0 1.499.005 2.997-.002 4.496-.003.812-.326 1.134-1.133 1.127-.623-.007-1.274.073-1.864-.075-1.09-.273-1.842-1.313-1.861-2.503-.034-2.07-.048-4.142.005-6.212.04-1.522 1.395-2.71 2.665-2.528.314.044.642.002.963.002.91.002 1.227.307 1.228 1.198.003 1.499.001 2.998.001 4.495h-.002 0zm.097 7.707c-.07-.41.032-.626.38-.898.46-.359.786-.887 1.09-1.247l2.338 4.823c-2.403.398-3.436-.477-3.808-2.678zm-8.127 22.15c0-.75-.041-1.5.012-2.244.058-.821.188-1.637.315-2.451.13-.83.574-1.429 1.326-1.857 1.761-1 3.648-1.682 5.591-2.204 1.369-.368 2.758-.666 4.148-.95 1.17-.237 2.145-.79 2.987-1.61 1.281-1.247 2.142-2.763 2.807-4.4.18-.442.045-.778-.332-1.052-.394-.286-.776-.589-1.14-1.012h.514c1.557.004 3.114.017 4.67.012 1.039-.005 1.754-.683 1.751-1.628-.002-.936-.732-1.596-1.77-1.604-.407-.003-.813-.006-1.22-.003-1.14.01-1.652.425-1.924 1.597-1.147 0-2.308.012-3.468-.015-.137-.003-.314-.192-.399-.337-.723-1.253-1.507-2.477-2.123-3.78-1.625-3.433-2.257-7.072-1.99-10.852.267-3.772 1.695-6.946 4.974-9.085 4.315-2.816 11.515-2.513 15.27 2.466 1.225 1.625 1.925 3.476 2.172 5.477.395 3.214.165 6.395-.878 9.474-.89 2.624-1.995 5.16-3.88 7.255-.66.735-1.44 1.366-2.195 2.012-.33.282-.552.582-.385.997.747 1.865 1.75 3.559 3.3 4.899 1.08.933 2.407 1.149 3.737 1.418 2.64.534 5.197 1.323 7.657 2.437 1.43.647 2.265 1.618 2.356 3.208.072 1.258.201 2.51.31 3.832H1.969h0z" transform="translate(-46 -407) translate(47 408)"/>
            </g>
        </g>
    </g>
</svg>
