<svg xmlns="http://www.w3.org/2000/svg" xmlns:xlink="http://www.w3.org/1999/xlink" width="50" height="50" viewBox="0 0 50 50">
  <defs>
    <clipPath id="clip-path">
      <rect id="Rectangle_16926" data-name="Rectangle 16926" width="50" height="50" transform="translate(1106 242)" fill="#fff" stroke="#707070" stroke-width="1"/>
    </clipPath>
  </defs>
  <g id="Mask_Group_90" data-name="Mask Group 90" transform="translate(-1106 -242)" clip-path="url(#clip-path)">
    <g id="Group_10273" data-name="Group 10273" transform="translate(1116 254)">
      <path id="Path_8790" data-name="Path 8790" d="M27.315,32.393a7.421,7.421,0,0,0-11.849.853,11.3,11.3,0,0,0-.733,1.189A11.288,11.288,0,0,0,14,33.246,7.421,7.421,0,0,0,2.15,32.393,8.931,8.931,0,0,0,0,38.325c0,2.452.957,4.732,3.012,7.176a67.064,67.064,0,0,0,7.539,7.044c1.14.972,2.319,1.976,3.575,3.075l.038.033a.863.863,0,0,0,1.137,0l.038-.033c1.255-1.1,2.434-2.1,3.575-3.075A67.054,67.054,0,0,0,26.452,45.5c2.055-2.444,3.012-4.725,3.012-7.176A8.931,8.931,0,0,0,27.315,32.393ZM17.794,51.231c-.983.838-1.995,1.7-3.061,2.627-1.067-.927-2.078-1.789-3.061-2.627-5.988-5.1-9.945-8.474-9.945-12.906a7.208,7.208,0,0,1,1.719-4.791,5.762,5.762,0,0,1,4.382-1.972,5.82,5.82,0,0,1,4.764,2.681,10.234,10.234,0,0,1,1.321,2.628.863.863,0,0,0,1.642,0,10.235,10.235,0,0,1,1.321-2.628,5.7,5.7,0,0,1,9.145-.709,7.208,7.208,0,0,1,1.719,4.791C27.738,42.757,23.782,46.128,17.794,51.231Z" transform="translate(0 -29.836)" fill="#9e2d6b" stroke="#9e2d6b" stroke-width="1"/>
    </g>
  </g>
</svg>
