<?xml version="1.0" encoding="UTF-8"?>
<svg width="283px" height="40px" viewBox="0 0 283 40" version="1.1" xmlns="http://www.w3.org/2000/svg" xmlns:xlink="http://www.w3.org/1999/xlink">
    <title>Group@2x</title>
    <g id="Page-1" stroke="none" stroke-width="1" fill="none" fill-rule="evenodd">
        <g id="Home-page" transform="translate(-116.000000, -176.000000)" fill="#FFFFFF">
            <g id="Group" transform="translate(116.000000, 176.000000)">
                <path d="M170.068913,39 C172.778158,39 175.296366,38.4892473 177.623538,37.4677419 C179.950709,36.4462366 182,34.7607527 183.771439,32.4112903 L183.771439,32.4112903 L180.957993,30.3172043 C180.298048,31.3046595 179.533902,32.1474014 178.665555,32.8454301 C177.797207,33.5434588 176.885442,34.1223118 175.93026,34.5819892 C174.975077,35.0416667 173.993845,35.3821685 172.986561,35.6034946 C171.979278,35.8248208 171.006729,35.9354839 170.068913,35.9354839 C167.672274,35.9354839 165.510089,35.5268817 163.582357,34.7096774 C161.654625,33.8924731 160.013448,32.7688172 158.658826,31.3387097 C157.304204,29.9086022 156.262187,28.2231183 155.532775,26.2822581 C154.803363,24.3413978 154.438657,22.2473118 154.438657,20 C154.438657,17.7526882 154.803363,15.6586022 155.532775,13.7177419 C156.262187,11.7768817 157.304204,10.0913978 158.658826,8.66129032 C160.013448,7.2311828 161.654625,6.10752688 163.582357,5.29032258 C165.510089,4.47311828 167.672274,4.06451613 170.068913,4.06451613 C171.944544,4.06451613 173.776758,4.45609319 175.565554,5.23924731 C177.35435,6.02240143 178.821857,7.26523297 179.968076,8.96774194 L179.968076,8.96774194 L182.781522,6.66935484 C181.149029,4.62634409 179.247348,3.17069892 177.076479,2.30241935 C174.90561,1.43413978 172.569755,1 170.068913,1 C167.255467,1 164.676475,1.47670251 162.331936,2.43010753 C159.987398,3.38351254 157.981515,4.70295699 156.314287,6.38844086 C154.64706,8.07392473 153.344539,10.0743728 152.406723,12.3897849 C151.468908,14.7051971 151,17.2419355 151,20 C151,22.7580645 151.468908,25.3033154 152.406723,27.6357527 C153.344539,29.96819 154.64706,31.9771505 156.314287,33.6626344 C157.981515,35.3481183 159.987398,36.6590502 162.331936,37.5954301 C164.676475,38.53181 167.255467,39 170.068913,39 Z M189.859382,38.0806452 L194.027451,28.4784946 L213.565272,28.4784946 L217.577038,38.0806452 L221.432501,38.0806452 L205.906446,1.91935484 L202.363588,1.91935484 L186.264423,38.0806452 L189.859382,38.0806452 Z M212.314851,25.4139785 L195.382073,25.4139785 L203.978714,5.59677419 L212.314851,25.4139785 Z M231.167505,38.0806452 L231.167505,20.9193548 L237.57591,20.9193548 L247.94398,38.0806452 L251.851545,38.0806452 L241.118768,20.7150538 C242.126051,20.578853 243.185435,20.3405018 244.29692,20 C245.408405,19.6594982 246.424372,19.140233 247.344821,18.4422043 C248.265269,17.7441756 249.029415,16.8333333 249.637258,15.7096774 C250.245102,14.5860215 250.549023,13.155914 250.549023,11.4193548 C250.549023,9.85304659 250.288519,8.52508961 249.76751,7.43548387 C249.246502,6.34587814 248.586558,5.44354839 247.787678,4.72849462 C246.988798,4.01344086 246.085716,3.46863799 245.078433,3.09408602 C244.07115,2.71953405 243.081234,2.44713262 242.108684,2.27688172 C241.136135,2.10663082 240.233054,2.00448029 239.39944,1.97043011 C238.565826,1.93637993 237.905882,1.91935484 237.419607,1.91935484 L237.419607,1.91935484 L227.728848,1.91935484 L227.728848,38.0806452 L231.167505,38.0806452 Z M238.461624,17.8548387 L231.167505,17.8548387 L231.167505,4.98387097 L238.461624,4.98387097 C240.267788,4.98387097 241.735295,5.20519713 242.864147,5.64784946 C243.992999,6.09050179 244.87003,6.63530466 245.49524,7.28225806 C246.12045,7.92921147 246.545941,8.62724014 246.771711,9.37634409 C246.997481,10.125448 247.110367,10.8064516 247.110367,11.4193548 C247.110367,12.0322581 246.997481,12.7132616 246.771711,13.4623656 C246.545941,14.2114695 246.12045,14.9094982 245.49524,15.5564516 C244.87003,16.203405 243.992999,16.7482079 242.864147,17.1908602 C241.735295,17.6335125 240.267788,17.8548387 238.461624,17.8548387 L238.461624,17.8548387 Z M283,38.0806452 L283,35.016129 L263.045372,35.016129 L263.045372,20.9193548 L280.968067,20.9193548 L280.968067,17.8548387 L263.045372,17.8548387 L263.045372,4.98387097 L282.166386,4.98387097 L282.166386,1.91935484 L259.606715,1.91935484 L259.606715,38.0806452 L283,38.0806452 Z" id="CARE" fill-opacity="0.46331403" fill-rule="nonzero"></path>
                <g id="Group-22" opacity="0.990373884">
                    <path d="M28.3418359,0.0141398601 C28.3905902,4.46281119 28.4793624,8.91148252 28.4768793,13.3601538 C28.4741488,17.8085455 28.4366672,22.2584755 28.2984361,26.7043497 C28.2439046,28.4588951 28.1441415,30.2919021 27.5965717,31.9353986 C26.3422058,35.7014126 23.3580493,37.8039301 19.6993646,39.0067273 C18.4430259,39.4197343 17.1032695,39.582951 15.8015584,39.8601538 C14.4998473,40.1373566 12.4883809,39.7439301 12.3070319,39.725049 C9.340348,39.4152587 6.64364444,38.4116224 4.31344343,36.553021 C2.04186029,34.7412727 0.566691019,32.4692448 0.430009941,29.4846294 C0.338419529,27.4840699 0.251619999,1.67945455 0.302346997,0.0141398601 L8.75642389,0.0141398601 C8.73049676,2.36602797 8.69667876,4.71791608 8.67976976,7.06994406 C8.6280564,14.3110629 8.40344853,21.5533007 8.87788687,28.7903636 C8.97750906,30.3103636 9.70980963,31.379035 11.0330797,32.0723217 C12.7531477,32.9737203 14.5721333,33.1233706 16.429305,32.6155385 C18.3085994,32.1018322 19.4678522,30.9039301 19.6523012,28.9258881 C19.7688324,27.6751189 19.8853636,26.4177762 19.8814181,25.1636503 C19.8546455,16.7802937 19.795464,8.39721678 19.7467098,0.0141398601 L28.3418359,0.0141398601 Z" id="Fill-4"></path>
                    <path d="M42.8020011,39.2799223 L41.8082387,39.2799223 C39.6328211,39.2799223 37.4572646,39.2803429 35.281847,39.2797821 C34.3365507,39.2795017 34.3348842,39.2785204 34.3348842,38.3406294 C34.3344676,26.7092396 34.3346065,15.0778498 34.3346065,3.44646005 C34.3346065,2.53562635 34.3559926,1.62395149 34.3265519,0.714099142 C34.3105818,0.218376815 34.4388988,0.00233945421 34.9793855,0.00808736581 C37.270344,0.0323407489 39.5617191,0.0261722584 41.8528164,0.0117323829 C42.2841504,0.00906871657 42.4960679,0.161178085 42.5259252,0.599421296 C42.664102,2.634182 43.5491283,4.3881362 44.7135634,5.97385884 C47.5504246,9.8371564 50.4575547,13.6480218 53.3412155,17.4764113 C53.8828132,18.195461 54.4464915,18.8974072 54.9998933,19.6073444 C55.0600245,19.5933251 55.1201558,19.5793058 55.180287,19.5652865 L55.180287,18.7741776 C55.180287,12.8185 55.1920911,6.86254205 55.1644557,0.90686447 C55.1612616,0.20730157 55.3294347,-0.0137827369 56.0436494,0.000657138619 C58.310722,0.0463600455 60.5795999,0.0337426786 62.847228,0.00654524319 C63.4260432,-0.000464405108 63.6457375,0.129073895 63.6447686,0.775223275 C63.6253234,13.3642712 63.6304616,25.953179 63.6290729,38.5422269 C63.6290729,38.7490116 63.6103253,38.9557962 63.5982435,39.2078631 C63.3999354,39.2335184 63.2241245,39.2759969 63.0481746,39.2762773 C60.6875028,39.2807635 58.326831,39.2729127 55.9662981,39.2857143 C55.5535728,39.2879133 55.3190193,39.2059004 55.31402,38.7197112 C55.2834683,35.7950056 54.1530566,33.2317174 52.7250439,30.7654427 C50.3128509,26.5993284 47.4253017,22.7743035 44.4655394,19.0003088 C43.9662974,18.3638328 43.4649723,17.7291792 42.8020011,17.1339199 L42.8020011,39.2799223 Z" id="Fill-14"></path>
                    <path d="M107.266464,6.97281121 L106.329035,6.97281121 C101.951335,6.97281121 97.5736359,6.98570305 93.1960785,6.95935885 C92.5276223,6.95529512 92.2832175,7.12092725 92.3018213,7.81344333 C92.3478336,9.51614728 92.3401648,11.2213735 92.3048036,12.9247781 C92.2921644,13.5362998 92.4854444,13.7289768 93.1118647,13.7256137 C97.4182734,13.7026326 101.725108,13.7288367 106.031801,13.6989892 C106.742293,13.6940847 106.974343,13.8815769 106.952757,14.5993162 C106.901348,16.30188 106.937419,18.006826 106.935857,19.7107911 C106.934863,20.6422266 106.932733,20.64587 106.012345,20.6461502 C101.800233,20.6475515 97.5882632,20.6465706 93.3761513,20.646991 C92.3187209,20.6471311 92.3171587,20.6483923 92.3170167,21.6650261 C92.3165907,27.1737659 92.3168747,32.6823656 92.3165907,38.1911054 C92.3165907,39.2738799 92.3155966,39.2745805 91.1855974,39.2747207 C88.9375282,39.2751411 86.689317,39.2588861 84.4416738,39.2857143 C83.8608398,39.292517 83.6671337,39.1202988 83.6678418,38.5335799 C83.6821871,25.9290026 83.6816191,13.3244252 83.6694059,0.719847831 C83.6688379,0.176568826 83.8293128,-0.00125450545 84.3929633,0 C91.5153521,0.0162615832 98.6380249,0.0165418406 105.760556,0 C106.34565,-0.00125450545 106.485817,0.177970113 106.533818,0.751096533 C106.68918,2.60457897 106.938129,4.45035432 107.153705,6.29865199 C107.174723,6.47983841 107.213351,6.65906303 107.266464,6.97281121" id="Fill-16"></path>
                    <path d="M127.834855,39.2749378 C125.678489,39.2749378 123.647292,39.275078 121.616094,39.2749378 C121.113504,39.2749378 120.609132,39.2477427 120.108873,39.282087 C119.623831,39.31545 119.480293,39.1200381 119.485777,38.6387976 C119.506341,36.7942995 119.493591,34.9492406 119.493454,33.1043219 C119.493317,29.6016259 119.484131,26.0987896 119.503599,22.5960935 C119.506478,22.0840133 119.349504,21.7268328 118.996074,21.3720353 C115.983414,18.3477761 113.279765,15.0745559 111.303954,11.2275759 C109.796184,8.29205113 108.894237,5.18774871 108.80444,1.85565259 C108.788811,1.27964994 108.735618,0.704488376 108.696683,0.0812448187 C108.961414,0.0553113823 109.15979,0.0192849329 109.358303,0.0188643907 C111.688368,0.0150795108 114.01857,0.0215278247 116.348771,0.0118553538 C116.763895,0.0100330042 117.043705,0.0550310208 117.03781,0.600053726 C116.988182,5.15985274 118.915736,8.94220939 121.545353,12.4369152 C122.211771,13.3227172 122.92535,14.1715116 123.593276,15.007129 C123.715976,14.9827375 123.776298,14.9898867 123.799467,14.9632524 C126.385488,11.9908601 128.659892,8.80945823 129.690708,4.90598543 C130.037833,3.59165084 130.093904,2.19236672 130.228257,0.826305436 C130.28666,0.232640015 130.45748,-0.0107137448 131.094286,0 C133.423802,0.0404522242 135.754415,0.0156402337 138.084617,0.0194251136 C138.238986,0.0197054751 138.393217,0.0544702979 138.731293,0.0956834346 C138.50824,1.96877844 138.413919,3.8350046 138.044996,5.6426352 C137.126735,10.1421565 134.819976,13.9424563 131.988007,17.4255271 C130.836547,18.841773 129.57171,20.163397 128.326477,21.4970766 C127.985933,21.8616867 127.822928,22.2108769 127.82471,22.7223964 C127.841573,27.9064202 127.834992,33.0907244 127.834855,38.2747483 L127.834855,39.2749378 Z" id="Fill-18"></path>
                    <path d="M77.1604669,39.2793821 C75.4086336,39.2793821 73.7226947,39.2795223 72.0367557,39.2793821 C71.0987463,39.2792419 70.1604553,39.2631167 69.223009,39.2852713 C68.7917387,39.2955072 68.6196811,39.1290676 68.6550219,38.712618 C68.6668491,38.5736612 68.6553035,38.4327414 68.6553035,38.2926629 C68.6553035,25.8725086 68.6551627,13.4523544 68.6554443,1.03205991 C68.6555851,0.0112675756 68.6569931,0.0102860445 69.6920137,0.00986538828 C71.9431238,0.00930451337 74.1946562,0.0236068236 76.4456254,0 C76.9960125,-0.00555867178 77.2325564,0.116291403 77.231854,0.729327681 C77.2162236,13.3595296 77.2203068,25.9898717 77.2179132,38.6200736 C77.2179132,38.8026384 77.1869373,38.985063 77.1604669,39.2793821" id="Fill-20"></path>
                </g>
            </g>
        </g>
    </g>
</svg>