<svg xmlns="http://www.w3.org/2000/svg" width="419" height="75" viewBox="0 0 419 75">
    <defs>
        <filter id="hfg2hfe8ma" width="106%" height="142.1%" x="-3%" y="-21.1%" filterUnits="objectBoundingBox">
            <feOffset dy="2" in="SourceAlpha" result="shadowOffsetOuter1"/>
            <feGaussianBlur in="shadowOffsetOuter1" result="shadowBlurOuter1" stdDeviation="2"/>
            <feColorMatrix in="shadowBlurOuter1" result="shadowMatrixOuter1" values="0 0 0 0 0 0 0 0 0 0 0 0 0 0 0 0 0 0 0.5 0"/>
            <feMerge>
                <feMergeNode in="shadowMatrixOuter1"/>
                <feMergeNode in="SourceGraphic"/>
            </feMerge>
        </filter>
    </defs>
    <g fill="none" fill-rule="evenodd">
        <g fill="#FFF">
            <g>
                <g filter="url(#hfg2hfe8ma)" transform="translate(-270 -605) translate(279 265) translate(0 349)">
                    <path fill-opacity=".763" fill-rule="nonzero" d="M240.981 55.575c3.839 0 7.407-.728 10.705-2.183 3.297-1.456 6.2-3.858 8.711-7.206l-3.987-2.984c-.935 1.407-2.017 2.608-3.248 3.603-1.23.994-2.522 1.82-3.876 2.474-1.353.655-2.743 1.14-4.17 1.456-1.428.315-2.806.473-4.135.473-3.396 0-6.46-.582-9.191-1.747-2.732-1.164-5.057-2.765-6.977-4.803s-3.396-4.44-4.43-7.206c-1.033-2.766-1.55-5.75-1.55-8.952s.517-6.186 1.55-8.952c1.034-2.766 2.51-5.168 4.43-7.206 1.92-2.038 4.245-3.639 6.977-4.803 2.731-1.165 5.795-1.747 9.191-1.747 2.658 0 5.254.558 7.789 1.674 2.534 1.116 4.614 2.887 6.238 5.313l3.986-3.275c-2.313-2.911-5.007-4.986-8.084-6.223-3.076-1.237-6.385-1.856-9.929-1.856-3.987 0-7.64.68-10.963 2.038-3.322 1.359-6.164 3.239-8.527 5.64-2.362 2.402-4.208 5.253-5.537 8.552-1.328 3.3-1.993 6.915-1.993 10.845 0 3.93.665 7.557 1.993 10.88 1.33 3.325 3.175 6.187 5.537 8.59 2.363 2.401 5.205 4.27 8.527 5.603 3.322 1.335 6.976 2.002 10.963 2.002zm28.042-1.31l5.906-13.683h27.685l5.684 13.683h5.463l-22-51.53h-5.02l-22.812 51.53h5.094zm31.819-18.05h-23.993l12.18-28.24 11.813 28.24zm26.713 18.05V29.81h9.08l14.692 24.455h5.537l-15.208-24.746c1.427-.194 2.928-.534 4.503-1.019 1.575-.485 3.015-1.225 4.319-2.22 1.304-.995 2.387-2.293 3.248-3.894.862-1.6 1.292-3.639 1.292-6.113 0-2.232-.369-4.125-1.107-5.677-.738-1.553-1.674-2.839-2.805-3.858-1.132-1.019-2.412-1.795-3.84-2.329-1.427-.534-2.83-.922-4.207-1.164-1.378-.243-2.658-.389-3.84-.437-1.18-.049-2.116-.073-2.805-.073h-13.731v51.53h4.872zm10.336-28.822h-10.336V7.102h10.336c2.56 0 4.639.315 6.238.946 1.6.631 2.842 1.407 3.728 2.33.886.921 1.489 1.916 1.809 2.983.32 1.068.48 2.038.48 2.912 0 .873-.16 1.843-.48 2.91-.32 1.068-.923 2.063-1.809 2.985-.886.922-2.128 1.698-3.728 2.329-1.6.63-3.679.946-6.238.946zM401 54.265v-4.367h-28.275V29.81h25.396v-4.367h-25.396V7.102h27.094V2.735h-31.966v51.53H401z"/>
                    <g opacity=".99">
                        <path d="M40.16.02c.068 6.34.194 12.679.19 19.018-.003 6.34-.056 12.68-.252 19.016-.077 2.5-.219 5.112-.995 7.454-1.777 5.367-6.006 8.363-11.19 10.077-1.78.588-3.678.82-5.523 1.216-1.844.395-4.694-.166-4.951-.193-4.204-.441-8.025-1.871-11.327-4.52C2.893 49.506.803 46.268.609 42.016.48 39.165.357 2.393.43.02h11.979c-.037 3.352-.085 6.703-.11 10.055-.072 10.318-.39 20.638.282 30.951.14 2.166 1.178 3.69 3.053 4.677 2.438 1.285 5.015 1.498 7.647.774 2.663-.732 4.305-2.439 4.567-5.258.165-1.782.33-3.574.324-5.36-.038-11.947-.122-23.893-.19-35.839h12.178zM60.649 55.974H49.993c-1.34 0-1.342-.002-1.342-1.339V4.911c0-1.298.03-2.597-.012-3.893-.022-.707.16-1.015.925-1.006 3.247.034 6.493.025 9.74.005.611-.004.911.213.954.837.195 2.9 1.45 5.4 3.1 7.659 4.02 5.505 8.138 10.935 12.224 16.39.768 1.026 1.567 2.026 2.35 3.037l.256-.06v-1.127c0-8.487.017-16.974-.022-25.46C78.16.294 78.4-.02 79.412 0c3.212.065 6.427.047 9.64.008.82-.01 1.132.175 1.13 1.096-.027 17.94-.02 35.878-.022 53.818 0 .294-.027.589-.044.948-.28.037-.53.097-.78.098-3.344.006-6.69-.005-10.034.013-.585.003-.917-.114-.924-.806-.043-4.168-1.645-7.82-3.669-11.335-3.418-5.937-7.51-11.388-11.703-16.766-.707-.907-1.418-1.81-2.357-2.66v31.559zM151.992 9.936h-1.328c-6.203 0-12.406.019-18.609-.019-.947-.006-1.293.23-1.267 1.217.065 2.427.054 4.856.004 7.284-.018.871.256 1.146 1.144 1.141 6.102-.033 12.205.005 18.307-.038 1.007-.007 1.335.26 1.305 1.283-.073 2.426-.022 4.856-.024 7.284-.001 1.327-.004 1.332-1.309 1.333-5.968.002-11.936 0-17.905.001-1.498 0-1.5.002-1.5 1.45l-.001 23.55c0 1.543-.001 1.544-1.603 1.544-3.185.001-6.37-.022-9.555.016-.823.01-1.098-.236-1.097-1.072.02-17.961.02-35.923.002-53.884 0-.774.227-1.028 1.026-1.026 10.092.023 20.184.024 30.277 0 .829-.002 1.027.254 1.095 1.07.22 2.642.573 5.272.879 7.906.03.258.084.513.16.96M181.137 55.967h-8.812c-.712 0-1.427-.039-2.135.01-.688.048-.891-.23-.883-.917.029-2.628.01-5.257.01-7.886 0-4.992-.013-9.983.015-14.975.004-.73-.218-1.238-.72-1.744-4.268-4.31-8.099-8.974-10.899-14.456-2.136-4.183-3.414-8.606-3.541-13.355-.022-.82-.098-1.64-.153-2.528.375-.037.656-.089.937-.09 3.302-.005 6.604.005 9.906-.01.588-.002.984.062.976.84-.07 6.497 2.661 11.887 6.387 16.867.944 1.262 1.955 2.471 2.902 3.662.174-.035.26-.024.292-.062 3.664-4.236 6.887-8.77 8.348-14.332.492-1.873.571-3.867.761-5.814.083-.845.325-1.192 1.228-1.177 3.3.058 6.603.022 9.905.028.218 0 .437.05.916.108-.316 2.67-.45 5.329-.973 7.905-1.3 6.412-4.57 11.827-8.582 16.79-1.632 2.019-3.424 3.902-5.188 5.802-.483.52-.714 1.017-.711 1.746.024 7.388.014 14.775.014 22.163v1.425zM109.333 55.973h-7.26c-1.329 0-2.658-.023-3.987.009-.61.014-.855-.223-.805-.817.017-.198 0-.398 0-.598l.001-53.096c0-1.455.002-1.456 1.469-1.457 3.19 0 6.38.02 9.57-.014.78-.008 1.115.166 1.114 1.04-.023 17.997-.017 35.996-.02 53.994 0 .26-.044.52-.082.94"/>
                    </g>
                </g>
            </g>
        </g>
    </g>
</svg>
