<svg xmlns="http://www.w3.org/2000/svg" xmlns:xlink="http://www.w3.org/1999/xlink" width="43" height="43" viewBox="0 0 43 43">
    <defs>
        <filter id="0puown74ha" width="140%" height="140%" x="-20%" y="-14.3%" filterUnits="objectBoundingBox">
            <feOffset dy="2" in="SourceAlpha" result="shadowOffsetOuter1"/>
            <feGaussianBlur in="shadowOffsetOuter1" result="shadowBlurOuter1" stdDeviation="2"/>
            <feColorMatrix in="shadowBlurOuter1" values="0 0 0 0 0 0 0 0 0 0 0 0 0 0 0 0 0 0 0.5 0"/>
        </filter>
        <circle id="zbrkdj95lb" cx="17.5" cy="17.5" r="17.5"/>
    </defs>
    <g fill="none" fill-rule="evenodd" transform="translate(4 2)">
        <use fill="#000" filter="url(#0puown74ha)" xlink:href="#zbrkdj95lb"/>
        <use fill="#FFF" xlink:href="#zbrkdj95lb"/>
        <g fill="#000" fill-rule="nonzero">
            <path d="M18.84 2.597h-3.203l-1.18-2.16c-.1-.178-.29-.288-.496-.289H7.04c-.206 0-.396.111-.495.29l-1.181 2.16H2.16C1.022 2.598.1 3.511.097 4.637v9.502c.003 1.126.925 2.039 2.063 2.04h16.68c1.138-.001 2.06-.914 2.063-2.04V4.634c-.005-1.125-.926-2.035-2.063-2.037zm.938 11.547c0 .512-.42.927-.938.927H2.16c-.518 0-.938-.415-.938-.927v-9.51c.003-.51.422-.924.938-.924h3.536c.207.001.398-.112.495-.293l1.185-2.155h6.248l1.185 2.155c.097.181.288.294.495.293h3.536c.518 0 .938.416.938.928v9.506zM10.5 4.17c-1.925 0-3.66 1.148-4.397 2.908-.736 1.76-.328 3.785 1.033 5.131 1.362 1.347 3.41 1.749 5.188 1.019 1.778-.73 2.936-2.448 2.935-4.353-.006-2.597-2.134-4.7-4.759-4.705zm0 8.3c-2.007 0-3.634-1.61-3.634-3.595 0-1.986 1.627-3.595 3.634-3.595 2.007 0 3.634 1.61 3.634 3.595-.002 1.985-1.628 3.593-3.634 3.595z" transform="translate(7 9)"/>
        </g>
    </g>
</svg>
