<?xml version="1.0" encoding="UTF-8"?>
<svg width="55px" height="74px" viewBox="0 0 55 74" version="1.1" xmlns="http://www.w3.org/2000/svg" xmlns:xlink="http://www.w3.org/1999/xlink">
    <title>B496545B-9763-4E8C-A71F-AE2FBFFEEE41</title>
    <g id="Agency-Flow" stroke="none" stroke-width="1" fill="none" fill-rule="evenodd" opacity="0.0991847826">
        <g id="Partners---Company---Company-Information" transform="translate(-625.000000, -713.000000)" fill="#000000" fill-rule="nonzero">
            <g id="Shape" transform="translate(625.000000, 713.000000)">
                <path d="M49.2179892,73.8089125 C52.4113056,73.8089125 55,71.2646831 55,68.1356181 L55,18.3042519 C55,16.7393613 54.0836501,14.5721227 52.9537907,13.4640945 L41.2706246,2.0066722 C40.1405344,0.898417739 37.9193488,0 36.3401503,0 L5.78769762,0 C2.59124047,0 0,2.54066983 0,5.66910547 L0,68.1398071 C0,71.2707675 2.57899458,73.8089125 5.78201076,73.8089125 L49.2179892,73.8089125 Z M49.2150498,65.2819091 C49.2125515,66.8555864 47.9110205,68.1313039 46.3279228,68.1313039 L8.67207724,68.1313039 C7.08005925,68.1313039 5.79058237,66.855443 5.79194558,65.2854577 L5.8412737,8.52227795 C5.84263943,6.95056054 7.14743845,5.67616927 8.75291797,5.67584596 L33.2750394,5.67090751 C34.8817302,5.67090751 36.1842105,6.94262957 36.1842105,8.50704096 L36.1842105,12.7714613 C36.1842105,15.9088621 38.7733726,18.4522281 41.9704816,18.4522281 L46.3809271,18.4522281 C47.9872278,18.4522281 49.2873628,19.7301805 49.2848718,21.3016229 L49.2150498,65.2819091 Z M16.7115582,43.2750437 C15.5754691,42.161548 15.5663278,40.3471655 16.6911406,39.2225069 L25.3031632,30.5408061 C26.431945,29.4121793 28.2726687,29.4076351 29.4071227,30.5306748 L38.163521,39.2123757 C39.2939859,40.3314667 39.2939859,42.1458718 38.163521,43.2649629 C37.0330559,44.3840539 35.2002099,44.3840539 34.0697449,43.2649629 L30.2595811,39.4797307 L30.2595811,52.3749836 C30.2595811,53.9576173 28.9635633,55.2405955 27.3648443,55.2405955 C25.7661253,55.2405955 24.4701075,53.9576173 24.4701075,52.3749836 L24.4701075,39.5110822 L20.8052833,43.2548316 C19.6804705,44.3794901 17.8476473,44.3885393 16.7115582,43.2750437 Z"></path>
            </g>
        </g>
    </g>
</svg>