<?xml version="1.0" encoding="UTF-8"?>
<svg width="206px" height="18px" viewBox="0 0 206 18" version="1.1" xmlns="http://www.w3.org/2000/svg" xmlns:xlink="http://www.w3.org/1999/xlink">
    <title>YourHealthPartner@2x</title>
    <g id="Page-1" stroke="none" stroke-width="1" fill="none" fill-rule="evenodd" fill-opacity="0.564739948">
        <g id="Home-page" transform="translate(-154.000000, -234.000000)" fill="#FFFFFF" fill-rule="nonzero">
            <path d="M162.106,251 L162.106,244.29 L167.936,235.424 L165.956,235.424 L161.314,242.772 L156.672,235.424 L154.692,235.424 L160.522,244.29 L160.522,251 L162.106,251 Z M172.901714,251.264 C173.708381,251.264 174.445381,251.128333 175.112714,250.857 C175.780048,250.585667 176.355714,250.208 176.839714,249.724 C177.323714,249.24 177.701381,248.668 177.972714,248.008 C178.244048,247.348 178.379714,246.629333 178.379714,245.852 C178.379714,245.074667 178.244048,244.356 177.972714,243.696 C177.701381,243.036 177.323714,242.464 176.839714,241.98 C176.355714,241.496 175.780048,241.118333 175.112714,240.847 C174.445381,240.575667 173.708381,240.44 172.901714,240.44 C172.109714,240.44 171.380048,240.575667 170.712714,240.847 C170.045381,241.118333 169.469714,241.496 168.985714,241.98 C168.501714,242.464 168.124048,243.036 167.852714,243.696 C167.581381,244.356 167.445714,245.074667 167.445714,245.852 C167.445714,246.629333 167.581381,247.348 167.852714,248.008 C168.124048,248.668 168.501714,249.24 168.985714,249.724 C169.469714,250.208 170.045381,250.585667 170.712714,250.857 C171.380048,251.128333 172.109714,251.264 172.901714,251.264 Z M172.901714,249.944 C172.300381,249.944 171.761381,249.837667 171.284714,249.625 C170.808048,249.412333 170.404714,249.122667 170.074714,248.756 C169.744714,248.389333 169.488048,247.956667 169.304714,247.458 C169.121381,246.959333 169.029714,246.424 169.029714,245.852 C169.029714,245.28 169.121381,244.744667 169.304714,244.246 C169.488048,243.747333 169.744714,243.314667 170.074714,242.948 C170.404714,242.581333 170.808048,242.291667 171.284714,242.079 C171.761381,241.866333 172.300381,241.76 172.901714,241.76 C173.503048,241.76 174.042048,241.866333 174.518714,242.079 C174.995381,242.291667 175.402381,242.581333 175.739714,242.948 C176.077048,243.314667 176.337381,243.747333 176.520714,244.246 C176.704048,244.744667 176.795714,245.28 176.795714,245.852 C176.795714,246.424 176.704048,246.959333 176.520714,247.458 C176.337381,247.956667 176.077048,248.389333 175.739714,248.756 C175.402381,249.122667 174.995381,249.412333 174.518714,249.625 C174.042048,249.837667 173.503048,249.944 172.901714,249.944 Z M185.677429,251.264 C186.014762,251.264 186.355762,251.216333 186.700429,251.121 C187.045095,251.025667 187.371429,250.893667 187.679429,250.725 C187.987429,250.556333 188.266095,250.354667 188.515429,250.12 C188.764762,249.885333 188.970095,249.628667 189.131429,249.35 L189.131429,249.35 L189.175429,249.35 C189.175429,249.628667 189.179095,249.903667 189.186429,250.175 C189.193762,250.446333 189.212095,250.721333 189.241429,251 L189.241429,251 L190.737429,251 C190.708095,250.618667 190.682429,250.215333 190.660429,249.79 C190.638429,249.364667 190.627429,249.012667 190.627429,248.734 L190.627429,248.734 L190.627429,240.704 L189.175429,240.704 L189.175429,245.984 C189.175429,246.922667 189.028762,247.656 188.735429,248.184 C188.442095,248.712 188.108429,249.108 187.734429,249.372 C187.360429,249.636 187.004762,249.797333 186.667429,249.856 C186.330095,249.914667 186.124762,249.944 186.051429,249.944 C185.508762,249.944 185.057762,249.867 184.698429,249.713 C184.339095,249.559 184.053095,249.331667 183.840429,249.031 C183.627762,248.730333 183.477429,248.36 183.389429,247.92 C183.301429,247.48 183.257429,246.974 183.257429,246.402 L183.257429,246.402 L183.257429,240.704 L181.805429,240.704 L181.805429,247.238 C181.805429,248.528667 182.120762,249.522333 182.751429,250.219 C183.382095,250.915667 184.357429,251.264 185.677429,251.264 Z M196.429143,251 L196.429143,245.192 C196.429143,244.84 196.491476,244.473333 196.616143,244.092 C196.74081,243.710667 196.935143,243.355 197.199143,243.025 C197.463143,242.695 197.793143,242.423667 198.189143,242.211 C198.585143,241.998333 199.06181,241.892 199.619143,241.892 C199.98581,241.892 200.264476,241.928667 200.455143,242.002 L200.455143,242.002 L200.741143,240.572 C200.433143,240.484 200.07381,240.44 199.663143,240.44 C199.208476,240.44 198.801476,240.502333 198.442143,240.627 C198.08281,240.751667 197.767476,240.916667 197.496143,241.122 C197.22481,241.327333 196.99381,241.558333 196.803143,241.815 C196.612476,242.071667 196.46581,242.339333 196.363143,242.618 L196.363143,242.618 L196.319143,242.618 L196.319143,240.704 L194.889143,240.704 C194.90381,241.452 194.922143,242.060667 194.944143,242.53 C194.966143,242.999333 194.977143,243.461333 194.977143,243.916 L194.977143,243.916 L194.977143,251 L196.429143,251 Z M211.926571,251 L211.926571,243.63 L220.418571,243.63 L220.418571,251 L222.002571,251 L222.002571,235.424 L220.418571,235.424 L220.418571,242.178 L211.926571,242.178 L211.926571,235.424 L210.342571,235.424 L210.342571,251 L211.926571,251 Z M231.280286,251.264 C232.130952,251.264 232.926619,251.095333 233.667286,250.758 C234.407952,250.420667 235.086286,249.863333 235.702286,249.086 L235.702286,249.086 L234.580286,248.162 C234.286952,248.631333 233.857952,249.045667 233.293286,249.405 C232.728619,249.764333 232.057619,249.944 231.280286,249.944 C230.766952,249.944 230.290286,249.848667 229.850286,249.658 C229.410286,249.467333 229.021619,249.207 228.684286,248.877 C228.346952,248.547 228.075619,248.154667 227.870286,247.7 C227.664952,247.245333 227.540286,246.761333 227.496286,246.248 L227.496286,246.248 L236.076286,246.248 L236.076286,245.588 C236.076286,244.884 235.966286,244.220333 235.746286,243.597 C235.526286,242.973667 235.207286,242.431 234.789286,241.969 C234.371286,241.507 233.854286,241.136667 233.238286,240.858 C232.622286,240.579333 231.925619,240.44 231.148286,240.44 C230.414952,240.44 229.732952,240.575667 229.102286,240.847 C228.471619,241.118333 227.921619,241.496 227.452286,241.98 C226.982952,242.464 226.616286,243.036 226.352286,243.696 C226.088286,244.356 225.956286,245.074667 225.956286,245.852 C225.956286,246.629333 226.091952,247.348 226.363286,248.008 C226.634619,248.668 227.004952,249.24 227.474286,249.724 C227.943619,250.208 228.504619,250.585667 229.157286,250.857 C229.809952,251.128333 230.517619,251.264 231.280286,251.264 Z M234.492286,245.06 L227.540286,245.06 C227.540286,244.634667 227.639286,244.224 227.837286,243.828 C228.035286,243.432 228.299286,243.08 228.629286,242.772 C228.959286,242.464 229.344286,242.218333 229.784286,242.035 C230.224286,241.851667 230.678952,241.76 231.148286,241.76 C232.204286,241.76 233.025619,242.064333 233.612286,242.673 C234.198952,243.281667 234.492286,244.077333 234.492286,245.06 L234.492286,245.06 Z M242.516,251.264 C243.352,251.264 244.059667,251.113667 244.639,250.813 C245.218333,250.512333 245.720667,250.017333 246.146,249.328 L246.146,249.328 L246.19,249.328 C246.19,249.606667 246.201,249.892667 246.223,250.186 C246.245,250.479333 246.278,250.750667 246.322,251 L246.322,251 L247.73,251 C247.686,250.721333 247.645667,250.365667 247.609,249.933 C247.572333,249.500333 247.554,249.086 247.554,248.69 L247.554,248.69 L247.554,244.092 C247.554,243.461333 247.451333,242.918667 247.246,242.464 C247.040667,242.009333 246.769333,241.631667 246.432,241.331 C246.094667,241.030333 245.695,240.806667 245.233,240.66 C244.771,240.513333 244.290667,240.44 243.792,240.44 C241.856,240.44 240.404,240.938667 239.436,241.936 L239.436,241.936 L240.316,242.97 C241.210667,242.163333 242.259333,241.76 243.462,241.76 C245.222,241.76 246.102,242.647333 246.102,244.422 L246.102,244.422 L246.102,244.686 L245.376,244.686 C244.76,244.686 244.081667,244.715333 243.341,244.774 C242.600333,244.832667 241.903667,244.979333 241.251,245.214 C240.598333,245.448667 240.055667,245.804333 239.623,246.281 C239.190333,246.757667 238.974,247.414 238.974,248.25 C238.974,248.748667 239.073,249.185 239.271,249.559 C239.469,249.933 239.733,250.248333 240.063,250.505 C240.393,250.761667 240.770667,250.952333 241.196,251.077 C241.621333,251.201667 242.061333,251.264 242.516,251.264 Z M242.978,249.944 C242.684667,249.944 242.395,249.911 242.109,249.845 C241.823,249.779 241.562667,249.669 241.328,249.515 C241.093333,249.361 240.906333,249.163 240.767,248.921 C240.627667,248.679 240.558,248.389333 240.558,248.052 C240.558,247.538667 240.737667,247.135333 241.097,246.842 C241.456333,246.548667 241.889,246.332333 242.395,246.193 C242.901,246.053667 243.429,245.965667 243.979,245.929 C244.529,245.892333 244.987333,245.874 245.354,245.874 L245.354,245.874 L246.102,245.874 L246.102,246.622 C246.102,247.076667 246.039667,247.505667 245.915,247.909 C245.790333,248.312333 245.596,248.664333 245.332,248.965 C245.068,249.265667 244.741667,249.504 244.353,249.68 C243.964333,249.856 243.506,249.944 242.978,249.944 Z M253.487714,251 L253.487714,234.368 L252.035714,234.368 L252.035714,251 L253.487714,251 Z M261.225429,251.264 C261.988095,251.264 262.640762,251.139333 263.183429,250.89 L263.183429,250.89 L263.117429,249.548 C262.897429,249.665333 262.655429,249.760667 262.391429,249.834 C262.127429,249.907333 261.870762,249.944 261.621429,249.944 C261.401429,249.944 261.199762,249.918333 261.016429,249.867 C260.833095,249.815667 260.675429,249.724 260.543429,249.592 C260.411429,249.46 260.308762,249.273 260.235429,249.031 C260.162095,248.789 260.125429,248.477333 260.125429,248.096 L260.125429,248.096 L260.125429,242.024 L263.095429,242.024 L263.095429,240.704 L260.125429,240.704 L260.125429,237.8 L258.673429,237.8 L258.673429,240.704 L256.495429,240.704 L256.495429,242.024 L258.673429,242.024 L258.673429,248.514 C258.673429,249.086 258.754095,249.548 258.915429,249.9 C259.076762,250.252 259.282095,250.530667 259.531429,250.736 C259.780762,250.941333 260.055762,251.080667 260.356429,251.154 C260.657095,251.227333 260.946762,251.264 261.225429,251.264 Z M267.313143,251 L267.313143,245.72 C267.313143,244.781333 267.45981,244.048 267.753143,243.52 C268.046476,242.992 268.380143,242.596 268.754143,242.332 C269.128143,242.068 269.48381,241.906667 269.821143,241.848 C270.158476,241.789333 270.36381,241.76 270.437143,241.76 C271.50781,241.76 272.241143,242.064333 272.637143,242.673 C273.033143,243.281667 273.231143,244.158 273.231143,245.302 L273.231143,245.302 L273.231143,251 L274.683143,251 L274.683143,244.466 C274.683143,243.175333 274.36781,242.181667 273.737143,241.485 C273.106476,240.788333 272.131143,240.44 270.811143,240.44 C270.47381,240.44 270.13281,240.487667 269.788143,240.583 C269.443476,240.678333 269.117143,240.810333 268.809143,240.979 C268.501143,241.147667 268.222476,241.349333 267.973143,241.584 C267.72381,241.818667 267.518476,242.075333 267.357143,242.354 L267.357143,242.354 L267.313143,242.354 L267.313143,234.368 L265.861143,234.368 L265.861143,251 L267.313143,251 Z M287.892571,251 L287.892571,243.762 L290.840571,243.762 C292.424571,243.762 293.674905,243.413667 294.591571,242.717 C295.508238,242.020333 295.966571,240.975333 295.966571,239.582 C295.966571,238.188667 295.508238,237.147333 294.591571,236.458 C293.674905,235.768667 292.424571,235.424 290.840571,235.424 L290.840571,235.424 L286.308571,235.424 L286.308571,251 L287.892571,251 Z M290.444571,242.31 L287.892571,242.31 L287.892571,236.876 L290.444571,236.876 C291.148571,236.876 291.746238,236.945667 292.237571,237.085 C292.728905,237.224333 293.121238,237.418667 293.414571,237.668 C293.707905,237.917333 293.920571,238.207 294.052571,238.537 C294.184571,238.867 294.250571,239.215333 294.250571,239.582 C294.250571,239.963333 294.184571,240.319 294.052571,240.649 C293.920571,240.979 293.707905,241.265 293.414571,241.507 C293.121238,241.749 292.728905,241.943333 292.237571,242.09 C291.746238,242.236667 291.148571,242.31 290.444571,242.31 L290.444571,242.31 Z M302.208286,251.264 C303.044286,251.264 303.751952,251.113667 304.331286,250.813 C304.910619,250.512333 305.412952,250.017333 305.838286,249.328 L305.838286,249.328 L305.882286,249.328 C305.882286,249.606667 305.893286,249.892667 305.915286,250.186 C305.937286,250.479333 305.970286,250.750667 306.014286,251 L306.014286,251 L307.422286,251 C307.378286,250.721333 307.337952,250.365667 307.301286,249.933 C307.264619,249.500333 307.246286,249.086 307.246286,248.69 L307.246286,248.69 L307.246286,244.092 C307.246286,243.461333 307.143619,242.918667 306.938286,242.464 C306.732952,242.009333 306.461619,241.631667 306.124286,241.331 C305.786952,241.030333 305.387286,240.806667 304.925286,240.66 C304.463286,240.513333 303.982952,240.44 303.484286,240.44 C301.548286,240.44 300.096286,240.938667 299.128286,241.936 L299.128286,241.936 L300.008286,242.97 C300.902952,242.163333 301.951619,241.76 303.154286,241.76 C304.914286,241.76 305.794286,242.647333 305.794286,244.422 L305.794286,244.422 L305.794286,244.686 L305.068286,244.686 C304.452286,244.686 303.773952,244.715333 303.033286,244.774 C302.292619,244.832667 301.595952,244.979333 300.943286,245.214 C300.290619,245.448667 299.747952,245.804333 299.315286,246.281 C298.882619,246.757667 298.666286,247.414 298.666286,248.25 C298.666286,248.748667 298.765286,249.185 298.963286,249.559 C299.161286,249.933 299.425286,250.248333 299.755286,250.505 C300.085286,250.761667 300.462952,250.952333 300.888286,251.077 C301.313619,251.201667 301.753619,251.264 302.208286,251.264 Z M302.670286,249.944 C302.376952,249.944 302.087286,249.911 301.801286,249.845 C301.515286,249.779 301.254952,249.669 301.020286,249.515 C300.785619,249.361 300.598619,249.163 300.459286,248.921 C300.319952,248.679 300.250286,248.389333 300.250286,248.052 C300.250286,247.538667 300.429952,247.135333 300.789286,246.842 C301.148619,246.548667 301.581286,246.332333 302.087286,246.193 C302.593286,246.053667 303.121286,245.965667 303.671286,245.929 C304.221286,245.892333 304.679619,245.874 305.046286,245.874 L305.046286,245.874 L305.794286,245.874 L305.794286,246.622 C305.794286,247.076667 305.731952,247.505667 305.607286,247.909 C305.482619,248.312333 305.288286,248.664333 305.024286,248.965 C304.760286,249.265667 304.433952,249.504 304.045286,249.68 C303.656619,249.856 303.198286,249.944 302.670286,249.944 Z M313.004,251 L313.004,245.192 C313.004,244.84 313.066333,244.473333 313.191,244.092 C313.315667,243.710667 313.51,243.355 313.774,243.025 C314.038,242.695 314.368,242.423667 314.764,242.211 C315.16,241.998333 315.636667,241.892 316.194,241.892 C316.560667,241.892 316.839333,241.928667 317.03,242.002 L317.03,242.002 L317.316,240.572 C317.008,240.484 316.648667,240.44 316.238,240.44 C315.783333,240.44 315.376333,240.502333 315.017,240.627 C314.657667,240.751667 314.342333,240.916667 314.071,241.122 C313.799667,241.327333 313.568667,241.558333 313.378,241.815 C313.187333,242.071667 313.040667,242.339333 312.938,242.618 L312.938,242.618 L312.894,242.618 L312.894,240.704 L311.464,240.704 C311.478667,241.452 311.497,242.060667 311.519,242.53 C311.541,242.999333 311.552,243.461333 311.552,243.916 L311.552,243.916 L311.552,251 L313.004,251 Z M322.941714,251.264 C323.704381,251.264 324.357048,251.139333 324.899714,250.89 L324.899714,250.89 L324.833714,249.548 C324.613714,249.665333 324.371714,249.760667 324.107714,249.834 C323.843714,249.907333 323.587048,249.944 323.337714,249.944 C323.117714,249.944 322.916048,249.918333 322.732714,249.867 C322.549381,249.815667 322.391714,249.724 322.259714,249.592 C322.127714,249.46 322.025048,249.273 321.951714,249.031 C321.878381,248.789 321.841714,248.477333 321.841714,248.096 L321.841714,248.096 L321.841714,242.024 L324.811714,242.024 L324.811714,240.704 L321.841714,240.704 L321.841714,237.8 L320.389714,237.8 L320.389714,240.704 L318.211714,240.704 L318.211714,242.024 L320.389714,242.024 L320.389714,248.514 C320.389714,249.086 320.470381,249.548 320.631714,249.9 C320.793048,250.252 320.998381,250.530667 321.247714,250.736 C321.497048,250.941333 321.772048,251.080667 322.072714,251.154 C322.373381,251.227333 322.663048,251.264 322.941714,251.264 Z M329.029429,251 L329.029429,245.72 C329.029429,244.781333 329.176095,244.048 329.469429,243.52 C329.762762,242.992 330.096429,242.596 330.470429,242.332 C330.844429,242.068 331.200095,241.906667 331.537429,241.848 C331.874762,241.789333 332.080095,241.76 332.153429,241.76 C333.224095,241.76 333.957429,242.064333 334.353429,242.673 C334.749429,243.281667 334.947429,244.158 334.947429,245.302 L334.947429,245.302 L334.947429,251 L336.399429,251 L336.399429,244.466 C336.399429,243.175333 336.084095,242.181667 335.453429,241.485 C334.822762,240.788333 333.847429,240.44 332.527429,240.44 C332.190095,240.44 331.849095,240.487667 331.504429,240.583 C331.159762,240.678333 330.833429,240.810333 330.525429,240.979 C330.217429,241.147667 329.938762,241.349333 329.689429,241.584 C329.440095,241.818667 329.234762,242.075333 329.073429,242.354 L329.073429,242.354 L329.029429,242.354 C329.029429,242.075333 329.025762,241.800333 329.018429,241.529 C329.011095,241.257667 328.992762,240.982667 328.963429,240.704 L328.963429,240.704 L327.467429,240.704 C327.496762,241.085333 327.522429,241.488667 327.544429,241.914 C327.566429,242.339333 327.577429,242.691333 327.577429,242.97 L327.577429,242.97 L327.577429,251 L329.029429,251 Z M345.391143,251.264 C346.24181,251.264 347.037476,251.095333 347.778143,250.758 C348.51881,250.420667 349.197143,249.863333 349.813143,249.086 L349.813143,249.086 L348.691143,248.162 C348.39781,248.631333 347.96881,249.045667 347.404143,249.405 C346.839476,249.764333 346.168476,249.944 345.391143,249.944 C344.87781,249.944 344.401143,249.848667 343.961143,249.658 C343.521143,249.467333 343.132476,249.207 342.795143,248.877 C342.45781,248.547 342.186476,248.154667 341.981143,247.7 C341.77581,247.245333 341.651143,246.761333 341.607143,246.248 L341.607143,246.248 L350.187143,246.248 L350.187143,245.588 C350.187143,244.884 350.077143,244.220333 349.857143,243.597 C349.637143,242.973667 349.318143,242.431 348.900143,241.969 C348.482143,241.507 347.965143,241.136667 347.349143,240.858 C346.733143,240.579333 346.036476,240.44 345.259143,240.44 C344.52581,240.44 343.84381,240.575667 343.213143,240.847 C342.582476,241.118333 342.032476,241.496 341.563143,241.98 C341.09381,242.464 340.727143,243.036 340.463143,243.696 C340.199143,244.356 340.067143,245.074667 340.067143,245.852 C340.067143,246.629333 340.20281,247.348 340.474143,248.008 C340.745476,248.668 341.11581,249.24 341.585143,249.724 C342.054476,250.208 342.615476,250.585667 343.268143,250.857 C343.92081,251.128333 344.628476,251.264 345.391143,251.264 Z M348.603143,245.06 L341.651143,245.06 C341.651143,244.634667 341.750143,244.224 341.948143,243.828 C342.146143,243.432 342.410143,243.08 342.740143,242.772 C343.070143,242.464 343.455143,242.218333 343.895143,242.035 C344.335143,241.851667 344.78981,241.76 345.259143,241.76 C346.315143,241.76 347.136476,242.064333 347.723143,242.673 C348.30981,243.281667 348.603143,244.077333 348.603143,245.06 L348.603143,245.06 Z M355.218857,251 L355.218857,245.192 C355.218857,244.84 355.28119,244.473333 355.405857,244.092 C355.530524,243.710667 355.724857,243.355 355.988857,243.025 C356.252857,242.695 356.582857,242.423667 356.978857,242.211 C357.374857,241.998333 357.851524,241.892 358.408857,241.892 C358.775524,241.892 359.05419,241.928667 359.244857,242.002 L359.244857,242.002 L359.530857,240.572 C359.222857,240.484 358.863524,240.44 358.452857,240.44 C357.99819,240.44 357.59119,240.502333 357.231857,240.627 C356.872524,240.751667 356.55719,240.916667 356.285857,241.122 C356.014524,241.327333 355.783524,241.558333 355.592857,241.815 C355.40219,242.071667 355.255524,242.339333 355.152857,242.618 L355.152857,242.618 L355.108857,242.618 L355.108857,240.704 L353.678857,240.704 C353.693524,241.452 353.711857,242.060667 353.733857,242.53 C353.755857,242.999333 353.766857,243.461333 353.766857,243.916 L353.766857,243.916 L353.766857,251 L355.218857,251 Z" id="YourHealthPartner"></path>
        </g>
    </g>
</svg>