<svg xmlns="http://www.w3.org/2000/svg" width="290" height="24" viewBox="0 0 290 24">
    <g fill="none" fill-rule="evenodd">
        <g fill="#FFF" fill-rule="nonzero">
            <g>
                <path d="M65.496 455.625v-9.531L73.75 433.5h-2.803l-6.572 10.438-6.572-10.438H55l8.254 12.594v9.531h2.242zM80.78 456c1.142 0 2.186-.193 3.13-.578.945-.386 1.76-.922 2.446-1.61.685-.687 1.22-1.5 1.604-2.437.384-.938.576-1.958.576-3.063 0-1.104-.192-2.125-.576-3.062-.385-.938-.92-1.75-1.604-2.438-.686-.687-1.5-1.223-2.445-1.609-.945-.385-1.989-.578-3.13-.578-1.122 0-2.155.193-3.1.578-.944.386-1.76.922-2.445 1.61-.685.687-1.22 1.5-1.604 2.437-.384.938-.576 1.958-.576 3.063 0 1.104.192 2.125.576 3.062.384.938.92 1.75 1.604 2.438.686.687 1.5 1.223 2.445 1.609.945.385 1.978.578 3.1.578zm0-1.875c-.851 0-1.614-.151-2.289-.453-.675-.302-1.246-.714-1.713-1.235-.467-.52-.83-1.135-1.09-1.843-.26-.709-.39-1.469-.39-2.281 0-.813.13-1.573.39-2.282.26-.708.623-1.323 1.09-1.844.467-.52 1.038-.932 1.713-1.234.675-.302 1.438-.453 2.29-.453.85 0 1.614.151 2.289.453.674.302 1.25.714 1.728 1.235.478.52.846 1.135 1.106 1.843.26.709.39 1.469.39 2.281 0 .813-.13 1.573-.39 2.282-.26.708-.628 1.323-1.106 1.844-.477.52-1.054.932-1.728 1.234-.675.302-1.438.453-2.29.453zM98.868 456c.477 0 .96-.068 1.448-.203.488-.136.95-.323 1.386-.563.436-.24.83-.526 1.183-.859.353-.333.644-.698.873-1.094h.062c0 .396.005.787.015 1.172.01.386.037.776.078 1.172h2.118c-.041-.542-.078-1.115-.109-1.719-.031-.604-.047-1.104-.047-1.5V441h-2.055v7.5c0 1.333-.208 2.375-.623 3.125-.415.75-.888 1.313-1.417 1.688-.53.375-1.033.604-1.51.687-.478.083-.77.125-.873.125-.768 0-1.407-.11-1.915-.328-.51-.219-.914-.542-1.215-.969-.301-.427-.514-.953-.639-1.578-.124-.625-.187-1.344-.187-2.156V441h-2.055v9.281c0 1.834.446 3.245 1.34 4.235.892.99 2.273 1.484 4.142 1.484zm15.221-.375v-8.25c0-.5.088-1.02.265-1.563.176-.541.452-1.046.825-1.515.374-.469.841-.854 1.402-1.156.56-.302 1.235-.454 2.024-.454.52 0 .914.053 1.184.157l.405-2.031c-.436-.125-.945-.188-1.526-.188-.644 0-1.22.089-1.729.266-.509.177-.955.411-1.34.703-.383.291-.71.62-.98.984-.27.365-.478.745-.623 1.14h-.062V441h-2.025c.02 1.063.047 1.927.078 2.594.031.666.047 1.323.047 1.969v10.062h2.055zm21.94 0v-10.469h12.023v10.469h2.243V433.5h-2.243v9.594H136.03V433.5h-2.243v22.125h2.243zm27.4.375c1.205 0 2.331-.24 3.38-.719s2.009-1.27 2.881-2.375l-1.588-1.312c-.416.666-1.023 1.255-1.822 1.765-.8.51-1.75.766-2.85.766-.727 0-1.402-.135-2.025-.406s-1.173-.64-1.65-1.11c-.478-.468-.862-1.026-1.153-1.671-.29-.646-.467-1.334-.53-2.063h12.148v-.938c0-1-.156-1.942-.468-2.828-.311-.885-.763-1.656-1.355-2.312-.591-.656-1.323-1.182-2.195-1.578-.872-.396-1.859-.594-2.96-.594-1.037 0-2.003.193-2.896.578-.893.386-1.671.922-2.336 1.61-.664.687-1.183 1.5-1.557 2.437-.374.938-.56 1.958-.56 3.063 0 1.104.191 2.125.575 3.062.385.938.909 1.75 1.573 2.438.665.687 1.459 1.223 2.383 1.609.924.385 1.926.578 3.006.578zm4.548-8.813h-9.842c0-.604.14-1.187.42-1.75.28-.562.654-1.062 1.121-1.5.468-.437 1.013-.786 1.636-1.046s1.266-.391 1.93-.391c1.496 0 2.659.432 3.49 1.297.83.864 1.245 1.995 1.245 3.39zm11.36 8.813c1.183 0 2.185-.214 3.005-.64.82-.428 1.532-1.13 2.134-2.11h.062c0 .396.016.802.047 1.219.03.416.078.802.14 1.156h1.993c-.062-.396-.12-.901-.171-1.516-.052-.614-.078-1.203-.078-1.765v-6.531c0-.896-.145-1.667-.436-2.313-.29-.646-.675-1.182-1.152-1.61-.478-.426-1.044-.744-1.698-.952-.654-.209-1.334-.313-2.04-.313-2.74 0-4.796.708-6.167 2.125l1.246 1.469c1.267-1.146 2.751-1.719 4.454-1.719 2.492 0 3.737 1.26 3.737 3.781v.375h-1.027c-.872 0-1.833.042-2.881.125-1.049.084-2.035.292-2.96.625-.923.334-1.692.839-2.304 1.516-.613.677-.919 1.61-.919 2.797 0 .708.14 1.328.42 1.86.28.53.655.978 1.122 1.343.467.364 1.002.635 1.604.812.602.177 1.225.266 1.869.266zm.654-1.875c-.416 0-.826-.047-1.23-.14-.406-.094-.774-.25-1.106-.47-.333-.218-.597-.5-.795-.843-.197-.344-.295-.755-.295-1.235 0-.729.254-1.302.763-1.718.508-.417 1.12-.724 1.837-.922.717-.198 1.464-.323 2.243-.375.778-.052 1.427-.078 1.946-.078h1.06v1.062c0 .646-.089 1.255-.265 1.828-.177.573-.452 1.073-.826 1.5-.373.427-.835.766-1.386 1.016-.55.25-1.199.375-1.946.375zm14.879 1.5V432h-2.056v23.625h2.056zm10.954.375c1.08 0 2.004-.177 2.772-.531l-.093-1.906c-.311.166-.654.302-1.028.406-.374.104-.737.156-1.09.156-.311 0-.597-.036-.857-.11-.26-.072-.482-.202-.67-.39-.186-.188-.331-.453-.435-.797-.104-.344-.156-.786-.156-1.328v-8.625h4.205V441h-4.205v-4.125h-2.056V441h-3.083v1.875h3.083v9.219c0 .812.115 1.469.343 1.969.228.5.52.895.872 1.187.353.292.742.49 1.168.594.426.104.836.156 1.23.156zm8.619-.375v-7.5c0-1.333.208-2.375.623-3.125.415-.75.888-1.313 1.417-1.688.53-.375 1.033-.604 1.51-.687.478-.083.769-.125.873-.125 1.516 0 2.554.432 3.114 1.297.561.864.841 2.11.841 3.734v8.094h2.056v-9.281c0-1.834-.446-3.245-1.34-4.235-.892-.99-2.273-1.484-4.142-1.484-.477 0-.96.068-1.448.203-.488.136-.95.323-1.386.563-.436.24-.83.526-1.184.859-.353.333-.643.698-.872 1.094h-.062V432h-2.056v23.625h2.056zm29.135 0v-10.281h4.174c2.242 0 4.013-.495 5.31-1.485 1.298-.99 1.947-2.474 1.947-4.453s-.649-3.458-1.947-4.437c-1.297-.98-3.068-1.469-5.31-1.469h-6.416v22.125h2.242zm3.613-12.344h-3.613v-7.719h3.613c.997 0 1.843.1 2.539.297.695.198 1.25.474 1.666.829.415.354.716.765.903 1.234.187.469.28.963.28 1.484 0 .542-.093 1.047-.28 1.516-.187.469-.488.875-.903 1.219-.415.343-.97.62-1.666.828-.696.208-1.542.312-2.539.312zM263.846 456c1.183 0 2.185-.214 3.005-.64.82-.428 1.532-1.13 2.134-2.11h.062c0 .396.016.802.047 1.219.031.416.078.802.14 1.156h1.993c-.062-.396-.119-.901-.17-1.516-.053-.614-.079-1.203-.079-1.765v-6.531c0-.896-.145-1.667-.436-2.313-.29-.646-.675-1.182-1.152-1.61-.478-.426-1.044-.744-1.698-.952-.654-.209-1.334-.313-2.04-.313-2.74 0-4.796.708-6.167 2.125l1.246 1.469c1.267-1.146 2.751-1.719 4.454-1.719 2.492 0 3.738 1.26 3.738 3.781v.375h-1.028c-.872 0-1.833.042-2.881.125-1.049.084-2.035.292-2.96.625-.923.334-1.691.839-2.304 1.516-.613.677-.919 1.61-.919 2.797 0 .708.14 1.328.42 1.86.281.53.655.978 1.122 1.343.467.364 1.002.635 1.604.812.602.177 1.225.266 1.869.266zm.654-1.875c-.415 0-.826-.047-1.23-.14-.405-.094-.774-.25-1.106-.47-.332-.218-.597-.5-.794-.843-.198-.344-.296-.755-.296-1.235 0-.729.254-1.302.763-1.718.509-.417 1.121-.724 1.837-.922.717-.198 1.464-.323 2.243-.375.779-.052 1.428-.078 1.947-.078h1.059v1.062c0 .646-.089 1.255-.265 1.828-.177.573-.452 1.073-.826 1.5-.373.427-.835.766-1.386 1.016-.55.25-1.199.375-1.946.375zm14.63 1.5v-8.25c0-.5.088-1.02.264-1.563.177-.541.452-1.046.826-1.515.374-.469.84-.854 1.401-1.156.561-.302 1.236-.454 2.025-.454.52 0 .914.053 1.184.157l.404-2.031c-.436-.125-.944-.188-1.526-.188-.643 0-1.22.089-1.728.266-.51.177-.956.411-1.34.703-.384.291-.71.62-.98.984-.27.365-.478.745-.624 1.14h-.062V441h-2.025c.021 1.063.047 1.927.078 2.594.032.666.047 1.323.047 1.969v10.062h2.056zm14.069.375c1.08 0 2.004-.177 2.772-.531l-.093-1.906c-.312.166-.654.302-1.028.406-.374.104-.737.156-1.09.156-.312 0-.597-.036-.857-.11-.26-.072-.483-.202-.67-.39-.186-.188-.332-.453-.436-.797-.103-.344-.155-.786-.155-1.328v-8.625h4.204V441h-4.204v-4.125h-2.056V441h-3.083v1.875h3.083v9.219c0 .812.114 1.469.343 1.969.228.5.519.895.872 1.187.353.292.742.49 1.168.594.425.104.836.156 1.23.156zm8.619-.375v-7.5c0-1.333.207-2.375.623-3.125.415-.75.887-1.313 1.417-1.688s1.033-.604 1.51-.687c.478-.083.769-.125.872-.125 1.516 0 2.554.432 3.115 1.297.56.864.841 2.11.841 3.734v8.094h2.056v-9.281c0-1.834-.447-3.245-1.34-4.235-.892-.99-2.273-1.484-4.142-1.484-.478 0-.96.068-1.448.203-.488.136-.95.323-1.386.563-.436.24-.83.526-1.184.859-.353.333-.644.698-.872 1.094h-.062c0-.396-.005-.787-.016-1.172-.01-.386-.036-.776-.078-1.172h-2.118c.042.542.078 1.115.11 1.719.03.604.046 1.104.046 1.5v11.406h2.056zm23.164.375c1.204 0 2.33-.24 3.38-.719 1.048-.479 2.008-1.27 2.88-2.375l-1.588-1.312c-.416.666-1.023 1.255-1.822 1.765-.8.51-1.75.766-2.85.766-.727 0-1.402-.135-2.025-.406s-1.173-.64-1.65-1.11c-.478-.468-.862-1.026-1.153-1.671-.29-.646-.467-1.334-.53-2.063h12.148v-.938c0-1-.156-1.942-.468-2.828-.311-.885-.763-1.656-1.354-2.312-.592-.656-1.324-1.182-2.196-1.578-.872-.396-1.859-.594-2.96-.594-1.037 0-2.003.193-2.896.578-.893.386-1.671.922-2.336 1.61-.664.687-1.183 1.5-1.557 2.437-.374.938-.56 1.958-.56 3.063 0 1.104.191 2.125.576 3.062.384.938.908 1.75 1.572 2.438.665.687 1.46 1.223 2.383 1.609.924.385 1.926.578 3.006.578zm4.547-8.813h-9.842c0-.604.14-1.187.42-1.75.28-.562.654-1.062 1.122-1.5.467-.437 1.012-.786 1.635-1.046s1.266-.391 1.93-.391c1.496 0 2.659.432 3.49 1.297.83.864 1.245 1.995 1.245 3.39zm9.366 8.438v-8.25c0-.5.089-1.02.265-1.563.177-.541.452-1.046.825-1.515.374-.469.841-.854 1.402-1.156.56-.302 1.235-.454 2.025-.454.519 0 .913.053 1.183.157l.405-2.031c-.436-.125-.945-.188-1.526-.188-.644 0-1.22.089-1.729.266-.509.177-.955.411-1.34.703-.383.291-.71.62-.98.984-.27.365-.478.745-.623 1.14h-.062V441h-2.025c.02 1.063.047 1.927.078 2.594.031.666.047 1.323.047 1.969v10.062h2.055z" transform="translate(-334 -697) translate(279 265)"/>
            </g>
        </g>
    </g>
</svg>
