<?xml version="1.0" encoding="UTF-8"?>
<svg width="541px" height="102px" viewBox="0 0 541 102" version="1.1" xmlns="http://www.w3.org/2000/svg" xmlns:xlink="http://www.w3.org/1999/xlink">
    <title>Group@2x</title>
    <defs>
        <linearGradient x1="117.045016%" y1="109.262274%" x2="13.7151883%" y2="0%" id="linearGradient-1">
            <stop stop-color="#007E7C" offset="0%"></stop>
            <stop stop-color="#00ADAD" offset="100%"></stop>
        </linearGradient>
    </defs>
    <g id="Page-1" stroke="none" stroke-width="1" fill="none" fill-rule="evenodd">
        <g id="Logo-1" transform="translate(-81.000000, -99.000000)">
            <g id="Group" transform="translate(81.000000, 99.000000)">
                <path d="M184.9,80.543 L199.181,80.543 L199.181,21.192 L184.9,21.192 L184.9,80.543 Z M184.9,7.964 C184.9,6.249 184.919,4.96 184.96,4.102 C184.997,3.243 185.231,2.619 185.661,2.228 C186.09,1.839 186.791,1.625 187.769,1.585 C188.743,1.546 190.168,1.525 192.042,1.525 C193.915,1.525 195.338,1.546 196.314,1.585 C197.289,1.625 197.991,1.839 198.42,2.228 C198.85,2.619 199.083,3.243 199.124,4.102 C199.162,4.96 199.181,6.249 199.181,7.964 C199.181,9.682 199.162,10.97 199.124,11.827 C199.083,12.687 198.85,13.311 198.42,13.7 C197.991,14.092 197.289,14.306 196.314,14.345 C195.338,14.385 193.915,14.403 192.042,14.403 C190.168,14.403 188.743,14.385 187.769,14.345 C186.791,14.306 186.09,14.092 185.661,13.7 C185.231,13.311 184.997,12.687 184.96,11.827 C184.919,10.97 184.9,9.682 184.9,7.964 L184.9,7.964 Z" id="Fill-1" fill="#18265D"></path>
                <path d="M283.933,1.525 L283.933,28.098 C284.636,27.32 285.456,26.5 286.392,25.641 C287.328,24.783 288.421,24.001 289.668,23.3 C290.917,22.597 292.363,22.031 294.001,21.602 C295.639,21.174 297.513,20.958 299.62,20.958 C301.96,20.958 304.36,21.388 306.819,22.245 C309.278,23.105 311.501,24.411 313.492,26.167 C315.481,27.923 317.12,30.108 318.408,32.723 C319.696,35.338 320.339,38.401 320.339,41.911 L320.339,80.543 L306.058,80.543 L306.058,48.234 C306.058,46.361 305.941,44.624 305.708,43.024 C305.473,41.426 304.984,40.001 304.245,38.751 C303.501,37.504 302.41,36.528 300.965,35.825 C299.521,35.122 297.59,34.772 295.171,34.772 C292.672,34.772 290.683,35.122 289.201,35.825 C287.718,36.528 286.567,37.504 285.749,38.751 C284.928,40.001 284.401,41.426 284.168,43.024 C283.933,44.624 283.816,46.361 283.816,48.234 L284.05,80.543 L269.652,80.543 L269.652,1.525 L283.933,1.525" id="Fill-2" fill="#18265D"></path>
                <path d="M354.051,33.484 C351.164,33.484 348.843,34.069 347.087,35.24 C345.332,36.41 343.986,37.874 343.047,39.629 C342.112,41.386 341.486,43.278 341.176,45.308 C340.863,47.337 340.707,49.21 340.707,50.926 C340.707,52.644 340.863,54.517 341.176,56.544 C341.486,58.576 342.112,60.467 343.047,62.223 C343.986,63.979 345.332,65.442 347.087,66.613 C348.843,67.783 351.164,68.369 354.051,68.369 C356.938,68.369 359.262,67.783 361.018,66.613 C362.774,65.442 364.12,63.979 365.055,62.223 C365.993,60.467 366.617,58.576 366.929,56.544 C367.241,54.517 367.397,52.644 367.397,50.926 C367.397,49.21 367.241,47.337 366.929,45.308 C366.617,43.278 365.993,41.386 365.055,39.629 C364.12,37.874 362.774,36.41 361.018,35.24 C359.262,34.069 356.938,33.484 354.051,33.484 Z M326.308,50.926 C326.308,46.869 326.699,43.317 327.479,40.273 C328.258,37.23 329.294,34.597 330.581,32.371 C331.869,30.147 333.351,28.294 335.03,26.812 C336.708,25.33 338.404,24.118 340.122,23.183 C344.178,20.999 348.822,19.828 354.051,19.67 C359.204,19.828 363.808,20.999 367.867,23.183 C369.583,24.118 371.279,25.33 372.958,26.812 C374.634,28.294 376.119,30.147 377.407,32.371 C378.693,34.597 379.749,37.23 380.567,40.273 C381.387,43.317 381.797,46.869 381.797,50.926 C381.797,54.985 381.387,58.536 380.567,61.578 C379.749,64.622 378.693,67.238 377.407,69.422 C376.119,71.607 374.634,73.423 372.958,74.865 C371.279,76.311 369.583,77.499 367.867,78.435 C363.808,80.543 359.204,81.635 354.051,81.714 C348.822,81.635 344.178,80.543 340.122,78.435 C338.404,77.499 336.708,76.311 335.03,74.865 C333.351,73.423 331.869,71.607 330.581,69.422 C329.294,67.238 328.258,64.622 327.479,61.578 C326.699,58.536 326.308,54.985 326.308,50.926 L326.308,50.926 Z" id="Fill-3" fill="#18265D"></path>
                <path d="M524.728,43.317 C524.337,42.069 523.85,40.819 523.264,39.57 C522.679,38.324 521.878,37.192 520.866,36.175 C519.851,35.163 518.641,34.362 517.236,33.776 C515.833,33.191 514.192,32.898 512.32,32.898 C510.447,32.898 508.808,33.191 507.403,33.776 C505.999,34.362 504.788,35.163 503.773,36.175 C502.758,37.192 501.94,38.324 501.316,39.57 C500.691,40.819 500.221,42.069 499.911,43.317 L524.728,43.317 Z M539.478,43.317 C539.632,44.487 539.771,45.698 539.888,46.946 C540.004,48.196 540.064,49.521 540.064,50.926 L540.064,53.033 L499.09,53.033 C499.247,54.361 499.443,55.707 499.676,57.072 C499.911,58.437 500.3,59.785 500.846,61.11 C501.706,63.141 503.032,64.936 504.829,66.495 C506.622,68.057 509.119,68.836 512.32,68.836 C515.518,68.836 518.016,68.057 519.812,66.495 C521.607,64.936 522.931,63.141 523.792,61.11 L539.01,61.11 C538.385,63.844 537.507,66.222 536.377,68.251 C535.245,70.281 533.995,72.037 532.629,73.519 C531.263,75.002 529.799,76.232 528.24,77.207 C526.678,78.183 525.156,78.981 523.674,79.605 C520.084,81.011 516.3,81.714 512.32,81.714 C507.09,81.635 502.447,80.543 498.39,78.435 C496.672,77.499 494.974,76.311 493.297,74.865 C491.618,73.423 490.135,71.607 488.849,69.422 C487.561,67.238 486.525,64.622 485.748,61.578 C484.965,58.536 484.577,54.985 484.577,50.926 C484.577,46.869 484.965,43.317 485.748,40.273 C486.525,37.23 487.561,34.597 488.849,32.371 C490.135,30.147 491.618,28.294 493.297,26.812 C494.974,25.33 496.672,24.118 498.39,23.183 C502.447,20.999 507.09,19.828 512.32,19.67 C516.61,19.828 520.63,20.724 524.378,22.362 C525.937,23.065 527.518,23.983 529.118,25.114 C530.716,26.246 532.201,27.651 533.566,29.329 C534.931,31.007 536.142,32.997 537.195,35.297 C538.249,37.6 539.01,40.273 539.478,43.317 L539.478,43.317 Z" id="Fill-4" fill="#18265D"></path>
                <g id="Group-2">
                    <g id="Group-7" fill="url(#linearGradient-1)">
                        <path d="M10.708,0.338 C4.951,0.338 0.284,5.005 0.284,10.763 L0.284,33.778 C0.284,36.746 2.689,39.152 5.657,39.152 L16.433,39.152 C19.847,39.152 22.615,36.384 22.615,32.969 L22.615,23.003 C22.615,19.588 25.383,16.82 28.798,16.82 L40.426,16.82 C43.841,16.82 46.609,19.588 46.609,23.003 L46.609,32.969 C46.609,36.384 49.377,39.152 52.792,39.152 L62.757,39.152 C66.172,39.152 68.94,41.92 68.94,45.334 L68.94,56.962 C68.94,60.377 66.172,63.146 62.757,63.146 L52.792,63.146 C49.377,63.146 46.609,65.914 46.609,69.328 L46.609,79.294 C46.609,82.709 43.841,85.477 40.426,85.477 L28.798,85.477 C25.383,85.477 22.615,82.709 22.615,79.294 L22.615,69.328 C22.615,65.914 19.847,63.146 16.433,63.146 L5.657,63.146 C2.689,63.146 0.284,65.551 0.284,68.519 L0.284,91.535 C0.284,97.292 4.951,101.959 10.708,101.959 L42.927,101.959 C70.989,101.959 93.737,79.21 93.737,51.149 C93.737,23.087 70.989,0.338 42.927,0.338 L10.708,0.338 Z" id="Fill-5"></path>
                    </g>
                    <path d="M35.751,41.153 C29.234,40.37 23.291,43.229 22.761,49.641 C22.22,56.183 24.845,60.901 31.363,61.684 C37.88,62.466 45.841,59.919 46.362,52.475 C46.821,45.927 42.269,41.936 35.751,41.153" id="Fill-11" fill="#D8243C"></path>
                </g>
                <path d="M244.425,62.223 C243.449,63.979 242.084,65.442 240.328,66.613 C238.572,67.783 236.25,68.369 233.363,68.369 C230.475,68.369 228.153,67.783 226.397,66.613 C224.641,65.442 223.295,63.979 222.359,62.223 C221.422,60.467 220.796,58.576 220.486,56.544 C220.174,54.517 220.018,52.644 220.018,50.926 C220.018,49.21 220.174,47.337 220.486,45.308 C220.796,43.278 221.422,41.386 222.359,39.629 C223.295,37.874 224.641,36.41 226.397,35.24 C228.153,34.069 230.475,33.484 233.363,33.484 C236.407,33.484 238.824,33.992 240.62,35.005 C242.415,36.021 243.761,37.367 244.66,39.044 C245.555,40.723 246.141,42.597 246.416,44.663 C246.688,46.732 246.826,48.82 246.826,50.926 C246.826,52.644 246.668,54.517 246.356,56.544 C246.044,58.576 245.401,60.467 244.425,62.223 Z M259.233,37.874 C258.219,34.011 256.6,30.732 254.376,28.041 C252.152,25.349 249.321,23.281 245.888,21.836 C242.454,20.393 238.279,19.67 233.363,19.67 C228.134,19.828 223.49,20.999 219.433,23.183 C217.715,24.118 216.017,25.33 214.34,26.812 C212.661,28.294 211.18,30.147 209.893,32.371 C208.605,34.597 207.568,37.23 206.791,40.273 C206.009,43.317 205.62,46.869 205.62,50.926 C205.62,54.985 205.99,58.535 206.731,61.578 C207.472,64.622 208.447,67.238 209.658,69.422 C210.867,71.607 212.233,73.423 213.755,74.865 C215.278,76.311 216.857,77.499 218.497,78.435 C222.242,80.543 226.534,81.635 231.373,81.714 C233.791,81.556 236.132,81.05 238.397,80.191 C240.347,79.413 242.336,78.163 244.367,76.446 C245.255,75.694 246.072,74.783 246.826,73.732 L246.826,80.543 L260.756,80.543 L260.756,51.043 C260.756,46.126 260.247,41.736 259.233,37.874 L259.233,37.874 Z" id="Fill-8" fill="#18265D"></path>
                <path d="M161.256,56.544 C160.942,58.576 160.299,60.467 159.323,62.223 C158.347,63.979 156.981,65.442 155.227,66.613 C153.471,67.783 151.147,68.369 148.261,68.369 C145.373,68.369 143.053,67.783 141.297,66.613 C139.541,65.442 138.193,63.979 137.257,62.223 C136.321,60.467 135.696,58.576 135.384,56.544 C135.072,54.517 134.916,52.644 134.916,50.926 C134.916,49.21 135.072,47.337 135.384,45.308 C135.696,43.278 136.321,41.386 137.257,39.629 C138.193,37.874 139.541,36.41 141.297,35.24 C143.053,34.069 145.373,33.484 148.261,33.484 C151.147,33.484 153.471,34.069 155.227,35.24 C156.981,36.41 158.347,37.874 159.323,39.629 C160.299,41.386 160.942,43.278 161.256,45.308 C161.566,47.337 161.724,49.21 161.724,50.926 C161.724,52.644 161.566,54.517 161.256,56.544 Z M161.724,1.525 L161.724,28.101 C160.97,27.041 160.153,26.117 159.265,25.349 C157.235,23.593 155.245,22.285 153.294,21.427 C151.03,20.489 148.689,19.904 146.27,19.67 C141.432,19.828 137.14,20.999 133.395,23.183 C131.756,24.118 130.175,25.33 128.652,26.812 C127.131,28.294 125.764,30.147 124.555,32.371 C123.346,34.597 122.37,37.23 121.63,40.273 C120.887,43.317 120.518,46.869 120.518,50.926 C120.518,54.985 120.906,58.535 121.688,61.578 C122.468,64.622 123.502,67.238 124.79,69.422 C126.078,71.607 127.559,73.423 129.238,74.865 C130.915,76.311 132.613,77.499 134.331,78.435 C138.388,80.543 143.032,81.635 148.261,81.714 C153.333,81.635 157.898,80.543 161.957,78.435 C163.672,77.499 165.353,76.311 166.992,74.865 C168.63,73.423 170.093,71.588 171.381,69.364 C172.668,67.138 173.702,64.504 174.483,61.462 C175.262,58.418 175.654,54.868 175.654,50.809 L175.654,1.525 L161.724,1.525 L161.724,1.525 Z" id="Fill-9" fill="#18265D"></path>
                <path d="M477.32,40.273 C476.538,37.23 475.543,34.597 474.334,32.371 C473.123,30.147 471.718,28.294 470.121,26.812 C468.519,25.33 466.901,24.118 465.262,23.183 C461.437,20.999 457.068,19.828 452.151,19.67 C447.156,19.828 442.745,20.999 438.922,23.183 C437.284,24.118 435.684,25.33 434.123,26.812 C433.715,27.199 433.32,27.614 432.933,28.051 C432.543,27.614 432.14,27.199 431.723,26.812 C430.124,25.33 428.504,24.118 426.866,23.183 C423.04,20.999 418.671,19.828 413.753,19.67 C408.759,19.828 404.35,20.999 400.526,23.183 C398.887,24.118 397.288,25.33 395.727,26.812 C394.165,28.294 392.76,30.147 391.513,32.371 C390.263,34.597 389.268,37.23 388.528,40.273 C387.786,43.317 387.416,46.869 387.416,50.926 L387.416,80.543 L401.697,80.543 L401.697,50.926 C401.697,49.21 401.794,47.455 401.989,45.658 C402.183,43.864 402.672,42.225 403.453,40.741 C404.232,39.26 405.422,38.031 407.024,37.053 C408.623,36.079 410.866,35.59 413.753,35.59 C416.64,35.59 418.885,36.079 420.485,37.053 C422.085,38.031 423.275,39.26 424.056,40.741 C424.835,42.225 425.324,43.864 425.52,45.658 C425.712,47.455 425.812,49.21 425.812,50.926 L425.812,80.543 L440.093,80.543 L440.093,50.926 C440.093,49.21 440.19,47.455 440.386,45.658 C440.581,43.864 441.068,42.225 441.849,40.741 C442.629,39.26 443.819,38.031 445.419,37.053 C447.017,36.079 449.262,35.59 452.151,35.59 C455.037,35.59 457.282,36.079 458.881,37.053 C460.48,38.031 461.671,39.26 462.452,40.741 C463.231,42.225 463.72,43.864 463.915,45.658 C464.109,47.455 464.208,49.21 464.208,50.926 L464.208,80.543 L478.49,80.543 L478.49,50.926 C478.49,46.869 478.098,43.317 477.32,40.273" id="Fill-10" fill="#18265D"></path>
            </g>
        </g>
    </g>
</svg>