<svg xmlns="http://www.w3.org/2000/svg" xmlns:xlink="http://www.w3.org/1999/xlink" width="45" height="45" viewBox="0 0 45 45"><defs><clipPath id="a"><rect width="45" height="45" transform="translate(41 130)" fill="#fff" stroke="#707070" stroke-width="1"/></clipPath></defs><g transform="translate(-41 -130)" clip-path="url(#a)"><g transform="translate(44 133)"><g transform="translate(0 0)"><path d="M38.729,16.355H32.1V4.478a.772.772,0,0,0-.771-.771H28.854V.771A.772.772,0,0,0,28.082,0H11.418a.771.771,0,0,0-.771.771V3.706H8.171a.771.771,0,0,0-.771.771V16.355H.771A.771.771,0,0,0,0,17.127v21.6a.771.771,0,0,0,.771.771H38.729a.772.772,0,0,0,.771-.771v-21.6A.772.772,0,0,0,38.729,16.355ZM1.543,17.9H7.4V37.957H1.543Zm7.4-12.649h7.336a.771.771,0,0,0,0-1.543H12.189V1.543H27.311V3.706H23.222a.771.771,0,0,0,0,1.543h7.336V37.957H27.773V27.619A.772.772,0,0,0,27,26.848H12.5a.771.771,0,0,0-.771.771V37.957H8.943ZM13.27,28.391h5.709v9.566H13.27Zm7.252,9.566V28.391H26.23v9.566Zm17.436,0H32.1V17.9h5.857Z" transform="translate(0 0)" fill="#fff" stroke="#fff" stroke-width="0.7"/><path d="M195.12,106.569h2.24v2.24a1.12,1.12,0,0,0,1.12,1.12h4.928a1.12,1.12,0,0,0,1.12-1.12v-2.24h2.24a1.12,1.12,0,0,0,1.12-1.12v-4.928a1.12,1.12,0,0,0-1.12-1.12h-2.24v-2.24a1.12,1.12,0,0,0-1.12-1.12H198.48a1.12,1.12,0,0,0-1.12,1.12V99.4h-2.24a1.12,1.12,0,0,0-1.12,1.12v4.928A1.12,1.12,0,0,0,195.12,106.569Zm1.12-4.928h2.24a1.12,1.12,0,0,0,1.12-1.12v-2.24h2.688v2.24a1.12,1.12,0,0,0,1.12,1.12h2.24v2.688h-2.24a1.12,1.12,0,0,0-1.12,1.12v2.24H199.6v-2.24a1.12,1.12,0,0,0-1.12-1.12h-2.24Z" transform="translate(-181.193 -86.793)" fill="#fff" stroke="#fff" stroke-width="0.7"/><path d="M246.771,49.583a.772.772,0,1,0-.545-.226A.777.777,0,0,0,246.771,49.583Z" transform="translate(-227.021 -44.334)" fill="#fff" stroke="#fff" stroke-width="0.7"/></g></g></g></svg>