<svg xmlns="http://www.w3.org/2000/svg" width="580.001" height="109.192" viewBox="0 0 580.001 109.192"><defs><style>.a{fill:#fff;}.b{fill:#ec1d3c;}</style></defs><g transform="translate(0 47.784)"><path class="a" d="M102.158,37.68H86.811V-26.1h15.347ZM86.811-40.308q0-2.763.064-4.15a2.794,2.794,0,0,1,.752-2.013,3.586,3.586,0,0,1,2.269-.69q1.57-.062,4.589-.064t4.591.064a3.564,3.564,0,0,1,2.262.69,2.786,2.786,0,0,1,.756,2.013q.062,1.385.064,4.15t-.064,4.152a2.774,2.774,0,0,1-.756,2.013,3.523,3.523,0,0,1-2.262.692q-1.573.065-4.591.062T89.9-33.451a3.545,3.545,0,0,1-2.269-.692,2.782,2.782,0,0,1-.752-2.013q-.062-1.381-.064-4.152" transform="translate(111.562 0.718)"/><path class="a" d="M142.008-47.225v28.553q1.135-1.255,2.642-2.639a18.774,18.774,0,0,1,3.521-2.516,19.653,19.653,0,0,1,4.655-1.826,24.016,24.016,0,0,1,6.04-.69,23.429,23.429,0,0,1,7.735,1.382,21.439,21.439,0,0,1,7.168,4.214,22.541,22.541,0,0,1,5.283,7.045,22.111,22.111,0,0,1,2.075,9.872V37.68H165.782V2.965a38.785,38.785,0,0,0-.377-5.6,12.48,12.48,0,0,0-1.572-4.591,8.1,8.1,0,0,0-3.521-3.147,14.4,14.4,0,0,0-6.227-1.131,15.167,15.167,0,0,0-6.414,1.131,8.848,8.848,0,0,0-3.711,3.147,11.255,11.255,0,0,0-1.7,4.591,38.781,38.781,0,0,0-.377,5.6l.254,34.715H126.663V-47.225Z" transform="translate(162.777 0.718)"/><path class="a" d="M183.116-23.851a13.261,13.261,0,0,0-7.481,1.888,12.929,12.929,0,0,0-4.342,4.716,19.03,19.03,0,0,0-2.013,6.1,39.891,39.891,0,0,0-.5,6.037,39.8,39.8,0,0,0,.5,6.037,19.03,19.03,0,0,0,2.013,6.1,12.947,12.947,0,0,0,4.342,4.716,13.261,13.261,0,0,0,7.481,1.885,13.274,13.274,0,0,0,7.484-1.885,12.92,12.92,0,0,0,4.339-4.716,19.035,19.035,0,0,0,2.015-6.1,40.073,40.073,0,0,0,.5-6.037,40.168,40.168,0,0,0-.5-6.037,19.035,19.035,0,0,0-2.015-6.1,12.9,12.9,0,0,0-4.339-4.716,13.274,13.274,0,0,0-7.484-1.888M153.3-5.109a46.409,46.409,0,0,1,1.259-11.448,33.428,33.428,0,0,1,3.334-8.489,23.772,23.772,0,0,1,4.78-5.973,30.131,30.131,0,0,1,5.468-3.9,33.284,33.284,0,0,1,14.97-3.773A33.026,33.026,0,0,1,197.96-34.92a30.142,30.142,0,0,1,5.471,3.9,23.771,23.771,0,0,1,4.78,5.973,35.21,35.21,0,0,1,3.4,8.489A44.234,44.234,0,0,1,212.93-5.109a44.2,44.2,0,0,1-1.323,11.446,33.966,33.966,0,0,1-3.4,8.428,23.043,23.043,0,0,1-4.78,5.85,31.529,31.529,0,0,1-5.471,3.834,32.812,32.812,0,0,1-14.844,3.524,33.088,33.088,0,0,1-14.97-3.524,31.517,31.517,0,0,1-5.468-3.834,23.045,23.045,0,0,1-4.78-5.85,32.292,32.292,0,0,1-3.334-8.428A46.377,46.377,0,0,1,153.3-5.109" transform="translate(197.013 11.683)"/><path class="a" d="M270.869-13.285a32.192,32.192,0,0,0-1.572-4.026,12.989,12.989,0,0,0-2.578-3.647,11.973,11.973,0,0,0-3.9-2.578,13.639,13.639,0,0,0-5.283-.944,13.623,13.623,0,0,0-5.283.944,11.994,11.994,0,0,0-3.9,2.578,14.117,14.117,0,0,0-2.639,3.647,19.649,19.649,0,0,0-1.51,4.026Zm15.85,0q.25,1.889.441,3.9t.187,4.278v2.262H243.32q.257,2.142.631,4.342a20.415,20.415,0,0,0,1.259,4.337,15.7,15.7,0,0,0,4.278,5.786q2.886,2.519,8.05,2.518t8.048-2.518a15.775,15.775,0,0,0,4.278-5.786h16.352a29.031,29.031,0,0,1-2.829,7.676,29.767,29.767,0,0,1-4.026,5.66,23.093,23.093,0,0,1-4.719,3.962,34.393,34.393,0,0,1-4.9,2.575,33.125,33.125,0,0,1-12.2,2.267,33.081,33.081,0,0,1-14.97-3.524,31.443,31.443,0,0,1-5.471-3.834,22.947,22.947,0,0,1-4.78-5.85,32.289,32.289,0,0,1-3.334-8.428,46.381,46.381,0,0,1-1.257-11.446,46.414,46.414,0,0,1,1.257-11.448,33.424,33.424,0,0,1,3.334-8.489,23.67,23.67,0,0,1,4.78-5.973,30.063,30.063,0,0,1,5.471-3.9,33.276,33.276,0,0,1,14.97-3.773A35.281,35.281,0,0,1,270.492-35.8a31.162,31.162,0,0,1,5.094,2.957,24.345,24.345,0,0,1,4.778,4.529,29.625,29.625,0,0,1,3.9,6.414,32.594,32.594,0,0,1,2.454,8.617" transform="translate(292.654 11.683)"/><path class="a" d="M138.251,7.029a13.494,13.494,0,0,1-4.4,4.716,13.271,13.271,0,0,1-7.481,1.888,13.29,13.29,0,0,1-7.488-1.888,12.935,12.935,0,0,1-4.337-4.716,19.013,19.013,0,0,1-2.013-6.1,40.093,40.093,0,0,1-.5-6.037,40.189,40.189,0,0,1,.5-6.037,19.05,19.05,0,0,1,2.013-6.1,12.953,12.953,0,0,1,4.337-4.716,13.309,13.309,0,0,1,7.488-1.887,15.89,15.89,0,0,1,7.8,1.636,10.808,10.808,0,0,1,4.339,4.342,17.683,17.683,0,0,1,1.89,6.035,52.358,52.358,0,0,1,.439,6.73,39.816,39.816,0,0,1-.505,6.037,18.057,18.057,0,0,1-2.075,6.1m15.911-26.162A27.138,27.138,0,0,0,148.943-29.7a23.308,23.308,0,0,0-9.12-6.666,34.7,34.7,0,0,0-13.457-2.329,33.247,33.247,0,0,0-14.97,3.775,29.766,29.766,0,0,0-5.471,3.9,23.617,23.617,0,0,0-4.78,5.971,33.36,33.36,0,0,0-3.332,8.491A46.267,46.267,0,0,0,96.554-5.109,48.774,48.774,0,0,0,97.747,6.337a34.071,34.071,0,0,0,3.144,8.43,24.028,24.028,0,0,0,4.4,5.848,26.369,26.369,0,0,0,5.1,3.834,28.674,28.674,0,0,0,13.834,3.524,25.872,25.872,0,0,0,7.548-1.636,23.688,23.688,0,0,0,6.417-4.024A16.024,16.024,0,0,0,140.83,19.4v7.319H155.8v-31.7a55.939,55.939,0,0,0-1.638-14.149" transform="translate(124.083 11.682)"/><path class="a" d="M100.31,11.893a18.107,18.107,0,0,1-2.075,6.1,13.537,13.537,0,0,1-4.4,4.716A13.274,13.274,0,0,1,86.348,24.6a13.269,13.269,0,0,1-7.484-1.888,12.9,12.9,0,0,1-4.339-4.716,18.9,18.9,0,0,1-2.013-6.1,39.814,39.814,0,0,1-.505-6.037,39.909,39.909,0,0,1,.505-6.037,18.938,18.938,0,0,1,2.013-6.1A12.92,12.92,0,0,1,78.864-11a13.287,13.287,0,0,1,7.484-1.888A13.293,13.293,0,0,1,93.832-11a13.556,13.556,0,0,1,4.4,4.716,18.142,18.142,0,0,1,2.075,6.1,40.207,40.207,0,0,1,.505,6.037,40.111,40.111,0,0,1-.505,6.037m.505-59.118V-18.67a16.734,16.734,0,0,0-2.644-2.957,25.944,25.944,0,0,0-6.414-4.214,26.242,26.242,0,0,0-7.548-1.888,28.9,28.9,0,0,0-13.836,3.773,25.441,25.441,0,0,0-5.094,3.9,24.762,24.762,0,0,0-4.4,5.971A35.162,35.162,0,0,0,57.732-5.59a48.793,48.793,0,0,0-1.2,11.446A46.242,46.242,0,0,0,57.8,17.3a32.422,32.422,0,0,0,3.334,8.43,23.018,23.018,0,0,0,4.776,5.848,31.347,31.347,0,0,0,5.475,3.834,33.071,33.071,0,0,0,14.968,3.524,32.559,32.559,0,0,0,14.716-3.524,29.484,29.484,0,0,0,5.409-3.834,23.391,23.391,0,0,0,4.719-5.912,33.8,33.8,0,0,0,3.334-8.489A46.622,46.622,0,0,0,115.783,5.73V-47.225Z" transform="translate(72.656 0.718)"/><path class="a" d="M278.64-16.555a37.161,37.161,0,0,0-3.206-8.491,23.189,23.189,0,0,0-4.529-5.971,28.641,28.641,0,0,0-5.219-3.9,29.914,29.914,0,0,0-14.09-3.775,30.134,30.134,0,0,0-14.213,3.775,27.044,27.044,0,0,0-5.157,3.9c-.436.416-.862.861-1.277,1.33-.42-.468-.852-.914-1.3-1.33a28.666,28.666,0,0,0-5.224-3.9,29.9,29.9,0,0,0-14.088-3.775,30.132,30.132,0,0,0-14.211,3.775,26.832,26.832,0,0,0-5.157,3.9,25.012,25.012,0,0,0-4.529,5.971,33.433,33.433,0,0,0-3.206,8.491,48.585,48.585,0,0,0-1.2,11.448V26.718h15.342V-5.107a52.888,52.888,0,0,1,.315-5.663,14.6,14.6,0,0,1,1.574-5.283,10.184,10.184,0,0,1,3.837-3.962,13.923,13.923,0,0,1,7.23-1.572,13.937,13.937,0,0,1,7.232,1.572,10.255,10.255,0,0,1,3.839,3.962,14.737,14.737,0,0,1,1.572,5.283,53.477,53.477,0,0,1,.313,5.663V26.718h15.347V-5.107a51.731,51.731,0,0,1,.315-5.663,14.6,14.6,0,0,1,1.57-5.283,10.232,10.232,0,0,1,3.837-3.962,13.943,13.943,0,0,1,7.232-1.572,13.958,13.958,0,0,1,7.235,1.572,10.226,10.226,0,0,1,3.834,3.962,14.647,14.647,0,0,1,1.572,5.283,52.3,52.3,0,0,1,.315,5.663V26.718H279.9V-5.107a46.521,46.521,0,0,0-1.259-11.448" transform="translate(233.941 11.682)"/><path class="a" d="M45.821-47.784H11.2A11.2,11.2,0,0,0,0-36.582v24.732A5.773,5.773,0,0,0,5.774-6.078H17.353A6.643,6.643,0,0,0,24-12.721V-23.429a6.643,6.643,0,0,1,6.643-6.643h12.5a6.641,6.641,0,0,1,6.643,6.643v10.708a6.643,6.643,0,0,0,6.645,6.643H67.128A6.643,6.643,0,0,1,73.773.564v12.5A6.642,6.642,0,0,1,67.128,19.7H56.422a6.645,6.645,0,0,0-6.645,6.645V37.056A6.643,6.643,0,0,1,43.134,43.7h-12.5A6.644,6.644,0,0,1,24,37.056V26.347A6.645,6.645,0,0,0,17.353,19.7H5.774A5.775,5.775,0,0,0,0,25.479v24.73a11.2,11.2,0,0,0,11.2,11.2h34.62a54.6,54.6,0,1,0,0-109.192" transform="translate(0 0)"/><path class="b" d="M24.569-28.515c-7-.841-13.388,2.233-13.957,9.12-.58,7.029,2.239,12.1,9.243,12.941s15.555-1.9,16.115-9.895c.494-7.036-4.4-11.325-11.4-12.166" transform="translate(13.542 24.588)"/></g></svg>